<?xml version="1.0" encoding="utf-8"?>
<!-- Generator: Adobe Illustrator 25.0.1, SVG Export Plug-In . SVG Version: 6.00 Build 0)  -->
<svg version="1.1" id="Layer_1" xmlns="http://www.w3.org/2000/svg" xmlns:xlink="http://www.w3.org/1999/xlink" x="0px" y="0px"
	 viewBox="0 0 200 200" style="enable-background:new 0 0 200 200;" xml:space="preserve">
<style type="text/css">
	.st0{fill:#F7B0B7;}
	.st1{fill:#FCE5E8;}
	.st2{fill:none;stroke:#28282A;stroke-width:2.6289;stroke-linecap:round;stroke-linejoin:round;stroke-miterlimit:10;}
	.st3{fill:#D2E0F2;}
</style>
<g>
	<g>
		<polygon class="st0" points="66.1,85.6 41.3,85.6 41.3,71.4 66.1,71.4 71.1,78.5 		"/>
		<path class="st1" d="M100.3,148.5H68.2c-2.5-3.1-4.1-10.3-3.7-19.2C65.1,129.3,85.2,132.9,100.3,148.5z"/>
		<path class="st1" d="M133.9,114.9H66.7c0.8-3,1.8-6.1,3.1-9.2c2.9-6.8,5.9-13.8,7.2-21.2c2.1-11.7-0.4-24.2-6.7-33.8h60
			c-6.3,9.6-8.8,22.2-6.7,33.8c1.3,7.4,4.3,14.3,7.2,21.2C132.1,108.8,133.1,111.9,133.9,114.9z"/>
		<path class="st1" d="M132.4,148.5h-32.1c15.3-15.9,35.8-19.2,35.8-19.2C136.5,138.1,134.9,145.3,132.4,148.5z"/>
		<polygon class="st0" points="159.3,71.4 159.3,85.6 134.6,85.6 129.5,78.5 134.5,71.4 		"/>
		<g>
			<path class="st2" d="M66.7,114.9c0.8-3,1.8-6.1,3.1-9.2c2.9-6.8,5.9-13.8,7.2-21.2c2.1-11.7-0.4-24.2-6.7-33.8"/>
			<path class="st2" d="M68.2,148.5c-2.5-3.1-4.1-10.3-3.7-19.2"/>
			<path class="st3" d="M136.1,129.2c0,0-20.5,3.4-35.8,19.2c-15.1-15.6-35.2-19.1-35.8-19.2c0.2-4.5,0.9-9.3,2.2-14.3h67.2
				C135.3,119.9,136,124.8,136.1,129.2z"/>
			<path class="st2" d="M132.4,148.5c2.5-3.1,4.1-10.3,3.7-19.2"/>
			<path class="st2" d="M130.3,50.7c-6.3,9.6-8.8,22.2-6.7,33.8c1.3,7.4,4.3,14.3,7.2,21.2c1.3,3,2.3,6.1,3.1,9.2"/>
			<line class="st2" x1="66.7" y1="114.9" x2="66.7" y2="114.9"/>
			<path class="st2" d="M64.5,129.2C64.5,129.2,64.5,129.2,64.5,129.2"/>
			<g>
				<polyline class="st2" points="138.1,66.4 134.5,71.4 129.5,78.5 134.6,85.6 138.1,90.6 				"/>
				<polyline class="st2" points="134.6,85.6 159.3,85.6 159.3,71.4 134.5,71.4 				"/>
			</g>
			<g>
				<polyline class="st2" points="62.6,66.4 66.1,71.4 71.1,78.5 66.1,85.6 62.6,90.6 				"/>
				<polyline class="st2" points="66.1,85.6 41.3,85.6 41.3,71.4 66.1,71.4 				"/>
			</g>
		</g>
		<path class="st2" d="M136.1,129.2c0,0-20.5,3.4-35.8,19.2c-15.1-15.6-35.2-19.1-35.8-19.2c0.2-4.5,0.9-9.3,2.2-14.3h67.2
			C135.3,119.9,136,124.8,136.1,129.2z"/>
	</g>
</g>
<line class="st2" x1="100" y1="102.7" x2="100" y2="100.3"/>
</svg>
