<?xml version="1.0" standalone="no"?>
<!DOCTYPE svg PUBLIC "-//W3C//DTD SVG 1.1//EN" "http://www.w3.org/Graphics/SVG/1.1/DTD/svg11.dtd" >
<svg xmlns="http://www.w3.org/2000/svg" xmlns:xlink="http://www.w3.org/1999/xlink" version="1.1">
<metadata>
Created by FontForge 20170731 at Fri Nov 27 17:03:30 2020
 By Aleksey,,,
Copyright (c) 2016 by S-Core Co., Ltd.. All rights reserved.
</metadata>
<defs>
<font id="CoreSansC-65Bold" horiz-adv-x="825" >
  <font-face 
    font-family="Core Sans C 65 Bold"
    font-weight="600"
    font-stretch="normal"
    units-per-em="2048"
    panose-1="2 11 6 3 3 3 2 2 2 4"
    ascent="1638"
    descent="-410"
    x-height="1061"
    cap-height="1434"
    bbox="-835 -532 2571 1997"
    underline-thickness="49"
    underline-position="-472"
    unicode-range="U+0009-FB04"
  />
<missing-glyph horiz-adv-x="1024" 
d="M911 0h-798v1536h798v-1536zM343 219h338v1097h-338v-1097z" />
    <glyph glyph-name="ff" unicode="ff" horiz-adv-x="1508" 
d="M1464 1485v-224q-47 5 -95 5q-86 0 -124 -36t-38 -112v-57h257v-245h-257v-816h-281v816h-442v-816h-281v816h-159v245h159v60q0 188 106 281t321 93q85 0 157 -15l-27 -227q-72 13 -115 13q-85 0 -123 -36t-38 -112v-57h442v60q0 374 416 374q56 0 122 -10z" />
    <glyph glyph-name="fi" unicode="fi" horiz-adv-x="1349" 
d="M203 1061v60q0 374 419 374q62 0 130 -10v-224q-52 5 -103 5q-88 0 -126.5 -36t-38.5 -112v-57h723v-1061h-281v816h-442v-816h-281v816h-159v245h159zM900 1343q0 69 48 116t119 47t119 -47t48 -116t-48 -115.5t-119 -46.5t-119 46.5t-48 115.5z" />
    <glyph glyph-name="fl" unicode="fl" horiz-adv-x="1338" 
d="M741 1485v-224q-47 5 -95 5q-86 0 -124 -36t-38 -112v-57h257v-245h-257v-816h-281v816h-159v245h159v60q0 374 417 374q55 0 121 -10zM915 0v1495h282v-1495h-282z" />
    <glyph glyph-name="ffi" unicode="ffi" horiz-adv-x="2072" 
d="M203 1061v60q0 188 106 281t321 93q85 0 157 -15l-27 -227q-72 13 -115 13q-85 0 -123 -36t-38 -112v-57h442v60q0 374 419 374q62 0 130 -10v-224q-52 5 -103 5q-88 0 -126.5 -36t-38.5 -112v-57h723v-1061h-281v816h-442v-816h-281v816h-442v-816h-281v816h-159v245
h159zM1623 1343q0 69 48 116t119 47t119 -47t48 -116t-48 -115.5t-119 -46.5t-119 46.5t-48 115.5z" />
    <glyph glyph-name="ffl" unicode="ffl" horiz-adv-x="2061" 
d="M1464 1485v-224q-47 5 -95 5q-86 0 -124 -36t-38 -112v-57h257v-245h-257v-816h-281v816h-442v-816h-281v816h-159v245h159v60q0 188 106 281t321 93q85 0 157 -15l-27 -227q-72 13 -115 13q-85 0 -123 -36t-38 -112v-57h442v60q0 374 416 374q56 0 122 -10zM1638 0v1495
h282v-1495h-282z" />
    <glyph glyph-name=".notdef" horiz-adv-x="1024" 
d="M911 0h-798v1536h798v-1536zM343 219h338v1097h-338v-1097z" />
    <glyph glyph-name=".null" horiz-adv-x="0" 
 />
    <glyph glyph-name=".null" horiz-adv-x="0" 
 />
    <glyph glyph-name="nonmarkingreturn" horiz-adv-x="682" 
 />
    <glyph glyph-name="CR" unicode="&#x9;" horiz-adv-x="0" 
 />
    <glyph glyph-name="space" unicode=" " horiz-adv-x="617" 
 />
    <glyph glyph-name="exclam" unicode="!" horiz-adv-x="641" 
d="M175 429v1005h291v-1005h-291zM143 145q0 72 51.5 121t126.5 49t126 -49t51 -121t-51 -121t-126 -49t-126.5 49t-51.5 121z" />
    <glyph glyph-name="quotedbl" unicode="&#x22;" horiz-adv-x="1010" 
d="M174 854v580h279v-580h-279zM558 854v580h279v-580h-279z" />
    <glyph glyph-name="numbersign" unicode="#" horiz-adv-x="1420" 
d="M68 553h220l55 319h-200v226h238l58 336h269l-59 -336h252l58 336h269l-59 -336h184v-226h-221l-56 -319h201v-225h-239l-56 -328h-268l56 328h-252l-56 -328h-268l56 328h-182v225zM611 872l-55 -319h252l55 319h-252z" />
    <glyph glyph-name="dollar" unicode="$" horiz-adv-x="1222" 
d="M93 206l166 194q129 -137 279 -170v398q-203 49 -308.5 154.5t-105.5 261.5q0 167 114.5 279.5t299.5 131.5v187h180v-193q209 -32 356 -173l-156 -203q-105 91 -200 123v-348q222 -56 326 -165t104 -275q0 -170 -115 -286t-315 -140v-191h-180v190q-132 14 -248 72.5
t-197 152.5zM856 399q0 116 -138 176v-338q64 20 101 62t37 100zM416 1066q0 -105 122 -162v299q-56 -15 -89 -51.5t-33 -85.5z" />
    <glyph glyph-name="percent" unicode="%" horiz-adv-x="1881" 
d="M444 0l740 1434h253l-739 -1434h-254zM334 1080q0 -61 39 -104t101 -43t101 43t39 104t-39.5 104.5t-100.5 43.5t-100.5 -43.5t-39.5 -104.5zM86 1080q0 155 111.5 261.5t276.5 106.5t276.5 -106.5t111.5 -261.5t-111 -261t-277 -106t-277 106t-111 261zM1267 353
q0 -61 39 -104t101 -43t101 43t39 104t-39.5 104.5t-100.5 43.5t-100.5 -43.5t-39.5 -104.5zM1019 353q0 155 111.5 261.5t276.5 106.5t276.5 -106.5t111.5 -261.5t-111 -261t-277 -106t-277 106t-111 261z" />
    <glyph glyph-name="ampersand" unicode="&#x26;" horiz-adv-x="1522" 
d="M1051 1198l-248 -100q-45 137 -167 137q-61 0 -102.5 -39t-41.5 -93t41.5 -118t145.5 -161l334 -314q45 99 61 246l264 -38q-20 -227 -126 -401l336 -317h-366l-136 127q-186 -152 -428 -152q-220 0 -364.5 117t-144.5 292q0 126 60.5 224.5t187.5 181.5q-78 87 -108 158
t-30 153q0 101 56.5 183t151.5 128t208 46q153 0 262 -69.5t154 -190.5zM618 208q137 0 246 93l-338 320q-140 -97 -140 -219q0 -84 64.5 -139t167.5 -55z" />
    <glyph glyph-name="quotesingle" unicode="'" horiz-adv-x="636" 
d="M176 854v580h285v-580h-285z" />
    <glyph glyph-name="parenleft" unicode="(" horiz-adv-x="875" 
d="M221 624q0 273 101 522.5t284 432.5l197 -140q-141 -166 -216 -377.5t-75 -437.5t75 -437.5t216 -377.5l-197 -141q-183 183 -284 433t-101 523z" />
    <glyph glyph-name="parenright" unicode=")" horiz-adv-x="875" 
d="M654 624q0 -273 -101 -523t-284 -433l-196 141q141 166 216 377.5t75 437.5t-75 437.5t-216 377.5l196 140q183 -183 284 -432.5t101 -522.5z" />
    <glyph glyph-name="asterisk" unicode="*" horiz-adv-x="1153" 
d="M120 807l117 206l232 -147l-11 274h237l-11 -274l232 147l117 -206l-245 -128l245 -128l-117 -206l-232 147l11 -274h-237l11 274l-232 -147l-117 206l245 128z" />
    <glyph glyph-name="plus" unicode="+" horiz-adv-x="1193" 
d="M458 210v347h-337v245h337v347h278v-347h337v-245h-337v-347h-278z" />
    <glyph glyph-name="comma" unicode="," horiz-adv-x="617" 
d="M135 145q0 72 49.5 121t123.5 49q75 0 124.5 -49t49.5 -121q0 -37 -18 -78l-151 -323h-180l111 243q-50 19 -79.5 61t-29.5 97z" />
    <glyph glyph-name="hyphen" unicode="-" horiz-adv-x="847" 
d="M727 550h-606v260h606v-260z" />
    <glyph glyph-name="period" unicode="." horiz-adv-x="617" 
d="M135 145q0 72 49.5 121t123.5 49q75 0 124.5 -49t49.5 -121t-49.5 -121t-124.5 -49q-74 0 -123.5 49t-49.5 121z" />
    <glyph glyph-name="slash" unicode="/" horiz-adv-x="979" 
d="M985 1536l-700 -1823h-290l700 1823h290z" />
    <glyph glyph-name="zero" unicode="0" horiz-adv-x="1234" 
d="M114 717q0 160 32 294t93 234t158 156.5t220 56.5q163 0 278.5 -98.5t170.5 -263t55 -379.5t-55 -380t-170.5 -263.5t-278.5 -98.5t-278.5 98.5t-170 263.5t-54.5 380zM396 717q0 -228 54.5 -355.5t166.5 -127.5q76 0 126 61t73 167t23 255t-23 254.5t-73 166t-126 60.5
q-112 0 -166.5 -127t-54.5 -354z" />
    <glyph glyph-name="one" unicode="1" horiz-adv-x="1234" 
d="M573 1434h257v-1434h-287v1157l-233 -125l-112 201z" />
    <glyph glyph-name="two" unicode="2" horiz-adv-x="1234" 
d="M889 609l-332 -361h517v-248h-887v232l479 522q74 80 105.5 141t31.5 127q0 82 -53 134t-136 52q-145 0 -214 -173l-243 92q43 150 163.5 240.5t296.5 90.5q205 0 338.5 -115.5t133.5 -303.5q0 -119 -47.5 -218t-152.5 -212z" />
    <glyph glyph-name="three" unicode="3" horiz-adv-x="1234" 
d="M552 222q104 0 174 70t70 169t-70 168t-174 69q-34 0 -69 -11l-110 139l307 360h-501v248h836v-246l-282 -316q163 -33 257 -154t94 -288q0 -87 -37.5 -168.5t-103.5 -145.5t-165 -102.5t-214 -38.5q-149 0 -270.5 63.5t-196.5 179.5l184 166q113 -162 271 -162z" />
    <glyph glyph-name="four" unicode="4" horiz-adv-x="1234" 
d="M75 260v246l619 928h276v-921h153v-253h-153v-260h-283v260h-612zM352 511h335v502z" />
    <glyph glyph-name="five" unicode="5" horiz-adv-x="1234" 
d="M584 -25q-151 0 -273.5 61t-199.5 177l192 169q110 -159 264 -159q105 0 175.5 68.5t70.5 169.5t-70 169.5t-175 68.5q-56 0 -103.5 -22.5t-74.5 -59.5l-206 27l90 790h774v-248h-516l-34 -293q62 31 143 31q124 0 228.5 -56.5t168 -163.5t63.5 -243q0 -214 -141.5 -350
t-375.5 -136z" />
    <glyph glyph-name="six" unicode="6" horiz-adv-x="1234" 
d="M940 1434l-331 -510q7 1 21 1q97 0 186.5 -30.5t161.5 -87t115.5 -147t43.5 -200.5q0 -137 -72.5 -249.5t-190.5 -174t-254 -61.5q-140 0 -259.5 61.5t-192 173.5t-72.5 250q0 140 72 253l468 721h304zM855 461q0 103 -69.5 172.5t-169.5 69.5t-169 -69.5t-69 -172.5
q0 -102 69.5 -172t168.5 -70q100 0 169.5 70t69.5 172z" />
    <glyph glyph-name="seven" unicode="7" horiz-adv-x="1234" 
d="M166 1434h913v-231l-496 -1203h-313l495 1183h-599v251z" />
    <glyph glyph-name="eight" unicode="8" horiz-adv-x="1234" 
d="M387 437q0 -93 66.5 -158t163.5 -65t164 65t67 158q0 94 -67 159.5t-164 65.5t-163.5 -65.5t-66.5 -159.5zM1059 1065q0 -88 -47.5 -165.5t-121.5 -115.5q111 -43 174 -139t63 -216q0 -193 -147 -323.5t-363 -130.5t-362.5 130.5t-146.5 323.5q0 120 63 216t174 139
q-74 38 -121.5 115.5t-47.5 165.5q0 165 125 279t316 114t316.5 -114t125.5 -279zM444 1057q0 -67 50.5 -117t122.5 -50t123 50t51 117q0 68 -50.5 116.5t-123.5 48.5t-123 -48.5t-50 -116.5z" />
    <glyph glyph-name="nine" unicode="9" horiz-adv-x="1234" 
d="M295 0l331 510q-7 -1 -21 -1q-97 0 -186.5 30.5t-161.5 87t-115.5 147t-43.5 200.5q0 137 72.5 249.5t190.5 173.5t254 61q140 0 259.5 -61t192 -173t72.5 -250q0 -140 -72 -253l-468 -721h-304zM380 973q0 -103 69 -173t169 -70t169.5 70t69.5 173q0 102 -69.5 171.5
t-169.5 69.5t-169 -69.5t-69 -171.5z" />
    <glyph glyph-name="colon" unicode=":" horiz-adv-x="617" 
d="M135 145q0 72 49.5 121t123.5 49q75 0 124.5 -49t49.5 -121t-49.5 -121t-124.5 -49q-74 0 -123.5 49t-49.5 121zM135 915q0 72 49.5 121t123.5 49q75 0 124.5 -49t49.5 -121t-49.5 -121t-124.5 -49q-74 0 -123.5 49t-49.5 121z" />
    <glyph glyph-name="semicolon" unicode=";" horiz-adv-x="617" 
d="M135 915q0 72 49.5 121t123.5 49q75 0 124.5 -49t49.5 -121t-49.5 -121t-124.5 -49q-74 0 -123.5 49t-49.5 121zM135 145q0 72 49.5 121t123.5 49q75 0 124.5 -49t49.5 -121q0 -37 -18 -78l-151 -323h-180l111 243q-50 19 -79.5 61t-29.5 97z" />
    <glyph glyph-name="less" unicode="&#x3c;" horiz-adv-x="1193" 
d="M123 586v186l916 503v-308l-561 -288l561 -288v-308z" />
    <glyph glyph-name="equal" unicode="=" horiz-adv-x="1193" 
d="M1073 792h-952v242h952v-242zM1073 325h-952v242h952v-242z" />
    <glyph glyph-name="greater" unicode="&#x3e;" horiz-adv-x="1193" 
d="M1071 772v-186l-916 -503v308l561 288l-561 288v308z" />
    <glyph glyph-name="question" unicode="?" horiz-adv-x="1135" 
d="M351 429v371q178 0 277 64.5t99 166.5q0 75 -67 124t-174 49q-137 0 -275 -115l-139 210q195 159 443 159q111 0 207 -35t160.5 -93.5t101.5 -136t37 -161.5q0 -146 -102 -260t-277 -152v-191h-291zM319 145q0 72 51.5 121t126.5 49t126 -49t51 -121t-51 -121t-126 -49
t-126.5 49t-51.5 121z" />
    <glyph glyph-name="at" unicode="@" horiz-adv-x="1988" 
d="M987 317q65 0 117 34.5t80 91.5v215q-28 56 -80 90.5t-117 34.5q-94 0 -157.5 -66.5t-63.5 -165.5q0 -100 63.5 -167t157.5 -67zM1482 110q-78 0 -151.5 36.5t-113.5 95.5q-51 -63 -123.5 -97.5t-154.5 -34.5q-176 0 -294 128.5t-118 312.5q0 183 117.5 312t290.5 129
q143 0 249 -106v86h235v-607q12 -24 38.5 -39t54.5 -15q81 0 137.5 77.5t56.5 215.5q0 182 -97.5 336t-262.5 243t-356 89q-144 0 -274.5 -55.5t-225.5 -150t-151 -226t-56 -277.5q0 -147 56 -278t152.5 -225.5t233.5 -149.5t292 -55q267 0 486 152l84 -171
q-271 -168 -570 -168q-266 0 -482.5 116.5t-339.5 321.5t-123 457q0 188 72.5 355t196 285t292.5 186.5t357 68.5q157 0 300 -42.5t256 -120.5t197 -183.5t129 -236.5t45 -273q0 -223 -121 -357.5t-314 -134.5z" />
    <glyph glyph-name="A" unicode="A" horiz-adv-x="1415" 
d="M547 1434h321l513 -1434h-308l-106 323h-518l-107 -323h-308zM892 560l-184 563l-185 -563h369z" />
    <glyph glyph-name="B" unicode="B" horiz-adv-x="1282" 
d="M767 0h-610v1434h539q198 0 311 -104.5t113 -283.5q0 -103 -47 -176.5t-126 -108.5q109 -30 179.5 -121.5t70.5 -221.5q0 -186 -118 -302t-312 -116zM838 1023q0 82 -45 126t-119 44h-232v-339h232q74 0 119 44t45 125zM906 431q0 88 -48.5 140t-125.5 52h-290v-382h290
q77 0 125.5 52t48.5 138z" />
    <glyph glyph-name="C" unicode="C" horiz-adv-x="1423" 
d="M848 -25q-160 0 -303 57.5t-245 156.5t-161.5 236.5t-59.5 291.5q0 206 101 376t277.5 267.5t390.5 97.5q276 0 491 -166l-146 -216q-85 62 -166.5 95t-178.5 33q-200 0 -337.5 -140.5t-137.5 -346.5q0 -136 63 -248t172 -176t240 -64q96 0 188 38t167 101l154 -214
q-215 -179 -509 -179z" />
    <glyph glyph-name="D" unicode="D" horiz-adv-x="1473" 
d="M157 1434h519q328 0 523.5 -194.5t195.5 -522.5t-195.5 -522.5t-523.5 -194.5h-519v1434zM666 1180h-219v-926h219q200 0 317.5 117.5t117.5 345.5t-117.5 345.5t-317.5 117.5z" />
    <glyph glyph-name="E" unicode="E" horiz-adv-x="1173" 
d="M157 0v1434h893v-248h-603v-342h553v-246h-553v-350h621v-248h-911z" />
    <glyph glyph-name="F" unicode="F" horiz-adv-x="1103" 
d="M157 0v1434h872v-250h-582v-354h533v-249h-533v-581h-290z" />
    <glyph glyph-name="G" unicode="G" horiz-adv-x="1492" 
d="M848 1204q-201 0 -338 -140.5t-137 -349.5q0 -136 63 -248.5t172 -177t240 -64.5q129 0 225 60v275h-314v235h605v-633q-102 -88 -235.5 -137t-280.5 -49q-160 0 -303 57.5t-245 156.5t-161.5 236.5t-59.5 291.5q0 206 101 376t277.5 267.5t390.5 97.5q276 0 491 -166
l-146 -216q-85 62 -166.5 95t-178.5 33z" />
    <glyph glyph-name="H" unicode="H" horiz-adv-x="1447" 
d="M157 0v1434h290v-588h553v588h291v-1434h-291v595h-553v-595h-290z" />
    <glyph glyph-name="I" unicode="I" horiz-adv-x="620" 
d="M165 1434h291v-1434h-291v1434z" />
    <glyph glyph-name="J" unicode="J" horiz-adv-x="952" 
d="M516 467v967h291v-977q0 -241 -120.5 -361.5t-349.5 -120.5q-80 0 -162 19.5t-141 52.5l84 240q94 -58 194 -58q204 0 204 238z" />
    <glyph glyph-name="K" unicode="K" horiz-adv-x="1268" 
d="M447 1434v-585h82l361 585h320l-439 -707l518 -727h-326l-425 598h-91v-598h-290v1434h290z" />
    <glyph glyph-name="L" unicode="L" horiz-adv-x="1062" 
d="M157 0v1434h290v-1183h580v-251h-870z" />
    <glyph glyph-name="M" unicode="M" horiz-adv-x="1759" 
d="M976 428h-193l-352 566v-994h-274v1434h297l426 -689l426 689h297v-1434h-275v994z" />
    <glyph glyph-name="N" unicode="N" horiz-adv-x="1447" 
d="M157 0v1434h295l565 -965v965h274v-1434h-295l-565 965v-965h-274z" />
    <glyph glyph-name="O" unicode="O" horiz-adv-x="1695" 
d="M373 717q0 -136 63 -248t172 -176t240 -64t240 64t172 176t63 248q0 206 -137.5 346.5t-337.5 140.5t-337.5 -140.5t-137.5 -346.5zM79 717q0 206 101 376t277.5 267.5t390.5 97.5t390.5 -97.5t277.5 -267.5t101 -376q0 -154 -59.5 -291.5t-161.5 -236.5t-245 -156.5
t-303 -57.5t-303 57.5t-245 156.5t-161.5 236.5t-59.5 291.5z" />
    <glyph glyph-name="P" unicode="P" horiz-adv-x="1228" 
d="M664 500h-217v-500h-290v1434h507q227 0 363.5 -128.5t136.5 -338.5t-136 -338.5t-364 -128.5zM873 967q0 105 -61 166t-172 61h-193v-455h193q111 0 172 61.5t61 166.5z" />
    <glyph glyph-name="Q" unicode="Q" horiz-adv-x="1695" 
d="M79 717q0 206 101 376t277.5 267.5t390.5 97.5t390.5 -97.5t277.5 -267.5t101 -376q0 -285 -186 -492l195 -215l-193 -171l-207 228q-176 -92 -378 -92q-160 0 -303 57.5t-245 156.5t-161.5 236.5t-59.5 291.5zM373 717q0 -136 63 -248t172 -176t240 -64q102 0 193 40
l-192 213l193 171l197 -217q84 124 84 281q0 206 -137.5 346.5t-337.5 140.5t-337.5 -140.5t-137.5 -346.5z" />
    <glyph glyph-name="R" unicode="R" horiz-adv-x="1256" 
d="M157 1434h507q228 0 364 -126.5t136 -335.5q0 -161 -82.5 -274t-230.5 -157l347 -541h-317l-322 510h-114v-510h-288v1434zM641 1194h-196v-452h196q111 0 171.5 61.5t60.5 164.5q0 104 -60.5 165t-171.5 61z" />
    <glyph glyph-name="S" unicode="S" horiz-adv-x="1222" 
d="M93 206l167 195q75 -80 167.5 -128.5t187.5 -48.5q105 0 172 48t67 127q0 78 -64.5 133t-226.5 90q-215 45 -327 153t-112 269q0 182 133.5 298t343.5 116q285 0 473 -182l-158 -204q-158 139 -303 139q-85 0 -140 -40t-55 -105q0 -75 63 -125.5t210 -84.5
q237 -55 347 -165.5t110 -282.5q0 -192 -142.5 -312.5t-383.5 -120.5q-156 0 -295.5 61t-233.5 170z" />
    <glyph glyph-name="T" unicode="T" horiz-adv-x="1140" 
d="M425 0v1183h-369v251h1028v-251h-368v-1183h-291z" />
    <glyph glyph-name="U" unicode="U" horiz-adv-x="1372" 
d="M1227 1434v-942q0 -150 -73 -269t-196 -182.5t-272 -63.5t-272 63.5t-196 182.5t-73 269v942h291v-955q0 -111 71.5 -179.5t178.5 -68.5t178.5 68.5t71.5 179.5v955h291z" />
    <glyph glyph-name="V" unicode="V" horiz-adv-x="1415" 
d="M339 1434l369 -1086l368 1086h305l-513 -1434h-321l-513 1434h305z" />
    <glyph glyph-name="W" unicode="W" horiz-adv-x="2017" 
d="M865 1434h287l275 -1028l253 1028h303l-397 -1434h-292l-285 1037l-286 -1037h-292l-397 1434h303l253 -1028z" />
    <glyph glyph-name="X" unicode="X" horiz-adv-x="1316" 
d="M1291 0h-316l-317 528l-316 -528h-316l454 731l-434 703h316l296 -499l296 499h317l-434 -703z" />
    <glyph glyph-name="Y" unicode="Y" horiz-adv-x="1333" 
d="M347 1434l320 -580l319 580h313l-487 -856v-578h-291v578l-487 856h313z" />
    <glyph glyph-name="Z" unicode="Z" horiz-adv-x="1249" 
d="M116 241l660 942h-630v251h977v-241l-660 -942h681v-251h-1028v241z" />
    <glyph glyph-name="bracketleft" unicode="[" horiz-adv-x="875" 
d="M217 -287v1823h620v-251h-329v-1321h329v-251h-620z" />
    <glyph glyph-name="backslash" unicode="\" horiz-adv-x="979" 
d="M695 -287l-700 1823h290l700 -1823h-290z" />
    <glyph glyph-name="bracketright" unicode="]" horiz-adv-x="875" 
d="M658 1536v-1823h-619v251h329v1321h-329v251h619z" />
    <glyph glyph-name="asciicircum" unicode="^" horiz-adv-x="1275" 
d="M500 1434h276l410 -637h-305l-243 386l-243 -386h-305z" />
    <glyph glyph-name="underscore" unicode="_" horiz-adv-x="1024" 
d="M0 -392v229h1024v-229h-1024z" />
    <glyph glyph-name="grave" unicode="`" horiz-adv-x="870" 
d="M389 1495l267 -350h-268l-282 350h283z" />
    <glyph glyph-name="a" unicode="a" horiz-adv-x="1346" 
d="M655 224q91 0 166 46t111 123v275q-36 77 -111 123t-166 46q-130 0 -218 -88.5t-88 -218.5t88 -218t218 -88zM596 1085q202 0 336 -131v107h278v-1061h-278v106q-134 -131 -336 -131q-149 0 -271 75t-190 202t-68 278t68 278t190 202t271 75z" />
    <glyph glyph-name="b" unicode="b" horiz-adv-x="1346" 
d="M691 224q130 0 218 88t88 218t-88 218.5t-218 88.5q-91 0 -165.5 -46t-110.5 -123v-275q36 -77 110.5 -123t165.5 -46zM751 1085q149 0 271 -75t190 -202t68 -278t-68 -278t-190 -202t-271 -75q-202 0 -336 131v-106h-279v1495h279v-541q134 131 336 131z" />
    <glyph glyph-name="c" unicode="c" horiz-adv-x="1137" 
d="M655 -25q-124 0 -233.5 43.5t-187 117.5t-122.5 176.5t-45 217.5t45 217.5t122.5 176.5t187 117.5t233.5 43.5q233 0 401 -142l-140 -210q-130 104 -259 104t-217.5 -89t-88.5 -218q0 -130 88 -218t218 -88q138 0 266 112l156 -197q-169 -164 -424 -164z" />
    <glyph glyph-name="d" unicode="d" horiz-adv-x="1346" 
d="M655 224q91 0 166 46t111 123v275q-36 77 -111 123t-166 46q-130 0 -218 -88.5t-88 -218.5t88 -218t218 -88zM596 1085q202 0 336 -131v541h278v-1495h-278v106q-134 -131 -336 -131q-149 0 -271 75t-190 202t-68 278t68 278t190 202t271 75z" />
    <glyph glyph-name="e" unicode="e" horiz-adv-x="1265" 
d="M351 446q19 -111 103 -178.5t204 -67.5q167 0 301 132l169 -164q-178 -193 -469 -193q-129 0 -240.5 43.5t-188 118t-120 176.5t-43.5 217t44 217.5t120 176.5t183.5 117.5t228.5 43.5q159 0 287 -72t198.5 -194.5t70.5 -269.5q0 -53 -12 -103h-836zM641 861
q-100 0 -177 -58.5t-106 -155.5h551q-24 96 -95.5 155t-172.5 59z" />
    <glyph glyph-name="f" unicode="f" horiz-adv-x="785" 
d="M741 1485v-224q-47 5 -95 5q-86 0 -124 -36t-38 -112v-57h257v-245h-257v-816h-281v816h-159v245h159v60q0 374 417 374q55 0 121 -10z" />
    <glyph glyph-name="g" unicode="g" horiz-adv-x="1346" 
d="M932 393v275q-36 77 -111 123t-166 46q-130 0 -218 -88.5t-88 -218.5t88 -218t218 -88q91 0 166 46t111 123zM932 954v107h278v-999q0 -243 -148.5 -390t-415.5 -147q-150 0 -282 53.5t-223 150.5l162 185q148 -148 331 -148q136 0 217 74t81 204v70q-133 -131 -336 -131
q-149 0 -271 73.5t-190 198.5t-68 275q0 151 68 278t190 202t271 75q202 0 336 -131z" />
    <glyph glyph-name="h" unicode="h" horiz-adv-x="1255" 
d="M418 690v-690h-282v1495h282v-551q54 64 133.5 102.5t164.5 38.5q187 0 305.5 -120t118.5 -312v-653h-282v626q0 91 -58 151t-153 60q-65 0 -128 -43t-101 -104z" />
    <glyph glyph-name="i" unicode="i" horiz-adv-x="565" 
d="M141 0v1061h282v-1061h-282zM116 1343q0 69 48 116t119 47t119 -47t48 -116t-48 -115.5t-119 -46.5t-119 46.5t-48 115.5z" />
    <glyph glyph-name="j" unicode="j" horiz-adv-x="565" 
d="M141 -92v1153h282v-1167q0 -188 -90 -278.5t-273 -90.5q-57 0 -99 7v238h54q65 0 95.5 31.5t30.5 106.5zM116 1343q0 69 48 116t119 47t119 -47t48 -116t-48 -115.5t-119 -46.5t-119 46.5t-48 115.5z" />
    <glyph glyph-name="k" unicode="k" horiz-adv-x="1098" 
d="M782 0l-277 464h-87v-464h-282v1495h282v-789h91l222 355h318l-312 -477l358 -584h-313z" />
    <glyph glyph-name="l" unicode="l" horiz-adv-x="565" 
d="M141 0v1495h282v-1495h-282z" />
    <glyph glyph-name="m" unicode="m" horiz-adv-x="1928" 
d="M136 1061h282v-117q52 63 126 101t159 38q112 0 201.5 -48t144.5 -134q57 83 151.5 133.5t198.5 50.5q183 0 298 -120t115 -309v-656h-281v628q0 89 -53 149t-140 60q-64 0 -123.5 -43t-101.5 -110q2 -46 2 -70v-614h-281v628q0 91 -53 150t-140 59q-64 0 -123 -42.5
t-100 -107.5v-687h-282v1061z" />
    <glyph glyph-name="n" unicode="n" horiz-adv-x="1255" 
d="M418 690v-690h-282v1061h282v-117q54 64 133.5 102.5t164.5 38.5q187 0 305.5 -120t118.5 -312v-653h-282v626q0 91 -58 151t-153 60q-65 0 -128 -43t-101 -104z" />
    <glyph glyph-name="o" unicode="o" horiz-adv-x="1310" 
d="M67 530q0 115 45 217.5t122.5 176.5t187 117.5t233.5 43.5t234 -43.5t187.5 -117.5t122.5 -176.5t45 -217.5t-45 -217.5t-122.5 -176.5t-187.5 -117.5t-234 -43.5t-233.5 43.5t-187 117.5t-122.5 176.5t-45 217.5zM349 530q0 -130 88 -218t218 -88q131 0 219.5 88
t88.5 218q0 129 -89 218t-219 89q-129 0 -217.5 -89t-88.5 -218z" />
    <glyph glyph-name="p" unicode="p" horiz-adv-x="1346" 
d="M691 224q130 0 218 88t88 218t-88 218.5t-218 88.5q-91 0 -165.5 -46t-110.5 -123v-275q36 -77 110.5 -123t165.5 -46zM751 1085q149 0 271 -75t190 -202t68 -278t-68 -278t-190 -202t-271 -75q-202 0 -336 131v-581h-279v1536h279v-107q134 131 336 131z" />
    <glyph glyph-name="q" unicode="q" horiz-adv-x="1346" 
d="M655 224q91 0 166 46t111 123v275q-36 77 -111 123t-166 46q-130 0 -218 -88.5t-88 -218.5t88 -218t218 -88zM596 1085q202 0 336 -131v107h278v-1536h-278v581q-134 -131 -336 -131q-149 0 -271 75t-190 202t-68 278t68 278t190 202t271 75z" />
    <glyph glyph-name="r" unicode="r" horiz-adv-x="844" 
d="M666 837q-75 0 -140 -46t-108 -126v-665h-282v1061h282v-130q116 154 283 154q55 0 97 -22l-20 -247q-63 21 -112 21z" />
    <glyph glyph-name="s" unicode="s" horiz-adv-x="969" 
d="M63 152l142 175q51 -58 121.5 -92t147.5 -34q73 0 114.5 28t41.5 77t-41.5 79t-141.5 51q-172 35 -258.5 121t-86.5 219q0 135 106 222t277 87q107 0 205.5 -39t171.5 -105l-135 -176q-117 95 -217 95q-58 0 -95 -24t-37 -64q0 -91 169 -127q183 -37 270.5 -122
t87.5 -220q0 -143 -111.5 -235.5t-297.5 -92.5q-132 0 -246.5 47t-186.5 130z" />
    <glyph glyph-name="t" unicode="t" horiz-adv-x="805" 
d="M490 816v-448q0 -77 37.5 -112.5t124.5 -35.5q54 0 101 5v-235q-71 -15 -147 -15q-397 0 -397 375v466h-165v245h165v282l281 25v-307h250v-245h-250z" />
    <glyph glyph-name="u" unicode="u" horiz-adv-x="1255" 
d="M838 371v690h281v-1061h-281v117q-55 -65 -134 -103.5t-164 -38.5q-187 0 -305.5 120.5t-118.5 312.5v653h281v-626q0 -91 58 -151t153 -60q65 0 128.5 43.5t101.5 103.5z" />
    <glyph glyph-name="v" unicode="v" horiz-adv-x="1099" 
d="M787 1061h293l-379 -1061h-303l-379 1061h293l238 -722z" />
    <glyph glyph-name="w" unicode="w" horiz-adv-x="1632" 
d="M675 1061h282l183 -710l185 710h288l-322 -1061h-291l-184 690l-184 -690h-291l-322 1061h288l186 -710z" />
    <glyph glyph-name="x" unicode="x" horiz-adv-x="1099" 
d="M1080 0h-305l-225 360l-225 -360h-306l349 541l-322 520h305l199 -341l199 341h305l-322 -520z" />
    <glyph glyph-name="y" unicode="y" horiz-adv-x="1099" 
d="M516 -475h-294l187 475l-390 1061h293l236 -705l239 705h293z" />
    <glyph glyph-name="z" unicode="z" horiz-adv-x="1051" 
d="M90 0v228l504 589h-477v244h819v-228l-504 -589h524v-244h-866z" />
    <glyph glyph-name="braceleft" unicode="{" horiz-adv-x="875" 
d="M134 500v250q91 0 141.5 46.5t50.5 131.5v271q0 143 104 240t263 97h144v-251h-89q-58 0 -95 -36t-37 -93v-287q0 -195 -186 -244q186 -49 186 -245v-287q0 -57 37 -93t95 -36h89v-251h-144q-159 0 -263 97t-104 240v272q0 85 -50.5 131.5t-141.5 46.5z" />
    <glyph glyph-name="bar" unicode="|" horiz-adv-x="675" 
d="M203 -287v1823h270v-1823h-270z" />
    <glyph glyph-name="braceright" unicode="}" horiz-adv-x="875" 
d="M741 750v-250q-90 0 -140.5 -46.5t-50.5 -131.5v-272q0 -143 -104.5 -240t-263.5 -97h-143v251h89q58 0 94.5 36t36.5 93v287q0 196 186 245q-186 49 -186 244v287q0 57 -36.5 93t-94.5 36h-89v251h143q159 0 263.5 -97t104.5 -240v-271q0 -85 50.5 -131.5t140.5 -46.5z
" />
    <glyph glyph-name="asciitilde" unicode="~" horiz-adv-x="1193" 
d="M573 543q-36 32 -54.5 47t-47 31t-50.5 16q-72 0 -97 -148l-266 59q27 166 107 255t208 89q141 0 248 -93q36 -32 54.5 -47t47 -31t50.5 -16q72 0 97 147l266 -58q-27 -166 -107 -255t-208 -89q-141 0 -248 93z" />
    <glyph glyph-name="uni00A0" unicode="&#xa0;" horiz-adv-x="617" 
 />
    <glyph glyph-name="exclamdown" unicode="&#xa1;" horiz-adv-x="641" 
d="M175 -373v1005h291v-1005h-291zM143 915q0 72 51.5 121t126.5 49t126 -49t51 -121t-51 -121t-126 -49t-126.5 49t-51.5 121z" />
    <glyph glyph-name="cent" unicode="&#xa2;" horiz-adv-x="1137" 
d="M554 -188v172q-214 32 -350.5 184.5t-136.5 361.5q0 208 136.5 361.5t350.5 185.5v172h181v-169q182 -20 321 -137l-140 -210q-90 73 -181 94v-594q99 24 188 103l156 -197q-140 -136 -344 -158v-169h-181zM351 530q0 -101 56 -179.5t147 -109.5v578q-91 -32 -147 -110.5
t-56 -178.5z" />
    <glyph glyph-name="sterling" unicode="&#xa3;" horiz-adv-x="1192" 
d="M308 554h-172v205h124q-77 160 -77 288q0 173 131.5 292t323.5 119q150 0 263.5 -74t160.5 -186l-244 -130q-54 136 -180 136q-70 0 -115.5 -47.5t-45.5 -118.5q0 -29 9 -66.5t18.5 -64t29 -76.5t27.5 -72h332v-205h-292q0 -193 -129 -300h617v-254h-947v245
q166 95 166 309z" />
    <glyph glyph-name="currency" unicode="&#xa4;" horiz-adv-x="1302" 
d="M169 668q0 127 72 237l-179 180l168 165l188 -187q106 54 233 54q128 0 234 -54l187 187l168 -165l-178 -180q72 -110 72 -237q0 -128 -72 -238l178 -180l-168 -165l-187 187q-106 -54 -234 -54q-127 0 -233 54l-188 -187l-168 165l179 180q-72 110 -72 238zM434 668
q0 -91 62.5 -154.5t154.5 -63.5t154.5 63.5t62.5 154.5t-62.5 154.5t-154.5 63.5t-154.5 -63.5t-62.5 -154.5z" />
    <glyph glyph-name="yen" unicode="&#xa5;" horiz-adv-x="1333" 
d="M166 510h355v68l-14 24h-341v154h254l-386 678h313l320 -580l319 580h313l-386 -678h254v-154h-342l-13 -24v-68h355v-154h-355v-356h-291v356h-355v154z" />
    <glyph glyph-name="brokenbar" unicode="&#xa6;" horiz-adv-x="675" 
d="M203 717v819h270v-819h-270zM203 -287v819h270v-819h-270z" />
    <glyph glyph-name="section" unicode="&#xa7;" horiz-adv-x="1046" 
d="M993 544q0 -92 -48.5 -165.5t-136.5 -117.5q103 -95 103 -233q0 -142 -114.5 -238.5t-284.5 -96.5q-147 0 -255.5 73.5t-137.5 197.5l243 55q11 -50 51 -78.5t99 -28.5q62 0 102.5 33.5t40.5 84.5q0 36 -20.5 64t-54.5 43l-267 118q-126 56 -193 148.5t-67 202.5
q0 92 49 165.5t137 117.5q-104 94 -104 233q0 143 115 239.5t285 96.5q147 0 255.5 -74t137.5 -198l-243 -56q-12 51 -51.5 79.5t-98.5 28.5q-62 0 -103 -33t-41 -84q0 -73 76 -107l266 -118q126 -56 193 -148.5t67 -203.5zM609 705l-139 61q-70 -5 -115.5 -50.5
t-45.5 -109.5q0 -105 128 -161l138 -61q70 5 116 50t46 110q0 105 -128 161z" />
    <glyph glyph-name="dieresis" unicode="&#xa8;" horiz-adv-x="870" 
d="M87 1323q0 63 43.5 106.5t107.5 43.5t107 -43.5t43 -106.5t-43 -106t-107 -43t-107.5 43t-43.5 106zM482 1323q0 63 43.5 106.5t107.5 43.5t107 -43.5t43 -106.5t-43 -106t-107 -43t-107.5 43t-43.5 106z" />
    <glyph glyph-name="copyright" unicode="&#xa9;" horiz-adv-x="1646" 
d="M861 307q-180 0 -302.5 118t-122.5 290t122.5 289.5t302.5 117.5q151 0 275 -95l-86 -167q-95 73 -189 73q-90 0 -150.5 -63t-60.5 -155q0 -93 60.5 -156t150.5 -63q103 0 195 79l90 -165q-120 -103 -285 -103zM82 717q0 153 58 290t157 236t236 157t290 58t290.5 -58
t236.5 -157t157 -236t58 -290t-58 -290.5t-157 -236.5t-236.5 -157t-290.5 -58t-290 58t-236 157t-157 236.5t-58 290.5zM217 717q0 -169 80.5 -310.5t220 -223t305.5 -81.5t306 81.5t220.5 223t80.5 310.5q0 127 -47.5 241t-128.5 195.5t-193.5 129.5t-237.5 48
q-166 0 -305.5 -81t-220 -222.5t-80.5 -310.5z" />
    <glyph glyph-name="ordfeminine" unicode="&#xaa;" horiz-adv-x="946" 
d="M469 879q54 0 95.5 26t64.5 66v180q-23 40 -64.5 66t-95.5 26q-77 0 -129.5 -52.5t-52.5 -129.5t52.5 -129.5t129.5 -52.5zM629 688v69q-71 -85 -201 -85q-157 0 -264 112.5t-107 276.5t107 276.5t264 112.5q130 0 201 -85v69h228v-746h-228z" />
    <glyph glyph-name="guillemotleft" unicode="&#xab;" horiz-adv-x="1320" 
d="M96 568v140l590 362v-241l-326 -191l326 -192v-240zM615 568v140l590 362v-241l-325 -191l325 -192v-240z" />
    <glyph glyph-name="logicalnot" unicode="&#xac;" horiz-adv-x="1193" 
d="M795 230v327h-674v245h952v-572h-278z" />
    <glyph glyph-name="uni00AD" unicode="&#xad;" horiz-adv-x="847" 
d="M727 550h-606v260h606v-260z" />
    <glyph glyph-name="registered" unicode="&#xae;" horiz-adv-x="1646" 
d="M82 717q0 153 58 290t157 236t236 157t290 58t290.5 -58t236.5 -157t157 -236t58 -290t-58 -290.5t-157 -236.5t-236.5 -157t-290.5 -58t-290 58t-236 157t-157 236.5t-58 290.5zM217 717q0 -169 80.5 -310.5t220 -223t305.5 -81.5t306 81.5t220.5 223t80.5 310.5
q0 127 -47.5 241t-128.5 195.5t-193.5 129.5t-237.5 48q-166 0 -305.5 -81t-220 -222.5t-80.5 -310.5zM558 1110h306q122 0 201.5 -74t79.5 -186q0 -79 -41.5 -141t-112.5 -92l174 -295h-214l-153 268h-45v-268h-195v788zM844 938h-91v-193h91q47 0 76.5 27.5t29.5 69.5
t-29.5 69t-76.5 27z" />
    <glyph glyph-name="macron" unicode="&#xaf;" horiz-adv-x="870" 
d="M118 1213v211h635v-211h-635z" />
    <glyph glyph-name="degree" unicode="&#xb0;" horiz-adv-x="823" 
d="M115 1175q0 120 85.5 201.5t211.5 81.5t211.5 -81.5t85.5 -201.5t-85.5 -202t-211.5 -82t-211.5 82t-85.5 202zM305 1175q0 -45 30.5 -76t76.5 -31t76 31t30 76t-30 75.5t-76 30.5t-76.5 -30.5t-30.5 -75.5z" />
    <glyph glyph-name="plusminus" unicode="&#xb1;" horiz-adv-x="1193" 
d="M1073 0h-952v243h952v-243zM458 333v331h-337v242h337v331h278v-331h337v-242h-337v-331h-278z" />
    <glyph glyph-name="twosuperior" unicode="&#xb2;" 
d="M597 871l-200 -215h327v-193h-631v173l323 350q46 51 65.5 89t19.5 80q0 48 -29 78t-75 30q-43 0 -72.5 -28t-52.5 -93l-201 71q30 116 116 180.5t212 64.5q145 0 240 -81t95 -212q0 -80 -32.5 -148t-104.5 -146z" />
    <glyph glyph-name="threesuperior" unicode="&#xb3;" 
d="M511 775q0 60 -40 101.5t-99 41.5q-28 0 -55 -12l-89 110l193 224h-318v194h596v-180l-176 -198q103 -30 163 -112t60 -190q0 -126 -102.5 -221t-262.5 -95q-106 0 -193.5 47t-139.5 131l150 136q84 -121 174 -121q60 0 99.5 41.5t39.5 102.5z" />
    <glyph glyph-name="acute" unicode="&#xb4;" horiz-adv-x="870" 
d="M214 1145l267 350h283l-282 -350h-268z" />
    <glyph glyph-name="mu" unicode="&#xb5;" horiz-adv-x="1275" 
d="M136 -475v1536h282v-686q19 -68 75.5 -109.5t128.5 -41.5q67 0 133 46.5t103 112.5v678h282v-1061h-282v120q-47 -65 -116 -105t-142 -40q-111 0 -182 86v-536h-282z" />
    <glyph glyph-name="paragraph" unicode="&#xb6;" horiz-adv-x="1205" 
d="M574 549h-51q-192 0 -323 127.5t-131 314.5t131 315t323 128h520v-1702h-187v1519h-94v-1519h-188v817z" />
    <glyph glyph-name="periodcentered" unicode="&#xb7;" horiz-adv-x="617" 
d="M135 667q0 72 49.5 121t123.5 49q75 0 124.5 -49t49.5 -121t-49.5 -121t-124.5 -49q-74 0 -123.5 49t-49.5 121z" />
    <glyph glyph-name="cedilla" unicode="&#xb8;" horiz-adv-x="870" 
d="M473 -307q0 33 -27 54.5t-70 21.5q-27 0 -61 -6l-48 54l98 183h202l-71 -110q82 -22 130.5 -76.5t48.5 -124.5q0 -95 -82 -158t-205 -63q-125 0 -206 63l83 121q48 -35 111 -35q43 0 70 21.5t27 54.5z" />
    <glyph glyph-name="onesuperior" unicode="&#xb9;" 
d="M384 1434h200v-971h-236v742l-144 -79l-87 165z" />
    <glyph glyph-name="ordmasculine" unicode="&#xba;" horiz-adv-x="946" 
d="M60 1061q0 163 120 276t293 113t293 -113t120 -276t-120 -276t-293 -113t-293 113t-120 276zM292 1061q0 -78 51.5 -130t129.5 -52t129.5 52t51.5 130t-51.5 130t-129.5 52t-129.5 -52t-51.5 -130z" />
    <glyph glyph-name="guillemotright" unicode="&#xbb;" horiz-adv-x="1320" 
d="M1225 708v-140l-590 -362v240l326 192l-326 191v241zM706 708v-140l-590 -362v240l325 192l-325 191v241z" />
    <glyph glyph-name="onequarter" unicode="&#xbc;" horiz-adv-x="1986" 
d="M384 1434h200v-971h-236v742l-144 -79l-87 165zM530 0l699 1434h228l-698 -1434h-229zM1196 171v176l421 624h216v-606h100v-194h-100v-171h-227v171h-410zM1424 362h182v276z" />
    <glyph glyph-name="onehalf" unicode="&#xbd;" horiz-adv-x="1986" 
d="M384 1434h200v-971h-236v742l-144 -79l-87 165zM530 0l699 1434h228l-698 -1434h-229zM1759 409l-199 -215h326v-194h-631v173l323 350q46 51 65.5 89t19.5 80q0 49 -28.5 78.5t-74.5 29.5q-43 0 -72.5 -28t-52.5 -93l-202 72q30 116 116.5 180t212.5 64
q145 0 239.5 -80.5t94.5 -212.5q0 -80 -32.5 -147.5t-104.5 -145.5z" />
    <glyph glyph-name="threequarters" unicode="&#xbe;" horiz-adv-x="1986" 
d="M511 775q0 60 -40 101.5t-99 41.5q-28 0 -55 -12l-89 110l193 224h-318v194h596v-180l-176 -198q103 -30 163 -112t60 -190q0 -126 -102.5 -221t-262.5 -95q-106 0 -193.5 47t-139.5 131l150 136q84 -121 174 -121q60 0 99.5 41.5t39.5 102.5zM530 0l699 1434h228
l-698 -1434h-229zM1196 171v176l421 624h216v-606h100v-194h-100v-171h-227v171h-410zM1424 362h182v276z" />
    <glyph glyph-name="questiondown" unicode="&#xbf;" horiz-adv-x="1135" 
d="M784 632v-371q-178 0 -276.5 -64.5t-98.5 -166.5q0 -75 66.5 -124t173.5 -49q138 0 276 115l139 -211q-194 -158 -443 -158q-111 0 -207 35t-160.5 93.5t-101.5 136t-37 161.5q0 146 102 260t277 152v191h290zM816 915q0 -72 -51 -121t-126 -49t-126 49t-51 121t51 121
t126 49t126 -49t51 -121z" />
    <glyph glyph-name="Agrave" unicode="&#xc0;" horiz-adv-x="1415" 
d="M547 1434h321l513 -1434h-308l-106 323h-518l-107 -323h-308zM892 560l-184 563l-185 -563h369zM639 1894l267 -350h-268l-282 350h283z" />
    <glyph glyph-name="Aacute" unicode="&#xc1;" horiz-adv-x="1415" 
d="M547 1434h321l513 -1434h-308l-106 323h-518l-107 -323h-308zM892 560l-184 563l-185 -563h369zM506 1544l267 350h283l-282 -350h-268z" />
    <glyph glyph-name="Acircumflex" unicode="&#xc2;" horiz-adv-x="1415" 
d="M547 1434h321l513 -1434h-308l-106 323h-518l-107 -323h-308zM892 560l-184 563l-185 -563h369zM607 1894h201l299 -350h-266l-133 159l-134 -159h-266z" />
    <glyph glyph-name="Atilde" unicode="&#xc3;" horiz-adv-x="1415" 
d="M547 1434h321l513 -1434h-308l-106 323h-518l-107 -323h-308zM892 560l-184 563l-185 -563h369zM720 1597q-74 39 -99 39q-45 0 -62 -76l-225 45q45 232 212 232q70 0 149 -46q74 -39 100 -39q44 0 61 77l225 -45q-45 -233 -212 -233q-70 0 -149 46z" />
    <glyph glyph-name="Adieresis" unicode="&#xc4;" horiz-adv-x="1415" 
d="M547 1434h321l513 -1434h-308l-106 323h-518l-107 -323h-308zM892 560l-184 563l-185 -563h369zM359 1704q0 63 43.5 106t107.5 43t107 -43t43 -106t-43 -106.5t-107 -43.5t-107.5 43.5t-43.5 106.5zM755 1704q0 63 43 106t107 43t107.5 -43t43.5 -106t-43.5 -106.5
t-107.5 -43.5t-107 43.5t-43 106.5z" />
    <glyph glyph-name="Aring" unicode="&#xc5;" horiz-adv-x="1415" 
d="M547 1434h321l513 -1434h-308l-106 323h-518l-107 -323h-308zM892 560l-184 563l-185 -563h369zM639 1725q0 -29 19.5 -48t49.5 -19t49 19t19 48t-19 48.5t-49 19.5t-49.5 -19.5t-19.5 -48.5zM476 1725q0 90 66.5 151t165.5 61t165 -61t66 -151t-66 -151t-165 -61
t-165.5 61t-66.5 151z" />
    <glyph glyph-name="AE" unicode="&#xc6;" horiz-adv-x="1909" 
d="M319 0h-317l794 1434h990v-248h-587v-342h538v-246h-538v-350h605v-248h-893v323h-421zM911 1118l-298 -558h298v558z" />
    <glyph glyph-name="Ccedilla" unicode="&#xc7;" horiz-adv-x="1423" 
d="M867 -307q0 33 -27 54.5t-70 21.5q-26 0 -60 -6l-48 54l87 165q-191 22 -344 123t-239.5 261.5t-86.5 350.5q0 206 101 376t277.5 267.5t390.5 97.5q276 0 491 -166l-146 -216q-85 62 -166.5 95t-178.5 33q-200 0 -337.5 -140.5t-137.5 -346.5q0 -136 63 -248t172 -176
t240 -64q96 0 188 38t167 101l154 -214q-177 -145 -408 -172l-59 -92q82 -22 130.5 -76.5t48.5 -124.5q0 -95 -82 -158t-205 -63q-124 0 -205 63l82 121q48 -35 111 -35q43 0 70 21.5t27 54.5z" />
    <glyph glyph-name="Egrave" unicode="&#xc8;" horiz-adv-x="1173" 
d="M157 0v1434h893v-248h-603v-342h553v-246h-553v-350h621v-248h-911zM508 1894l267 -350h-268l-282 350h283z" />
    <glyph glyph-name="Eacute" unicode="&#xc9;" horiz-adv-x="1173" 
d="M157 0v1434h893v-248h-603v-342h553v-246h-553v-350h621v-248h-911zM423 1544l267 350h283l-282 -350h-268z" />
    <glyph glyph-name="Ecircumflex" unicode="&#xca;" horiz-adv-x="1173" 
d="M157 0v1434h893v-248h-603v-342h553v-246h-553v-350h621v-248h-911zM503 1894h200l299 -350h-266l-133 159l-133 -159h-266z" />
    <glyph glyph-name="Edieresis" unicode="&#xcb;" horiz-adv-x="1173" 
d="M157 0v1434h893v-248h-603v-342h553v-246h-553v-350h621v-248h-911zM259 1704q0 63 43.5 106t107.5 43t107 -43t43 -106t-43 -106.5t-107 -43.5t-107.5 43.5t-43.5 106.5zM654 1704q0 63 43.5 106t107.5 43t107 -43t43 -106t-43 -106.5t-107 -43.5t-107.5 43.5
t-43.5 106.5z" />
    <glyph glyph-name="Igrave" unicode="&#xcc;" horiz-adv-x="620" 
d="M165 1434h291v-1434h-291v1434zM240 1894l267 -350h-268l-282 350h283z" />
    <glyph glyph-name="Iacute" unicode="&#xcd;" horiz-adv-x="620" 
d="M165 1434h291v-1434h-291v1434zM114 1544l267 350h283l-282 -350h-268z" />
    <glyph glyph-name="Icircumflex" unicode="&#xce;" horiz-adv-x="620" 
d="M165 1434h291v-1434h-291v1434zM210 1894h201l299 -350h-267l-133 159l-133 -159h-266z" />
    <glyph glyph-name="Idieresis" unicode="&#xcf;" horiz-adv-x="620" 
d="M165 1434h291v-1434h-291v1434zM-38 1704q0 63 43.5 106t107.5 43t107 -43t43 -106t-43 -106.5t-107 -43.5t-107.5 43.5t-43.5 106.5zM357 1704q0 63 43.5 106t107.5 43t107 -43t43 -106t-43 -106.5t-107 -43.5t-107.5 43.5t-43.5 106.5z" />
    <glyph glyph-name="Eth" unicode="&#xd0;" horiz-adv-x="1508" 
d="M191 1434h520q328 0 523.5 -194.5t195.5 -522.5t-195.5 -522.5t-523.5 -194.5h-520v621h-179v191h179v622zM744 621h-262v-367h218q200 0 318 117.5t118 345.5t-118 345.5t-318 117.5h-218v-368h262v-191z" />
    <glyph glyph-name="Ntilde" unicode="&#xd1;" horiz-adv-x="1447" 
d="M157 0v1434h295l565 -965v965h274v-1434h-295l-565 965v-965h-274zM736 1597q-74 39 -99 39q-45 0 -62 -76l-225 45q45 232 212 232q71 0 150 -46q74 -39 99 -39q44 0 61 77l226 -45q-45 -233 -212 -233q-71 0 -150 46z" />
    <glyph glyph-name="Ograve" unicode="&#xd2;" horiz-adv-x="1695" 
d="M373 717q0 -136 63 -248t172 -176t240 -64t240 64t172 176t63 248q0 206 -137.5 346.5t-337.5 140.5t-337.5 -140.5t-137.5 -346.5zM79 717q0 206 101 376t277.5 267.5t390.5 97.5t390.5 -97.5t277.5 -267.5t101 -376q0 -154 -59.5 -291.5t-161.5 -236.5t-245 -156.5
t-303 -57.5t-303 57.5t-245 156.5t-161.5 236.5t-59.5 291.5zM767 1894l267 -350h-268l-282 350h283z" />
    <glyph glyph-name="Oacute" unicode="&#xd3;" horiz-adv-x="1695" 
d="M373 717q0 -136 63 -248t172 -176t240 -64t240 64t172 176t63 248q0 206 -137.5 346.5t-337.5 140.5t-337.5 -140.5t-137.5 -346.5zM79 717q0 206 101 376t277.5 267.5t390.5 97.5t390.5 -97.5t277.5 -267.5t101 -376q0 -154 -59.5 -291.5t-161.5 -236.5t-245 -156.5
t-303 -57.5t-303 57.5t-245 156.5t-161.5 236.5t-59.5 291.5zM660 1544l268 350h282l-281 -350h-269z" />
    <glyph glyph-name="Ocircumflex" unicode="&#xd4;" horiz-adv-x="1695" 
d="M373 717q0 -136 63 -248t172 -176t240 -64t240 64t172 176t63 248q0 206 -137.5 346.5t-337.5 140.5t-337.5 -140.5t-137.5 -346.5zM79 717q0 206 101 376t277.5 267.5t390.5 97.5t390.5 -97.5t277.5 -267.5t101 -376q0 -154 -59.5 -291.5t-161.5 -236.5t-245 -156.5
t-303 -57.5t-303 57.5t-245 156.5t-161.5 236.5t-59.5 291.5zM748 1894h200l299 -350h-266l-133 159l-133 -159h-266z" />
    <glyph glyph-name="Otilde" unicode="&#xd5;" horiz-adv-x="1695" 
d="M373 717q0 -136 63 -248t172 -176t240 -64t240 64t172 176t63 248q0 206 -137.5 346.5t-337.5 140.5t-337.5 -140.5t-137.5 -346.5zM79 717q0 206 101 376t277.5 267.5t390.5 97.5t390.5 -97.5t277.5 -267.5t101 -376q0 -154 -59.5 -291.5t-161.5 -236.5t-245 -156.5
t-303 -57.5t-303 57.5t-245 156.5t-161.5 236.5t-59.5 291.5zM860 1597q-74 39 -99 39q-45 0 -62 -76l-225 45q45 232 212 232q71 0 150 -46q74 -39 99 -39q44 0 61 77l226 -45q-45 -233 -212 -233q-71 0 -150 46z" />
    <glyph glyph-name="Odieresis" unicode="&#xd6;" horiz-adv-x="1695" 
d="M373 717q0 -136 63 -248t172 -176t240 -64t240 64t172 176t63 248q0 206 -137.5 346.5t-337.5 140.5t-337.5 -140.5t-137.5 -346.5zM79 717q0 206 101 376t277.5 267.5t390.5 97.5t390.5 -97.5t277.5 -267.5t101 -376q0 -154 -59.5 -291.5t-161.5 -236.5t-245 -156.5
t-303 -57.5t-303 57.5t-245 156.5t-161.5 236.5t-59.5 291.5zM500 1704q0 63 43 106t107 43t107.5 -43t43.5 -106t-43.5 -106.5t-107.5 -43.5t-107 43.5t-43 106.5zM895 1704q0 63 43.5 106t107.5 43t107 -43t43 -106t-43 -106.5t-107 -43.5t-107.5 43.5t-43.5 106.5z" />
    <glyph glyph-name="multiply" unicode="&#xd7;" horiz-adv-x="1193" 
d="M881 1144l184 -185l-284 -284l284 -284l-184 -184l-284 283l-284 -283l-184 184l284 284l-284 284l184 185l284 -285z" />
    <glyph glyph-name="Oslash" unicode="&#xd8;" horiz-adv-x="1695" 
d="M79 717q0 206 101 376t277.5 267.5t390.5 97.5q202 0 378 -92l100 129h232l-183 -232q114 -102 178 -243.5t64 -302.5q0 -154 -59.5 -291.5t-161.5 -236.5t-245 -156.5t-303 -57.5q-217 0 -398 103l-109 -139h-231l193 247q-107 101 -165.5 238t-58.5 293zM1323 717
q0 188 -119 325l-589 -753q109 -60 233 -60q131 0 240 64t172 176t63 248zM373 717q0 -179 103 -309l584 746q-98 50 -212 50q-200 0 -337.5 -140.5t-137.5 -346.5z" />
    <glyph glyph-name="Ugrave" unicode="&#xd9;" horiz-adv-x="1372" 
d="M1227 1434v-942q0 -150 -73 -269t-196 -182.5t-272 -63.5t-272 63.5t-196 182.5t-73 269v942h291v-955q0 -111 71.5 -179.5t178.5 -68.5t178.5 68.5t71.5 179.5v955h291zM597 1894l267 -350h-268l-282 350h283z" />
    <glyph glyph-name="Uacute" unicode="&#xda;" horiz-adv-x="1372" 
d="M1227 1434v-942q0 -150 -73 -269t-196 -182.5t-272 -63.5t-272 63.5t-196 182.5t-73 269v942h291v-955q0 -111 71.5 -179.5t178.5 -68.5t178.5 68.5t71.5 179.5v955h291zM511 1544l267 350h283l-282 -350h-268z" />
    <glyph glyph-name="Ucircumflex" unicode="&#xdb;" horiz-adv-x="1372" 
d="M1227 1434v-942q0 -150 -73 -269t-196 -182.5t-272 -63.5t-272 63.5t-196 182.5t-73 269v942h291v-955q0 -111 71.5 -179.5t178.5 -68.5t178.5 68.5t71.5 179.5v955h291zM586 1894h200l299 -350h-266l-133 159l-133 -159h-266z" />
    <glyph glyph-name="Udieresis" unicode="&#xdc;" horiz-adv-x="1372" 
d="M1227 1434v-942q0 -150 -73 -269t-196 -182.5t-272 -63.5t-272 63.5t-196 182.5t-73 269v942h291v-955q0 -111 71.5 -179.5t178.5 -68.5t178.5 68.5t71.5 179.5v955h291zM338 1704q0 63 43 106t107 43t107.5 -43t43.5 -106t-43.5 -106.5t-107.5 -43.5t-107 43.5
t-43 106.5zM733 1704q0 63 43.5 106t107.5 43t107 -43t43 -106t-43 -106.5t-107 -43.5t-107.5 43.5t-43.5 106.5z" />
    <glyph glyph-name="Yacute" unicode="&#xdd;" horiz-adv-x="1333" 
d="M347 1434l320 -580l319 580h313l-487 -856v-578h-291v578l-487 856h313zM493 1544l267 350h282l-281 -350h-268z" />
    <glyph glyph-name="Thorn" unicode="&#xde;" horiz-adv-x="1228" 
d="M664 250h-217v-250h-290v1434h290v-250h217q227 0 363.5 -128.5t136.5 -338.5t-136 -338.5t-364 -128.5zM873 717q0 105 -61 166t-172 61h-193v-455h193q111 0 172 61.5t61 166.5z" />
    <glyph glyph-name="germandbls" unicode="&#xdf;" horiz-adv-x="1262" 
d="M145 0v1047q0 183 126 297t316 114q188 0 316 -108.5t128 -266.5q0 -100 -59 -183.5t-163 -124.5q164 -24 270.5 -132.5t106.5 -257.5q0 -174 -133.5 -292t-331.5 -118q-128 0 -229 52l60 238q72 -49 153 -49q82 0 136 51.5t54 129.5q0 112 -94.5 178t-257.5 71v234
q91 8 148.5 58t57.5 128q0 64 -46.5 108t-114.5 44q-69 0 -114.5 -46.5t-45.5 -121.5v-1050h-283z" />
    <glyph glyph-name="agrave" unicode="&#xe0;" horiz-adv-x="1346" 
d="M655 224q91 0 166 46t111 123v275q-36 77 -111 123t-166 46q-130 0 -218 -88.5t-88 -218.5t88 -218t218 -88zM596 1085q202 0 336 -131v107h278v-1061h-278v106q-134 -131 -336 -131q-149 0 -271 75t-190 202t-68 278t68 278t190 202t271 75zM583 1563l267 -351h-268
l-282 351h283z" />
    <glyph glyph-name="aacute" unicode="&#xe1;" horiz-adv-x="1346" 
d="M655 224q91 0 166 46t111 123v275q-36 77 -111 123t-166 46q-130 0 -218 -88.5t-88 -218.5t88 -218t218 -88zM596 1085q202 0 336 -131v107h278v-1061h-278v106q-134 -131 -336 -131q-149 0 -271 75t-190 202t-68 278t68 278t190 202t271 75zM446 1212l268 351h282
l-281 -351h-269z" />
    <glyph glyph-name="acircumflex" unicode="&#xe2;" horiz-adv-x="1346" 
d="M655 224q91 0 166 46t111 123v275q-36 77 -111 123t-166 46q-130 0 -218 -88.5t-88 -218.5t88 -218t218 -88zM596 1085q202 0 336 -131v107h278v-1061h-278v106q-134 -131 -336 -131q-149 0 -271 75t-190 202t-68 278t68 278t190 202t271 75zM564 1563h201l299 -351h-266
l-133 159l-134 -159h-266z" />
    <glyph glyph-name="atilde" unicode="&#xe3;" horiz-adv-x="1346" 
d="M655 224q91 0 166 46t111 123v275q-36 77 -111 123t-166 46q-130 0 -218 -88.5t-88 -218.5t88 -218t218 -88zM596 1085q202 0 336 -131v107h278v-1061h-278v106q-134 -131 -336 -131q-149 0 -271 75t-190 202t-68 278t68 278t190 202t271 75zM659 1264q-74 39 -99 39
q-44 0 -61 -77l-226 45q45 232 212 232q71 0 150 -46q74 -39 99 -39q45 0 62 77l225 -45q-45 -232 -212 -232q-71 0 -150 46z" />
    <glyph glyph-name="adieresis" unicode="&#xe4;" horiz-adv-x="1346" 
d="M655 224q91 0 166 46t111 123v275q-36 77 -111 123t-166 46q-130 0 -218 -88.5t-88 -218.5t88 -218t218 -88zM596 1085q202 0 336 -131v107h278v-1061h-278v106q-134 -131 -336 -131q-149 0 -271 75t-190 202t-68 278t68 278t190 202t271 75zM295 1372q0 63 43 106.5
t107 43.5t107.5 -43.5t43.5 -106.5t-43.5 -106t-107.5 -43t-107 43t-43 106zM690 1372q0 63 43.5 106.5t107.5 43.5t107 -43.5t43 -106.5t-43 -106t-107 -43t-107.5 43t-43.5 106z" />
    <glyph glyph-name="aring" unicode="&#xe5;" horiz-adv-x="1346" 
d="M655 224q91 0 166 46t111 123v275q-36 77 -111 123t-166 46q-130 0 -218 -88.5t-88 -218.5t88 -218t218 -88zM596 1085q202 0 336 -131v107h278v-1061h-278v106q-134 -131 -336 -131q-149 0 -271 75t-190 202t-68 278t68 278t190 202t271 75zM577 1394q0 -29 19 -48.5
t49 -19.5t49.5 19.5t19.5 48.5t-19.5 48t-49.5 19t-49 -19t-19 -48zM414 1394q0 90 66 151t165 61t165.5 -61t66.5 -151t-66.5 -151t-165.5 -61t-165 61t-66 151z" />
    <glyph glyph-name="ae" unicode="&#xe6;" horiz-adv-x="2087" 
d="M2009 446h-835q19 -111 103 -178.5t204 -67.5q167 0 301 132l169 -164q-178 -193 -469 -193q-143 0 -263.5 55t-195.5 149q-69 -94 -186.5 -149t-256.5 -55q-220 0 -366.5 103.5t-146.5 255.5q0 144 140.5 241.5t341.5 97.5q86 0 171.5 -22.5t150.5 -59.5v34
q0 101 -83.5 168.5t-212.5 67.5q-91 0 -178.5 -33t-155.5 -90l-97 196q87 72 202 111.5t237 39.5q140 0 256.5 -54.5t185.5 -149.5q74 95 190 149.5t250 54.5q159 0 287 -72t198.5 -194.5t70.5 -269.5q0 -53 -12 -103zM346 334q0 -59 72 -99.5t183 -40.5q187 0 268 113v86
q-103 81 -268 81q-111 0 -183 -40t-72 -100zM1463 861q-100 0 -176.5 -58.5t-105.5 -155.5h551q-24 96 -96 155t-173 59z" />
    <glyph glyph-name="ccedilla" unicode="&#xe7;" horiz-adv-x="1140" 
d="M667 -307q0 33 -27.5 54.5t-70.5 21.5q-26 0 -60 -6l-48 54l88 168q-212 34 -347 186t-135 359q0 115 45 217.5t122.5 176.5t187 117.5t233.5 43.5q233 0 401 -142l-140 -210q-130 104 -259 104t-217.5 -89t-88.5 -218q0 -130 88 -218t218 -88q138 0 266 112l156 -197
q-133 -130 -330 -157l-60 -92q82 -22 130.5 -76.5t48.5 -124.5q0 -95 -81.5 -158t-204.5 -63q-125 0 -206 63l83 121q48 -35 110 -35q43 0 70.5 21.5t27.5 54.5z" />
    <glyph glyph-name="egrave" unicode="&#xe8;" horiz-adv-x="1265" 
d="M351 446q19 -111 103 -178.5t204 -67.5q167 0 301 132l169 -164q-178 -193 -469 -193q-129 0 -240.5 43.5t-188 118t-120 176.5t-43.5 217t44 217.5t120 176.5t183.5 117.5t228.5 43.5q159 0 287 -72t198.5 -194.5t70.5 -269.5q0 -53 -12 -103h-836zM641 861
q-100 0 -177 -58.5t-106 -155.5h551q-24 96 -95.5 155t-172.5 59zM566 1563l268 -351h-269l-281 351h282z" />
    <glyph glyph-name="eacute" unicode="&#xe9;" horiz-adv-x="1265" 
d="M351 446q19 -111 103 -178.5t204 -67.5q167 0 301 132l169 -164q-178 -193 -469 -193q-129 0 -240.5 43.5t-188 118t-120 176.5t-43.5 217t44 217.5t120 176.5t183.5 117.5t228.5 43.5q159 0 287 -72t198.5 -194.5t70.5 -269.5q0 -53 -12 -103h-836zM641 861
q-100 0 -177 -58.5t-106 -155.5h551q-24 96 -95.5 155t-172.5 59zM436 1212l267 351h283l-281 -351h-269z" />
    <glyph glyph-name="ecircumflex" unicode="&#xea;" horiz-adv-x="1265" 
d="M351 446q19 -111 103 -178.5t204 -67.5q167 0 301 132l169 -164q-178 -193 -469 -193q-129 0 -240.5 43.5t-188 118t-120 176.5t-43.5 217t44 217.5t120 176.5t183.5 117.5t228.5 43.5q159 0 287 -72t198.5 -194.5t70.5 -269.5q0 -53 -12 -103h-836zM641 861
q-100 0 -177 -58.5t-106 -155.5h551q-24 96 -95.5 155t-172.5 59zM532 1563h201l299 -351h-266l-133 159l-133 -159h-267z" />
    <glyph glyph-name="edieresis" unicode="&#xeb;" horiz-adv-x="1265" 
d="M351 446q19 -111 103 -178.5t204 -67.5q167 0 301 132l169 -164q-178 -193 -469 -193q-129 0 -240.5 43.5t-188 118t-120 176.5t-43.5 217t44 217.5t120 176.5t183.5 117.5t228.5 43.5q159 0 287 -72t198.5 -194.5t70.5 -269.5q0 -53 -12 -103h-836zM641 861
q-100 0 -177 -58.5t-106 -155.5h551q-24 96 -95.5 155t-172.5 59zM285 1372q0 63 43 106.5t107 43.5t107.5 -43.5t43.5 -106.5t-43.5 -106t-107.5 -43t-107 43t-43 106zM680 1372q0 63 43 106.5t107 43.5t107.5 -43.5t43.5 -106.5t-43.5 -106t-107.5 -43t-107 43t-43 106z
" />
    <glyph glyph-name="igrave" unicode="&#xec;" horiz-adv-x="565" 
d="M141 0v1061h282v-1061h-282zM201 1563l267 -351h-268l-282 351h283z" />
    <glyph glyph-name="iacute" unicode="&#xed;" horiz-adv-x="565" 
d="M141 0v1061h282v-1061h-282zM97 1212l268 351h282l-281 -351h-269z" />
    <glyph glyph-name="icircumflex" unicode="&#xee;" horiz-adv-x="565" 
d="M141 0v1061h282v-1061h-282zM181 1563h201l299 -351h-266l-133 159l-134 -159h-266z" />
    <glyph glyph-name="idieresis" unicode="&#xef;" horiz-adv-x="565" 
d="M141 0v1061h282v-1061h-282zM-66 1372q0 63 43.5 106.5t107.5 43.5t107.5 -43.5t43.5 -106.5t-43.5 -106t-107.5 -43t-107.5 43t-43.5 106zM330 1372q0 63 43 106.5t107 43.5t107.5 -43.5t43.5 -106.5t-43.5 -106t-107.5 -43t-107 43t-43 106z" />
    <glyph glyph-name="eth" unicode="&#xf0;" horiz-adv-x="1277" 
d="M331 1038l-72 140l197 93q-73 45 -185 93l226 131q103 -46 198 -110l209 100l72 -143l-140 -66q171 -154 267.5 -353.5t96.5 -412.5q0 -148 -73.5 -270.5t-203.5 -193.5t-289 -71q-157 0 -287 69t-205 190t-75 266q0 107 45 204t118.5 164.5t169.5 107.5t196 40
q115 0 196 -54q-74 113 -186 205zM348 506q0 -119 83 -200.5t205 -81.5t205 81.5t83 200.5q0 120 -83 201t-205 81t-205 -81t-83 -201z" />
    <glyph glyph-name="ntilde" unicode="&#xf1;" horiz-adv-x="1255" 
d="M418 690v-690h-282v1061h282v-117q54 64 133.5 102.5t164.5 38.5q187 0 305.5 -120t118.5 -312v-653h-282v626q0 91 -58 151t-153 60q-65 0 -128 -43t-101 -104zM650 1264q-74 39 -99 39q-45 0 -62 -77l-225 45q45 232 212 232q71 0 150 -46q74 -39 99 -39q44 0 61 77
l226 -45q-45 -232 -212 -232q-71 0 -150 46z" />
    <glyph glyph-name="ograve" unicode="&#xf2;" horiz-adv-x="1310" 
d="M67 530q0 115 45 217.5t122.5 176.5t187 117.5t233.5 43.5t234 -43.5t187.5 -117.5t122.5 -176.5t45 -217.5t-45 -217.5t-122.5 -176.5t-187.5 -117.5t-234 -43.5t-233.5 43.5t-187 117.5t-122.5 176.5t-45 217.5zM349 530q0 -130 88 -218t218 -88q131 0 219.5 88
t88.5 218q0 129 -89 218t-219 89q-129 0 -217.5 -89t-88.5 -218zM573 1563l268 -351h-269l-281 351h282z" />
    <glyph glyph-name="oacute" unicode="&#xf3;" horiz-adv-x="1310" 
d="M67 530q0 115 45 217.5t122.5 176.5t187 117.5t233.5 43.5t234 -43.5t187.5 -117.5t122.5 -176.5t45 -217.5t-45 -217.5t-122.5 -176.5t-187.5 -117.5t-234 -43.5t-233.5 43.5t-187 117.5t-122.5 176.5t-45 217.5zM349 530q0 -130 88 -218t218 -88q131 0 219.5 88
t88.5 218q0 129 -89 218t-219 89q-129 0 -217.5 -89t-88.5 -218zM474 1212l267 351h283l-282 -351h-268z" />
    <glyph glyph-name="ocircumflex" unicode="&#xf4;" horiz-adv-x="1310" 
d="M67 530q0 115 45 217.5t122.5 176.5t187 117.5t233.5 43.5t234 -43.5t187.5 -117.5t122.5 -176.5t45 -217.5t-45 -217.5t-122.5 -176.5t-187.5 -117.5t-234 -43.5t-233.5 43.5t-187 117.5t-122.5 176.5t-45 217.5zM349 530q0 -130 88 -218t218 -88q131 0 219.5 88
t88.5 218q0 129 -89 218t-219 89q-129 0 -217.5 -89t-88.5 -218zM555 1563h201l299 -351h-267l-133 159l-133 -159h-266z" />
    <glyph glyph-name="otilde" unicode="&#xf5;" horiz-adv-x="1310" 
d="M67 530q0 115 45 217.5t122.5 176.5t187 117.5t233.5 43.5t234 -43.5t187.5 -117.5t122.5 -176.5t45 -217.5t-45 -217.5t-122.5 -176.5t-187.5 -117.5t-234 -43.5t-233.5 43.5t-187 117.5t-122.5 176.5t-45 217.5zM349 530q0 -130 88 -218t218 -88q131 0 219.5 88
t88.5 218q0 129 -89 218t-219 89q-129 0 -217.5 -89t-88.5 -218zM668 1264q-74 39 -100 39q-44 0 -61 -77l-225 45q45 232 212 232q70 0 149 -46q74 -39 99 -39q45 0 62 77l225 -45q-45 -232 -212 -232q-70 0 -149 46z" />
    <glyph glyph-name="odieresis" unicode="&#xf6;" horiz-adv-x="1310" 
d="M67 530q0 115 45 217.5t122.5 176.5t187 117.5t233.5 43.5t234 -43.5t187.5 -117.5t122.5 -176.5t45 -217.5t-45 -217.5t-122.5 -176.5t-187.5 -117.5t-234 -43.5t-233.5 43.5t-187 117.5t-122.5 176.5t-45 217.5zM349 530q0 -130 88 -218t218 -88q131 0 219.5 88
t88.5 218q0 129 -89 218t-219 89q-129 0 -217.5 -89t-88.5 -218zM307 1372q0 63 43.5 106.5t107.5 43.5t107 -43.5t43 -106.5t-43 -106t-107 -43t-107.5 43t-43.5 106zM702 1372q0 63 43.5 106.5t107.5 43.5t107.5 -43.5t43.5 -106.5t-43.5 -106t-107.5 -43t-107.5 43
t-43.5 106z" />
    <glyph glyph-name="divide" unicode="&#xf7;" horiz-adv-x="1193" 
d="M1073 558h-952v243h952v-243zM429 1079q0 71 48.5 119t119.5 48t119.5 -48t48.5 -119t-48.5 -119t-119.5 -48t-119.5 48t-48.5 119zM429 280q0 70 48.5 118t119.5 48t119.5 -48t48.5 -118q0 -71 -48.5 -119t-119.5 -48t-119.5 48t-48.5 119z" />
    <glyph glyph-name="oslash" unicode="&#xf8;" horiz-adv-x="1310" 
d="M67 530q0 115 45 217.5t122.5 176.5t187 117.5t233.5 43.5q151 0 277 -62l78 99h218l-154 -196q81 -75 125.5 -177.5t44.5 -218.5q0 -115 -45 -217.5t-122.5 -176.5t-187.5 -117.5t-234 -43.5q-149 0 -277 63l-79 -99h-218l155 196q-80 76 -124.5 177.5t-44.5 217.5z
M975 530q0 108 -63 190l-380 -484q62 -25 123 -25q135 0 227.5 92.5t92.5 226.5zM336 530q0 -107 60 -189l380 483q-62 25 -121 25q-134 0 -226.5 -92.5t-92.5 -226.5z" />
    <glyph glyph-name="ugrave" unicode="&#xf9;" horiz-adv-x="1255" 
d="M838 371v690h281v-1061h-281v117q-55 -65 -134 -103.5t-164 -38.5q-187 0 -305.5 120.5t-118.5 312.5v653h281v-626q0 -91 58 -151t153 -60q65 0 128.5 43.5t101.5 103.5zM519 1563l267 -351h-268l-281 351h282z" />
    <glyph glyph-name="uacute" unicode="&#xfa;" horiz-adv-x="1255" 
d="M838 371v690h281v-1061h-281v117q-55 -65 -134 -103.5t-164 -38.5q-187 0 -305.5 120.5t-118.5 312.5v653h281v-626q0 -91 58 -151t153 -60q65 0 128.5 43.5t101.5 103.5zM440 1212l268 351h282l-281 -351h-269z" />
    <glyph glyph-name="ucircumflex" unicode="&#xfb;" horiz-adv-x="1255" 
d="M838 371v690h281v-1061h-281v117q-55 -65 -134 -103.5t-164 -38.5q-187 0 -305.5 120.5t-118.5 312.5v653h281v-626q0 -91 58 -151t153 -60q65 0 128.5 43.5t101.5 103.5zM517 1563h201l299 -351h-266l-134 159l-133 -159h-266z" />
    <glyph glyph-name="udieresis" unicode="&#xfc;" horiz-adv-x="1255" 
d="M838 371v690h281v-1061h-281v117q-55 -65 -134 -103.5t-164 -38.5q-187 0 -305.5 120.5t-118.5 312.5v653h281v-626q0 -91 58 -151t153 -60q65 0 128.5 43.5t101.5 103.5zM269 1372q0 63 43.5 106.5t107.5 43.5t107 -43.5t43 -106.5t-43 -106t-107 -43t-107.5 43
t-43.5 106zM665 1372q0 63 43 106.5t107 43.5t107.5 -43.5t43.5 -106.5t-43.5 -106t-107.5 -43t-107 43t-43 106z" />
    <glyph glyph-name="yacute" unicode="&#xfd;" horiz-adv-x="1099" 
d="M516 -475h-294l187 475l-390 1061h293l236 -705l239 705h293zM367 1212l267 351h282l-281 -351h-268z" />
    <glyph glyph-name="thorn" unicode="&#xfe;" horiz-adv-x="1346" 
d="M691 224q130 0 218 88t88 218t-88 218.5t-218 88.5q-91 0 -165.5 -46t-110.5 -123v-275q36 -77 110.5 -123t165.5 -46zM751 1085q149 0 271 -75t190 -202t68 -278t-68 -278t-190 -202t-271 -75q-202 0 -336 131v-581h-279v1970h279v-541q134 131 336 131z" />
    <glyph glyph-name="ydieresis" unicode="&#xff;" horiz-adv-x="1099" 
d="M516 -475h-294l187 475l-390 1061h293l236 -705l239 705h293zM201 1372q0 63 43 106.5t107 43.5t107.5 -43.5t43.5 -106.5t-43.5 -106t-107.5 -43t-107 43t-43 106zM596 1372q0 63 43 106.5t107 43.5t107.5 -43.5t43.5 -106.5t-43.5 -106t-107.5 -43t-107 43t-43 106z
" />
    <glyph glyph-name="Amacron" unicode="&#x100;" horiz-adv-x="1415" 
d="M547 1434h321l513 -1434h-308l-106 323h-518l-107 -323h-308zM892 560l-184 563l-185 -563h369zM390 1593v211h635v-211h-635z" />
    <glyph glyph-name="amacron" unicode="&#x101;" horiz-adv-x="1346" 
d="M655 224q91 0 166 46t111 123v275q-36 77 -111 123t-166 46q-130 0 -218 -88.5t-88 -218.5t88 -218t218 -88zM596 1085q202 0 336 -131v107h278v-1061h-278v106q-134 -131 -336 -131q-149 0 -271 75t-190 202t-68 278t68 278t190 202t271 75zM334 1262v211h635v-211h-635
z" />
    <glyph glyph-name="Abreve" unicode="&#x102;" horiz-adv-x="1415" 
d="M547 1434h321l513 -1434h-308l-106 323h-518l-107 -323h-308zM892 560l-184 563l-185 -563h369zM708 1524q-144 0 -250 91t-112 230h235q1 -57 37.5 -94.5t89.5 -37.5t89.5 37.5t37.5 94.5h234q-6 -139 -111.5 -230t-249.5 -91z" />
    <glyph glyph-name="abreve" unicode="&#x103;" horiz-adv-x="1346" 
d="M655 224q91 0 166 46t111 123v275q-36 77 -111 123t-166 46q-130 0 -218 -88.5t-88 -218.5t88 -218t218 -88zM596 1085q202 0 336 -131v107h278v-1061h-278v106q-134 -131 -336 -131q-149 0 -271 75t-190 202t-68 278t68 278t190 202t271 75zM651 1192q-144 0 -249.5 91
t-111.5 230h234q1 -57 37.5 -94.5t89.5 -37.5t89.5 37.5t37.5 94.5h235q-6 -139 -112 -230t-250 -91z" />
    <glyph glyph-name="Aogonek" unicode="&#x104;" horiz-adv-x="1415" 
d="M1191 0h-118l-106 323h-518l-107 -323h-308l513 1434h321l513 -1434q-161 -133 -161 -225q0 -38 26 -62.5t65 -24.5q44 0 79 22l55 -131q-71 -48 -175 -48q-108 0 -181 61t-73 152q0 69 47.5 135t127.5 121zM892 560l-184 563l-185 -563h369z" />
    <glyph glyph-name="aogonek" unicode="&#x105;" horiz-adv-x="1346" 
d="M596 1085q202 0 336 -131v107h278v-1061q-161 -133 -161 -225q0 -38 26 -62.5t65 -24.5q44 0 79 22l55 -131q-71 -48 -175 -48q-108 0 -181 61t-73 152q0 69 47.5 135t127.5 121h-88v106q-134 -131 -336 -131q-149 0 -271 75t-190 202t-68 278t68 278t190 202t271 75z
M655 224q91 0 166 46t111 123v275q-36 77 -111 123t-166 46q-130 0 -218 -88.5t-88 -218.5t88 -218t218 -88z" />
    <glyph glyph-name="Cacute" unicode="&#x106;" horiz-adv-x="1423" 
d="M848 -25q-160 0 -303 57.5t-245 156.5t-161.5 236.5t-59.5 291.5q0 206 101 376t277.5 267.5t390.5 97.5q276 0 491 -166l-146 -216q-85 62 -166.5 95t-178.5 33q-200 0 -337.5 -140.5t-137.5 -346.5q0 -136 63 -248t172 -176t240 -64q96 0 188 38t167 101l154 -214
q-215 -179 -509 -179zM600 1544l267 350h283l-282 -350h-268z" />
    <glyph glyph-name="cacute" unicode="&#x107;" horiz-adv-x="1137" 
d="M655 -25q-124 0 -233.5 43.5t-187 117.5t-122.5 176.5t-45 217.5t45 217.5t122.5 176.5t187 117.5t233.5 43.5q233 0 401 -142l-140 -210q-130 104 -259 104t-217.5 -89t-88.5 -218q0 -130 88 -218t218 -88q138 0 266 112l156 -197q-169 -164 -424 -164zM412 1212
l267 351h283l-282 -351h-268z" />
    <glyph glyph-name="Ccircumflex" unicode="&#x108;" horiz-adv-x="1423" 
d="M848 -25q-160 0 -303 57.5t-245 156.5t-161.5 236.5t-59.5 291.5q0 206 101 376t277.5 267.5t390.5 97.5q276 0 491 -166l-146 -216q-85 62 -166.5 95t-178.5 33q-200 0 -337.5 -140.5t-137.5 -346.5q0 -136 63 -248t172 -176t240 -64q96 0 188 38t167 101l154 -214
q-215 -179 -509 -179zM693 1894h201l299 -350h-266l-133 159l-134 -159h-266z" />
    <glyph glyph-name="ccircumflex" unicode="&#x109;" horiz-adv-x="1137" 
d="M655 -25q-124 0 -233.5 43.5t-187 117.5t-122.5 176.5t-45 217.5t45 217.5t122.5 176.5t187 117.5t233.5 43.5q233 0 401 -142l-140 -210q-130 104 -259 104t-217.5 -89t-88.5 -218q0 -130 88 -218t218 -88q138 0 266 112l156 -197q-169 -164 -424 -164zM499 1563h200
l299 -351h-266l-133 159l-133 -159h-266z" />
    <glyph glyph-name="Cdotaccent" unicode="&#x10a;" horiz-adv-x="1423" 
d="M848 -25q-160 0 -303 57.5t-245 156.5t-161.5 236.5t-59.5 291.5q0 206 101 376t277.5 267.5t390.5 97.5q276 0 491 -166l-146 -216q-85 62 -166.5 95t-178.5 33q-200 0 -337.5 -140.5t-137.5 -346.5q0 -136 63 -248t172 -176t240 -64q96 0 188 38t167 101l154 -214
q-215 -179 -509 -179zM639 1703q0 64 44.5 108t109.5 44q64 0 108.5 -44t44.5 -108t-44.5 -108.5t-108.5 -44.5t-109 44.5t-45 108.5z" />
    <glyph glyph-name="cdotaccent" unicode="&#x10b;" horiz-adv-x="1137" 
d="M655 -25q-124 0 -233.5 43.5t-187 117.5t-122.5 176.5t-45 217.5t45 217.5t122.5 176.5t187 117.5t233.5 43.5q233 0 401 -142l-140 -210q-130 104 -259 104t-217.5 -89t-88.5 -218q0 -130 88 -218t218 -88q138 0 266 112l156 -197q-169 -164 -424 -164zM466 1371
q0 64 45 108.5t109 44.5t108.5 -44.5t44.5 -108.5t-44.5 -108t-108.5 -44q-65 0 -109.5 44t-44.5 108z" />
    <glyph glyph-name="Ccaron" unicode="&#x10c;" horiz-adv-x="1423" 
d="M848 -25q-160 0 -303 57.5t-245 156.5t-161.5 236.5t-59.5 291.5q0 206 101 376t277.5 267.5t390.5 97.5q276 0 491 -166l-146 -216q-85 62 -166.5 95t-178.5 33q-200 0 -337.5 -140.5t-137.5 -346.5q0 -136 63 -248t172 -176t240 -64q96 0 188 38t167 101l154 -214
q-215 -179 -509 -179zM894 1544h-201l-299 350h266l134 -158l133 158h266z" />
    <glyph glyph-name="ccaron" unicode="&#x10d;" horiz-adv-x="1137" 
d="M655 -25q-124 0 -233.5 43.5t-187 117.5t-122.5 176.5t-45 217.5t45 217.5t122.5 176.5t187 117.5t233.5 43.5q233 0 401 -142l-140 -210q-130 104 -259 104t-217.5 -89t-88.5 -218q0 -130 88 -218t218 -88q138 0 266 112l156 -197q-169 -164 -424 -164zM701 1192h-200
l-299 350h266l133 -159l133 159h266z" />
    <glyph glyph-name="Dcaron" unicode="&#x10e;" horiz-adv-x="1473" 
d="M157 1434h519q328 0 523.5 -194.5t195.5 -522.5t-195.5 -522.5t-523.5 -194.5h-519v1434zM666 1180h-219v-926h219q200 0 317.5 117.5t117.5 345.5t-117.5 345.5t-317.5 117.5zM781 1544h-200l-299 350h266l133 -158l133 158h266z" />
    <glyph glyph-name="dcaron" unicode="&#x10f;" horiz-adv-x="1693" 
d="M655 224q91 0 166 46t111 123v275q-36 77 -111 123t-166 46q-130 0 -218 -88.5t-88 -218.5t88 -218t218 -88zM596 1085q202 0 336 -131v541h278v-1495h-278v106q-134 -131 -336 -131q-149 0 -271 75t-190 202t-68 278t68 278t190 202t271 75zM1330 1356q0 69 47.5 116.5
t116.5 47.5t116.5 -47.5t47.5 -116.5q0 -34 -19 -77l-144 -308h-172l110 234q-46 19 -74.5 59t-28.5 92z" />
    <glyph glyph-name="Dcroat" unicode="&#x110;" horiz-adv-x="1508" 
d="M191 1434h520q328 0 523.5 -194.5t195.5 -522.5t-195.5 -522.5t-523.5 -194.5h-520v621h-179v191h179v622zM744 621h-262v-367h218q200 0 318 117.5t118 345.5t-118 345.5t-318 117.5h-218v-368h262v-191z" />
    <glyph glyph-name="dcroat" unicode="&#x111;" horiz-adv-x="1371" 
d="M627 1180v171h305v144h278v-144h141v-171h-141v-1180h-278v106q-134 -131 -336 -131q-149 0 -271 75t-190 202t-68 278t68 278t190 202t271 75q202 0 336 -131v226h-305zM655 224q91 0 166 46t111 123v275q-36 77 -111 123t-166 46q-130 0 -218 -88.5t-88 -218.5t88 -218
t218 -88z" />
    <glyph glyph-name="Emacron" unicode="&#x112;" horiz-adv-x="1173" 
d="M157 0v1434h893v-248h-603v-342h553v-246h-553v-350h621v-248h-911zM284 1593v211h635v-211h-635z" />
    <glyph glyph-name="emacron" unicode="&#x113;" horiz-adv-x="1265" 
d="M351 446q19 -111 103 -178.5t204 -67.5q167 0 301 132l169 -164q-178 -193 -469 -193q-129 0 -240.5 43.5t-188 118t-120 176.5t-43.5 217t44 217.5t120 176.5t183.5 117.5t228.5 43.5q159 0 287 -72t198.5 -194.5t70.5 -269.5q0 -53 -12 -103h-836zM641 861
q-100 0 -177 -58.5t-106 -155.5h551q-24 96 -95.5 155t-172.5 59zM315 1262v211h635v-211h-635z" />
    <glyph glyph-name="Ebreve" unicode="&#x114;" horiz-adv-x="1173" 
d="M157 0v1434h893v-248h-603v-342h553v-246h-553v-350h621v-248h-911zM602 1524q-144 0 -249.5 91t-111.5 230h234q1 -57 37.5 -94.5t89.5 -37.5t89.5 37.5t37.5 94.5h235q-6 -139 -112 -230t-250 -91z" />
    <glyph glyph-name="ebreve" unicode="&#x115;" horiz-adv-x="1265" 
d="M351 446q19 -111 103 -178.5t204 -67.5q167 0 301 132l169 -164q-178 -193 -469 -193q-129 0 -240.5 43.5t-188 118t-120 176.5t-43.5 217t44 217.5t120 176.5t183.5 117.5t228.5 43.5q159 0 287 -72t198.5 -194.5t70.5 -269.5q0 -53 -12 -103h-836zM641 861
q-100 0 -177 -58.5t-106 -155.5h551q-24 96 -95.5 155t-172.5 59zM633 1192q-144 0 -250 91t-112 230h235q1 -57 37.5 -94.5t89.5 -37.5t89.5 37.5t37.5 94.5h234q-6 -139 -111.5 -230t-249.5 -91z" />
    <glyph glyph-name="Edotaccent" unicode="&#x116;" horiz-adv-x="1173" 
d="M157 0v1434h893v-248h-603v-342h553v-246h-553v-350h621v-248h-911zM458 1703q0 64 44.5 108t108.5 44q65 0 109.5 -44t44.5 -108t-45 -108.5t-109 -44.5t-108.5 44.5t-44.5 108.5z" />
    <glyph glyph-name="edotaccent" unicode="&#x117;" horiz-adv-x="1265" 
d="M351 446q19 -111 103 -178.5t204 -67.5q167 0 301 132l169 -164q-178 -193 -469 -193q-129 0 -240.5 43.5t-188 118t-120 176.5t-43.5 217t44 217.5t120 176.5t183.5 117.5t228.5 43.5q159 0 287 -72t198.5 -194.5t70.5 -269.5q0 -53 -12 -103h-836zM641 861
q-100 0 -177 -58.5t-106 -155.5h551q-24 96 -95.5 155t-172.5 59zM479 1371q0 64 45 108.5t109 44.5t108.5 -44.5t44.5 -108.5t-44.5 -108t-108.5 -44q-65 0 -109.5 44t-44.5 108z" />
    <glyph glyph-name="Eogonek" unicode="&#x118;" horiz-adv-x="1173" 
d="M157 0v1434h893v-248h-603v-342h553v-246h-553v-350h621v-248h-178q-162 -134 -162 -225q0 -38 26 -62.5t65 -24.5q44 0 79 22l55 -131q-71 -48 -175 -48q-108 0 -181 61t-73 152q0 69 47.5 135t127.5 121h-542z" />
    <glyph glyph-name="eogonek" unicode="&#x119;" horiz-adv-x="1265" 
d="M351 446q19 -111 103 -178.5t204 -67.5q167 0 301 132l169 -164q-145 -157 -367 -185q-140 -121 -140 -208q0 -38 26 -62.5t65 -24.5q44 0 79 22l55 -131q-71 -48 -175 -48q-108 0 -181 61t-73 152q0 126 148 238q-224 29 -361 181.5t-137 366.5q0 115 44 217.5
t120 176.5t183.5 117.5t228.5 43.5q159 0 287 -72t198.5 -194.5t70.5 -269.5q0 -53 -12 -103h-836zM641 861q-100 0 -177 -58.5t-106 -155.5h551q-24 96 -95.5 155t-172.5 59z" />
    <glyph glyph-name="Ecaron" unicode="&#x11a;" horiz-adv-x="1173" 
d="M157 0v1434h893v-248h-603v-342h553v-246h-553v-350h621v-248h-911zM703 1544h-200l-299 350h266l133 -158l133 158h266z" />
    <glyph glyph-name="ecaron" unicode="&#x11b;" horiz-adv-x="1265" 
d="M351 446q19 -111 103 -178.5t204 -67.5q167 0 301 132l169 -164q-178 -193 -469 -193q-129 0 -240.5 43.5t-188 118t-120 176.5t-43.5 217t44 217.5t120 176.5t183.5 117.5t228.5 43.5q159 0 287 -72t198.5 -194.5t70.5 -269.5q0 -53 -12 -103h-836zM641 861
q-100 0 -177 -58.5t-106 -155.5h551q-24 96 -95.5 155t-172.5 59zM733 1192h-201l-299 350h267l133 -159l133 159h266z" />
    <glyph glyph-name="Gcircumflex" unicode="&#x11c;" horiz-adv-x="1492" 
d="M848 1204q-201 0 -338 -140.5t-137 -349.5q0 -136 63 -248.5t172 -177t240 -64.5q129 0 225 60v275h-314v235h605v-633q-102 -88 -235.5 -137t-280.5 -49q-160 0 -303 57.5t-245 156.5t-161.5 236.5t-59.5 291.5q0 206 101 376t277.5 267.5t390.5 97.5q276 0 491 -166
l-146 -216q-85 62 -166.5 95t-178.5 33zM693 1894h201l299 -350h-266l-133 159l-134 -159h-266z" />
    <glyph glyph-name="gcircumflex" unicode="&#x11d;" horiz-adv-x="1346" 
d="M932 393v275q-36 77 -111 123t-166 46q-130 0 -218 -88.5t-88 -218.5t88 -218t218 -88q91 0 166 46t111 123zM932 954v107h278v-999q0 -243 -148.5 -390t-415.5 -147q-150 0 -282 53.5t-223 150.5l162 185q148 -148 331 -148q136 0 217 74t81 204v70q-133 -131 -336 -131
q-149 0 -271 73.5t-190 198.5t-68 275q0 151 68 278t190 202t271 75q202 0 336 -131zM564 1563h201l299 -351h-266l-133 159l-134 -159h-266z" />
    <glyph glyph-name="Gbreve" unicode="&#x11e;" horiz-adv-x="1492" 
d="M848 1204q-201 0 -338 -140.5t-137 -349.5q0 -136 63 -248.5t172 -177t240 -64.5q129 0 225 60v275h-314v235h605v-633q-102 -88 -235.5 -137t-280.5 -49q-160 0 -303 57.5t-245 156.5t-161.5 236.5t-59.5 291.5q0 206 101 376t277.5 267.5t390.5 97.5q276 0 491 -166
l-146 -216q-85 62 -166.5 95t-178.5 33zM794 1524q-144 0 -250 91t-112 230h235q1 -57 37.5 -94.5t89.5 -37.5t89.5 37.5t37.5 94.5h234q-6 -139 -111.5 -230t-249.5 -91z" />
    <glyph glyph-name="gbreve" unicode="&#x11f;" horiz-adv-x="1346" 
d="M932 393v275q-36 77 -111 123t-166 46q-130 0 -218 -88.5t-88 -218.5t88 -218t218 -88q91 0 166 46t111 123zM932 954v107h278v-999q0 -243 -148.5 -390t-415.5 -147q-150 0 -282 53.5t-223 150.5l162 185q148 -148 331 -148q136 0 217 74t81 204v70q-133 -131 -336 -131
q-149 0 -271 73.5t-190 198.5t-68 275q0 151 68 278t190 202t271 75q202 0 336 -131zM651 1192q-144 0 -249.5 91t-111.5 230h234q1 -57 37.5 -94.5t89.5 -37.5t89.5 37.5t37.5 94.5h235q-6 -139 -112 -230t-250 -91z" />
    <glyph glyph-name="Gdotaccent" unicode="&#x120;" horiz-adv-x="1492" 
d="M848 1204q-201 0 -338 -140.5t-137 -349.5q0 -136 63 -248.5t172 -177t240 -64.5q129 0 225 60v275h-314v235h605v-633q-102 -88 -235.5 -137t-280.5 -49q-160 0 -303 57.5t-245 156.5t-161.5 236.5t-59.5 291.5q0 206 101 376t277.5 267.5t390.5 97.5q276 0 491 -166
l-146 -216q-85 62 -166.5 95t-178.5 33zM639 1703q0 64 44.5 108t109.5 44q64 0 108.5 -44t44.5 -108t-44.5 -108.5t-108.5 -44.5t-109 44.5t-45 108.5z" />
    <glyph glyph-name="gdotaccent" unicode="&#x121;" horiz-adv-x="1346" 
d="M932 393v275q-36 77 -111 123t-166 46q-130 0 -218 -88.5t-88 -218.5t88 -218t218 -88q91 0 166 46t111 123zM932 954v107h278v-999q0 -243 -148.5 -390t-415.5 -147q-150 0 -282 53.5t-223 150.5l162 185q148 -148 331 -148q136 0 217 74t81 204v70q-133 -131 -336 -131
q-149 0 -271 73.5t-190 198.5t-68 275q0 151 68 278t190 202t271 75q202 0 336 -131zM490 1371q0 64 45 108.5t109 44.5t109 -44.5t45 -108.5t-44.5 -108t-109.5 -44t-109.5 44t-44.5 108z" />
    <glyph glyph-name="Gcommaaccent" unicode="&#x122;" horiz-adv-x="1492" 
d="M848 1204q-201 0 -338 -140.5t-137 -349.5q0 -136 63 -248.5t172 -177t240 -64.5q129 0 225 60v275h-314v235h605v-633q-102 -88 -235.5 -137t-280.5 -49q-160 0 -303 57.5t-245 156.5t-161.5 236.5t-59.5 291.5q0 206 101 376t277.5 267.5t390.5 97.5q276 0 491 -166
l-146 -216q-85 62 -166.5 95t-178.5 33zM804 -481h-254l159 350h287z" />
    <glyph glyph-name="gcommaaccent" unicode="&#x123;" horiz-adv-x="1346" 
d="M932 393v275q-36 77 -111 123t-166 46q-130 0 -218 -88.5t-88 -218.5t88 -218t218 -88q91 0 166 46t111 123zM932 954v107h278v-999q0 -243 -148.5 -390t-415.5 -147q-150 0 -282 53.5t-223 150.5l162 185q148 -148 331 -148q136 0 217 74t81 204v70q-133 -131 -336 -131
q-149 0 -271 73.5t-190 198.5t-68 275q0 151 68 278t190 202t271 75q202 0 336 -131zM679 1550h254l-159 -350h-288z" />
    <glyph glyph-name="Hcircumflex" unicode="&#x124;" horiz-adv-x="1447" 
d="M157 0v1434h290v-588h553v588h291v-1434h-291v595h-553v-595h-290zM624 1894h200l299 -350h-266l-133 159l-133 -159h-266z" />
    <glyph glyph-name="hcircumflex" unicode="&#x125;" horiz-adv-x="1255" 
d="M418 690v-690h-282v1495h282v-551q54 64 133.5 102.5t164.5 38.5q187 0 305.5 -120t118.5 -312v-653h-282v626q0 91 -58 151t-153 60q-65 0 -128 -43t-101 -104zM176 1956h201l299 -350h-266l-134 158l-133 -158h-266z" />
    <glyph glyph-name="Hbar" unicode="&#x126;" horiz-adv-x="1466" 
d="M166 0v1052h-123v188h123v194h291v-194h553v194h290v-194h123v-188h-123v-1052h-290v598h-553v-598h-291zM457 844h553v208h-553v-208z" />
    <glyph glyph-name="hbar" unicode="&#x127;" horiz-adv-x="1277" 
d="M20 1180v171h139v144h281v-144h304v-171h-304v-236q54 64 133.5 102.5t164.5 38.5q187 0 305.5 -120t118.5 -312v-653h-281v626q0 91 -58 151t-153 60q-65 0 -128.5 -43.5t-101.5 -103.5v-690h-281v1180h-139z" />
    <glyph glyph-name="Itilde" unicode="&#x128;" horiz-adv-x="620" 
d="M165 1434h291v-1434h-291v1434zM323 1597q-74 39 -100 39q-44 0 -61 -76l-225 45q45 232 211 232q71 0 150 -46q74 -39 99 -39q45 0 62 77l225 -45q-45 -233 -212 -233q-70 0 -149 46z" />
    <glyph glyph-name="itilde" unicode="&#x129;" horiz-adv-x="565" 
d="M141 0v1061h282v-1061h-282zM295 1264q-74 39 -99 39q-45 0 -62 -77l-225 45q45 232 212 232q70 0 149 -46q74 -39 100 -39q44 0 61 77l225 -45q-45 -232 -212 -232q-70 0 -149 46z" />
    <glyph glyph-name="Imacron" unicode="&#x12a;" horiz-adv-x="620" 
d="M165 1434h291v-1434h-291v1434zM-7 1593v211h635v-211h-635z" />
    <glyph glyph-name="imacron" unicode="&#x12b;" horiz-adv-x="565" 
d="M141 0v1061h282v-1061h-282zM-35 1262v211h635v-211h-635z" />
    <glyph glyph-name="Ibreve" unicode="&#x12c;" horiz-adv-x="620" 
d="M165 1434h291v-1434h-291v1434zM310 1524q-144 0 -249.5 91t-111.5 230h234q1 -57 37.5 -94.5t89.5 -37.5t89.5 37.5t37.5 94.5h235q-6 -139 -112 -230t-250 -91z" />
    <glyph glyph-name="ibreve" unicode="&#x12d;" horiz-adv-x="565" 
d="M141 0v1061h282v-1061h-282zM283 1192q-144 0 -250 91t-112 230h235q1 -57 37.5 -94.5t89.5 -37.5t89.5 37.5t37.5 94.5h234q-6 -139 -111.5 -230t-249.5 -91z" />
    <glyph glyph-name="Iogonek" unicode="&#x12e;" horiz-adv-x="620" 
d="M265 0h-100v1434h291v-1434q-162 -134 -162 -225q0 -38 26 -62.5t65 -24.5q44 0 79 22l55 -131q-71 -48 -175 -48q-108 0 -181 61t-73 152q0 69 47.5 135t127.5 121z" />
    <glyph glyph-name="iogonek" unicode="&#x12f;" horiz-adv-x="565" 
d="M141 0v1061h282v-1061q-162 -134 -162 -225q0 -38 26 -62.5t65 -24.5q44 0 79 22l55 -131q-71 -48 -175 -48q-108 0 -181 61t-73 152q0 69 47.5 135t127.5 121h-91zM116 1343q0 69 48 116t119 47t119 -47t48 -116t-48 -115.5t-119 -46.5t-119 46.5t-48 115.5z" />
    <glyph glyph-name="Idotaccent" unicode="&#x130;" horiz-adv-x="620" 
d="M165 1434h291v-1434h-291v1434zM157 1703q0 64 44.5 108t108.5 44q65 0 109.5 -44t44.5 -108t-45 -108.5t-109 -44.5t-108.5 44.5t-44.5 108.5z" />
    <glyph glyph-name="dotlessi" unicode="&#x131;" horiz-adv-x="565" 
d="M141 0v1061h282v-1061h-282z" />
    <glyph glyph-name="IJ" unicode="&#x132;" horiz-adv-x="1531" 
d="M165 1434h291v-1434h-291v1434zM1096 467v967h290v-977q0 -241 -120 -361.5t-350 -120.5q-80 0 -162 19.5t-141 52.5l84 240q94 -58 195 -58q204 0 204 238z" />
    <glyph glyph-name="ij" unicode="&#x133;" horiz-adv-x="1130" 
d="M141 0v1061h282v-1061h-282zM116 1343q0 69 48 116t119 47t119 -47t48 -116t-48 -115.5t-119 -46.5t-119 46.5t-48 115.5zM707 -92v1153h281v-1167q0 -189 -89.5 -279t-272.5 -90q-58 0 -100 7v238h55q65 0 95.5 31.5t30.5 106.5zM681 1343q0 69 48 116t119 47t119 -47
t48 -116t-48 -115.5t-119 -46.5t-119 46.5t-48 115.5z" />
    <glyph glyph-name="Jcircumflex" unicode="&#x134;" horiz-adv-x="952" 
d="M516 467v967h291v-977q0 -241 -120.5 -361.5t-349.5 -120.5q-80 0 -162 19.5t-141 52.5l84 240q94 -58 194 -58q204 0 204 238zM561 1894h201l299 -350h-266l-133 159l-134 -159h-266z" />
    <glyph glyph-name="jcircumflex" unicode="&#x135;" horiz-adv-x="565" 
d="M141 -92v1153h282v-1167q0 -188 -90 -278.5t-273 -90.5q-57 0 -99 7v238h54q65 0 95.5 31.5t30.5 106.5zM182 1563h201l299 -351h-266l-133 159l-133 -159h-267z" />
    <glyph glyph-name="Kcommaaccent" unicode="&#x136;" horiz-adv-x="1268" 
d="M447 1434v-585h82l361 585h320l-439 -707l518 -727h-326l-425 598h-91v-598h-290v1434h290zM648 -481h-254l159 350h288z" />
    <glyph glyph-name="kcommaaccent" unicode="&#x137;" horiz-adv-x="1098" 
d="M782 0l-277 464h-87v-464h-282v1495h282v-789h91l222 355h318l-312 -477l358 -584h-313zM530 -481h-254l159 350h288z" />
    <glyph glyph-name="kgreenlandic" unicode="&#x138;" horiz-adv-x="1098" 
d="M782 0l-277 464h-87v-464h-282v1061h282v-355h91l222 355h318l-312 -477l358 -584h-313z" />
    <glyph glyph-name="Lacute" unicode="&#x139;" horiz-adv-x="1062" 
d="M157 0v1434h290v-1183h580v-251h-870zM158 1544l267 350h283l-282 -350h-268z" />
    <glyph glyph-name="lacute" unicode="&#x13a;" horiz-adv-x="565" 
d="M141 0v1495h282v-1495h-282zM90 1606l267 350h283l-282 -350h-268z" />
    <glyph glyph-name="Lcommaaccent" unicode="&#x13b;" horiz-adv-x="1062" 
d="M157 0v1434h290v-1183h580v-251h-870zM577 -481h-254l158 350h288z" />
    <glyph glyph-name="lcommaaccent" unicode="&#x13c;" horiz-adv-x="565" 
d="M141 0v1495h282v-1495h-282zM258 -481h-254l159 350h288z" />
    <glyph glyph-name="Lcaron" unicode="&#x13d;" horiz-adv-x="1062" 
d="M157 0v1434h290v-1183h580v-251h-870zM645 1294q0 69 47.5 116.5t116.5 47.5t116.5 -47.5t47.5 -116.5q0 -33 -19 -76l-144 -309h-172l110 235q-46 20 -74.5 59.5t-28.5 90.5z" />
    <glyph glyph-name="lcaron" unicode="&#x13e;" horiz-adv-x="906" 
d="M141 0v1495h282v-1495h-282zM543 1356q0 69 47.5 116.5t116.5 47.5t116 -47.5t47 -116.5q0 -36 -18 -77l-144 -308h-172l109 234q-46 19 -74 59t-28 92z" />
    <glyph glyph-name="Ldot" unicode="&#x13f;" horiz-adv-x="1062" 
d="M157 0v1434h290v-1183h580v-251h-870zM627 779q0 64 44.5 108.5t108.5 44.5t109 -44.5t45 -108.5t-44.5 -108t-109.5 -44q-64 0 -108.5 44t-44.5 108z" />
    <glyph glyph-name="ldot" unicode="&#x140;" horiz-adv-x="889" 
d="M141 0v1495h282v-1495h-282zM544 769q0 64 44.5 108.5t108.5 44.5t109 -44.5t45 -108.5t-45 -108.5t-109 -44.5t-108.5 44.5t-44.5 108.5z" />
    <glyph glyph-name="Lslash" unicode="&#x141;" horiz-adv-x="1091" 
d="M185 0v524l-142 -72v211l142 72v699h291v-549l334 171v-211l-334 -171v-423h580v-251h-871z" />
    <glyph glyph-name="lslash" unicode="&#x142;" horiz-adv-x="633" 
d="M176 0v610l-156 -76v196l156 77v688h282v-549l155 77v-197l-155 -76v-750h-282z" />
    <glyph glyph-name="Nacute" unicode="&#x143;" horiz-adv-x="1447" 
d="M157 0v1434h295l565 -965v965h274v-1434h-295l-565 965v-965h-274zM537 1544l267 350h282l-281 -350h-268z" />
    <glyph glyph-name="nacute" unicode="&#x144;" horiz-adv-x="1255" 
d="M418 690v-690h-282v1061h282v-117q54 64 133.5 102.5t164.5 38.5q187 0 305.5 -120t118.5 -312v-653h-282v626q0 91 -58 151t-153 60q-65 0 -128 -43t-101 -104zM449 1212l267 351h282l-281 -351h-268z" />
    <glyph glyph-name="Ncommaaccent" unicode="&#x145;" horiz-adv-x="1448" 
d="M157 0v1434h295l565 -965v965h274v-1434h-295l-565 965v-965h-274zM718 -481h-254l159 350h287z" />
    <glyph glyph-name="ncommaaccent" unicode="&#x146;" horiz-adv-x="1255" 
d="M418 690v-690h-282v1061h282v-117q54 64 133.5 102.5t164.5 38.5q187 0 305.5 -120t118.5 -312v-653h-282v626q0 91 -58 151t-153 60q-65 0 -128 -43t-101 -104zM624 -481h-254l158 350h288z" />
    <glyph glyph-name="Ncaron" unicode="&#x147;" horiz-adv-x="1448" 
d="M157 0v1434h295l565 -965v965h274v-1434h-295l-565 965v-965h-274zM824 1544h-200l-299 350h266l133 -158l133 158h266z" />
    <glyph glyph-name="ncaron" unicode="&#x148;" horiz-adv-x="1255" 
d="M418 690v-690h-282v1061h282v-117q54 64 133.5 102.5t164.5 38.5q187 0 305.5 -120t118.5 -312v-653h-282v626q0 91 -58 151t-153 60q-65 0 -128 -43t-101 -104zM722 1192h-201l-299 350h266l134 -159l133 159h266z" />
    <glyph glyph-name="napostrophe" unicode="&#x149;" horiz-adv-x="1490" 
d="M653 690v-690h-281v1061h281v-117q54 64 133.5 102.5t164.5 38.5q187 0 305.5 -120t118.5 -312v-653h-281v626q0 91 -58 151t-153 60q-65 0 -128.5 -43.5t-101.5 -103.5zM51 1356q0 69 47.5 116.5t116.5 47.5t116.5 -47.5t47.5 -116.5q0 -34 -19 -77l-144 -308h-172
l110 234q-46 19 -74.5 59t-28.5 92z" />
    <glyph glyph-name="Eng" unicode="&#x14a;" horiz-adv-x="1447" 
d="M1017 -98v103l-586 965v-970h-274v1434h278l582 -958v958h274v-1536q0 -373 -415 -373q-67 0 -117 10v224q47 -5 96 -5q86 0 124 36t38 112z" />
    <glyph glyph-name="eng" unicode="&#x14b;" horiz-adv-x="1255" 
d="M1140 653v-754q0 -374 -417 -374q-58 0 -122 10v224q45 -5 94 -5q76 0 119.5 37t43.5 111v724q0 91 -58 151t-153 60q-65 0 -128 -43t-101 -104v-690h-282v1061h282v-117q54 64 133.5 102.5t164.5 38.5q187 0 305.5 -120t118.5 -312z" />
    <glyph glyph-name="Omacron" unicode="&#x14c;" horiz-adv-x="1695" 
d="M373 717q0 -136 63 -248t172 -176t240 -64t240 64t172 176t63 248q0 206 -137.5 346.5t-337.5 140.5t-337.5 -140.5t-137.5 -346.5zM79 717q0 206 101 376t277.5 267.5t390.5 97.5t390.5 -97.5t277.5 -267.5t101 -376q0 -154 -59.5 -291.5t-161.5 -236.5t-245 -156.5
t-303 -57.5t-303 57.5t-245 156.5t-161.5 236.5t-59.5 291.5zM530 1593v211h635v-211h-635z" />
    <glyph glyph-name="omacron" unicode="&#x14d;" horiz-adv-x="1310" 
d="M67 530q0 115 45 217.5t122.5 176.5t187 117.5t233.5 43.5t234 -43.5t187.5 -117.5t122.5 -176.5t45 -217.5t-45 -217.5t-122.5 -176.5t-187.5 -117.5t-234 -43.5t-233.5 43.5t-187 117.5t-122.5 176.5t-45 217.5zM349 530q0 -130 88 -218t218 -88q131 0 219.5 88
t88.5 218q0 129 -89 218t-219 89q-129 0 -217.5 -89t-88.5 -218zM338 1262v211h635v-211h-635z" />
    <glyph glyph-name="Obreve" unicode="&#x14e;" horiz-adv-x="1695" 
d="M373 717q0 -136 63 -248t172 -176t240 -64t240 64t172 176t63 248q0 206 -137.5 346.5t-337.5 140.5t-337.5 -140.5t-137.5 -346.5zM79 717q0 206 101 376t277.5 267.5t390.5 97.5t390.5 -97.5t277.5 -267.5t101 -376q0 -154 -59.5 -291.5t-161.5 -236.5t-245 -156.5
t-303 -57.5t-303 57.5t-245 156.5t-161.5 236.5t-59.5 291.5zM848 1524q-144 0 -250 91t-112 230h235q1 -57 37.5 -94.5t89.5 -37.5t89.5 37.5t37.5 94.5h234q-6 -139 -111.5 -230t-249.5 -91z" />
    <glyph glyph-name="obreve" unicode="&#x14f;" horiz-adv-x="1310" 
d="M67 530q0 115 45 217.5t122.5 176.5t187 117.5t233.5 43.5t234 -43.5t187.5 -117.5t122.5 -176.5t45 -217.5t-45 -217.5t-122.5 -176.5t-187.5 -117.5t-234 -43.5t-233.5 43.5t-187 117.5t-122.5 176.5t-45 217.5zM349 530q0 -130 88 -218t218 -88q131 0 219.5 88
t88.5 218q0 129 -89 218t-219 89q-129 0 -217.5 -89t-88.5 -218zM655 1192q-144 0 -249.5 91t-111.5 230h234q1 -57 37.5 -94.5t89.5 -37.5t89.5 37.5t37.5 94.5h235q-6 -139 -112 -230t-250 -91z" />
    <glyph glyph-name="Ohungarumlaut" unicode="&#x150;" horiz-adv-x="1695" 
d="M373 717q0 -136 63 -248t172 -176t240 -64t240 64t172 176t63 248q0 206 -137.5 346.5t-337.5 140.5t-337.5 -140.5t-137.5 -346.5zM79 717q0 206 101 376t277.5 267.5t390.5 97.5t390.5 -97.5t277.5 -267.5t101 -376q0 -154 -59.5 -291.5t-161.5 -236.5t-245 -156.5
t-303 -57.5t-303 57.5t-245 156.5t-161.5 236.5t-59.5 291.5zM506 1544l267 350h264l-278 -350h-253zM863 1544l267 350h265l-279 -350h-253z" />
    <glyph glyph-name="ohungarumlaut" unicode="&#x151;" horiz-adv-x="1310" 
d="M67 530q0 115 45 217.5t122.5 176.5t187 117.5t233.5 43.5t234 -43.5t187.5 -117.5t122.5 -176.5t45 -217.5t-45 -217.5t-122.5 -176.5t-187.5 -117.5t-234 -43.5t-233.5 43.5t-187 117.5t-122.5 176.5t-45 217.5zM349 530q0 -130 88 -218t218 -88q131 0 219.5 88
t88.5 218q0 129 -89 218t-219 89q-129 0 -217.5 -89t-88.5 -218zM295 1212l267 351h264l-278 -351h-253zM652 1212l268 351h264l-279 -351h-253z" />
    <glyph glyph-name="OE" unicode="&#x152;" horiz-adv-x="1861" 
d="M848 253h15v928h-15q-201 0 -338.5 -133t-137.5 -331t137 -331t339 -133zM1756 0h-908q-158 0 -300.5 55.5t-245.5 151t-163 228.5t-60 282t60 282t163 228.5t245.5 151t300.5 55.5h890v-248h-587v-342h538v-246h-538v-350h605v-248z" />
    <glyph glyph-name="oe" unicode="&#x153;" horiz-adv-x="2202" 
d="M67 530q0 115 45 217.5t122.5 176.5t187 117.5t233.5 43.5q144 0 268 -64.5t200 -172.5q72 106 194.5 171.5t262.5 65.5q159 0 287 -72t198.5 -194.5t70.5 -269.5q0 -53 -12 -103h-837q20 -110 104.5 -178t203.5 -68q167 0 301 132l169 -164q-178 -193 -469 -193
q-151 0 -276 64.5t-199 171.5q-76 -108 -199 -172t-267 -64q-124 0 -233.5 43.5t-187 117.5t-122.5 176.5t-45 217.5zM349 530q0 -130 88 -218t218 -88q131 0 219.5 88t88.5 218q0 129 -89 218t-219 89q-129 0 -217.5 -89t-88.5 -218zM1578 861q-100 0 -177.5 -58.5
t-105.5 -155.5h551q-25 97 -96 155.5t-172 58.5z" />
    <glyph glyph-name="Racute" unicode="&#x154;" horiz-adv-x="1256" 
d="M157 1434h507q228 0 364 -126.5t136 -335.5q0 -161 -82.5 -274t-230.5 -157l347 -541h-317l-322 510h-114v-510h-288v1434zM641 1194h-196v-452h196q111 0 171.5 61.5t60.5 164.5q0 104 -60.5 165t-171.5 61zM423 1544l267 350h283l-282 -350h-268z" />
    <glyph glyph-name="racute" unicode="&#x155;" horiz-adv-x="844" 
d="M666 837q-75 0 -140 -46t-108 -126v-665h-282v1061h282v-130q116 154 283 154q55 0 97 -22l-20 -247q-63 21 -112 21zM219 1212l267 351h283l-282 -351h-268z" />
    <glyph glyph-name="Rcommaaccent" unicode="&#x156;" horiz-adv-x="1256" 
d="M157 1434h507q228 0 364 -126.5t136 -335.5q0 -161 -82.5 -274t-230.5 -157l347 -541h-317l-322 510h-114v-510h-288v1434zM641 1194h-196v-452h196q111 0 171.5 61.5t60.5 164.5q0 104 -60.5 165t-171.5 61zM603 -481h-254l159 350h288z" />
    <glyph glyph-name="rcommaaccent" unicode="&#x157;" horiz-adv-x="844" 
d="M666 837q-75 0 -140 -46t-108 -126v-665h-282v1061h282v-130q116 154 283 154q55 0 97 -22l-20 -247q-63 21 -112 21zM253 -481h-254l159 350h287z" />
    <glyph glyph-name="Rcaron" unicode="&#x158;" horiz-adv-x="1256" 
d="M157 1434h507q228 0 364 -126.5t136 -335.5q0 -161 -82.5 -274t-230.5 -157l347 -541h-317l-322 510h-114v-510h-288v1434zM641 1194h-196v-452h196q111 0 171.5 61.5t60.5 164.5q0 104 -60.5 165t-171.5 61zM710 1544h-201l-299 350h266l133 -158l133 158h267z" />
    <glyph glyph-name="rcaron" unicode="&#x159;" horiz-adv-x="844" 
d="M666 837q-75 0 -140 -46t-108 -126v-665h-282v1061h282v-130q116 154 283 154q55 0 97 -22l-20 -247q-63 21 -112 21zM520 1192h-201l-299 350h267l133 -159l133 159h266z" />
    <glyph glyph-name="Sacute" unicode="&#x15a;" horiz-adv-x="1222" 
d="M93 206l167 195q75 -80 167.5 -128.5t187.5 -48.5q105 0 172 48t67 127q0 78 -64.5 133t-226.5 90q-215 45 -327 153t-112 269q0 182 133.5 298t343.5 116q285 0 473 -182l-158 -204q-158 139 -303 139q-85 0 -140 -40t-55 -105q0 -75 63 -125.5t210 -84.5
q237 -55 347 -165.5t110 -282.5q0 -192 -142.5 -312.5t-383.5 -120.5q-156 0 -295.5 61t-233.5 170zM419 1544l267 350h283l-282 -350h-268z" />
    <glyph glyph-name="sacute" unicode="&#x15b;" horiz-adv-x="969" 
d="M63 152l142 175q51 -58 121.5 -92t147.5 -34q73 0 114.5 28t41.5 77t-41.5 79t-141.5 51q-172 35 -258.5 121t-86.5 219q0 135 106 222t277 87q107 0 205.5 -39t171.5 -105l-135 -176q-117 95 -217 95q-58 0 -95 -24t-37 -64q0 -91 169 -127q183 -37 270.5 -122
t87.5 -220q0 -143 -111.5 -235.5t-297.5 -92.5q-132 0 -246.5 47t-186.5 130zM284 1212l267 351h283l-282 -351h-268z" />
    <glyph glyph-name="Scircumflex" unicode="&#x15c;" horiz-adv-x="1222" 
d="M93 206l167 195q75 -80 167.5 -128.5t187.5 -48.5q105 0 172 48t67 127q0 78 -64.5 133t-226.5 90q-215 45 -327 153t-112 269q0 182 133.5 298t343.5 116q285 0 473 -182l-158 -204q-158 139 -303 139q-85 0 -140 -40t-55 -105q0 -75 63 -125.5t210 -84.5
q237 -55 347 -165.5t110 -282.5q0 -192 -142.5 -312.5t-383.5 -120.5q-156 0 -295.5 61t-233.5 170zM502 1894h200l299 -350h-266l-133 159l-133 -159h-266z" />
    <glyph glyph-name="scircumflex" unicode="&#x15d;" horiz-adv-x="969" 
d="M63 152l142 175q51 -58 121.5 -92t147.5 -34q73 0 114.5 28t41.5 77t-41.5 79t-141.5 51q-172 35 -258.5 121t-86.5 219q0 135 106 222t277 87q107 0 205.5 -39t171.5 -105l-135 -176q-117 95 -217 95q-58 0 -95 -24t-37 -64q0 -91 169 -127q183 -37 270.5 -122
t87.5 -220q0 -143 -111.5 -235.5t-297.5 -92.5q-132 0 -246.5 47t-186.5 130zM374 1563h200l299 -351h-266l-133 159l-133 -159h-266z" />
    <glyph glyph-name="Scedilla" unicode="&#x15e;" horiz-adv-x="1222" 
d="M665 -307q0 33 -27.5 54.5t-70.5 21.5q-26 0 -60 -6l-48 54l86 163q-134 14 -252 72.5t-200 153.5l167 195q75 -80 167.5 -128.5t187.5 -48.5q105 0 172 48t67 127q0 78 -64.5 133t-226.5 90q-215 45 -327 153t-112 269q0 182 133.5 298t343.5 116q285 0 473 -182
l-158 -204q-158 139 -303 139q-85 0 -140 -40t-55 -105q0 -75 63 -125.5t210 -84.5q237 -55 347 -165.5t110 -282.5q0 -164 -106 -278t-293 -144l-62 -96q82 -22 130.5 -76.5t48.5 -124.5q0 -95 -81.5 -158t-204.5 -63q-125 0 -206 63l83 121q48 -35 110 -35q43 0 70.5 21.5
t27.5 54.5z" />
    <glyph glyph-name="scedilla" unicode="&#x15f;" horiz-adv-x="969" 
d="M523 -307q0 33 -27 54.5t-70 21.5q-26 0 -60 -6l-49 54l87 165q-104 14 -193 58t-148 112l142 175q51 -58 121.5 -92t147.5 -34q73 0 114.5 28t41.5 77t-41.5 79t-141.5 51q-172 35 -258.5 121t-86.5 219q0 135 106 222t277 87q107 0 205.5 -39t171.5 -105l-135 -176
q-117 95 -217 95q-58 0 -95 -24t-37 -64q0 -91 169 -127q183 -37 270.5 -122t87.5 -220q0 -119 -79.5 -205t-217.5 -112l-62 -96q82 -22 130.5 -76.5t48.5 -124.5q0 -95 -82 -158t-205 -63q-125 0 -206 63l83 121q48 -35 111 -35q43 0 70 21.5t27 54.5z" />
    <glyph glyph-name="Scaron" unicode="&#x160;" horiz-adv-x="1222" 
d="M93 206l167 195q75 -80 167.5 -128.5t187.5 -48.5q105 0 172 48t67 127q0 78 -64.5 133t-226.5 90q-215 45 -327 153t-112 269q0 182 133.5 298t343.5 116q285 0 473 -182l-158 -204q-158 139 -303 139q-85 0 -140 -40t-55 -105q0 -75 63 -125.5t210 -84.5
q237 -55 347 -165.5t110 -282.5q0 -192 -142.5 -312.5t-383.5 -120.5q-156 0 -295.5 61t-233.5 170zM697 1544h-200l-299 350h266l133 -158l133 158h266z" />
    <glyph glyph-name="scaron" unicode="&#x161;" horiz-adv-x="969" 
d="M63 152l142 175q51 -58 121.5 -92t147.5 -34q73 0 114.5 28t41.5 77t-41.5 79t-141.5 51q-172 35 -258.5 121t-86.5 219q0 135 106 222t277 87q107 0 205.5 -39t171.5 -105l-135 -176q-117 95 -217 95q-58 0 -95 -24t-37 -64q0 -91 169 -127q183 -37 270.5 -122
t87.5 -220q0 -143 -111.5 -235.5t-297.5 -92.5q-132 0 -246.5 47t-186.5 130zM574 1192h-200l-299 350h266l133 -159l133 159h266z" />
    <glyph glyph-name="Tcommaaccent" unicode="&#x162;" horiz-adv-x="1140" 
d="M425 0v1183h-369v251h1028v-251h-368v-1183l-72 -110q82 -22 130.5 -76.5t48.5 -124.5q0 -95 -81.5 -158t-204.5 -63q-125 0 -206 63l83 121q48 -35 110 -35q43 0 70.5 21.5t27.5 54.5t-27.5 54.5t-70.5 21.5q-26 0 -60 -6l-48 54l97 183h-88z" />
    <glyph glyph-name="tcommaaccent" unicode="&#x163;" horiz-adv-x="805" 
d="M463 -307q0 33 -27 54.5t-70 21.5q-27 0 -61 -6l-48 54l112 209q-160 88 -160 324v466h-165v245h165v282l281 25v-307h250v-245h-250v-448q0 -77 37.5 -112.5t124.5 -35.5q54 0 101 5v-235q-71 -15 -147 -15q-33 0 -63 3l-58 -88q82 -22 131 -76.5t49 -124.5
q0 -95 -82 -158t-205 -63q-125 0 -206 63l83 121q48 -35 111 -35q43 0 70 21.5t27 54.5z" />
    <glyph glyph-name="Tcaron" unicode="&#x164;" horiz-adv-x="1140" 
d="M425 0v1183h-369v251h1028v-251h-368v-1183h-291zM671 1544h-201l-299 350h266l133 -158l133 158h267z" />
    <glyph glyph-name="tcaron" unicode="&#x165;" horiz-adv-x="1166" 
d="M490 816v-448q0 -77 37.5 -112.5t124.5 -35.5q54 0 101 5v-235q-71 -15 -147 -15q-397 0 -397 375v466h-165v245h165v282l281 25v-307h250v-245h-250zM802 1356q0 69 47.5 116.5t116.5 47.5t116 -47.5t47 -116.5q0 -36 -18 -77l-144 -308h-172l109 234q-46 19 -74 59
t-28 92z" />
    <glyph glyph-name="Tbar" unicode="&#x166;" horiz-adv-x="1140" 
d="M425 0v610h-242v195h242v378h-369v251h1028v-251h-368v-378h241v-195h-241v-610h-291z" />
    <glyph glyph-name="tbar" unicode="&#x167;" horiz-adv-x="805" 
d="M69 456v171h140v199h-165v235h165v282l281 25v-307h250v-235h-250v-199h208v-171h-208v-99q0 -76 38 -111.5t124 -35.5q51 0 101 5v-225q-73 -15 -155 -15q-192 0 -290.5 93t-98.5 277v111h-140z" />
    <glyph glyph-name="Utilde" unicode="&#x168;" horiz-adv-x="1372" 
d="M1227 1434v-942q0 -150 -73 -269t-196 -182.5t-272 -63.5t-272 63.5t-196 182.5t-73 269v942h291v-955q0 -111 71.5 -179.5t178.5 -68.5t178.5 68.5t71.5 179.5v955h291zM698 1597q-74 39 -99 39q-44 0 -61 -76l-226 45q45 232 212 232q71 0 150 -46q74 -39 99 -39
q45 0 62 77l225 -45q-45 -233 -212 -233q-71 0 -150 46z" />
    <glyph glyph-name="utilde" unicode="&#x169;" horiz-adv-x="1255" 
d="M838 371v690h281v-1061h-281v117q-55 -65 -134 -103.5t-164 -38.5q-187 0 -305.5 120.5t-118.5 312.5v653h281v-626q0 -91 58 -151t153 -60q65 0 128.5 43.5t101.5 103.5zM630 1264q-74 39 -100 39q-44 0 -61 -77l-225 45q45 232 212 232q70 0 149 -46q74 -39 100 -39
q44 0 61 77l225 -45q-45 -232 -212 -232q-70 0 -149 46z" />
    <glyph glyph-name="Umacron" unicode="&#x16a;" horiz-adv-x="1372" 
d="M1227 1434v-942q0 -150 -73 -269t-196 -182.5t-272 -63.5t-272 63.5t-196 182.5t-73 269v942h291v-955q0 -111 71.5 -179.5t178.5 -68.5t178.5 68.5t71.5 179.5v955h291zM369 1593v211h635v-211h-635z" />
    <glyph glyph-name="umacron" unicode="&#x16b;" horiz-adv-x="1255" 
d="M838 371v690h281v-1061h-281v117q-55 -65 -134 -103.5t-164 -38.5q-187 0 -305.5 120.5t-118.5 312.5v653h281v-626q0 -91 58 -151t153 -60q65 0 128.5 43.5t101.5 103.5zM300 1262v211h635v-211h-635z" />
    <glyph glyph-name="Ubreve" unicode="&#x16c;" horiz-adv-x="1372" 
d="M1227 1434v-942q0 -150 -73 -269t-196 -182.5t-272 -63.5t-272 63.5t-196 182.5t-73 269v942h291v-955q0 -111 71.5 -179.5t178.5 -68.5t178.5 68.5t71.5 179.5v955h291zM686 1524q-144 0 -249.5 91t-111.5 230h234q1 -57 37.5 -94.5t89.5 -37.5t89.5 37.5t37.5 94.5h235
q-6 -139 -112 -230t-250 -91z" />
    <glyph glyph-name="ubreve" unicode="&#x16d;" horiz-adv-x="1255" 
d="M838 371v690h281v-1061h-281v117q-55 -65 -134 -103.5t-164 -38.5q-187 0 -305.5 120.5t-118.5 312.5v653h281v-626q0 -91 58 -151t153 -60q65 0 128.5 43.5t101.5 103.5zM617 1192q-144 0 -249.5 91t-111.5 230h234q1 -57 37.5 -94.5t89.5 -37.5t89.5 37.5t37.5 94.5
h235q-6 -139 -112 -230t-250 -91z" />
    <glyph glyph-name="Uring" unicode="&#x16e;" horiz-adv-x="1372" 
d="M1227 1434v-942q0 -150 -73 -269t-196 -182.5t-272 -63.5t-272 63.5t-196 182.5t-73 269v942h291v-955q0 -111 71.5 -179.5t178.5 -68.5t178.5 68.5t71.5 179.5v955h291zM617 1725q0 -29 19.5 -48t49.5 -19t49.5 19t19.5 48t-19.5 48.5t-49.5 19.5t-49.5 -19.5
t-19.5 -48.5zM455 1725q0 90 66 151t165 61t165.5 -61t66.5 -151t-66.5 -151t-165.5 -61t-165 61t-66 151z" />
    <glyph glyph-name="uring" unicode="&#x16f;" horiz-adv-x="1255" 
d="M838 371v690h281v-1061h-281v117q-55 -65 -134 -103.5t-164 -38.5q-187 0 -305.5 120.5t-118.5 312.5v653h281v-626q0 -91 58 -151t153 -60q65 0 128.5 43.5t101.5 103.5zM545 1394q0 -29 19 -48.5t49 -19.5t49.5 19.5t19.5 48.5t-19.5 48t-49.5 19t-49 -19t-19 -48z
M382 1394q0 90 66 151t165 61t165.5 -61t66.5 -151t-66.5 -151t-165.5 -61t-165 61t-66 151z" />
    <glyph glyph-name="Uhungarumlaut" unicode="&#x170;" horiz-adv-x="1372" 
d="M1227 1434v-942q0 -150 -73 -269t-196 -182.5t-272 -63.5t-272 63.5t-196 182.5t-73 269v942h291v-955q0 -111 71.5 -179.5t178.5 -68.5t178.5 68.5t71.5 179.5v955h291zM360 1564l268 350h264l-279 -350h-253zM718 1564l267 350h264l-278 -350h-253z" />
    <glyph glyph-name="uhungarumlaut" unicode="&#x171;" horiz-adv-x="1255" 
d="M838 371v690h281v-1061h-281v117q-55 -65 -134 -103.5t-164 -38.5q-187 0 -305.5 120.5t-118.5 312.5v653h281v-626q0 -91 58 -151t153 -60q65 0 128.5 43.5t101.5 103.5zM283 1222l267 350h264l-278 -350h-253zM640 1222l267 350h264l-278 -350h-253z" />
    <glyph glyph-name="Uogonek" unicode="&#x172;" horiz-adv-x="1372" 
d="M1227 1434v-942q0 -188 -110.5 -321.5t-286.5 -175.5q-154 -129 -154 -220q0 -38 26 -62.5t65 -24.5q44 0 79 22l55 -131q-71 -48 -175 -48q-108 0 -181 61t-73 152q0 124 148 238q-205 22 -340 161t-135 349v942h291v-955q0 -111 71.5 -179.5t178.5 -68.5t178.5 68.5
t71.5 179.5v955h291z" />
    <glyph glyph-name="uogonek" unicode="&#x173;" horiz-adv-x="1255" 
d="M929 0h-91v117q-55 -65 -134 -103.5t-164 -38.5q-187 0 -305.5 120.5t-118.5 312.5v653h281v-626q0 -91 58 -151t153 -60q65 0 128.5 43.5t101.5 103.5v690h281v-1061q-162 -134 -162 -225q0 -38 26.5 -62.5t65.5 -24.5q43 0 78 22l56 -131q-71 -48 -175 -48
q-108 0 -181 61t-73 152q0 69 47.5 135t127.5 121z" />
    <glyph glyph-name="Wcircumflex" unicode="&#x174;" horiz-adv-x="2017" 
d="M865 1434h287l275 -1028l253 1028h303l-397 -1434h-292l-285 1037l-286 -1037h-292l-397 1434h303l253 -1028zM908 1894h201l299 -350h-266l-133 159l-133 -159h-267z" />
    <glyph glyph-name="wcircumflex" unicode="&#x175;" horiz-adv-x="1632" 
d="M675 1061h282l183 -710l185 710h288l-322 -1061h-291l-184 690l-184 -690h-291l-322 1061h288l186 -710zM716 1563h200l299 -351h-266l-133 159l-133 -159h-266z" />
    <glyph glyph-name="Ycircumflex" unicode="&#x176;" horiz-adv-x="1333" 
d="M347 1434l320 -580l319 580h313l-487 -856v-578h-291v578l-487 856h313zM566 1894h201l299 -350h-266l-133 159l-133 -159h-267z" />
    <glyph glyph-name="ycircumflex" unicode="&#x177;" horiz-adv-x="1099" 
d="M516 -475h-294l187 475l-390 1061h293l236 -705l239 705h293zM447 1563h201l299 -351h-266l-133 159l-133 -159h-267z" />
    <glyph glyph-name="Ydieresis" unicode="&#x178;" horiz-adv-x="1333" 
d="M347 1434l320 -580l319 580h313l-487 -856v-578h-291v578l-487 856h313zM318 1704q0 63 43.5 106t107.5 43t107.5 -43t43.5 -106t-43.5 -106.5t-107.5 -43.5t-107.5 43.5t-43.5 106.5zM714 1704q0 63 43 106t107 43t107.5 -43t43.5 -106t-43.5 -106.5t-107.5 -43.5
t-107 43.5t-43 106.5z" />
    <glyph glyph-name="Zacute" unicode="&#x179;" horiz-adv-x="1249" 
d="M116 241l660 942h-630v251h977v-241l-660 -942h681v-251h-1028v241zM415 1544l267 350h283l-282 -350h-268z" />
    <glyph glyph-name="zacute" unicode="&#x17a;" horiz-adv-x="1051" 
d="M90 0v228l504 589h-477v244h819v-228l-504 -589h524v-244h-866zM313 1212l268 351h282l-281 -351h-269z" />
    <glyph glyph-name="Zdotaccent" unicode="&#x17b;" horiz-adv-x="1249" 
d="M116 241l660 942h-630v251h977v-241l-660 -942h681v-251h-1028v241zM475 1703q0 64 44.5 108t109.5 44q64 0 108.5 -44t44.5 -108t-44.5 -108.5t-108.5 -44.5t-109 44.5t-45 108.5z" />
    <glyph glyph-name="zdotaccent" unicode="&#x17c;" horiz-adv-x="1051" 
d="M90 0v228l504 589h-477v244h819v-228l-504 -589h524v-244h-866zM373 1371q0 64 44.5 108.5t108.5 44.5t109 -44.5t45 -108.5t-44.5 -108t-109.5 -44q-64 0 -108.5 44t-44.5 108z" />
    <glyph glyph-name="Zcaron" unicode="&#x17d;" horiz-adv-x="1249" 
d="M116 241l660 942h-630v251h977v-241l-660 -942h681v-251h-1028v241zM725 1544h-201l-299 350h267l133 -158l133 158h266z" />
    <glyph glyph-name="zcaron" unicode="&#x17e;" horiz-adv-x="1051" 
d="M90 0v228l504 589h-477v244h819v-228l-504 -589h524v-244h-866zM615 1192h-200l-299 350h266l133 -159l133 159h266z" />
    <glyph glyph-name="longs" unicode="&#x17f;" horiz-adv-x="782" 
d="M741 1485v-224q-47 5 -95 5q-86 0 -124 -36t-38 -112v-1118h-281v816h-159v245h159v60q0 374 417 374q55 0 121 -10z" />
    <glyph glyph-name="uni0191" unicode="&#x191;" horiz-adv-x="1103" 
d="M447 581v-678q0 -185 -105 -281.5t-305 -96.5q-72 0 -127 10v242q47 -5 91 -5q82 0 119 36t37 113v1513h872v-250h-582v-354h533v-249h-533z" />
    <glyph glyph-name="florin" unicode="&#x192;" horiz-adv-x="785" 
d="M203 -98v914h-159v245h159v60q0 374 417 374q55 0 121 -10v-224q-47 5 -95 5q-86 0 -124 -36t-38 -112v-57h257v-245h-257v-917q0 -374 -416 -374q-56 0 -122 10v224q47 -5 95 -5q86 0 124 36t38 112z" />
    <glyph glyph-name="Aringacute" unicode="&#x1fa;" horiz-adv-x="1415" 
d="M476 1496q0 90 66.5 151t165.5 61t165 -61t66 -151q0 -77 -50 -133l492 -1363h-308l-106 323h-518l-107 -323h-308l492 1363q-50 56 -50 133zM892 560l-184 563l-185 -563h369zM638 1496q0 -29 19.5 -48.5t50.5 -19.5q30 0 49.5 19t19.5 49t-19.5 49t-49.5 19
q-31 0 -50.5 -19.5t-19.5 -48.5zM812 1744h-248l189 253h263z" />
    <glyph glyph-name="aringacute" unicode="&#x1fb;" horiz-adv-x="1346" 
d="M578 1359q0 -29 19.5 -49t49.5 -20t50 20t20 49t-20 48.5t-50 19.5t-49.5 -19.5t-19.5 -48.5zM421 1359q0 88 65 148t161 60t161 -60t65 -148t-65 -148t-161 -60t-161 60t-65 148zM655 224q91 0 166 46t111 123v275q-36 77 -111 123t-166 46q-130 0 -218 -88.5
t-88 -218.5t88 -218t218 -88zM596 1085q202 0 336 -131v107h278v-1061h-278v106q-134 -131 -336 -131q-149 0 -271 75t-190 202t-68 278t68 278t190 202t271 75zM748 1606h-248l201 268h263z" />
    <glyph glyph-name="AEacute" unicode="&#x1fc;" horiz-adv-x="1909" 
d="M319 0h-317l794 1434h990v-248h-587v-342h538v-246h-538v-350h605v-248h-893v323h-421zM911 1118l-298 -558h298v558zM761 1544l267 350h283l-282 -350h-268z" />
    <glyph glyph-name="aeacute" unicode="&#x1fd;" horiz-adv-x="2087" 
d="M2009 446h-835q19 -111 103 -178.5t204 -67.5q167 0 301 132l169 -164q-178 -193 -469 -193q-143 0 -263.5 55t-195.5 149q-69 -94 -186.5 -149t-256.5 -55q-220 0 -366.5 103.5t-146.5 255.5q0 144 140.5 241.5t341.5 97.5q86 0 171.5 -22.5t150.5 -59.5v34
q0 101 -83.5 168.5t-212.5 67.5q-91 0 -178.5 -33t-155.5 -90l-97 196q87 72 202 111.5t237 39.5q140 0 256.5 -54.5t185.5 -149.5q74 95 190 149.5t250 54.5q159 0 287 -72t198.5 -194.5t70.5 -269.5q0 -53 -12 -103zM346 334q0 -59 72 -99.5t183 -40.5q187 0 268 113v86
q-103 81 -268 81q-111 0 -183 -40t-72 -100zM1463 861q-100 0 -176.5 -58.5t-105.5 -155.5h551q-24 96 -96 155t-173 59zM838 1212l267 351h283l-282 -351h-268z" />
    <glyph glyph-name="Oslashacute" unicode="&#x1fe;" horiz-adv-x="1695" 
d="M79 717q0 206 101 376t277.5 267.5t390.5 97.5q202 0 378 -92l100 129h232l-183 -232q114 -102 178 -243.5t64 -302.5q0 -154 -59.5 -291.5t-161.5 -236.5t-245 -156.5t-303 -57.5q-217 0 -398 103l-109 -139h-231l193 247q-107 101 -165.5 238t-58.5 293zM1323 717
q0 188 -119 325l-589 -753q109 -60 233 -60q131 0 240 64t172 176t63 248zM373 717q0 -179 103 -309l584 746q-98 50 -212 50q-200 0 -337.5 -140.5t-137.5 -346.5zM660 1544l268 350h282l-281 -350h-269z" />
    <glyph glyph-name="oslashacute" unicode="&#x1ff;" horiz-adv-x="1310" 
d="M67 530q0 115 45 217.5t122.5 176.5t187 117.5t233.5 43.5q151 0 277 -62l78 99h218l-154 -196q81 -75 125.5 -177.5t44.5 -218.5q0 -115 -45 -217.5t-122.5 -176.5t-187.5 -117.5t-234 -43.5q-149 0 -277 63l-79 -99h-218l155 196q-80 76 -124.5 177.5t-44.5 217.5z
M975 530q0 108 -63 190l-380 -484q62 -25 123 -25q135 0 227.5 92.5t92.5 226.5zM336 530q0 -107 60 -189l380 483q-62 25 -121 25q-134 0 -226.5 -92.5t-92.5 -226.5zM474 1212l267 351h283l-282 -351h-268z" />
    <glyph glyph-name="Scommaaccent" unicode="&#x218;" horiz-adv-x="1222" 
d="M93 206l167 195q75 -80 167.5 -128.5t187.5 -48.5q105 0 172 48t67 127q0 78 -64.5 133t-226.5 90q-215 45 -327 153t-112 269q0 182 133.5 298t343.5 116q285 0 473 -182l-158 -204q-158 139 -303 139q-85 0 -140 -40t-55 -105q0 -75 63 -125.5t210 -84.5
q237 -55 347 -165.5t110 -282.5q0 -192 -142.5 -312.5t-383.5 -120.5q-156 0 -295.5 61t-233.5 170zM618 -481h-253l158 350h288z" />
    <glyph glyph-name="scommaaccent" unicode="&#x219;" horiz-adv-x="969" 
d="M63 152l142 175q51 -58 121.5 -92t147.5 -34q73 0 114.5 28t41.5 77t-41.5 79t-141.5 51q-172 35 -258.5 121t-86.5 219q0 135 106 222t277 87q107 0 205.5 -39t171.5 -105l-135 -176q-117 95 -217 95q-58 0 -95 -24t-37 -64q0 -91 169 -127q183 -37 270.5 -122
t87.5 -220q0 -143 -111.5 -235.5t-297.5 -92.5q-132 0 -246.5 47t-186.5 130zM479 -481h-254l159 350h288z" />
    <glyph glyph-name="uni021A" unicode="&#x21a;" horiz-adv-x="1140" 
d="M425 0v1183h-369v251h1028v-251h-368v-1183h-291zM556 -481h-254l159 350h288z" />
    <glyph glyph-name="uni021B" unicode="&#x21b;" horiz-adv-x="805" 
d="M490 816v-448q0 -77 37.5 -112.5t124.5 -35.5q54 0 101 5v-235q-71 -15 -147 -15q-397 0 -397 375v466h-165v245h165v282l281 25v-307h250v-245h-250zM406 -481h-254l158 350h288z" />
    <glyph glyph-name="dotlessj" unicode="&#x237;" horiz-adv-x="565" 
d="M141 -92v1153h282v-1167q0 -188 -90 -278.5t-273 -90.5q-57 0 -99 7v238h54q65 0 95.5 31.5t30.5 106.5z" />
    <glyph glyph-name="apostrophe" unicode="&#x2bc;" horiz-adv-x="870" 
d="M275 1356q0 69 47.5 116.5t116.5 47.5t116.5 -47.5t47.5 -116.5q0 -36 -18 -77l-145 -308h-172l110 234q-46 19 -74.5 59t-28.5 92z" />
    <glyph glyph-name="circumflex" unicode="&#x2c6;" horiz-adv-x="870" 
d="M335 1495h201l299 -350h-267l-133 159l-133 -159h-266z" />
    <glyph glyph-name="caron" unicode="&#x2c7;" horiz-adv-x="870" 
d="M536 1145h-201l-299 350h266l133 -159l133 159h267z" />
    <glyph glyph-name="uni02C9" unicode="&#x2c9;" horiz-adv-x="870" 
d="M118 1213v211h635v-211h-635z" />
    <glyph glyph-name="breve" unicode="&#x2d8;" horiz-adv-x="870" 
d="M435 1153q-144 0 -249.5 91.5t-111.5 230.5h234q2 -57 38 -95t89 -38t89 38t38 95h235q-6 -139 -112 -230.5t-250 -91.5z" />
    <glyph glyph-name="dotaccent" unicode="&#x2d9;" horiz-adv-x="870" 
d="M282 1322q0 64 44.5 108.5t108.5 44.5t109 -44.5t45 -108.5t-45 -108.5t-109 -44.5t-108.5 44.5t-44.5 108.5z" />
    <glyph glyph-name="ring" unicode="&#x2da;" horiz-adv-x="870" 
d="M367 1316q0 -29 19 -48.5t49 -19.5t49.5 19.5t19.5 48.5t-19.5 48t-49.5 19t-49 -19t-19 -48zM204 1316q0 90 66 151t165 61t165.5 -61t66.5 -151t-66.5 -151t-165.5 -61t-165 61t-66 151z" />
    <glyph glyph-name="ogonek" unicode="&#x2db;" horiz-adv-x="870" 
d="M407 0h190q-162 -134 -162 -225q0 -38 26 -62.5t65 -24.5q44 0 79 22l55 -131q-71 -48 -175 -48q-108 0 -181 61t-73 152q0 69 48 135t128 121z" />
    <glyph glyph-name="tilde" unicode="&#x2dc;" horiz-adv-x="870" 
d="M447 1217q-72 38 -99 38q-44 0 -61 -76l-226 45q45 232 212 232q71 0 150 -46q74 -39 99 -39q45 0 62 77l225 -45q-45 -233 -212 -233q-69 0 -150 47z" />
    <glyph glyph-name="hungarumlaut" unicode="&#x2dd;" horiz-adv-x="870" 
d="M40 1145l267 350h264l-278 -350h-253zM397 1145l268 350h264l-279 -350h-253z" />
    <glyph glyph-name="gravecomb" unicode="&#x300;" horiz-adv-x="0" 
d="M-481 1495l267 -350h-268l-282 350h283z" />
    <glyph glyph-name="acutecomb" unicode="&#x301;" horiz-adv-x="0" 
d="M-656 1145l267 350h283l-282 -350h-268z" />
    <glyph glyph-name="uni0302" unicode="&#x302;" horiz-adv-x="0" 
d="M-536 1495h201l299 -350h-266l-133 159l-133 -159h-267z" />
    <glyph glyph-name="tildecomb" unicode="&#x303;" horiz-adv-x="0" 
d="M-423 1217q-72 38 -99 38q-45 0 -62 -76l-225 45q45 232 212 232q71 0 150 -46q74 -39 99 -39q44 0 61 77l226 -45q-45 -233 -212 -233q-69 0 -150 47z" />
    <glyph glyph-name="uni0304" unicode="&#x304;" horiz-adv-x="0" 
d="M-753 1214v211h635v-211h-635z" />
    <glyph glyph-name="uni0306" unicode="&#x306;" horiz-adv-x="0" 
d="M-435 1153q-144 0 -250 91.5t-112 230.5h235q2 -57 38 -95t89 -38t89 38t38 95h234q-6 -139 -111.5 -230.5t-249.5 -91.5z" />
    <glyph glyph-name="uni0307" unicode="&#x307;" horiz-adv-x="0" 
d="M-589 1322q0 64 45 108.5t109 44.5t108.5 -44.5t44.5 -108.5t-44.5 -108.5t-108.5 -44.5t-109 44.5t-45 108.5z" />
    <glyph glyph-name="uni0308" unicode="&#x308;" horiz-adv-x="0" 
d="M-783 1323q0 63 43 106.5t107 43.5t107.5 -43.5t43.5 -106.5t-43.5 -106t-107.5 -43t-107 43t-43 106zM-388 1323q0 63 43 106.5t107 43.5t107.5 -43.5t43.5 -106.5t-43.5 -106t-107.5 -43t-107 43t-43 106z" />
    <glyph glyph-name="uni030A" unicode="&#x30a;" horiz-adv-x="0" 
d="M-504 1316q0 -29 19.5 -48.5t49.5 -19.5t49 19.5t19 48.5t-19 48t-49 19t-49.5 -19t-19.5 -48zM-667 1316q0 90 66.5 151t165.5 61t165 -61t66 -151t-66 -151t-165 -61t-165.5 61t-66.5 151z" />
    <glyph glyph-name="uni030C" unicode="&#x30c;" horiz-adv-x="0" 
d="M-335 1145h-201l-299 350h267l133 -159l133 159h266z" />
    <glyph glyph-name="uni0327" unicode="&#x327;" horiz-adv-x="0" 
d="M-388 -307q0 33 -27 54.5t-70 21.5q-27 0 -61 -6l-48 54l97 183h203l-72 -110q82 -22 131 -76.5t49 -124.5q0 -95 -82 -158t-205 -63q-125 0 -206 63l83 121q48 -35 111 -35q43 0 70 21.5t27 54.5z" />
    <glyph glyph-name="tonos" unicode="&#x384;" horiz-adv-x="870" 
d="M483 1114h-259l156 381h291z" />
    <glyph glyph-name="dieresistonos" unicode="&#x385;" horiz-adv-x="870" 
d="M94 1168q0 62 43 104t108 42t107.5 -42t42.5 -104t-42.5 -103.5t-107.5 -41.5t-108 41.5t-43 103.5zM475 1168q0 62 43 104t108 42t107.5 -42t42.5 -104t-42.5 -103.5t-107.5 -41.5t-108 41.5t-43 103.5zM536 1346h-248l200 268h263z" />
    <glyph glyph-name="Alphatonos" unicode="&#x386;" horiz-adv-x="1484" 
d="M616 1434h322l513 -1434h-308l-107 323h-518l-106 -323h-309zM962 560l-185 563l-184 -563h369zM283 1053h-259l155 381h291z" />
    <glyph glyph-name="anoteleia" unicode="&#x387;" horiz-adv-x="617" 
d="M135 667q0 72 49.5 121t123.5 49q75 0 124.5 -49t49.5 -121t-49.5 -121t-124.5 -49q-74 0 -123.5 49t-49.5 121z" />
    <glyph glyph-name="Epsilontonos" unicode="&#x388;" horiz-adv-x="1553" 
d="M537 0v1434h893v-248h-603v-342h553v-246h-553v-350h621v-248h-911zM283 1053h-259l155 381h291z" />
    <glyph glyph-name="Etatonos" unicode="&#x389;" horiz-adv-x="1827" 
d="M537 0v1434h290v-588h553v588h291v-1434h-291v595h-553v-595h-290zM283 1053h-259l155 381h291z" />
    <glyph glyph-name="Iotatonos" unicode="&#x38a;" horiz-adv-x="993" 
d="M538 1434h290v-1434h-290v1434zM283 1053h-259l155 381h291z" />
    <glyph glyph-name="Omicrontonos" unicode="&#x38c;" horiz-adv-x="1940" 
d="M617 717q0 -206 138 -347t338 -141q131 0 240 64t172 176t63 248q0 206 -137.5 346.5t-337.5 140.5t-338 -140.5t-138 -346.5zM324 717q0 206 101 376t277.5 267.5t390.5 97.5t390.5 -97.5t277.5 -267.5t101 -376q0 -154 -59.5 -291.5t-161.5 -236.5t-245 -156.5
t-303 -57.5t-303 57.5t-245 156.5t-161.5 236.5t-59.5 291.5zM283 1053h-259l155 381h291z" />
    <glyph glyph-name="Upsilontonos" unicode="&#x38e;" horiz-adv-x="1803" 
d="M817 1434l320 -580l319 580h313l-487 -856v-578h-291v578l-487 856h313zM283 1053h-259l155 381h291z" />
    <glyph glyph-name="Omegatonos" unicode="&#x38f;" horiz-adv-x="1907" 
d="M283 1053h-259l155 381h291zM1526 751q0 191 -128.5 322t-315.5 131t-315 -131t-128 -322q0 -161 91.5 -297.5t248.5 -212.5v-241h-614v254h283q-148 96 -225.5 229.5t-77.5 295.5q0 140 57.5 265.5t155.5 216.5t234.5 144t289.5 53t289.5 -53t235 -144t156 -216.5
t57.5 -265.5q0 -162 -77.5 -295.5t-225.5 -229.5h283v-254h-614v241q157 76 248.5 212.5t91.5 297.5z" />
    <glyph glyph-name="iotadieresistonos" unicode="&#x390;" horiz-adv-x="602" 
d="M141 273v788h282v-717q0 -98 98 -98h37v-242q-50 -4 -94 -4q-323 0 -323 273zM-57 1306q0 62 42.5 103.5t107.5 41.5t108 -41.5t43 -103.5t-43 -104t-108 -42t-107.5 42t-42.5 104zM324 1306q0 62 42.5 103.5t107.5 41.5t108 -41.5t43 -103.5t-43 -104t-108 -42
t-107.5 42t-42.5 104zM384 1483h-248l201 268h262z" />
    <glyph glyph-name="Alpha" unicode="&#x391;" horiz-adv-x="1415" 
d="M547 1434h321l513 -1434h-308l-106 323h-518l-107 -323h-308zM892 560l-184 563l-185 -563h369z" />
    <glyph glyph-name="Beta" unicode="&#x392;" horiz-adv-x="1282" 
d="M767 0h-610v1434h539q198 0 311 -104.5t113 -283.5q0 -103 -47 -176.5t-126 -108.5q109 -30 179.5 -121.5t70.5 -221.5q0 -186 -118 -302t-312 -116zM838 1023q0 82 -45 126t-119 44h-232v-339h232q74 0 119 44t45 125zM906 431q0 88 -48.5 140t-125.5 52h-290v-382h290
q77 0 125.5 52t48.5 138z" />
    <glyph glyph-name="Gamma" unicode="&#x393;" horiz-adv-x="1064" 
d="M157 0v1434h872v-251h-582v-1183h-290z" />
    <glyph glyph-name="uni0394" unicode="&#x394;" horiz-adv-x="1415" 
d="M868 1434l513 -1434h-1347l513 1434h321zM708 1123l-293 -878h585z" />
    <glyph glyph-name="Epsilon" unicode="&#x395;" horiz-adv-x="1173" 
d="M157 0v1434h893v-248h-603v-342h553v-246h-553v-350h621v-248h-911z" />
    <glyph glyph-name="Zeta" unicode="&#x396;" horiz-adv-x="1249" 
d="M116 241l660 942h-630v251h977v-241l-660 -942h681v-251h-1028v241z" />
    <glyph glyph-name="Eta" unicode="&#x397;" horiz-adv-x="1447" 
d="M157 0v1434h290v-588h553v588h291v-1434h-291v595h-553v-595h-290z" />
    <glyph glyph-name="Theta" unicode="&#x398;" horiz-adv-x="1695" 
d="M558 596v242h580v-242h-580zM79 717q0 206 101 376t277.5 267.5t390.5 97.5t390.5 -97.5t277.5 -267.5t101 -376q0 -154 -59.5 -291.5t-161.5 -236.5t-245 -156.5t-303 -57.5t-303 57.5t-245 156.5t-161.5 236.5t-59.5 291.5zM368 717q0 -137 63.5 -250.5t174 -178
t242.5 -64.5t242.5 64.5t174 178t63.5 250.5t-63.5 250t-174 177.5t-242.5 64.5t-242.5 -64.5t-174 -177.5t-63.5 -250z" />
    <glyph glyph-name="Iota" unicode="&#x399;" horiz-adv-x="620" 
d="M165 1434h291v-1434h-291v1434z" />
    <glyph glyph-name="Kappa" unicode="&#x39a;" horiz-adv-x="1268" 
d="M447 1434v-585h82l361 585h320l-439 -707l518 -727h-326l-425 598h-91v-598h-290v1434h290z" />
    <glyph glyph-name="Lambda" unicode="&#x39b;" horiz-adv-x="1415" 
d="M1381 0h-308l-365 1105l-366 -1105h-308l513 1434h321z" />
    <glyph glyph-name="Mu" unicode="&#x39c;" horiz-adv-x="1759" 
d="M976 428h-193l-352 566v-994h-274v1434h297l426 -689l426 689h297v-1434h-275v994z" />
    <glyph glyph-name="Nu" unicode="&#x39d;" horiz-adv-x="1447" 
d="M157 0v1434h295l565 -965v965h274v-1434h-295l-565 965v-965h-274z" />
    <glyph glyph-name="Xi" unicode="&#x39e;" horiz-adv-x="1197" 
d="M125 1186v248h947v-248h-947zM105 0v248h987v-248h-987zM1010 598h-823v246h823v-246z" />
    <glyph glyph-name="Omicron" unicode="&#x39f;" horiz-adv-x="1695" 
d="M373 717q0 -136 63 -248t172 -176t240 -64t240 64t172 176t63 248q0 206 -137.5 346.5t-337.5 140.5t-337.5 -140.5t-137.5 -346.5zM79 717q0 206 101 376t277.5 267.5t390.5 97.5t390.5 -97.5t277.5 -267.5t101 -376q0 -154 -59.5 -291.5t-161.5 -236.5t-245 -156.5
t-303 -57.5t-303 57.5t-245 156.5t-161.5 236.5t-59.5 291.5z" />
    <glyph glyph-name="Pi" unicode="&#x3a0;" horiz-adv-x="1394" 
d="M1238 1434v-1434h-291v1183h-500v-1183h-290v1434h1081z" />
    <glyph glyph-name="Rho" unicode="&#x3a1;" horiz-adv-x="1228" 
d="M664 500h-217v-500h-290v1434h507q227 0 363.5 -128.5t136.5 -338.5t-136 -338.5t-364 -128.5zM873 967q0 105 -61 166t-172 61h-193v-455h193q111 0 172 61.5t61 166.5z" />
    <glyph glyph-name="Sigma" unicode="&#x3a3;" horiz-adv-x="1204" 
d="M116 261l367 458l-367 453v262h973v-250h-635l330 -398v-137l-332 -399h637v-250h-973v261z" />
    <glyph glyph-name="Tau" unicode="&#x3a4;" horiz-adv-x="1140" 
d="M425 0v1183h-369v251h1028v-251h-368v-1183h-291z" />
    <glyph glyph-name="Upsilon" unicode="&#x3a5;" horiz-adv-x="1333" 
d="M347 1434l320 -580l319 580h313l-487 -856v-578h-291v578l-487 856h313z" />
    <glyph glyph-name="Phi" unicode="&#x3a6;" horiz-adv-x="1583" 
d="M651 0v197q-162 0 -297 68t-213 187t-78 263t78 263t213 187t297 68v201h281v-201q162 0 297 -68t213 -187t78 -263t-78 -263t-213 -187t-297 -68v-197h-281zM1236 715q0 113 -88 192t-216 79v-544q128 0 216 79.5t88 193.5zM347 715q0 -114 88 -193.5t216 -79.5v544
q-128 0 -216 -79t-88 -192z" />
    <glyph glyph-name="Chi" unicode="&#x3a7;" horiz-adv-x="1316" 
d="M1291 0h-316l-317 528l-316 -528h-316l454 731l-434 703h316l296 -499l296 499h317l-434 -703z" />
    <glyph glyph-name="Psi" unicode="&#x3a8;" horiz-adv-x="1435" 
d="M854 1434v-845q85 35 135.5 114.5t50.5 178.5v552h273v-566q0 -199 -128.5 -349.5t-330.5 -191.5v-327h-272v327q-202 41 -330.5 191.5t-128.5 349.5v566h272v-552q0 -99 51 -178t136 -115v845h272z" />
    <glyph glyph-name="uni03A9" unicode="&#x3a9;" horiz-adv-x="1650" 
d="M1269 751q0 191 -128.5 322t-315.5 131t-315 -131t-128 -322q0 -161 91.5 -297.5t248.5 -212.5v-241h-614v254h283q-148 96 -225.5 229.5t-77.5 295.5q0 140 57.5 265.5t155.5 216.5t234.5 144t289.5 53t289.5 -53t235 -144t156 -216.5t57.5 -265.5q0 -162 -77.5 -295.5
t-225.5 -229.5h283v-254h-614v241q157 76 248.5 212.5t91.5 297.5z" />
    <glyph glyph-name="Iotadieresis" unicode="&#x3aa;" horiz-adv-x="620" 
d="M165 1434h291v-1434h-291v1434zM-38 1704q0 63 43.5 106t107.5 43t107 -43t43 -106t-43 -106.5t-107 -43.5t-107.5 43.5t-43.5 106.5zM357 1704q0 63 43.5 106t107.5 43t107 -43t43 -106t-43 -106.5t-107 -43.5t-107.5 43.5t-43.5 106.5z" />
    <glyph glyph-name="Upsilondieresis" unicode="&#x3ab;" horiz-adv-x="1333" 
d="M347 1434l320 -580l319 580h313l-487 -856v-578h-291v578l-487 856h313zM318 1704q0 63 43.5 106t107.5 43t107.5 -43t43.5 -106t-43.5 -106.5t-107.5 -43.5t-107.5 43.5t-43.5 106.5zM714 1704q0 63 43 106t107 43t107.5 -43t43.5 -106t-43.5 -106.5t-107.5 -43.5
t-107 43.5t-43 106.5z" />
    <glyph glyph-name="alphatonos" unicode="&#x3ac;" horiz-adv-x="1420" 
d="M1285 0q-139 0 -211.5 30.5t-102.5 109.5q-140 -165 -372 -165q-151 0 -273.5 75t-190.5 202t-68 278t68 278t190 202t271 75q202 0 336 -131v107h278v-702q0 -54 31 -83.5t84 -29.5h51v-242q-46 -4 -91 -4zM655 224q91 0 166 46t111 123v275q-36 77 -111 123t-166 46
q-130 0 -218 -88.5t-88 -218.5t88 -218t218 -88zM446 1212l268 351h282l-281 -351h-269z" />
    <glyph glyph-name="epsilontonos" unicode="&#x3ad;" horiz-adv-x="985" 
d="M341 326q0 -55 47.5 -92t118.5 -37q70 0 130 28.5t99 82.5l194 -142q-59 -89 -169 -140t-250 -51q-190 0 -319 95.5t-129 235.5q0 91 59.5 163.5t147.5 100.5q-75 26 -119.5 88.5t-44.5 133.5q0 125 114.5 209t284.5 84q136 0 234.5 -50.5t145.5 -139.5l-218 -125
q-21 42 -62 67t-97 25q-55 0 -92 -26t-37 -65q0 -40 36 -68t92 -28h161v-218h-155q-72 0 -122 -38t-50 -93zM275 1212l268 351h282l-281 -351h-269z" />
    <glyph glyph-name="etatonos" unicode="&#x3ae;" horiz-adv-x="1255" 
d="M418 690v-690h-282v1061h282v-117q54 64 133.5 102.5t164.5 38.5q187 0 305.5 -120t118.5 -312v-1128h-282v1101q0 91 -58 151t-153 60q-65 0 -128 -43t-101 -104zM449 1212l267 351h282l-281 -351h-268z" />
    <glyph glyph-name="iotatonos" unicode="&#x3af;" horiz-adv-x="602" 
d="M141 273v788h282v-717q0 -98 98 -98h37v-242q-50 -4 -94 -4q-323 0 -323 273zM98 1212l268 351h282l-281 -351h-269z" />
    <glyph glyph-name="upsilondieresistonos" unicode="&#x3b0;" horiz-adv-x="1187" 
d="M594 -25q-202 0 -340 128.5t-138 314.5v643h281v-629q0 -89 56.5 -148.5t140.5 -59.5t140.5 59.5t56.5 148.5v629h281v-643q0 -186 -138 -314.5t-340 -128.5zM253 1306q0 62 42.5 103.5t107.5 41.5t108 -41.5t43 -103.5t-43 -104t-108 -42t-107.5 42t-42.5 104zM634 1306
q0 62 42.5 103.5t107.5 41.5t108 -41.5t43 -103.5t-43 -104t-108 -42t-107.5 42t-42.5 104zM694 1483h-248l201 268h262z" />
    <glyph glyph-name="alpha" unicode="&#x3b1;" horiz-adv-x="1420" 
d="M1285 0q-139 0 -211.5 30.5t-102.5 109.5q-140 -165 -372 -165q-151 0 -273.5 75t-190.5 202t-68 278t68 278t190 202t271 75q202 0 336 -131v107h278v-702q0 -54 31 -83.5t84 -29.5h51v-242q-46 -4 -91 -4zM655 224q91 0 166 46t111 123v275q-36 77 -111 123t-166 46
q-130 0 -218 -88.5t-88 -218.5t88 -218t218 -88z" />
    <glyph glyph-name="beta" unicode="&#x3b2;" horiz-adv-x="1244" 
d="M1047 1068q0 -89 -57 -165.5t-154 -112.5q140 -23 236.5 -130t96.5 -259q0 -181 -125 -303.5t-308 -122.5q-103 0 -187.5 43t-120.5 118v-611h-283v1536q0 171 129 284t322 113q192 0 321.5 -112.5t129.5 -277.5zM764 1054q0 72 -48 119.5t-120 47.5q-77 0 -122.5 -53
t-45.5 -139v-548q0 -122 64 -193.5t172 -71.5q93 0 154 58.5t61 148.5q0 108 -86 165.5t-231 57.5v236q99 1 150.5 49.5t51.5 122.5z" />
    <glyph glyph-name="gamma" unicode="&#x3b3;" horiz-adv-x="1100" 
d="M410 -475v473l-391 1063h293l239 -710l237 710h293l-390 -1063v-473h-281z" />
    <glyph glyph-name="delta" unicode="&#x3b4;" horiz-adv-x="1168" 
d="M348 455q0 -100 69 -168.5t167 -68.5q99 0 167.5 68.5t68.5 168.5t-68.5 168t-167.5 68q-98 0 -167 -68t-69 -168zM495 925l-285 287v222h759v-248h-407l413 -418q60 -60 93.5 -143t33.5 -170q0 -102 -42.5 -192.5t-114 -153t-166.5 -98.5t-198 -36q-100 0 -194 36
t-164.5 98.5t-113 153t-42.5 192.5q0 181 123.5 311t304.5 159z" />
    <glyph glyph-name="epsilon" unicode="&#x3b5;" horiz-adv-x="985" 
d="M341 326q0 -55 47.5 -92t118.5 -37q70 0 130 28.5t99 82.5l194 -142q-59 -89 -169 -140t-250 -51q-190 0 -319 95.5t-129 235.5q0 91 59.5 163.5t147.5 100.5q-75 26 -119.5 88.5t-44.5 133.5q0 125 114.5 209t284.5 84q136 0 234.5 -50.5t145.5 -139.5l-218 -125
q-21 42 -62 67t-97 25q-55 0 -92 -26t-37 -65q0 -40 36 -68t92 -28h161v-218h-155q-72 0 -122 -38t-50 -93z" />
    <glyph glyph-name="zeta" unicode="&#x3b6;" horiz-adv-x="972" 
d="M63 375q0 99 49 193t136 198l346 420h-426v248h750v-232l-448 -556q-124 -154 -124 -265q0 -130 153 -205l242 -119q177 -86 177 -276q0 -126 -93 -256h-276q86 114 86 219q0 46 -25.5 83t-67.5 58l-208 98q-130 61 -200.5 162.5t-70.5 229.5z" />
    <glyph glyph-name="eta" unicode="&#x3b7;" horiz-adv-x="1255" 
d="M418 690v-690h-282v1061h282v-117q54 64 133.5 102.5t164.5 38.5q187 0 305.5 -120t118.5 -312v-1128h-282v1101q0 91 -58 151t-153 60q-65 0 -128 -43t-101 -104z" />
    <glyph glyph-name="theta" unicode="&#x3b8;" horiz-adv-x="1316" 
d="M65 717q0 120 27.5 232t79.5 204t123.5 160.5t165 106.5t197.5 38q173 0 310 -101t210.5 -269.5t73.5 -370.5t-73.5 -370.5t-210.5 -270t-310 -101.5t-310 101.5t-210 270t-73 370.5zM658 1214q-119 0 -200.5 -107.5t-102.5 -273.5h607q-21 166 -103 273.5t-201 107.5z
M658 218q119 0 201 108.5t103 274.5h-607q21 -167 102.5 -275t200.5 -108z" />
    <glyph glyph-name="iota" unicode="&#x3b9;" horiz-adv-x="602" 
d="M141 273v788h282v-717q0 -98 98 -98h37v-242q-50 -4 -94 -4q-323 0 -323 273z" />
    <glyph glyph-name="kappa" unicode="&#x3ba;" horiz-adv-x="1098" 
d="M782 0l-277 464h-87v-464h-282v1061h282v-355h91l222 355h318l-312 -477l358 -584h-313z" />
    <glyph glyph-name="lambda" unicode="&#x3bb;" horiz-adv-x="1099" 
d="M409 1043l-179 452h293l557 -1495h-293l-240 682l-235 -682h-293z" />
    <glyph glyph-name="uni03BC" unicode="&#x3bc;" horiz-adv-x="1275" 
d="M136 -475v1536h282v-686q19 -68 75.5 -109.5t128.5 -41.5q67 0 133 46.5t103 112.5v678h282v-1061h-282v120q-47 -65 -116 -105t-142 -40q-111 0 -182 86v-536h-282z" />
    <glyph glyph-name="nu" unicode="&#x3bd;" horiz-adv-x="1099" 
d="M787 1061h293l-379 -1061h-303l-379 1061h293l238 -722z" />
    <glyph glyph-name="xi" unicode="&#x3be;" horiz-adv-x="983" 
d="M356 383q0 -165 183 -235l168 -64q104 -40 162.5 -116t58.5 -179q0 -133 -92 -264h-277q86 112 86 218q0 100 -99 138l-152 57q-149 55 -234.5 173.5t-85.5 258.5q0 135 80 244.5t207 157.5q-103 44 -163.5 132.5t-60.5 192.5q0 153 120.5 257t297.5 104q221 0 350 -148
l-174 -183q-80 100 -169 100q-65 0 -107.5 -47t-42.5 -120t45 -122.5t113 -49.5h227v-231h-181q-110 0 -185 -78t-75 -196z" />
    <glyph glyph-name="omicron" unicode="&#x3bf;" horiz-adv-x="1310" 
d="M67 530q0 115 45 217.5t122.5 176.5t187 117.5t233.5 43.5t234 -43.5t187.5 -117.5t122.5 -176.5t45 -217.5t-45 -217.5t-122.5 -176.5t-187.5 -117.5t-234 -43.5t-233.5 43.5t-187 117.5t-122.5 176.5t-45 217.5zM349 530q0 -130 88 -218t218 -88q131 0 219.5 88
t88.5 218q0 129 -89 218t-219 89q-129 0 -217.5 -89t-88.5 -218z" />
    <glyph glyph-name="pi" unicode="&#x3c0;" horiz-adv-x="1189" 
d="M459 812v-812h-280v812h-133v249h1098v-249h-134v-812h-280v812h-271z" />
    <glyph glyph-name="rho" unicode="&#x3c1;" horiz-adv-x="1326" 
d="M116 -475v1005q0 115 43 217t117.5 176.5t181.5 118t230 43.5q163 0 294.5 -74t204.5 -201t73 -280q0 -113 -42.5 -215.5t-115.5 -177t-175 -118.5t-215 -44q-196 0 -318 121v-571h-278zM394 530v-143q39 -74 114 -118.5t165 -44.5q128 0 216 88t88 218t-82.5 218.5
t-208.5 88.5t-209 -88.5t-83 -218.5z" />
    <glyph glyph-name="sigma1" unicode="&#x3c2;" horiz-adv-x="1110" 
d="M351 530q0 -107 55 -191.5t160 -132.5l256 -116q100 -45 151.5 -123t51.5 -178q0 -134 -90 -264h-276q86 114 86 218q0 48 -26.5 85t-71.5 58l-238 107q-160 71 -251 212t-91 325q0 115 45 217.5t122.5 176.5t187 117.5t233.5 43.5q233 0 401 -142l-140 -210
q-130 104 -259 104t-217.5 -89t-88.5 -218z" />
    <glyph glyph-name="sigma" unicode="&#x3c3;" horiz-adv-x="1363" 
d="M67 518q0 149 76 274t208.5 197t291.5 72h673v-249h-235q65 -61 102 -144t37 -175q0 -102 -44.5 -197t-121 -165.5t-184 -113t-227.5 -42.5q-159 0 -291.5 72t-208.5 196.5t-76 274.5zM348 518q0 -124 85 -209t210 -85t210 84.5t85 209.5t-85 209.5t-210 84.5t-210 -85
t-85 -209z" />
    <glyph glyph-name="tau" unicode="&#x3c4;" horiz-adv-x="1012" 
d="M354 367v445h-311v249h927v-249h-334v-425q0 -77 31.5 -110.5t98.5 -33.5h50v-242q-46 -4 -94 -4q-194 0 -281 87.5t-87 282.5z" />
    <glyph glyph-name="upsilon" unicode="&#x3c5;" horiz-adv-x="1187" 
d="M594 -25q-202 0 -340 128.5t-138 314.5v643h281v-629q0 -89 56.5 -148.5t140.5 -59.5t140.5 59.5t56.5 148.5v629h281v-643q0 -186 -138 -314.5t-340 -128.5z" />
    <glyph glyph-name="phi" unicode="&#x3c6;" horiz-adv-x="1438" 
d="M272 968l182 -173q-121 -113 -121 -265q0 -116 72.5 -201t186.5 -104v860h194q164 0 299 -74t211 -201t76 -280q0 -217 -147 -372.5t-373 -177.5v-455h-260v455q-228 20 -376.5 176t-148.5 374q0 134 56 247.5t149 190.5zM1107 530q0 114 -72 199t-183 105v-609
q111 21 183 105.5t72 199.5z" />
    <glyph glyph-name="chi" unicode="&#x3c7;" horiz-adv-x="1085" 
d="M1059 1061l-350 -748l370 -788h-299l-237 522l-238 -522h-299l371 788l-350 748h299l217 -482l217 482h299z" />
    <glyph glyph-name="psi" unicode="&#x3c8;" horiz-adv-x="1416" 
d="M840 1061v-815q89 30 142 102.5t53 166.5v546h265v-563q0 -190 -129 -331t-331 -179v-463h-263v463q-202 38 -331.5 179t-129.5 331v563h265v-546q0 -94 53.5 -166.5t142.5 -102.5v815h263z" />
    <glyph glyph-name="omega" unicode="&#x3c9;" horiz-adv-x="1649" 
d="M965 838v-292q0 -137 46.5 -229.5t121.5 -92.5q72 0 119 84.5t47 211.5q0 244 -178 541h280q182 -290 182 -541q0 -151 -56.5 -276.5t-154.5 -197t-217 -71.5q-109 0 -196.5 61t-134.5 157q-45 -95 -132.5 -156.5t-196.5 -61.5q-119 0 -217 71.5t-154.5 197t-56.5 276.5
q0 251 182 541h279q-178 -297 -178 -541q0 -127 47.5 -211.5t119.5 -84.5q75 0 121.5 92.5t46.5 229.5v292h280z" />
    <glyph glyph-name="iotadieresis" unicode="&#x3ca;" horiz-adv-x="602" 
d="M141 273v788h282v-717q0 -98 98 -98h37v-242q-50 -4 -94 -4q-323 0 -323 273zM-66 1372q0 63 43.5 106.5t107.5 43.5t107.5 -43.5t43.5 -106.5t-43.5 -106t-107.5 -43t-107.5 43t-43.5 106zM330 1372q0 63 43 106.5t107 43.5t107.5 -43.5t43.5 -106.5t-43.5 -106
t-107.5 -43t-107 43t-43 106z" />
    <glyph glyph-name="upsilondieresis" unicode="&#x3cb;" horiz-adv-x="1187" 
d="M594 -25q-202 0 -340 128.5t-138 314.5v643h281v-629q0 -89 56.5 -148.5t140.5 -59.5t140.5 59.5t56.5 148.5v629h281v-643q0 -186 -138 -314.5t-340 -128.5zM246 1372q0 63 43 106.5t107 43.5t107.5 -43.5t43.5 -106.5t-43.5 -106t-107.5 -43t-107 43t-43 106zM641 1372
q0 63 43.5 106.5t107.5 43.5t107 -43.5t43 -106.5t-43 -106t-107 -43t-107.5 43t-43.5 106z" />
    <glyph glyph-name="omicrontonos" unicode="&#x3cc;" horiz-adv-x="1310" 
d="M67 530q0 115 45 217.5t122.5 176.5t187 117.5t233.5 43.5t234 -43.5t187.5 -117.5t122.5 -176.5t45 -217.5t-45 -217.5t-122.5 -176.5t-187.5 -117.5t-234 -43.5t-233.5 43.5t-187 117.5t-122.5 176.5t-45 217.5zM349 530q0 -130 88 -218t218 -88q131 0 219.5 88
t88.5 218q0 129 -89 218t-219 89q-129 0 -217.5 -89t-88.5 -218zM474 1212l267 351h283l-282 -351h-268z" />
    <glyph glyph-name="upsilontonos" unicode="&#x3cd;" horiz-adv-x="1187" 
d="M594 -25q-202 0 -340 128.5t-138 314.5v643h281v-629q0 -89 56.5 -148.5t140.5 -59.5t140.5 59.5t56.5 148.5v629h281v-643q0 -186 -138 -314.5t-340 -128.5zM402 1212l268 351h282l-281 -351h-269z" />
    <glyph glyph-name="omegatonos" unicode="&#x3ce;" horiz-adv-x="1649" 
d="M965 838v-292q0 -137 46.5 -229.5t121.5 -92.5q72 0 119 84.5t47 211.5q0 244 -178 541h280q182 -290 182 -541q0 -151 -56.5 -276.5t-154.5 -197t-217 -71.5q-109 0 -196.5 61t-134.5 157q-45 -95 -132.5 -156.5t-196.5 -61.5q-119 0 -217 71.5t-154.5 197t-56.5 276.5
q0 251 182 541h279q-178 -297 -178 -541q0 -127 47.5 -211.5t119.5 -84.5q75 0 121.5 92.5t46.5 229.5v292h280zM652 1212l268 351h282l-281 -351h-269z" />
    <glyph glyph-name="uni0400" unicode="&#x400;" horiz-adv-x="1173" 
d="M157 0v1434h893v-248h-603v-342h553v-246h-553v-350h621v-248h-911zM508 1894l267 -350h-268l-282 350h283z" />
    <glyph glyph-name="afii10023" unicode="&#x401;" horiz-adv-x="1173" 
d="M157 0v1434h893v-248h-603v-342h553v-246h-553v-350h621v-248h-911zM259 1704q0 63 43.5 106t107.5 43t107 -43t43 -106t-43 -106.5t-107 -43.5t-107.5 43.5t-43.5 106.5zM654 1704q0 63 43.5 106t107.5 43t107 -43t43 -106t-43 -106.5t-107 -43.5t-107.5 43.5
t-43.5 106.5z" />
    <glyph glyph-name="afii10051" unicode="&#x402;" horiz-adv-x="1480" 
d="M994 -4q-63 0 -96 4v241h49q75 0 125.5 50.5t50.5 125.5v76q0 77 -52.5 129t-130.5 52q-77 0 -134.5 -35t-90.5 -98v-541h-291v1186h-368v248h1027v-248h-368v-377q105 113 276 113q178 0 300.5 -118.5t122.5 -291.5v-112q0 -170 -121.5 -287t-298.5 -117z" />
    <glyph glyph-name="afii10052" unicode="&#x403;" horiz-adv-x="1064" 
d="M157 0v1434h872v-251h-582v-1183h-290zM403 1583l268 350h282l-281 -350h-269z" />
    <glyph glyph-name="afii10053" unicode="&#x404;" horiz-adv-x="1421" 
d="M848 -25q-160 0 -303 57.5t-245 156.5t-161.5 236.5t-59.5 291.5q0 206 101 376t277.5 267.5t390.5 97.5q293 0 504 -175l-149 -209q-74 61 -166.5 98t-188.5 37q-170 0 -299 -104.5t-167 -268.5h666v-238h-666q38 -165 167 -269.5t299 -104.5q182 0 360 136l147 -209
q-218 -176 -507 -176z" />
    <glyph glyph-name="afii10054" unicode="&#x405;" horiz-adv-x="1222" 
d="M93 206l167 195q75 -80 167.5 -128.5t187.5 -48.5q105 0 172 48t67 127q0 78 -64.5 133t-226.5 90q-215 45 -327 153t-112 269q0 182 133.5 298t343.5 116q285 0 473 -182l-158 -204q-158 139 -303 139q-85 0 -140 -40t-55 -105q0 -75 63 -125.5t210 -84.5
q237 -55 347 -165.5t110 -282.5q0 -192 -142.5 -312.5t-383.5 -120.5q-156 0 -295.5 61t-233.5 170z" />
    <glyph glyph-name="afii10055" unicode="&#x406;" horiz-adv-x="620" 
d="M165 1434h291v-1434h-291v1434z" />
    <glyph glyph-name="afii10056" unicode="&#x407;" horiz-adv-x="620" 
d="M165 1434h291v-1434h-291v1434zM-38 1704q0 63 43.5 106t107.5 43t107 -43t43 -106t-43 -106.5t-107 -43.5t-107.5 43.5t-43.5 106.5zM357 1704q0 63 43.5 106t107.5 43t107 -43t43 -106t-43 -106.5t-107 -43.5t-107.5 43.5t-43.5 106.5z" />
    <glyph glyph-name="afii10057" unicode="&#x408;" horiz-adv-x="952" 
d="M516 467v967h291v-977q0 -241 -120.5 -361.5t-349.5 -120.5q-80 0 -162 19.5t-141 52.5l84 240q94 -58 194 -58q204 0 204 238z" />
    <glyph glyph-name="afii10058" unicode="&#x409;" horiz-adv-x="2070" 
d="M1271 1434v-515h231q228 0 366 -127t138 -333q0 -205 -138 -332t-366 -127h-522v1183h-455v-808q0 -199 -99 -289t-301 -90q-37 0 -89 4v247h57q73 0 107 36.5t34 123.5v1027h1037zM1712 459q0 103 -61.5 159.5t-173.5 56.5h-206v-432h206q113 0 174 56.5t61 159.5z" />
    <glyph glyph-name="afii10059" unicode="&#x40a;" horiz-adv-x="2075" 
d="M1276 1434v-515h231q228 0 366 -127t138 -333q0 -205 -138 -332t-366 -127h-522v595h-538v-595h-290v1434h290v-588h538v588h291zM1717 459q0 103 -61.5 159.5t-173.5 56.5h-206v-432h206q113 0 174 56.5t61 159.5z" />
    <glyph glyph-name="afii10060" unicode="&#x40b;" horiz-adv-x="1529" 
d="M1414 512v-512h-291v493q0 76 -52.5 128.5t-130.5 52.5q-77 0 -134.5 -35t-90.5 -98v-541h-291v1186h-368v248h1027v-248h-368v-377q105 113 276 113q178 0 300.5 -118.5t122.5 -291.5z" />
    <glyph glyph-name="afii10061" unicode="&#x40c;" horiz-adv-x="1268" 
d="M447 1434v-585h82l361 585h320l-439 -707l518 -727h-326l-425 598h-91v-598h-290v1434h290zM427 1544l267 350h283l-282 -350h-268z" />
    <glyph glyph-name="uni040D" unicode="&#x40d;" horiz-adv-x="1447" 
d="M1291 1434v-1434h-274v965l-565 -965h-295v1434h274v-965l565 965h295zM648 1894l267 -350h-268l-281 350h282z" />
    <glyph glyph-name="afii10062" unicode="&#x40e;" horiz-adv-x="1334" 
d="M1300 1434l-577 -1214q-105 -220 -333 -220h-190v251h135q89 0 131 86l50 102l-482 995h308l329 -712l321 712h308zM671 1524q-144 0 -250 91t-112 230h235q1 -57 37.5 -94.5t89.5 -37.5t89.5 37.5t37.5 94.5h234q-6 -139 -111.5 -230t-249.5 -91z" />
    <glyph glyph-name="afii10145" unicode="&#x40f;" horiz-adv-x="1394" 
d="M947 251v1183h291v-1434h-395v-287h-291v287h-395v1434h290v-1183h500z" />
    <glyph glyph-name="afii10017" unicode="&#x410;" horiz-adv-x="1415" 
d="M547 1434h321l513 -1434h-308l-106 323h-518l-107 -323h-308zM892 560l-184 563l-185 -563h369z" />
    <glyph glyph-name="afii10018" unicode="&#x411;" horiz-adv-x="1254" 
d="M447 919h232q228 0 366 -127t138 -333q0 -205 -138 -332t-366 -127h-522v1434h903v-244h-613v-271zM889 459q0 103 -62 159.5t-174 56.5h-206v-432h206q113 0 174.5 56.5t61.5 159.5z" />
    <glyph glyph-name="afii10019" unicode="&#x412;" horiz-adv-x="1282" 
d="M767 0h-610v1434h539q198 0 311 -104.5t113 -283.5q0 -103 -47 -176.5t-126 -108.5q109 -30 179.5 -121.5t70.5 -221.5q0 -186 -118 -302t-312 -116zM838 1023q0 82 -45 126t-119 44h-232v-339h232q74 0 119 44t45 125zM906 431q0 88 -48.5 140t-125.5 52h-290v-382h290
q77 0 125.5 52t48.5 138z" />
    <glyph glyph-name="afii10020" unicode="&#x413;" horiz-adv-x="1064" 
d="M157 0v1434h872v-251h-582v-1183h-290z" />
    <glyph glyph-name="afii10021" unicode="&#x414;" horiz-adv-x="1380" 
d="M1324 241v-528h-286v287h-696v-287h-286v528h106q171 392 171 990v203h865v-1193h126zM463 241h449v952h-298q0 -251 -38.5 -503t-112.5 -449z" />
    <glyph glyph-name="afii10022" unicode="&#x415;" horiz-adv-x="1173" 
d="M157 0v1434h893v-248h-603v-342h553v-246h-553v-350h621v-248h-911z" />
    <glyph glyph-name="afii10024" unicode="&#x416;" horiz-adv-x="1861" 
d="M63 1434h320l342 -585h60v585h291v-585h61l342 585h319l-419 -707l498 -727h-326l-405 598h-70v-598h-291v598h-69l-406 -598h-325l497 727z" />
    <glyph glyph-name="afii10025" unicode="&#x417;" horiz-adv-x="1098" 
d="M284 1121l-166 164q140 173 396 173q191 0 313.5 -109.5t122.5 -272.5q0 -94 -54 -172.5t-144 -118.5q121 -45 196.5 -143t75.5 -221q0 -189 -147.5 -317.5t-364.5 -128.5q-142 0 -264 61.5t-195 168.5l172 171q114 -163 282 -163q98 0 164 64.5t66 158.5
q0 101 -73 163.5t-196 62.5h-149v234h152q93 0 150.5 47t57.5 119q0 69 -53.5 114t-133.5 45q-120 0 -208 -100z" />
    <glyph glyph-name="afii10026" unicode="&#x418;" horiz-adv-x="1447" 
d="M1291 1434v-1434h-274v965l-565 -965h-295v1434h274v-965l565 965h295z" />
    <glyph glyph-name="afii10027" unicode="&#x419;" horiz-adv-x="1447" 
d="M1291 1434v-1434h-274v965l-565 -965h-295v1434h274v-965l565 965h295zM724 1524q-144 0 -250 91t-112 230h235q1 -57 37.5 -94.5t89.5 -37.5t89.5 37.5t37.5 94.5h234q-6 -139 -111.5 -230t-249.5 -91z" />
    <glyph glyph-name="afii10028" unicode="&#x41a;" horiz-adv-x="1268" 
d="M447 1434v-585h82l361 585h320l-439 -707l518 -727h-326l-425 598h-91v-598h-290v1434h290z" />
    <glyph glyph-name="afii10029" unicode="&#x41b;" horiz-adv-x="1463" 
d="M525 1183v-808q0 -199 -99 -289t-301 -90q-37 0 -89 4v247h57q73 0 107 36.5t34 123.5v1027h1073v-1434h-291v1183h-491z" />
    <glyph glyph-name="afii10030" unicode="&#x41c;" horiz-adv-x="1759" 
d="M976 428h-193l-352 566v-994h-274v1434h297l426 -689l426 689h297v-1434h-275v994z" />
    <glyph glyph-name="afii10031" unicode="&#x41d;" horiz-adv-x="1447" 
d="M157 0v1434h290v-588h553v588h291v-1434h-291v595h-553v-595h-290z" />
    <glyph glyph-name="afii10032" unicode="&#x41e;" horiz-adv-x="1695" 
d="M373 717q0 -136 63 -248t172 -176t240 -64t240 64t172 176t63 248q0 206 -137.5 346.5t-337.5 140.5t-337.5 -140.5t-137.5 -346.5zM79 717q0 206 101 376t277.5 267.5t390.5 97.5t390.5 -97.5t277.5 -267.5t101 -376q0 -154 -59.5 -291.5t-161.5 -236.5t-245 -156.5
t-303 -57.5t-303 57.5t-245 156.5t-161.5 236.5t-59.5 291.5z" />
    <glyph glyph-name="afii10033" unicode="&#x41f;" horiz-adv-x="1394" 
d="M1238 1434v-1434h-291v1183h-500v-1183h-290v1434h1081z" />
    <glyph glyph-name="afii10034" unicode="&#x420;" horiz-adv-x="1228" 
d="M664 500h-217v-500h-290v1434h507q227 0 363.5 -128.5t136.5 -338.5t-136 -338.5t-364 -128.5zM873 967q0 105 -61 166t-172 61h-193v-455h193q111 0 172 61.5t61 166.5z" />
    <glyph glyph-name="afii10035" unicode="&#x421;" horiz-adv-x="1423" 
d="M848 -25q-160 0 -303 57.5t-245 156.5t-161.5 236.5t-59.5 291.5q0 206 101 376t277.5 267.5t390.5 97.5q276 0 491 -166l-146 -216q-85 62 -166.5 95t-178.5 33q-200 0 -337.5 -140.5t-137.5 -346.5q0 -136 63 -248t172 -176t240 -64q96 0 188 38t167 101l154 -214
q-215 -179 -509 -179z" />
    <glyph glyph-name="afii10036" unicode="&#x422;" horiz-adv-x="1140" 
d="M425 0v1183h-369v251h1028v-251h-368v-1183h-291z" />
    <glyph glyph-name="afii10037" unicode="&#x423;" horiz-adv-x="1334" 
d="M1300 1434l-577 -1214q-105 -220 -333 -220h-190v251h135q89 0 131 86l50 102l-482 995h308l329 -712l321 712h308z" />
    <glyph glyph-name="afii10038" unicode="&#x424;" horiz-adv-x="1583" 
d="M651 0v197q-162 0 -297 68t-213 187t-78 263t78 263t213 187t297 68v201h281v-201q162 0 297 -68t213 -187t78 -263t-78 -263t-213 -187t-297 -68v-197h-281zM1236 715q0 113 -88 192t-216 79v-544q128 0 216 79.5t88 193.5zM347 715q0 -114 88 -193.5t216 -79.5v544
q-128 0 -216 -79t-88 -192z" />
    <glyph glyph-name="afii10039" unicode="&#x425;" horiz-adv-x="1316" 
d="M1291 0h-316l-317 528l-316 -528h-316l454 731l-434 703h316l296 -499l296 499h317l-434 -703z" />
    <glyph glyph-name="afii10040" unicode="&#x426;" horiz-adv-x="1420" 
d="M1086 0h-929v1434h290v-1183h500v1183h291v-1183h126v-538h-278v287z" />
    <glyph glyph-name="afii10041" unicode="&#x427;" horiz-adv-x="1302" 
d="M116 931v503h291v-483q0 -88 57.5 -144.5t145.5 -56.5q79 0 145 40t100 105v539h291v-1434h-291v623q-51 -54 -132.5 -87.5t-164.5 -33.5q-187 0 -314.5 124t-127.5 305z" />
    <glyph glyph-name="afii10042" unicode="&#x428;" horiz-adv-x="2009" 
d="M1562 251v1183h290v-1434h-1695v1434h290v-1183h412v1183h291v-1183h412z" />
    <glyph glyph-name="afii10043" unicode="&#x429;" horiz-adv-x="2034" 
d="M1701 0h-1544v1434h290v-1183h412v1183h291v-1183h412v1183h290v-1183h126v-538h-277v287z" />
    <glyph glyph-name="afii10044" unicode="&#x42a;" horiz-adv-x="1480" 
d="M681 919h231q228 0 366 -127t138 -333q0 -205 -138 -332t-366 -127h-522v1190h-334v244h625v-515zM1122 459q0 103 -61 159.5t-174 56.5h-206v-432h206q113 0 174 56.5t61 159.5z" />
    <glyph glyph-name="afii10045" unicode="&#x42b;" horiz-adv-x="1761" 
d="M157 1434h290v-515h232q228 0 366 -127t138 -333q0 -205 -138 -332t-366 -127h-522v1434zM889 459q0 102 -61.5 159t-174.5 57h-206v-432h206q113 0 174.5 56.5t61.5 159.5zM1314 1434h291v-1434h-291v1434z" />
    <glyph glyph-name="afii10046" unicode="&#x42c;" horiz-adv-x="1247" 
d="M157 1434h290v-515h232q228 0 366 -127t138 -333q0 -205 -138 -332t-366 -127h-522v1434zM889 459q0 102 -61.5 159t-174.5 57h-206v-432h206q113 0 174.5 56.5t61.5 159.5z" />
    <glyph glyph-name="afii10047" unicode="&#x42d;" horiz-adv-x="1421" 
d="M573 -25q-288 0 -506 176l146 209q178 -136 360 -136q170 0 299 104.5t167 269.5h-665v238h665q-38 164 -167 268.5t-299 104.5q-96 0 -188.5 -37t-166.5 -98l-148 209q211 175 503 175q214 0 390.5 -97.5t277.5 -267.5t101 -376q0 -154 -59.5 -291.5t-161.5 -236.5
t-245 -156.5t-303 -57.5z" />
    <glyph glyph-name="afii10048" unicode="&#x42e;" horiz-adv-x="2213" 
d="M447 595v-595h-290v1434h290v-588h167q30 175 135 314t267.5 218.5t352.5 79.5q159 0 301.5 -57.5t244 -156t161 -236t59.5 -291.5t-59.5 -291.5t-161 -236.5t-244 -156.5t-301.5 -57.5q-290 0 -501.5 175t-255.5 445h-165zM896 717q0 -206 137 -347t336 -141
q198 0 335 141t137 347q0 135 -63 247t-171 176t-238 64t-238.5 -64t-171.5 -176t-63 -247z" />
    <glyph glyph-name="afii10049" unicode="&#x42f;" horiz-adv-x="1256" 
d="M593 1434h507v-1434h-289v510h-114l-321 -510h-318l348 541q-148 44 -231 157t-83 274q0 209 136.5 335.5t364.5 126.5zM811 1194h-196q-111 0 -171.5 -61t-60.5 -165q0 -103 60.5 -164.5t171.5 -61.5h196v452z" />
    <glyph glyph-name="afii10065" unicode="&#x430;" horiz-adv-x="1346" 
d="M655 224q91 0 166 46t111 123v275q-36 77 -111 123t-166 46q-130 0 -218 -88.5t-88 -218.5t88 -218t218 -88zM596 1085q202 0 336 -131v107h278v-1061h-278v106q-134 -131 -336 -131q-149 0 -271 75t-190 202t-68 278t68 278t190 202t271 75z" />
    <glyph glyph-name="afii10066" unicode="&#x431;" horiz-adv-x="1263" 
d="M397 864q57 54 136 84.5t164 30.5q212 0 356 -144.5t144 -355.5q0 -217 -156.5 -360.5t-397.5 -143.5q-118 0 -218.5 39.5t-176.5 115.5t-119 195t-43 268q0 192 28 332t87 243t158.5 169.5t232.5 104t319 53.5l41 -249q-127 -12 -214.5 -31.5t-149.5 -47.5t-100 -72
t-59 -98t-32 -133zM369 569q1 -168 76.5 -256.5t197.5 -88.5q119 0 195.5 72t76.5 181q0 107 -75.5 180t-186.5 73q-87 0 -159.5 -43.5t-124.5 -117.5z" />
    <glyph glyph-name="afii10067" unicode="&#x432;" horiz-adv-x="1070" 
d="M615 0h-479v1061h447q151 0 252.5 -82.5t101.5 -205.5q0 -70 -39 -128t-104 -84q83 -21 137.5 -92.5t54.5 -158.5q0 -131 -107 -220.5t-264 -89.5zM587 443h-187v-225h187q57 0 93.5 32t36.5 80q0 49 -36.5 81t-93.5 32zM400 646h158q51 0 83.5 28t32.5 70q0 43 -33 70.5
t-83 27.5h-158v-196z" />
    <glyph glyph-name="afii10068" unicode="&#x433;" horiz-adv-x="860" 
d="M816 812h-398v-812h-282v1061h680v-249z" />
    <glyph glyph-name="afii10069" unicode="&#x434;" horiz-adv-x="1155" 
d="M1111 222v-439h-266v217h-536v-217h-265v439h107q142 302 142 839h694v-839h124zM433 222h292v616h-178q0 -151 -30.5 -318t-83.5 -298z" />
    <glyph glyph-name="afii10070" unicode="&#x435;" horiz-adv-x="1265" 
d="M351 446q19 -111 103 -178.5t204 -67.5q167 0 301 132l169 -164q-178 -193 -469 -193q-129 0 -240.5 43.5t-188 118t-120 176.5t-43.5 217t44 217.5t120 176.5t183.5 117.5t228.5 43.5q159 0 287 -72t198.5 -194.5t70.5 -269.5q0 -53 -12 -103h-836zM641 861
q-100 0 -177 -58.5t-106 -155.5h551q-24 96 -95.5 155t-172.5 59z" />
    <glyph glyph-name="afii10072" unicode="&#x436;" horiz-adv-x="1643" 
d="M1327 0l-273 445h-91v-445h-282v445h-92l-273 -445h-312l357 565l-311 496h318l222 -374h91v374h282v-374h91l222 374h317l-311 -496l357 -565h-312z" />
    <glyph glyph-name="afii10073" unicode="&#x437;" horiz-adv-x="985" 
d="M644 326q0 55 -50 93t-122 38h-155v218h161q56 0 92 28t36 68q0 39 -37 65t-92 26q-56 0 -97 -25t-62 -67l-218 125q47 89 145.5 139.5t234.5 50.5q170 0 284.5 -84t114.5 -209q0 -71 -44.5 -133.5t-119.5 -88.5q88 -28 147.5 -100.5t59.5 -163.5q0 -140 -129 -235.5
t-319 -95.5q-140 0 -250 51t-169 140l194 142q39 -54 99 -82.5t130 -28.5q71 0 118.5 37t47.5 92z" />
    <glyph glyph-name="afii10074" unicode="&#x438;" horiz-adv-x="1275" 
d="M1140 1061v-1061h-273v664l-476 -664h-255v1061h273v-664l476 664h255z" />
    <glyph glyph-name="afii10075" unicode="&#x439;" horiz-adv-x="1275" 
d="M1140 1061v-1061h-273v664l-476 -664h-255v1061h273v-664l476 664h255zM638 1192q-144 0 -250 91t-112 230h235q1 -57 37.5 -94.5t89.5 -37.5t89.5 37.5t37.5 94.5h234q-6 -139 -111.5 -230t-249.5 -91z" />
    <glyph glyph-name="afii10076" unicode="&#x43a;" horiz-adv-x="1098" 
d="M782 0l-277 464h-87v-464h-282v1061h282v-355h91l222 355h318l-312 -477l358 -584h-313z" />
    <glyph glyph-name="afii10077" unicode="&#x43b;" horiz-adv-x="1275" 
d="M1140 1061v-1061h-282v814h-354v-492q0 -143 -99 -236.5t-252 -93.5q-65 0 -109 8v245h52q56 0 91 34t35 89v693h918z" />
    <glyph glyph-name="afii10078" unicode="&#x43c;" horiz-adv-x="1406" 
d="M408 1061l295 -505l296 505h272v-1061h-266v663l-220 -361h-163l-220 361v-663h-266v1061h272z" />
    <glyph glyph-name="afii10079" unicode="&#x43d;" horiz-adv-x="1275" 
d="M1140 1061v-1061h-282v425h-440v-425h-282v1061h282v-389h440v389h282z" />
    <glyph glyph-name="afii10080" unicode="&#x43e;" horiz-adv-x="1310" 
d="M67 530q0 115 45 217.5t122.5 176.5t187 117.5t233.5 43.5t234 -43.5t187.5 -117.5t122.5 -176.5t45 -217.5t-45 -217.5t-122.5 -176.5t-187.5 -117.5t-234 -43.5t-233.5 43.5t-187 117.5t-122.5 176.5t-45 217.5zM349 530q0 -130 88 -218t218 -88q131 0 219.5 88
t88.5 218q0 129 -89 218t-219 89q-129 0 -217.5 -89t-88.5 -218z" />
    <glyph glyph-name="afii10081" unicode="&#x43f;" horiz-adv-x="1275" 
d="M1140 1061v-1061h-282v814h-440v-814h-282v1061h1004z" />
    <glyph glyph-name="afii10082" unicode="&#x440;" horiz-adv-x="1346" 
d="M691 224q130 0 218 88t88 218t-88 218.5t-218 88.5q-91 0 -165.5 -46t-110.5 -123v-275q36 -77 110.5 -123t165.5 -46zM751 1085q149 0 271 -75t190 -202t68 -278t-68 -278t-190 -202t-271 -75q-202 0 -336 131v-581h-279v1536h279v-107q134 131 336 131z" />
    <glyph glyph-name="afii10083" unicode="&#x441;" horiz-adv-x="1137" 
d="M655 -25q-124 0 -233.5 43.5t-187 117.5t-122.5 176.5t-45 217.5t45 217.5t122.5 176.5t187 117.5t233.5 43.5q233 0 401 -142l-140 -210q-130 104 -259 104t-217.5 -89t-88.5 -218q0 -130 88 -218t218 -88q138 0 266 112l156 -197q-169 -164 -424 -164z" />
    <glyph glyph-name="afii10084" unicode="&#x442;" horiz-adv-x="989" 
d="M353 812h-309v249h901v-249h-310v-812h-282v812z" />
    <glyph glyph-name="afii10085" unicode="&#x443;" horiz-adv-x="1099" 
d="M516 -475h-294l187 475l-390 1061h293l236 -705l239 705h293z" />
    <glyph glyph-name="afii10086" unicode="&#x444;" horiz-adv-x="2142" 
d="M655 224q91 0 166 46t111 123v275q-36 77 -111 123t-166 46q-130 0 -218 -88.5t-88 -218.5t88 -218t218 -88zM1210 106v-581h-278v581q-134 -131 -336 -131q-149 0 -271 75t-190 202t-68 278t68 278t190 202t271 75q202 0 336 -131v541h278v-541q134 131 336 131
q112 0 211 -44t168.5 -119t110 -177t40.5 -215t-40.5 -215t-110 -177t-168.5 -119t-211 -44q-202 0 -336 131zM1487 224q130 0 218 88t88 218t-88 218.5t-218 88.5q-91 0 -166 -46t-111 -123v-275q36 -77 111 -123t166 -46z" />
    <glyph glyph-name="afii10087" unicode="&#x445;" horiz-adv-x="1099" 
d="M1080 0h-305l-225 360l-225 -360h-306l349 541l-322 520h305l199 -341l199 341h305l-322 -520z" />
    <glyph glyph-name="afii10088" unicode="&#x446;" horiz-adv-x="1308" 
d="M1140 1061v-815h125v-533h-270v287h-859v1061h282v-815h440v815h282z" />
    <glyph glyph-name="afii10089" unicode="&#x447;" horiz-adv-x="1144" 
d="M727 0v400q-90 -110 -245 -110q-168 0 -284 115.5t-116 282.5v373h282v-358q0 -71 47.5 -119t120.5 -48q67 0 117 36.5t78 95.5v393h282v-1061h-282z" />
    <glyph glyph-name="afii10090" unicode="&#x448;" horiz-adv-x="1633" 
d="M1497 1061v-1061h-1361v1061h275v-815h269v815h273v-815h270v815h274z" />
    <glyph glyph-name="afii10091" unicode="&#x449;" horiz-adv-x="1666" 
d="M1353 0h-1217v1061h275v-815h269v815h273v-815h270v815h274v-815h125v-533h-269v287z" />
    <glyph glyph-name="afii10092" unicode="&#x44a;" horiz-adv-x="1247" 
d="M913 367q0 64 -45 106t-112 42h-165v-297h165q67 0 112 42.5t45 106.5zM1188 367q0 -154 -114 -260.5t-282 -106.5h-476v828h-272v233h547v-327h201q168 0 282 -106.5t114 -260.5z" />
    <glyph glyph-name="afii10093" unicode="&#x44b;" horiz-adv-x="1533" 
d="M733 367q0 64 -46 106t-113 42h-163v-297h163q67 0 113 43t46 106zM1008 367q0 -154 -115 -260.5t-283 -106.5h-474v1061h275v-327h199q168 0 283 -106.5t115 -260.5zM1116 0v1061h282v-1061h-282z" />
    <glyph glyph-name="afii10094" unicode="&#x44c;" horiz-adv-x="1067" 
d="M733 367q0 64 -46 106t-113 42h-163v-297h163q67 0 113 43t46 106zM1008 367q0 -154 -115 -260.5t-283 -106.5h-474v1061h275v-327h199q168 0 283 -106.5t115 -260.5z" />
    <glyph glyph-name="afii10095" unicode="&#x44d;" horiz-adv-x="1137" 
d="M482 -25q-255 0 -424 164l154 188q128 -116 268 -116q105 0 186.5 59.5t111.5 154.5h-439v206h441q-30 97 -112.5 157.5t-187.5 60.5q-128 0 -262 -108l-136 202q168 142 400 142q166 0 301 -73.5t211.5 -201t76.5 -280.5t-76.5 -280.5t-211.5 -201t-301 -73.5z" />
    <glyph glyph-name="afii10096" unicode="&#x44e;" horiz-adv-x="1774" 
d="M1119 1085q124 0 234 -43.5t187.5 -117.5t122.5 -176.5t45 -217.5t-45 -217.5t-122.5 -176.5t-187.5 -117.5t-234 -43.5q-216 0 -373.5 121.5t-199.5 311.5h-131v-408h-279v1061h279v-405h132q43 188 200 308.5t372 120.5zM1119 224q130 0 218.5 88t88.5 218
q0 129 -88.5 218t-218.5 89q-129 0 -217.5 -89t-88.5 -218q0 -130 88 -218t218 -88z" />
    <glyph glyph-name="afii10097" unicode="&#x44f;" horiz-adv-x="1139" 
d="M90 713q0 148 114.5 248t283.5 100h516v-1061h-270v358h-105l-272 -358h-299l297 383q-120 35 -192.5 124t-72.5 206zM734 842h-218q-65 0 -108.5 -37t-43.5 -92q0 -57 43 -93.5t109 -36.5h218v259z" />
    <glyph glyph-name="uni0450" unicode="&#x450;" horiz-adv-x="1265" 
d="M351 446q19 -111 103 -178.5t204 -67.5q167 0 301 132l169 -164q-178 -193 -469 -193q-129 0 -240.5 43.5t-188 118t-120 176.5t-43.5 217t44 217.5t120 176.5t183.5 117.5t228.5 43.5q159 0 287 -72t198.5 -194.5t70.5 -269.5q0 -53 -12 -103h-836zM641 861
q-100 0 -177 -58.5t-106 -155.5h551q-24 96 -95.5 155t-172.5 59zM566 1563l268 -351h-269l-281 351h282z" />
    <glyph glyph-name="afii10071" unicode="&#x451;" horiz-adv-x="1265" 
d="M351 446q19 -111 103 -178.5t204 -67.5q167 0 301 132l169 -164q-178 -193 -469 -193q-129 0 -240.5 43.5t-188 118t-120 176.5t-43.5 217t44 217.5t120 176.5t183.5 117.5t228.5 43.5q159 0 287 -72t198.5 -194.5t70.5 -269.5q0 -53 -12 -103h-836zM641 861
q-100 0 -177 -58.5t-106 -155.5h551q-24 96 -95.5 155t-172.5 59zM285 1372q0 63 43 106.5t107 43.5t107.5 -43.5t43.5 -106.5t-43.5 -106t-107.5 -43t-107 43t-43 106zM680 1372q0 63 43 106.5t107 43.5t107.5 -43.5t43.5 -106.5t-43.5 -106t-107.5 -43t-107 43t-43 106z
" />
    <glyph glyph-name="afii10099" unicode="&#x452;" horiz-adv-x="1277" 
d="M20 1180v171h139v144h281v-144h304v-171h-304v-236q54 64 133.5 102.5t164.5 38.5q187 0 305.5 -120t118.5 -312v-755q0 -373 -417 -373q-68 0 -121 10v224q47 -5 95 -5q90 0 126 41t36 132v699q0 91 -58 151t-153 60q-65 0 -128.5 -43.5t-101.5 -103.5v-690h-281v1180
h-139z" />
    <glyph glyph-name="afii10100" unicode="&#x453;" horiz-adv-x="860" 
d="M816 812h-398v-812h-282v1061h680v-249zM217 1212l267 351h283l-282 -351h-268z" />
    <glyph glyph-name="afii10101" unicode="&#x454;" horiz-adv-x="1137" 
d="M655 -25q-124 0 -233.5 43.5t-187 117.5t-122.5 176.5t-45 217.5t45 217.5t122.5 176.5t187 117.5t233.5 43.5q233 0 401 -142l-136 -202q-134 108 -263 108q-105 0 -187.5 -60.5t-112.5 -157.5h442v-206h-440q30 -95 111.5 -154.5t186.5 -59.5q141 0 269 116l153 -188
q-169 -164 -424 -164z" />
    <glyph glyph-name="afii10102" unicode="&#x455;" horiz-adv-x="969" 
d="M63 152l142 175q51 -58 121.5 -92t147.5 -34q73 0 114.5 28t41.5 77t-41.5 79t-141.5 51q-172 35 -258.5 121t-86.5 219q0 135 106 222t277 87q107 0 205.5 -39t171.5 -105l-135 -176q-117 95 -217 95q-58 0 -95 -24t-37 -64q0 -91 169 -127q183 -37 270.5 -122
t87.5 -220q0 -143 -111.5 -235.5t-297.5 -92.5q-132 0 -246.5 47t-186.5 130z" />
    <glyph glyph-name="afii10103" unicode="&#x456;" horiz-adv-x="565" 
d="M141 0v1061h282v-1061h-282zM116 1343q0 69 48 116t119 47t119 -47t48 -116t-48 -115.5t-119 -46.5t-119 46.5t-48 115.5z" />
    <glyph glyph-name="afii10104" unicode="&#x457;" horiz-adv-x="565" 
d="M141 0v1061h282v-1061h-282zM-66 1372q0 63 43.5 106.5t107.5 43.5t107.5 -43.5t43.5 -106.5t-43.5 -106t-107.5 -43t-107.5 43t-43.5 106zM330 1372q0 63 43 106.5t107 43.5t107.5 -43.5t43.5 -106.5t-43.5 -106t-107.5 -43t-107 43t-43 106z" />
    <glyph glyph-name="afii10105" unicode="&#x458;" horiz-adv-x="565" 
d="M141 -92v1153h282v-1167q0 -188 -90 -278.5t-273 -90.5q-57 0 -99 7v238h54q65 0 95.5 31.5t30.5 106.5zM116 1343q0 69 48 116t119 47t119 -47t48 -116t-48 -115.5t-119 -46.5t-119 46.5t-48 115.5z" />
    <glyph glyph-name="afii10106" unicode="&#x459;" horiz-adv-x="1757" 
d="M1302 0h-476v817h-322v-495q0 -143 -99 -236.5t-252 -93.5q-65 0 -109 8v245h52q56 0 91 34t35 89v693h879v-327h201q168 0 282 -106.5t114 -260.5t-114 -260.5t-282 -106.5zM1423 367q0 64 -45 106t-112 42h-165v-297h165q67 0 112 42.5t45 106.5z" />
    <glyph glyph-name="afii10107" unicode="&#x45a;" horiz-adv-x="1757" 
d="M1698 367q0 -154 -114 -260.5t-282 -106.5h-476v425h-408v-425h-282v1061h282v-389h408v389h275v-327h201q168 0 282 -106.5t114 -260.5zM1423 367q0 64 -45 106t-112 42h-165v-297h165q67 0 112 42.5t45 106.5z" />
    <glyph glyph-name="afii10108" unicode="&#x45b;" horiz-adv-x="1277" 
d="M20 1180v171h139v144h281v-144h304v-171h-304v-236q54 64 133.5 102.5t164.5 38.5q187 0 305.5 -120t118.5 -312v-653h-281v626q0 91 -58 151t-153 60q-65 0 -128.5 -43.5t-101.5 -103.5v-690h-281v1180h-139z" />
    <glyph glyph-name="afii10109" unicode="&#x45c;" horiz-adv-x="1098" 
d="M782 0l-277 464h-87v-464h-282v1061h282v-355h91l222 355h318l-312 -477l358 -584h-313zM329 1212l267 351h283l-282 -351h-268z" />
    <glyph glyph-name="uni045D" unicode="&#x45d;" horiz-adv-x="1275" 
d="M1140 1061v-1061h-273v664l-476 -664h-255v1061h273v-664l476 664h255zM565 1563l268 -351h-269l-281 351h282z" />
    <glyph glyph-name="afii10110" unicode="&#x45e;" horiz-adv-x="1099" 
d="M516 -475h-294l187 475l-390 1061h293l236 -705l239 705h293zM548 1192q-144 0 -250 91t-112 230h235q1 -57 37.5 -94.5t89.5 -37.5t89.5 37.5t37.5 94.5h234q-6 -139 -111.5 -230t-249.5 -91z" />
    <glyph glyph-name="afii10193" unicode="&#x45f;" horiz-adv-x="1276" 
d="M779 0v-287h-281v287h-362v1061h282v-815h441v815h282v-1061h-362z" />
    <glyph glyph-name="afii10050" unicode="&#x490;" horiz-adv-x="1064" 
d="M752 1434v286h277v-537h-582v-1183h-290v1434h595z" />
    <glyph glyph-name="afii10098" unicode="&#x491;" horiz-adv-x="860" 
d="M547 1061v287h269v-536h-398v-812h-282v1061h411z" />
    <glyph glyph-name="Wgrave" unicode="&#x1e80;" horiz-adv-x="2017" 
d="M865 1434h287l275 -1028l253 1028h303l-397 -1434h-292l-285 1037l-286 -1037h-292l-397 1434h303l253 -1028zM926 1894l267 -350h-268l-282 350h283z" />
    <glyph glyph-name="wgrave" unicode="&#x1e81;" horiz-adv-x="1632" 
d="M675 1061h282l183 -710l185 710h288l-322 -1061h-291l-184 690l-184 -690h-291l-322 1061h288l186 -710zM720 1563l267 -351h-268l-282 351h283z" />
    <glyph glyph-name="Wacute" unicode="&#x1e82;" horiz-adv-x="2017" 
d="M865 1434h287l275 -1028l253 1028h303l-397 -1434h-292l-285 1037l-286 -1037h-292l-397 1434h303l253 -1028zM829 1544l268 350h282l-281 -350h-269z" />
    <glyph glyph-name="wacute" unicode="&#x1e83;" horiz-adv-x="1632" 
d="M675 1061h282l183 -710l185 710h288l-322 -1061h-291l-184 690l-184 -690h-291l-322 1061h288l186 -710zM638 1212l267 351h283l-282 -351h-268z" />
    <glyph glyph-name="Wdieresis" unicode="&#x1e84;" horiz-adv-x="2017" 
d="M865 1434h287l275 -1028l253 1028h303l-397 -1434h-292l-285 1037l-286 -1037h-292l-397 1434h303l253 -1028zM660 1704q0 63 43.5 106t107.5 43t107.5 -43t43.5 -106t-43.5 -106.5t-107.5 -43.5t-107.5 43.5t-43.5 106.5zM1056 1704q0 63 43 106t107 43t107.5 -43
t43.5 -106t-43.5 -106.5t-107.5 -43.5t-107 43.5t-43 106.5z" />
    <glyph glyph-name="wdieresis" unicode="&#x1e85;" horiz-adv-x="1632" 
d="M675 1061h282l183 -710l185 710h288l-322 -1061h-291l-184 690l-184 -690h-291l-322 1061h288l186 -710zM468 1372q0 63 43 106.5t107 43.5t107.5 -43.5t43.5 -106.5t-43.5 -106t-107.5 -43t-107 43t-43 106zM863 1372q0 63 43.5 106.5t107.5 43.5t107 -43.5t43 -106.5
t-43 -106t-107 -43t-107.5 43t-43.5 106z" />
    <glyph glyph-name="Ygrave" unicode="&#x1ef2;" horiz-adv-x="1333" 
d="M347 1434l320 -580l319 580h313l-487 -856v-578h-291v578l-487 856h313zM581 1894l267 -350h-268l-282 350h283z" />
    <glyph glyph-name="ygrave" unicode="&#x1ef3;" horiz-adv-x="1099" 
d="M516 -475h-294l187 475l-390 1061h293l236 -705l239 705h293zM452 1563l267 -351h-268l-282 351h283z" />
    <glyph glyph-name="thinspace" unicode="&#x2009;" horiz-adv-x="409" 
 />
    <glyph glyph-name="uni2010" unicode="&#x2010;" horiz-adv-x="847" 
d="M727 550h-606v260h606v-260z" />
    <glyph glyph-name="figuredash" unicode="&#x2012;" horiz-adv-x="1228" 
d="M1126 550h-1024v260h1024v-260z" />
    <glyph glyph-name="endash" unicode="&#x2013;" horiz-adv-x="1024" 
d="M1024 550h-1024v260h1024v-260z" />
    <glyph glyph-name="emdash" unicode="&#x2014;" horiz-adv-x="2048" 
d="M2048 550h-2048v260h2048v-260z" />
    <glyph glyph-name="afii00208" unicode="&#x2015;" horiz-adv-x="2048" 
d="M1843 550h-1638v260h1638v-260z" />
    <glyph glyph-name="uni2016" unicode="&#x2016;" horiz-adv-x="977" 
d="M166 -287v1823h255v-1823h-255zM557 -287v1823h255v-1823h-255z" />
    <glyph glyph-name="underscoredbl" unicode="&#x2017;" horiz-adv-x="1228" 
d="M102 -494v211h1024v-211h-1024zM102 -197v211h1024v-211h-1024z" />
    <glyph glyph-name="quoteleft" unicode="&#x2018;" horiz-adv-x="617" 
d="M482 1194q0 -72 -49.5 -121t-123.5 -49q-75 0 -124.5 49t-49.5 121q0 36 19 79l150 322h180l-110 -242q50 -19 79 -61.5t29 -97.5z" />
    <glyph glyph-name="quoteright" unicode="&#x2019;" horiz-adv-x="617" 
d="M135 1425q0 72 49.5 121t123.5 49q75 0 124.5 -49t49.5 -121q0 -37 -18 -78l-151 -323h-180l111 243q-50 19 -79.5 61t-29.5 97z" />
    <glyph glyph-name="quotesinglbase" unicode="&#x201a;" horiz-adv-x="617" 
d="M135 145q0 72 49.5 121t123.5 49q75 0 124.5 -49t49.5 -121q0 -37 -18 -78l-151 -323h-180l111 243q-50 19 -79.5 61t-29.5 97z" />
    <glyph glyph-name="quotereversed" unicode="&#x201b;" horiz-adv-x="617" 
d="M482 1425q0 -55 -29 -97t-79 -61l110 -243h-180l-150 323q-19 43 -19 78q0 72 49.5 121t124.5 49q74 0 123.5 -49t49.5 -121z" />
    <glyph glyph-name="quotedblleft" unicode="&#x201c;" horiz-adv-x="1017" 
d="M883 1194q0 -72 -49.5 -121t-123.5 -49q-75 0 -124.5 49t-49.5 121q0 38 18 79l151 322h180l-111 -242q50 -19 79.5 -61.5t29.5 -97.5zM482 1194q0 -72 -49.5 -121t-123.5 -49q-75 0 -124.5 49t-49.5 121q0 36 19 79l150 322h180l-110 -242q50 -19 79 -61.5t29 -97.5z
" />
    <glyph glyph-name="quotedblright" unicode="&#x201d;" horiz-adv-x="1017" 
d="M536 1425q0 72 49.5 121t123.5 49q75 0 124.5 -49t49.5 -121q0 -35 -19 -78l-150 -323h-180l110 243q-50 19 -79 61t-29 97zM135 1425q0 72 49.5 121t123.5 49q75 0 124.5 -49t49.5 -121q0 -37 -18 -78l-151 -323h-180l111 243q-50 19 -79.5 61t-29.5 97z" />
    <glyph glyph-name="quotedblbase" unicode="&#x201e;" horiz-adv-x="1017" 
d="M135 145q0 72 49.5 121t123.5 49q75 0 124.5 -49t49.5 -121q0 -37 -18 -78l-151 -323h-180l111 243q-50 19 -79.5 61t-29.5 97zM536 145q0 72 49.5 121t123.5 49q75 0 124.5 -49t49.5 -121q0 -35 -19 -78l-150 -323h-180l110 243q-50 19 -79 61t-29 97z" />
    <glyph glyph-name="uni201F" unicode="&#x201f;" horiz-adv-x="1017" 
d="M482 1425q0 -55 -29 -97t-79 -61l110 -243h-180l-150 323q-19 43 -19 78q0 72 49.5 121t124.5 49q74 0 123.5 -49t49.5 -121zM883 1425q0 -55 -29.5 -97t-79.5 -61l111 -243h-180l-151 323q-18 41 -18 78q0 72 49.5 121t124.5 49q74 0 123.5 -49t49.5 -121z" />
    <glyph glyph-name="dagger" unicode="&#x2020;" horiz-adv-x="1152" 
d="M432 -268v1215h-313v247h313v338h288v-338h313v-247h-313v-1215h-288z" />
    <glyph glyph-name="daggerdbl" unicode="&#x2021;" horiz-adv-x="1152" 
d="M119 70v245h313v632h-313v247h313v338h288v-338h313v-247h-313v-632h313v-245h-313v-338h-288v338h-313z" />
    <glyph glyph-name="bullet" unicode="&#x2022;" horiz-adv-x="819" 
d="M124 680q0 118 83.5 201t202.5 83q118 0 201.5 -83t83.5 -201t-83.5 -201t-201.5 -83q-119 0 -202.5 83t-83.5 201z" />
    <glyph glyph-name="onedotenleader" unicode="&#x2024;" horiz-adv-x="617" 
d="M135 145q0 72 49.5 121t123.5 49q75 0 124.5 -49t49.5 -121t-49.5 -121t-124.5 -49q-74 0 -123.5 49t-49.5 121z" />
    <glyph glyph-name="twodotenleader" unicode="&#x2025;" horiz-adv-x="1234" 
d="M135 145q0 72 49.5 121t123.5 49q75 0 124.5 -49t49.5 -121t-49.5 -121t-124.5 -49q-74 0 -123.5 49t-49.5 121zM753 145q0 72 49.5 121t123.5 49q75 0 124.5 -49t49.5 -121t-49.5 -121t-124.5 -49q-74 0 -123.5 49t-49.5 121z" />
    <glyph glyph-name="ellipsis" unicode="&#x2026;" horiz-adv-x="1852" 
d="M135 145q0 72 49.5 121t123.5 49q75 0 124.5 -49t49.5 -121t-49.5 -121t-124.5 -49q-74 0 -123.5 49t-49.5 121zM1370 145q0 72 49.5 121t123.5 49q75 0 124.5 -49t49.5 -121t-49.5 -121t-124.5 -49q-74 0 -123.5 49t-49.5 121zM753 145q0 72 49.5 121t123.5 49
q75 0 124.5 -49t49.5 -121t-49.5 -121t-124.5 -49q-74 0 -123.5 49t-49.5 121z" />
    <glyph glyph-name="perthousand" unicode="&#x2030;" horiz-adv-x="2657" 
d="M423 0l737 1434h253l-737 -1434h-253zM332 1080q0 -61 37.5 -103.5t94.5 -42.5t94.5 42.5t37.5 103.5q0 62 -37.5 105t-94.5 43t-94.5 -43t-37.5 -105zM86 1080q0 155 109 261.5t269 106.5t269 -106.5t109 -261.5t-109 -260.5t-269 -105.5t-269 105.5t-109 260.5z
M1240 352q0 -61 37.5 -103.5t94.5 -42.5t94.5 42.5t37.5 103.5q0 62 -37.5 105t-94.5 43t-94.5 -43t-37.5 -105zM994 352q0 155 109 261.5t269 106.5t269 -106.5t109 -261.5t-109 -260.5t-269 -105.5t-269 105.5t-109 260.5zM2061 352q0 -61 37.5 -103.5t94.5 -42.5t95 42.5
t38 103.5q0 62 -38 105t-95 43t-94.5 -43t-37.5 -105zM1816 352q0 155 108.5 261.5t268.5 106.5t269 -106.5t109 -261.5t-109 -260.5t-269 -105.5t-268.5 105.5t-108.5 260.5z" />
    <glyph glyph-name="minute" unicode="&#x2032;" horiz-adv-x="607" 
d="M77 1053l183 381h291l-217 -381h-257z" />
    <glyph glyph-name="second" unicode="&#x2033;" horiz-adv-x="998" 
d="M77 1053l183 381h291l-217 -381h-257zM468 1053l183 381h291l-217 -381h-257z" />
    <glyph glyph-name="guilsinglleft" unicode="&#x2039;" horiz-adv-x="801" 
d="M96 568v140l590 362v-241l-326 -191l326 -192v-240z" />
    <glyph glyph-name="guilsinglright" unicode="&#x203a;" horiz-adv-x="801" 
d="M706 708v-140l-590 -362v240l325 192l-325 191v241z" />
    <glyph glyph-name="exclamdbl" unicode="&#x203c;" horiz-adv-x="1122" 
d="M175 429v1005h291v-1005h-291zM143 145q0 72 51.5 121t126.5 49t126 -49t51 -121t-51 -121t-126 -49t-126.5 49t-51.5 121zM656 429v1005h291v-1005h-291zM625 145q0 72 51 121t126 49t126 -49t51 -121t-51 -121t-126 -49t-126 49t-51 121z" />
    <glyph glyph-name="uni203E" unicode="&#x203e;" horiz-adv-x="870" 
d="M118 1213v211h635v-211h-635z" />
    <glyph glyph-name="fraction" unicode="&#x2044;" horiz-adv-x="338" 
d="M-294 0l698 1434h229l-699 -1434h-228z" />
    <glyph glyph-name="zerosuperior" unicode="&#x2070;" 
d="M54 948q0 226 93.5 368t265.5 142t265 -142t93 -368t-93 -368t-265 -142t-265.5 142t-93.5 368zM285 948q0 -145 32 -227t96 -82t96 82t32 227t-32 227t-96 82t-96 -82t-32 -227z" />
    <glyph glyph-name="uni2071" unicode="&#x2071;" 
d="M300 463v686h223v-686h-223zM281 1319q0 52 38 88.5t93 36.5t93 -36.5t38 -88.5q0 -51 -38 -86.5t-93 -35.5t-93 35.5t-38 86.5z" />
    <glyph glyph-name="foursuperior" unicode="&#x2074;" 
d="M34 634v176l421 624h216v-607h100v-193h-100v-171h-228v171h-409zM262 825h181v276z" />
    <glyph glyph-name="fivesuperior" unicode="&#x2075;" 
d="M388 438q-107 0 -195 45.5t-143 130.5l158 135q77 -117 170 -117q59 0 100 41.5t41 101.5q0 61 -40 102t-100 41q-31 0 -59.5 -16t-46.5 -41l-172 22l63 551h555v-194h-343l-20 -151q33 7 65 7q138 0 235.5 -89t97.5 -232q0 -149 -100.5 -243t-265.5 -94z" />
    <glyph glyph-name="sixsuperior" unicode="&#x2076;" 
d="M659 1434l-215 -332q135 -5 234.5 -95t99.5 -233q0 -96 -51 -174t-134 -120t-178 -42q-151 0 -260 95.5t-109 240.5q0 99 50 175l317 485h246zM550 775q0 61 -40 102.5t-98 41.5q-57 0 -97.5 -42t-40.5 -102q0 -62 40 -103t98 -41t98 41t40 103z" />
    <glyph glyph-name="sevensuperior" unicode="&#x2077;" 
d="M90 1434h649v-170l-330 -801h-256l326 775h-389v196z" />
    <glyph glyph-name="eightsuperior" unicode="&#x2078;" 
d="M282 761q0 -57 38 -96t93 -39t93 39t38 96t-37.5 95.5t-93.5 38.5t-93.5 -38.5t-37.5 -95.5zM726 1180q0 -56 -26.5 -105t-71.5 -81q67 -36 105.5 -100.5t38.5 -137.5q0 -136 -103.5 -227t-255.5 -91q-153 0 -256.5 91.5t-103.5 226.5q0 73 39 137.5t106 100.5
q-45 32 -72 81t-27 105q0 117 89 197.5t225 80.5t224.5 -80.5t88.5 -197.5zM318 1177q0 -40 27.5 -69.5t67.5 -29.5t67 29.5t27 69.5t-27 67t-67 27t-67.5 -27t-27.5 -67z" />
    <glyph glyph-name="ninesuperior" unicode="&#x2079;" 
d="M166 463l215 332q-135 5 -234.5 94.5t-99.5 232.5q0 96 51.5 174t134.5 120t178 42q151 0 259.5 -95.5t108.5 -240.5q0 -99 -50 -175l-316 -484h-247zM275 1121q0 -60 40.5 -101.5t98.5 -41.5q57 0 97 41.5t40 101.5q0 62 -40 103.5t-97 41.5q-58 0 -98.5 -41.5
t-40.5 -103.5z" />
    <glyph glyph-name="uni207A" unicode="&#x207a;" 
d="M527 848v-226h-228v226h-225v200h225v226h228v-226h225v-200h-225z" />
    <glyph glyph-name="uni207B" unicode="&#x207b;" 
d="M752 848h-678v200h678v-200z" />
    <glyph glyph-name="uni207C" unicode="&#x207c;" 
d="M752 684h-678v198h678v-198zM752 1014h-678v197h678v-197z" />
    <glyph glyph-name="uni207D" unicode="&#x207d;" 
d="M281 947q0 170 64.5 328.5t180.5 280.5l161 -108q-175 -215 -175 -501t175 -501l-161 -108q-116 122 -180.5 280.5t-64.5 328.5z" />
    <glyph glyph-name="uni207E" unicode="&#x207e;" 
d="M545 947q0 -169 -64.5 -327.5t-181.5 -281.5l-161 108q175 215 175 501t-175 501l161 108q117 -123 181.5 -281.5t64.5 -327.5z" />
    <glyph glyph-name="uni207F" unicode="&#x207f;" 
d="M318 900v-437h-223v686h223v-44q58 58 143 58q121 0 197 -78.5t76 -204.5v-417h-223v401q0 47 -26 76.5t-67 29.5q-67 0 -100 -70z" />
    <glyph glyph-name="zeroinferior" unicode="&#x2080;" 
d="M54 217q0 226 93.5 368t265.5 142t265 -142t93 -368t-93 -368t-265 -142t-265.5 142t-93.5 368zM285 217q0 -145 32 -227t96 -82t96 82t32 227t-32 227t-96 82t-96 -82t-32 -227z" />
    <glyph glyph-name="oneinferior" unicode="&#x2081;" 
d="M384 702h200v-970h-236v742l-144 -79l-87 165z" />
    <glyph glyph-name="twoinferior" unicode="&#x2082;" 
d="M597 140l-200 -215h327v-193h-631v173l323 350q46 51 65.5 89t19.5 80q0 48 -29 77.5t-75 29.5q-43 0 -72.5 -27.5t-52.5 -92.5l-201 71q30 116 116 180.5t212 64.5q145 0 240 -81t95 -212q0 -80 -32.5 -148t-104.5 -146z" />
    <glyph glyph-name="threeinferior" unicode="&#x2083;" 
d="M511 44q0 60 -39.5 101t-99.5 41q-30 0 -55 -11l-89 110l193 224h-318v193h596v-179l-176 -198q103 -30 163 -112t60 -190q0 -126 -102.5 -221t-262.5 -95q-106 0 -193.5 47t-139.5 131l150 135q83 -120 174 -120q60 0 99.5 41.5t39.5 102.5z" />
    <glyph glyph-name="fourinferior" unicode="&#x2084;" 
d="M34 -97v176l421 623h216v-606h100v-193h-100v-171h-228v171h-409zM262 94h181v276z" />
    <glyph glyph-name="fiveinferior" unicode="&#x2085;" 
d="M388 -293q-107 0 -195 45.5t-143 130.5l158 134q77 -116 170 -116q59 0 100 41.5t41 101.5q0 61 -39.5 101.5t-100.5 40.5q-31 0 -59.5 -15.5t-46.5 -40.5l-172 22l63 550h555v-193h-343l-20 -152q38 8 65 8q138 0 235.5 -89t97.5 -232q0 -149 -100.5 -243t-265.5 -94z
" />
    <glyph glyph-name="sixinferior" unicode="&#x2086;" 
d="M659 702l-215 -331q135 -5 234.5 -95t99.5 -233q0 -96 -51 -174t-134 -120t-178 -42q-151 0 -260 95.5t-109 240.5q0 99 50 175l317 484h246zM550 44q0 61 -40 102t-98 41q-57 0 -97.5 -41.5t-40.5 -101.5q0 -62 40 -103t98 -41t98 41t40 103z" />
    <glyph glyph-name="seveninferior" unicode="&#x2087;" 
d="M90 702h649v-170l-330 -800h-256l326 775h-389v195z" />
    <glyph glyph-name="eightinferior" unicode="&#x2088;" 
d="M282 30q0 -57 38 -96t93 -39t93 39t38 96t-37.5 95.5t-93.5 38.5t-93.5 -38.5t-37.5 -95.5zM726 449q0 -56 -26.5 -105t-71.5 -81q67 -36 105.5 -100.5t38.5 -137.5q0 -136 -103.5 -227t-255.5 -91q-153 0 -256.5 91.5t-103.5 226.5q0 73 39 137.5t106 100.5
q-45 32 -72 81t-27 105q0 117 89 197.5t225 80.5t224.5 -80.5t88.5 -197.5zM318 445q0 -40 27.5 -69t67.5 -29t67 29t27 69t-27 67.5t-67 27.5t-67.5 -27.5t-27.5 -67.5z" />
    <glyph glyph-name="nineinferior" unicode="&#x2089;" 
d="M166 -268l215 331q-135 5 -234.5 95t-99.5 233q0 96 51.5 174t134.5 120t178 42q151 0 259.5 -95.5t108.5 -240.5q0 -99 -50 -175l-316 -484h-247zM275 390q0 -60 40.5 -101.5t98.5 -41.5q57 0 97 41.5t40 101.5q0 62 -40 103.5t-97 41.5q-58 0 -98.5 -41.5t-40.5 -103.5
z" />
    <glyph glyph-name="uni208A" unicode="&#x208a;" 
d="M527 117v-227h-228v227h-225v199h225v227h228v-227h225v-199h-225z" />
    <glyph glyph-name="uni208B" unicode="&#x208b;" 
d="M752 117h-678v199h678v-199z" />
    <glyph glyph-name="uni208C" unicode="&#x208c;" 
d="M752 -47h-678v198h678v-198zM752 283h-678v197h678v-197z" />
    <glyph glyph-name="uni208D" unicode="&#x208d;" 
d="M281 216q0 170 64.5 328.5t180.5 280.5l161 -108q-175 -215 -175 -501t175 -501l-161 -108q-116 122 -180.5 280.5t-64.5 328.5z" />
    <glyph glyph-name="uni208E" unicode="&#x208e;" 
d="M545 216q0 -169 -64.5 -327.5t-181.5 -281.5l-161 108q175 215 175 501t-175 501l161 108q117 -123 181.5 -281.5t64.5 -327.5z" />
    <glyph glyph-name="uni2090" unicode="&#x2090;" 
d="M530 -18v168q-18 37 -51.5 59t-76.5 22q-62 0 -103.5 -47t-41.5 -118t41.5 -118.5t103.5 -47.5q43 0 76.5 22t51.5 60zM530 -279v52q-66 -66 -163 -66q-141 0 -236 103.5t-95 255.5t95 255t236 103q97 0 163 -66v52h223v-689h-223z" />
    <glyph glyph-name="uni2091" unicode="&#x2091;" 
d="M279 -2q15 -53 55.5 -85t94.5 -32q45 0 92.5 24.5t84.5 64.5l128 -128q-120 -135 -306 -135q-164 0 -268.5 103.5t-104.5 255.5t105 255t260 103q152 0 251.5 -100t99.5 -247q0 -41 -8 -79h-484zM418 249q-46 0 -81.5 -25t-52.5 -69h261q-14 44 -47.5 69t-79.5 25z" />
    <glyph glyph-name="uni2092" unicode="&#x2092;" 
d="M44 66q0 152 105.5 255t263.5 103t263 -103t105 -255t-105 -255.5t-263 -103.5t-263.5 103.5t-105.5 255.5zM265 66q0 -69 42.5 -117.5t105.5 -48.5t105 48t42 118q0 69 -42 117t-105 48t-105.5 -48t-42.5 -117z" />
    <glyph glyph-name="uni2093" unicode="&#x2093;" 
d="M317 410l94 -172l94 172h246l-205 -335l220 -354h-243l-111 195l-110 -195h-246l222 355l-205 334h244z" />
    <glyph glyph-name="uni2094" unicode="&#x2094;" 
d="M547 133q-15 53 -56 85t-95 32q-45 0 -92.5 -24.5t-84.5 -64.5l-128 128q120 135 306 135q165 0 269 -103t104 -255t-105 -255.5t-259 -103.5q-152 0 -252 100t-100 247q0 41 8 79h485zM408 -118q46 0 81.5 25t52.5 69h-261q14 -44 47.5 -69t79.5 -25z" />
    <glyph glyph-name="uni20A0" unicode="&#x20a0;" horiz-adv-x="1618" 
d="M603 432q-150 0 -273 67.5t-193 185t-70 259.5q0 143 70 260.5t193 185.5t273 68q195 0 366 -134l-128 -194q-67 49 -122.5 74t-113.5 25q-114 0 -192.5 -82t-78.5 -203q0 -120 78.5 -202t192.5 -82q118 0 220 74v259h654v-217h-396v-170h363v-213h-363v-176h408v-217
h-666v482q-105 -50 -222 -50z" />
    <glyph glyph-name="colonmonetary" unicode="&#x20a1;" horiz-adv-x="1423" 
d="M998 1642h164l-41 -230q113 -41 218 -120l-141 -208q-72 50 -122 73l-164 -930q159 18 296 133l149 -206q-206 -172 -490 -178l-32 -185h-163l34 197q-66 11 -100 22l-38 -219h-164l51 284q-173 97 -274.5 266.5t-101.5 375.5q0 274 173 475.5t444 251.5l36 198h164
l-33 -185q43 0 102 -7zM365 717q0 -212 142 -352l141 802q-128 -57 -205.5 -178t-77.5 -272zM819 1210l-167 -948q54 -23 97 -31l173 975q-40 5 -74 5q-21 0 -29 -1z" />
    <glyph glyph-name="uni20A2" unicode="&#x20a2;" horiz-adv-x="1423" 
d="M1208 360l149 -206q-215 -179 -509 -179q-160 0 -303 57.5t-245 156.5t-161.5 236.5t-59.5 291.5q0 206 101 376t277.5 267.5t390.5 97.5q276 0 491 -166l-141 -208q-176 127 -350 127q-203 0 -343 -142.5t-140 -351.5q0 -162 87 -287t228 -177v602h244v-81q70 95 166 95
q52 0 99 -24l-21 -201q-55 25 -92 25q-44 0 -84.5 -28.5t-67.5 -77.5v-334q156 23 284 131z" />
    <glyph glyph-name="franc" unicode="&#x20a3;" horiz-adv-x="1139" 
d="M831 458h-317v-458h-291v458h-180v147h180v88h-180v149h180v592h873v-250h-582v-342h317v-149h-317v-88h317v-147z" />
    <glyph glyph-name="lira" unicode="&#x20a4;" horiz-adv-x="1192" 
d="M301 460h-221v143h223q-6 43 -18 86h-205v144h146q-43 111 -43 214q0 173 131.5 292t323.5 119q150 0 263.5 -74t160.5 -186l-244 -130q-54 136 -180 136q-71 0 -117 -47t-46 -119q0 -75 54 -205h331v-144h-280q12 -51 16 -86h264v-143h-268q-17 -125 -118 -211h615v-249
h-947v240q133 77 159 220z" />
    <glyph glyph-name="uni20A6" unicode="&#x20a6;" horiz-adv-x="1507" 
d="M186 0v532h-143v141h143v88h-143v141h143v532h288l301 -532h283v532h263v-532h143v-141h-143v-88h143v-141h-143v-532h-288l-302 532h-281v-532h-264zM855 761l49 -88h154v88h-203zM450 761v-88h202l-50 88h-152zM984 532l74 -130v130h-74zM450 1031v-129h72z" />
    <glyph glyph-name="peseta" unicode="&#x20a7;" horiz-adv-x="2459" 
d="M1566 225h439q59 0 92 26.5t33 73.5q0 45 -35.5 74.5t-115.5 49.5q-153 38 -232.5 122t-79.5 211q0 132 96 217.5t252 85.5q98 0 186.5 -39.5t153.5 -106.5l-125 -184q-57 52 -102 78t-89 26q-47 0 -77 -21.5t-30 -59.5q0 -88 139 -121q324 -74 324 -335
q0 -139 -101.5 -230.5t-269.5 -91.5h-503q-178 0 -267 87.5t-89 270.5v463h-143q-37 -150 -150.5 -235.5t-280.5 -85.5h-157v-500h-277v1434h434q180 0 298 -101t145 -272h131v281l270 27v-308h210v-240h-210v-452q0 -144 131 -144zM764 967q0 104 -50.5 165.5t-142.5 61.5
h-137v-455h137q92 0 142.5 61.5t50.5 166.5z" />
    <glyph glyph-name="uni20A8" unicode="&#x20a8;" horiz-adv-x="1995" 
d="M157 1434h482q218 0 348 -126.5t130 -335.5q0 -160 -78.5 -273t-218.5 -157l327 -542h-310l-301 507h-94v-507h-285v1434zM1141 152l133 175q49 -57 115 -91.5t137 -34.5q67 0 106.5 29t39.5 76t-40 78t-131 52q-159 36 -241 122.5t-82 217.5q0 135 99 222t260 87
q99 0 191 -39.5t163 -105.5l-128 -176q-57 48 -104 72t-99 24q-55 0 -89.5 -24t-34.5 -64q0 -92 157 -127q338 -73 338 -342q0 -143 -105 -235.5t-280 -92.5q-124 0 -230.5 47t-174.5 130zM618 1194h-176v-452h176q101 0 156 61.5t55 164.5q0 104 -55 165t-156 61z" />
    <glyph glyph-name="uni20A9" unicode="&#x20a9;" horiz-adv-x="2060" 
d="M883 1434h295l138 -532h260l129 532h301l-145 -532h162v-141h-201l-26 -92h228v-142h-266l-144 -527h-300l-140 527h-287l-141 -527h-300l-144 527h-266v142h227l-24 92h-203v141h164l-146 532h301l129 -532h260zM948 761l-24 -92h212l-25 92h-163zM518 761l23 -92h143
l24 92h-190zM1353 761l23 -92h143l22 92h-188zM1030 1068l-44 -166h88zM575 527l35 -142l37 142h-72zM1413 527l37 -142l35 142h-72z" />
    <glyph glyph-name="afii57636" unicode="&#x20aa;" horiz-adv-x="1800" 
d="M157 0v1434h561q220 0 369.5 -139t149.5 -341v-417h-267v399q0 112 -72 185t-185 73h-289v-1194h-267zM1644 1434v-1434h-561q-145 0 -264.5 63t-187.5 173t-68 243v418h267v-400q0 -111 73 -184t186 -73h287v1194h268z" />
    <glyph glyph-name="dong" unicode="&#x20ab;" horiz-adv-x="1371" 
d="M627 1180v171h305v144h278v-144h141v-171h-141v-1180h-278v106q-134 -131 -336 -131q-149 0 -271 75t-190 202t-68 278t68 278t190 202t271 75q202 0 336 -131v226h-305zM655 224q91 0 166 46t111 123v275q-36 77 -111 123t-166 46q-130 0 -218 -88.5t-88 -218.5t88 -218
t218 -88zM364 -369v211h749v-211h-749z" />
    <glyph glyph-name="Euro" unicode="&#x20ac;" horiz-adv-x="1487" 
d="M1016 506h-542q58 -130 175 -207.5t263 -77.5q97 0 192 38.5t169 100.5l148 -206q-215 -179 -509 -179q-266 0 -468 147.5t-271 383.5h-153v152h125q-2 30 -2 59q0 26 2 58h-125v153h153q69 235 271 382.5t468 147.5q277 0 492 -166l-141 -208q-176 127 -351 127
q-146 0 -263 -77t-175 -206h542v-153h-584q-3 -29 -3 -58q0 -32 3 -59h584v-152z" />
    <glyph glyph-name="afii61248" unicode="&#x2105;" horiz-adv-x="2157" 
d="M537 590q-197 0 -330.5 126t-133.5 308t133.5 308t330.5 126q185 0 325 -116l-129 -190q-107 89 -196 89q-90 0 -151.5 -62.5t-61.5 -154.5t61.5 -154.5t151.5 -62.5q99 0 197 90l143 -175q-143 -132 -340 -132zM1620 191q91 0 152.5 63t61.5 155t-61.5 154.5
t-152.5 62.5t-152.5 -62.5t-61.5 -154.5t61.5 -155t152.5 -63zM1620 843q198 0 331.5 -126t133.5 -308t-133.5 -308t-331.5 -126t-331.5 126t-133.5 308t133.5 308t331.5 126zM816 0h-239l699 1434h240z" />
    <glyph glyph-name="uni2109" unicode="&#x2109;" horiz-adv-x="1675" 
d="M728 0v1434h873v-250h-582v-354h532v-249h-532v-581h-291zM41 1175q0 120 85.5 201.5t211.5 81.5t211.5 -81.5t85.5 -201.5t-85.5 -202t-211.5 -82t-211.5 82t-85.5 202zM231 1175q0 -45 30.5 -76t76.5 -31t76 31t30 76t-30 75.5t-76 30.5t-76.5 -30.5t-30.5 -75.5z" />
    <glyph glyph-name="afii61289" unicode="&#x2113;" horiz-adv-x="1166" 
d="M139 247l-76 224q122 45 224 88v535q0 155 115 259.5t284 104.5t284.5 -104.5t115.5 -259.5v-53q0 -346 -525 -617v-72q0 -59 34.5 -96t89.5 -37q59 0 108 34.5t78 99.5l219 -129q-52 -114 -159.5 -181.5t-242.5 -67.5q-161 0 -273.5 92.5t-124.5 234.5q-66 -26 -151 -55
zM561 1077v-378q128 79 189 165t61 190v22q0 63 -35.5 104t-89.5 41q-55 0 -90 -40t-35 -104z" />
    <glyph glyph-name="afii61352" unicode="&#x2116;" horiz-adv-x="2273" 
d="M157 0v1434h262l478 -914v914h268v-1434h-262l-478 913v-913h-268zM2130 327h-809v226h809v-226zM1558 1064q0 -72 47.5 -120t119.5 -48t120 48.5t48 119.5t-48 119.5t-120 48.5t-119.5 -48t-47.5 -120zM1300 1064q0 165 123 279.5t302 114.5t302 -114.5t123 -279.5
t-123 -279.5t-302 -114.5t-302 114.5t-123 279.5z" />
    <glyph glyph-name="uni2117" unicode="&#x2117;" horiz-adv-x="1646" 
d="M885 578h-122v-256h-200v788h322q126 0 210 -76t84 -190t-84 -190t-210 -76zM978 844q0 40 -30 66t-76 26h-109v-184h109q46 0 76 26t30 66zM82 717q0 153 58 290t157 236t236 157t290 58t290.5 -58t236.5 -157t157 -236t58 -290t-58 -290.5t-157 -236.5t-236.5 -157
t-290.5 -58t-290 58t-236 157t-157 236.5t-58 290.5zM217 717q0 -169 80.5 -310.5t220 -223t305.5 -81.5t306 81.5t220.5 223t80.5 310.5q0 127 -47.5 241t-128.5 195.5t-193.5 129.5t-237.5 48q-166 0 -305.5 -81t-220 -222.5t-80.5 -310.5z" />
    <glyph glyph-name="uni2120" unicode="&#x2120;" horiz-adv-x="1626" 
d="M65 803l118 130q47 -50 96.5 -81t87.5 -31q41 0 68 20.5t27 53.5t-28 56.5t-96 37.5q-251 52 -251 234q0 100 75 161.5t196 61.5q165 0 276 -116l-111 -134q-100 91 -161 91q-32 0 -52.5 -15.5t-20.5 -40.5q0 -63 115 -89q137 -32 198.5 -92.5t61.5 -154.5
q0 -103 -79.5 -167t-215.5 -64q-85 0 -165.5 37t-138.5 102zM1179 891h-125l-135 215v-430h-196v758h180l213 -332l213 332h180v-758h-195v430z" />
    <glyph glyph-name="uni2121" unicode="&#x2121;" horiz-adv-x="2280" 
d="M1090 446q13 -110 75 -178t148 -68q117 0 231 145l170 -166q-144 -204 -399 -204q-145 0 -260 74t-177 200.5t-62 280.5q0 153 62.5 280t174 201t247.5 74q134 0 241.5 -72t167 -194.5t59.5 -269.5q0 -56 -11 -103h-667zM403 0v1183h-347v251h973v-251h-347v-1183h-279z
M1855 0v1495h269v-1495h-269zM1298 861q-72 0 -127 -58.5t-75 -155.5h395q-17 96 -69 155t-124 59z" />
    <glyph glyph-name="trademark" unicode="&#x2122;" horiz-adv-x="1600" 
d="M242 676v591h-187v167h579v-167h-187v-591h-205zM1153 891h-125l-135 215v-430h-196v758h181l213 -332l213 332h180v-758h-196v430z" />
    <glyph glyph-name="Omega" unicode="&#x2126;" horiz-adv-x="1650" 
d="M1269 751q0 191 -128.5 322t-315.5 131t-315 -131t-128 -322q0 -161 91.5 -297.5t248.5 -212.5v-241h-614v254h283q-148 96 -225.5 229.5t-77.5 295.5q0 140 57.5 265.5t155.5 216.5t234.5 144t289.5 53t289.5 -53t235 -144t156 -216.5t57.5 -265.5q0 -162 -77.5 -295.5
t-225.5 -229.5h283v-254h-614v241q157 76 248.5 212.5t91.5 297.5z" />
    <glyph glyph-name="estimated" unicode="&#x212e;" horiz-adv-x="1646" 
d="M1565 643h-1155v-345q79 -83 185.5 -128.5t227.5 -45.5q146 0 270.5 66.5t206.5 185.5l130 -89q-104 -148 -264 -230t-343 -82q-153 0 -290 58t-236 157t-157 236.5t-58 290.5t58 290t157 236t236 157t290 58t290.5 -58t236.5 -157t157 -236t58 -290v-74zM823 1309
q-121 0 -227.5 -45.5t-185.5 -128.5v-345h827v345q-80 83 -186.5 128.5t-227.5 45.5z" />
    <glyph glyph-name="onethird" unicode="&#x2153;" horiz-adv-x="1986" 
d="M530 0l699 1434h228l-698 -1434h-229zM384 1434h200v-971h-236v742l-144 -79l-87 165zM1673 312q0 60 -40 101.5t-99 41.5q-27 0 -54 -12l-89 110l192 224h-317v194h596v-179l-176 -199q103 -30 163 -112t60 -190q0 -126 -103 -221t-263 -95q-106 0 -193.5 47.5
t-139.5 131.5l150 135q84 -121 174 -121q60 0 99.5 41.5t39.5 102.5z" />
    <glyph glyph-name="twothirds" unicode="&#x2154;" horiz-adv-x="1986" 
d="M597 871l-200 -215h327v-193h-631v173l323 350q46 51 65.5 89t19.5 80q0 48 -29 78t-75 30q-43 0 -72.5 -28t-52.5 -93l-201 71q30 116 116 180.5t212 64.5q145 0 240 -81t95 -212q0 -80 -32.5 -148t-104.5 -146zM530 0l699 1434h228l-698 -1434h-229zM1673 312
q0 60 -40 101.5t-99 41.5q-27 0 -54 -12l-89 110l192 224h-317v194h596v-179l-176 -199q103 -30 163 -112t60 -190q0 -126 -103 -221t-263 -95q-106 0 -193.5 47.5t-139.5 131.5l150 135q84 -121 174 -121q60 0 99.5 41.5t39.5 102.5z" />
    <glyph glyph-name="onefifth" unicode="&#x2155;" horiz-adv-x="1986" 
d="M384 1434h200v-971h-236v742l-144 -79l-87 165zM530 0l699 1434h228l-698 -1434h-229zM1550 -27q-107 0 -194.5 46t-143.5 131l158 134q77 -117 170 -117q59 0 100 41.5t41 101.5q0 61 -40 102t-100 41q-64 0 -105 -57l-172 22l62 551h555v-194h-343l-19 -151q33 7 64 7
q138 0 235.5 -89t97.5 -232q0 -149 -100.5 -243t-265.5 -94z" />
    <glyph glyph-name="twofifths" unicode="&#x2156;" horiz-adv-x="1986" 
d="M597 871l-200 -215h327v-193h-631v173l323 350q46 51 65.5 89t19.5 80q0 48 -29 78t-75 30q-43 0 -72.5 -28t-52.5 -93l-201 71q30 116 116 180.5t212 64.5q145 0 240 -81t95 -212q0 -80 -32.5 -148t-104.5 -146zM530 0l699 1434h228l-698 -1434h-229zM1550 -27
q-107 0 -194.5 46t-143.5 131l158 134q77 -117 170 -117q59 0 100 41.5t41 101.5q0 61 -40 102t-100 41q-64 0 -105 -57l-172 22l62 551h555v-194h-343l-19 -151q33 7 64 7q138 0 235.5 -89t97.5 -232q0 -149 -100.5 -243t-265.5 -94z" />
    <glyph glyph-name="threefifths" unicode="&#x2157;" horiz-adv-x="1986" 
d="M511 775q0 60 -40 101.5t-99 41.5q-28 0 -55 -12l-89 110l193 224h-318v194h596v-180l-176 -198q103 -30 163 -112t60 -190q0 -126 -102.5 -221t-262.5 -95q-106 0 -193.5 47t-139.5 131l150 136q84 -121 174 -121q60 0 99.5 41.5t39.5 102.5zM530 0l699 1434h228
l-698 -1434h-229zM1550 -27q-107 0 -194.5 46t-143.5 131l158 134q77 -117 170 -117q59 0 100 41.5t41 101.5q0 61 -40 102t-100 41q-64 0 -105 -57l-172 22l62 551h555v-194h-343l-19 -151q33 7 64 7q138 0 235.5 -89t97.5 -232q0 -149 -100.5 -243t-265.5 -94z" />
    <glyph glyph-name="fourfifths" unicode="&#x2158;" horiz-adv-x="1986" 
d="M34 634v176l421 624h216v-607h100v-193h-100v-171h-228v171h-409zM262 825h181v276zM530 0l699 1434h228l-698 -1434h-229zM1550 -27q-107 0 -194.5 46t-143.5 131l158 134q77 -117 170 -117q59 0 100 41.5t41 101.5q0 61 -40 102t-100 41q-64 0 -105 -57l-172 22l62 551
h555v-194h-343l-19 -151q33 7 64 7q138 0 235.5 -89t97.5 -232q0 -149 -100.5 -243t-265.5 -94z" />
    <glyph glyph-name="onesixth" unicode="&#x2159;" horiz-adv-x="1986" 
d="M384 1434h200v-971h-236v742l-144 -79l-87 165zM530 0l699 1434h228l-698 -1434h-229zM1822 971l-215 -332q135 -5 234 -95t99 -233q0 -96 -51 -174t-134 -120t-178 -42q-151 0 -260 95.5t-109 240.5q0 99 50 175l317 485h247zM1712 312q0 61 -40 102.5t-98 41.5
q-57 0 -97 -41.5t-40 -102.5q0 -62 39.5 -103t97.5 -41t98 41t40 103z" />
    <glyph glyph-name="fivesixths" unicode="&#x215a;" horiz-adv-x="1986" 
d="M388 438q-107 0 -195 45.5t-143 130.5l158 135q77 -117 170 -117q59 0 100 41.5t41 101.5q0 61 -40 102t-100 41q-31 0 -59.5 -16t-46.5 -41l-172 22l63 551h555v-194h-343l-20 -151q33 7 65 7q138 0 235.5 -89t97.5 -232q0 -149 -100.5 -243t-265.5 -94zM530 0l699 1434
h228l-698 -1434h-229zM1822 971l-215 -332q135 -5 234 -95t99 -233q0 -96 -51 -174t-134 -120t-178 -42q-151 0 -260 95.5t-109 240.5q0 99 50 175l317 485h247zM1712 312q0 61 -40 102.5t-98 41.5q-57 0 -97 -41.5t-40 -102.5q0 -62 39.5 -103t97.5 -41t98 41t40 103z" />
    <glyph glyph-name="oneeighth" unicode="&#x215b;" horiz-adv-x="1986" 
d="M384 1434h200v-971h-236v742l-144 -79l-87 165zM530 0l699 1434h228l-698 -1434h-229zM1444 296q0 -57 38 -96t93 -39t93 39t38 96t-37.5 95.5t-93.5 38.5t-93.5 -38.5t-37.5 -95.5zM1888 715q0 -56 -26.5 -105t-71.5 -81q67 -36 105.5 -100.5t38.5 -137.5
q0 -136 -103.5 -227t-255.5 -91q-153 0 -256.5 91.5t-103.5 226.5q0 73 39 137.5t106 100.5q-45 32 -71.5 81t-26.5 105q0 117 88.5 197.5t224.5 80.5t224.5 -80.5t88.5 -197.5zM1481 712q0 -40 27 -69.5t67 -29.5t67 29.5t27 69.5t-27 67t-67 27t-67 -27t-27 -67z" />
    <glyph glyph-name="threeeighths" unicode="&#x215c;" horiz-adv-x="1986" 
d="M511 775q0 60 -40 101.5t-99 41.5q-28 0 -55 -12l-89 110l193 224h-318v194h596v-180l-176 -198q103 -30 163 -112t60 -190q0 -126 -102.5 -221t-262.5 -95q-106 0 -193.5 47t-139.5 131l150 136q84 -121 174 -121q60 0 99.5 41.5t39.5 102.5zM530 0l699 1434h228
l-698 -1434h-229zM1444 296q0 -57 38 -96t93 -39t93 39t38 96t-37.5 95.5t-93.5 38.5t-93.5 -38.5t-37.5 -95.5zM1888 715q0 -56 -26.5 -105t-71.5 -81q67 -36 105.5 -100.5t38.5 -137.5q0 -136 -103.5 -227t-255.5 -91q-153 0 -256.5 91.5t-103.5 226.5q0 73 39 137.5
t106 100.5q-45 32 -71.5 81t-26.5 105q0 117 88.5 197.5t224.5 80.5t224.5 -80.5t88.5 -197.5zM1481 712q0 -40 27 -69.5t67 -29.5t67 29.5t27 69.5t-27 67t-67 27t-67 -27t-27 -67z" />
    <glyph glyph-name="fiveeighths" unicode="&#x215d;" horiz-adv-x="1986" 
d="M388 438q-107 0 -195 45.5t-143 130.5l158 135q77 -117 170 -117q59 0 100 41.5t41 101.5q0 61 -40 102t-100 41q-31 0 -59.5 -16t-46.5 -41l-172 22l63 551h555v-194h-343l-20 -151q33 7 65 7q138 0 235.5 -89t97.5 -232q0 -149 -100.5 -243t-265.5 -94zM530 0l699 1434
h228l-698 -1434h-229zM1444 296q0 -57 38 -96t93 -39t93 39t38 96t-37.5 95.5t-93.5 38.5t-93.5 -38.5t-37.5 -95.5zM1888 715q0 -56 -26.5 -105t-71.5 -81q67 -36 105.5 -100.5t38.5 -137.5q0 -136 -103.5 -227t-255.5 -91q-153 0 -256.5 91.5t-103.5 226.5q0 73 39 137.5
t106 100.5q-45 32 -71.5 81t-26.5 105q0 117 88.5 197.5t224.5 80.5t224.5 -80.5t88.5 -197.5zM1481 712q0 -40 27 -69.5t67 -29.5t67 29.5t27 69.5t-27 67t-67 27t-67 -27t-27 -67z" />
    <glyph glyph-name="seveneighths" unicode="&#x215e;" horiz-adv-x="1986" 
d="M90 1434h649v-170l-330 -801h-256l326 775h-389v196zM530 0l699 1434h228l-698 -1434h-229zM1444 296q0 -57 38 -96t93 -39t93 39t38 96t-37.5 95.5t-93.5 38.5t-93.5 -38.5t-37.5 -95.5zM1888 715q0 -56 -26.5 -105t-71.5 -81q67 -36 105.5 -100.5t38.5 -137.5
q0 -136 -103.5 -227t-255.5 -91q-153 0 -256.5 91.5t-103.5 226.5q0 73 39 137.5t106 100.5q-45 32 -71.5 81t-26.5 105q0 117 88.5 197.5t224.5 80.5t224.5 -80.5t88.5 -197.5zM1481 712q0 -40 27 -69.5t67 -29.5t67 29.5t27 69.5t-27 67t-67 27t-67 -27t-27 -67z" />
    <glyph glyph-name="uni215F" unicode="&#x215f;" horiz-adv-x="1986" 
d="M384 1434h200v-971h-236v742l-144 -79l-87 165zM530 0l699 1434h228l-698 -1434h-229z" />
    <glyph glyph-name="arrowleft" unicode="&#x2190;" horiz-adv-x="1761" 
d="M1688 807v-254h-1133v-238l-481 365l481 364v-237h1133z" />
    <glyph glyph-name="arrowup" unicode="&#x2191;" horiz-adv-x="1761" 
d="M1008 -78h-254v1131h-238l365 483l364 -483h-237v-1131z" />
    <glyph glyph-name="arrowright" unicode="&#x2192;" horiz-adv-x="1761" 
d="M74 553v254h1130v237l484 -364l-484 -365v238h-1130z" />
    <glyph glyph-name="arrowdown" unicode="&#x2193;" horiz-adv-x="1761" 
d="M754 1536h254v-1133h237l-364 -481l-365 481h238v1133z" />
    <glyph glyph-name="arrowboth" unicode="&#x2194;" horiz-adv-x="1761" 
d="M555 1044v-237h651v237l482 -364l-482 -365v238h-651v-238l-481 365z" />
    <glyph glyph-name="arrowupdn" unicode="&#x2195;" horiz-adv-x="1761" 
d="M516 403h238v652h-238l365 481l364 -481h-237v-652h237l-364 -481z" />
    <glyph glyph-name="arrowupdnbse" unicode="&#x21a8;" horiz-adv-x="1761" 
d="M516 403h238v652h-238l365 481l364 -481h-237v-652h237l-344 -452h318v-152h-676v152h315z" />
    <glyph glyph-name="partialdiff" unicode="&#x2202;" horiz-adv-x="1267" 
d="M581 947q91 0 173 -36.5t138 -96.5q-15 194 -93.5 294.5t-215.5 100.5q-157 0 -284 -124l-113 220q157 153 399 153q188 0 323.5 -94.5t204 -261.5t68.5 -389q0 -175 -45 -316.5t-123.5 -233t-183 -140t-226.5 -48.5q-225 0 -381 141.5t-156 344.5q0 133 72 245.5
t190 176.5t253 64zM603 224q110 0 186 81t98 257q-117 136 -284 136q-107 0 -180 -68t-73 -169q0 -100 73 -168.5t180 -68.5z" />
    <glyph glyph-name="Delta" unicode="&#x2206;" horiz-adv-x="1415" 
d="M868 1434l513 -1434h-1347l513 1434h321zM708 1123l-293 -878h585z" />
    <glyph glyph-name="product" unicode="&#x220f;" horiz-adv-x="1394" 
d="M1238 1516v-1743h-291v1492h-500v-1492h-290v1743h1081z" />
    <glyph glyph-name="summation" unicode="&#x2211;" horiz-adv-x="1349" 
d="M116 37l504 618l-504 595v266h1118v-250h-781l447 -533v-155l-445 -555h779v-250h-1118v264z" />
    <glyph glyph-name="minus" unicode="&#x2212;" horiz-adv-x="1193" 
d="M1073 557h-952v245h952v-245z" />
    <glyph glyph-name="uni2215" unicode="&#x2215;" horiz-adv-x="338" 
d="M-294 0l698 1434h229l-699 -1434h-228z" />
    <glyph glyph-name="uni2219" unicode="&#x2219;" horiz-adv-x="617" 
d="M135 667q0 72 49.5 121t123.5 49q75 0 124.5 -49t49.5 -121t-49.5 -121t-124.5 -49q-74 0 -123.5 49t-49.5 121z" />
    <glyph glyph-name="radical" unicode="&#x221a;" horiz-adv-x="1162" 
d="M680 0h-321l-328 768h301l168 -430l338 1239h294z" />
    <glyph glyph-name="infinity" unicode="&#x221e;" horiz-adv-x="1574" 
d="M306 680q0 -53 36 -86t92 -33q57 0 105 25t110 94q-62 69 -110 94t-105 25q-56 0 -92 -33t-36 -86zM787 543q-174 -181 -368 -181q-143 0 -242 90.5t-99 227.5t99 227t242 90q195 0 368 -180q173 180 369 180q143 0 242 -90t99 -227t-99 -227.5t-242 -90.5
q-195 0 -369 181zM1269 680q0 53 -36 86t-92 33q-57 0 -105 -25t-110 -94q62 -69 110 -94t105 -25q56 0 92 33t36 86z" />
    <glyph glyph-name="orthogonal" unicode="&#x221f;" horiz-adv-x="1262" 
d="M1227 251v-251h-1070v1178h290v-927h780z" />
    <glyph glyph-name="intersection" unicode="&#x2229;" horiz-adv-x="1325" 
d="M663 1013q-101 0 -168.5 -78.5t-67.5 -196.5v-738h-291v756q0 140 69.5 256.5t190.5 184t267 67.5t267 -67.5t190 -184t69 -256.5v-756h-291v738q0 118 -67 196.5t-168 78.5z" />
    <glyph glyph-name="integral" unicode="&#x222b;" horiz-adv-x="883" 
d="M583 1200v-1301q0 -374 -417 -374q-56 0 -122 10v224q47 -5 95 -5q86 0 124 36t38 112v1301q0 374 417 374q56 0 122 -10v-225q-56 6 -96 6q-86 0 -123.5 -36t-37.5 -112z" />
    <glyph glyph-name="approxequal" unicode="&#x2248;" horiz-adv-x="1193" 
d="M573 305q-36 32 -54.5 47t-47 31t-50.5 16q-72 0 -97 -147l-266 58q27 166 107 255t208 89q141 0 248 -93q36 -32 54.5 -47t47 -31t50.5 -16q72 0 97 147l266 -58q-27 -166 -107 -255t-208 -89q-141 0 -248 93zM573 780q-36 32 -54.5 47t-47 31t-50.5 16q-72 0 -97 -147
l-266 58q27 166 107 255t208 89q141 0 248 -93q36 -32 54.5 -47t47 -31t50.5 -16q72 0 97 148l266 -59q-27 -166 -107 -255t-208 -89q-141 0 -248 93z" />
    <glyph glyph-name="notequal" unicode="&#x2260;" horiz-adv-x="1193" 
d="M1073 325h-552l-132 -254h-205l132 254h-195v240h320l119 229h-439v240h564l120 231h205l-120 -231h183v-240h-308l-119 -229h427v-240z" />
    <glyph glyph-name="equivalence" unicode="&#x2261;" horiz-adv-x="1193" 
d="M1073 559h-952v241h952v-241zM1073 205h-952v240h952v-240zM1073 913h-952v241h952v-241z" />
    <glyph glyph-name="lessequal" unicode="&#x2264;" horiz-adv-x="1193" 
d="M121 703v209l944 376v-262l-593 -218l593 -218v-262zM1073 0h-952v241h952v-241z" />
    <glyph glyph-name="greaterequal" unicode="&#x2265;" horiz-adv-x="1193" 
d="M1073 912v-209l-944 -375v262l593 218l-593 218v262zM1073 0h-952v241h952v-241z" />
    <glyph glyph-name="house" unicode="&#x2302;" horiz-adv-x="1325" 
d="M413 240h499v385l-249 281l-250 -281v-385zM1192 0h-1059v713l530 590l529 -590v-713z" />
    <glyph glyph-name="revlogicalnot" unicode="&#x2310;" horiz-adv-x="1193" 
d="M399 557v-327h-278v572h952v-245h-674z" />
    <glyph glyph-name="uni2318" unicode="&#x2318;" horiz-adv-x="1662" 
d="M723 553h216v216h-216v-216zM412 945h110v112q0 50 -30.5 81t-79.5 31q-48 0 -79 -31.5t-31 -80.5t31 -80.5t79 -31.5zM1141 945h110q48 0 79 31.5t31 80.5t-31 80.5t-79 31.5q-49 0 -79.5 -31t-30.5 -81v-112zM522 378h-110q-48 0 -79 -31.5t-31 -80.5t31 -80.5
t79 -31.5q49 0 79.5 31t30.5 81v112zM522 556v211h-110q-133 0 -223.5 83.5t-90.5 206.5q0 124 90.5 207.5t223.5 83.5q134 0 224 -83.5t90 -207.5v-112h211v112q0 124 90 207.5t224 83.5q133 0 223.5 -83.5t90.5 -207.5q0 -123 -90.5 -206.5t-223.5 -83.5h-110v-211h110
q133 0 223.5 -83.5t90.5 -206.5q0 -124 -90.5 -207.5t-223.5 -83.5q-134 0 -224 83.5t-90 207.5v112h-211v-112q0 -124 -90 -207.5t-224 -83.5q-133 0 -223.5 83.5t-90.5 207.5q0 123 90.5 206.5t223.5 83.5h110zM1251 378h-110v-112q0 -50 30.5 -81t79.5 -31q48 0 79 31.5
t31 80.5t-31 80.5t-79 31.5z" />
    <glyph glyph-name="lozenge" unicode="&#x25ca;" horiz-adv-x="1189" 
d="M1105 618l-510 -940l-510 940l510 941zM828 618l-233 447l-234 -447l234 -447z" />
    <glyph glyph-name="H18533" unicode="&#x25cf;" horiz-adv-x="2048" 
d="M332 668q0 187 93 346.5t252.5 252.5t346.5 93t346.5 -93t252.5 -252.5t93 -346.5t-93 -347t-252.5 -253t-346.5 -93t-346.5 93t-252.5 253t-93 347z" />
    <glyph glyph-name="commaaccent" horiz-adv-x="870" 
d="M453 -469h-254l158 350h288z" />
    <glyph glyph-name="zero.tnum" horiz-adv-x="1157" 
d="M75 717q0 215 55 379.5t170.5 263t278.5 98.5q123 0 220 -56.5t158 -156.5t93 -234t32 -294q0 -215 -54.5 -380t-170 -263.5t-278.5 -98.5t-278.5 98.5t-170.5 263.5t-55 380zM357 717q0 -149 23 -255t73 -167t126 -61q112 0 166.5 127.5t54.5 355.5q0 227 -54.5 354
t-166.5 127q-76 0 -126 -60.5t-73 -166t-23 -254.5z" />
    <glyph glyph-name="one.tnum" horiz-adv-x="989" 
d="M444 1434h257v-1434h-287v1157l-233 -125l-112 201z" />
    <glyph glyph-name="two.tnum" horiz-adv-x="1076" 
d="M800 609l-332 -361h517v-248h-887v232l479 522q74 80 105.5 141t31.5 127q0 82 -53 134t-136 52q-145 0 -214 -173l-243 92q43 150 163.5 240.5t296.5 90.5q205 0 338 -115.5t133 -303.5q0 -119 -47.5 -218t-151.5 -212z" />
    <glyph glyph-name="three.tnum" horiz-adv-x="1131" 
d="M514 222q104 0 174 70t70 169t-70 168t-174 69q-34 0 -69 -11l-110 139l307 360h-501v248h836v-246l-282 -316q163 -33 257.5 -154t94.5 -288q0 -87 -37.5 -168.5t-104 -145.5t-165.5 -102.5t-214 -38.5q-149 0 -270.5 63.5t-196.5 179.5l184 166q113 -162 271 -162z" />
    <glyph glyph-name="four.tnum" horiz-adv-x="1199" 
d="M66 260v246l619 928h276v-921h153v-253h-153v-260h-283v260h-612zM343 511h335v502z" />
    <glyph glyph-name="five.tnum" horiz-adv-x="1144" 
d="M543 -25q-151 0 -273.5 61t-199.5 177l192 169q110 -159 264 -159q105 0 175.5 68.5t70.5 169.5t-70 169.5t-175 68.5q-56 0 -103.5 -22.5t-74.5 -59.5l-206 27l90 790h774v-248h-515l-35 -293q62 31 143 31q124 0 228.5 -56.5t168 -163.5t63.5 -243q0 -214 -141.5 -350
t-375.5 -136z" />
    <glyph glyph-name="six.tnum" horiz-adv-x="1210" 
d="M928 1434l-331 -510q7 1 20 1q97 0 186.5 -30.5t161.5 -87t115.5 -147t43.5 -200.5q0 -137 -72.5 -249.5t-190.5 -174t-254 -61.5q-140 0 -259 61.5t-191.5 173.5t-72.5 250q0 140 72 253l468 721h304zM843 461q0 103 -69.5 172.5t-169.5 69.5t-169 -69.5t-69 -172.5
q0 -102 69.5 -172t168.5 -70q100 0 169.5 70t69.5 172z" />
    <glyph glyph-name="seven.tnum" horiz-adv-x="1015" 
d="M56 1434h914v-231l-497 -1203h-312l494 1183h-599v251z" />
    <glyph glyph-name="eight.tnum" horiz-adv-x="1189" 
d="M365 437q0 -93 66.5 -158t163.5 -65t163.5 65t66.5 158q0 94 -66.5 159.5t-163.5 65.5t-163.5 -65.5t-66.5 -159.5zM1036 1065q0 -88 -47.5 -165.5t-121.5 -115.5q111 -43 174.5 -139.5t63.5 -215.5q0 -193 -147 -323.5t-363 -130.5t-363 130.5t-147 323.5
q0 119 63.5 215.5t174.5 139.5q-74 38 -121.5 115.5t-47.5 165.5q0 165 125 279t316 114t316 -114t125 -279zM422 1057q0 -67 50.5 -117t122.5 -50t122.5 50t50.5 117q0 68 -50 116.5t-123 48.5t-123 -48.5t-50 -116.5z" />
    <glyph glyph-name="nine.tnum" horiz-adv-x="1210" 
d="M283 0l330 510q-7 -1 -20 -1q-97 0 -186.5 30.5t-161.5 87t-115.5 147t-43.5 200.5q0 137 72.5 249.5t190.5 173.5t254 61q140 0 259 -61t191.5 -173t72.5 -250q0 -142 -71 -253l-468 -721h-304zM368 973q0 -103 69 -173t169 -70t169.5 70t69.5 173q0 102 -69.5 171.5
t-169.5 69.5t-169 -69.5t-69 -171.5z" />
    <glyph glyph-name="parenleft.case" horiz-adv-x="875" 
d="M221 716q0 273 101 522.5t284 432.5l197 -140q-141 -166 -216 -377.5t-75 -437.5t75 -437.5t216 -377.5l-197 -141q-183 183 -284 433t-101 523z" />
    <glyph glyph-name="parenright.case" horiz-adv-x="875" 
d="M654 716q0 -273 -101 -523t-284 -433l-196 141q141 166 216 377.5t75 437.5t-75 437.5t-216 377.5l196 140q183 -183 284 -432.5t101 -522.5z" />
    <glyph glyph-name="hyphen.case" horiz-adv-x="847" 
d="M727 599h-606v260h606v-260z" />
    <glyph glyph-name="at.case" horiz-adv-x="1988" 
d="M987 498q65 0 117 34.5t80 91.5v215q-28 56 -80 90.5t-117 34.5q-94 0 -157.5 -67t-63.5 -166q0 -100 63.5 -166.5t157.5 -66.5zM1482 290q-78 0 -151.5 36.5t-113.5 95.5q-51 -63 -123.5 -97.5t-154.5 -34.5q-176 0 -294 128.5t-118 312.5q0 183 117.5 312t290.5 129
q143 0 249 -106v86h235v-607q12 -24 38 -38.5t55 -14.5q81 0 137.5 77t56.5 215q0 182 -97.5 336t-262.5 243t-356 89q-144 0 -274.5 -55.5t-225.5 -150t-151 -226t-56 -277.5q0 -147 56 -278t152.5 -225.5t233.5 -149.5t292 -55q267 0 486 152l84 -171q-271 -168 -570 -168
q-266 0 -482.5 116.5t-339.5 321.5t-123 457q0 188 72.5 355t196 285t292.5 186.5t357 68.5q157 0 300 -42.5t256 -120.5t197 -183.5t129 -236.5t45 -273q0 -223 -121 -357.5t-314 -134.5z" />
    <glyph glyph-name="bracketleft.case" horiz-adv-x="875" 
d="M217 -195v1823h620v-251h-329v-1321h329v-251h-620z" />
    <glyph glyph-name="bracketright.case" horiz-adv-x="875" 
d="M658 1628v-1823h-619v251h329v1321h-329v251h619z" />
    <glyph glyph-name="braceleft.case" horiz-adv-x="875" 
d="M134 592v250q91 0 141.5 46.5t50.5 131.5v271q0 143 104 240t263 97h144v-251h-89q-58 0 -95 -36t-37 -93v-286q0 -196 -186 -245q186 -49 186 -245v-287q0 -57 37 -93t95 -36h89v-251h-144q-159 0 -263 97t-104 240v272q0 85 -50.5 131.5t-141.5 46.5z" />
    <glyph glyph-name="braceright.case" horiz-adv-x="875" 
d="M741 842v-250q-90 0 -140.5 -46.5t-50.5 -131.5v-272q0 -143 -104.5 -240t-263.5 -97h-143v251h89q58 0 94.5 36t36.5 93v287q0 196 186 245q-186 49 -186 245v286q0 57 -36.5 93t-94.5 36h-89v251h143q159 0 263.5 -97t104.5 -240v-271q0 -85 50.5 -131.5t140.5 -46.5z
" />
    <glyph glyph-name="exclamdown.case" horiz-adv-x="641" 
d="M175 0v1005h291v-1005h-291zM143 1288q0 72 51.5 121t126.5 49t126 -49t51 -121t-51 -121t-126 -49t-126.5 49t-51.5 121z" />
    <glyph glyph-name="guillemotleft.case" horiz-adv-x="1320" 
d="M96 617v140l590 362v-240l-326 -192l326 -191v-241zM615 617v140l590 362v-240l-325 -192l325 -191v-241z" />
    <glyph glyph-name="periodcentered.case" horiz-adv-x="617" 
d="M135 718q0 72 49.5 121t123.5 49q75 0 124.5 -49t49.5 -121t-49.5 -121t-124.5 -49q-74 0 -123.5 49t-49.5 121z" />
    <glyph glyph-name="guillemotright.case" horiz-adv-x="1320" 
d="M1225 757v-140l-590 -362v241l326 191l-326 192v240zM706 757v-140l-590 -362v241l325 191l-325 192v240z" />
    <glyph glyph-name="questiondown.case" horiz-adv-x="1135" 
d="M784 1005v-371q-178 0 -276.5 -64.5t-98.5 -167.5q0 -75 66.5 -124t173.5 -49q137 0 276 116l139 -211q-195 -159 -443 -159q-111 0 -207 35t-160.5 93.5t-101.5 136t-37 161.5q0 146 102 260.5t277 152.5v191h290zM816 1288q0 -72 -51 -121t-126 -49t-126 49t-51 121
t51 121t126 49t126 -49t51 -121z" />
    <glyph glyph-name="endash.case" horiz-adv-x="1024" 
d="M1024 599h-1024v260h1024v-260z" />
    <glyph glyph-name="emdash.case" horiz-adv-x="2048" 
d="M2048 599h-2048v260h2048v-260z" />
    <glyph glyph-name="bullet.case" horiz-adv-x="819" 
d="M124 729q0 118 83.5 201t202.5 83q118 0 201.5 -83t83.5 -201t-83.5 -201t-201.5 -83q-119 0 -202.5 83t-83.5 201z" />
    <glyph glyph-name="guilsinglleft.case" horiz-adv-x="801" 
d="M96 617v140l590 362v-240l-326 -192l326 -191v-241z" />
    <glyph glyph-name="guilsinglright.case" horiz-adv-x="801" 
d="M706 757v-140l-590 -362v241l325 191l-325 192v240z" />
    <glyph glyph-name="zero.numerator" 
d="M54 948q0 226 93.5 368t265.5 142t265 -142t93 -368t-93 -368t-265 -142t-265.5 142t-93.5 368zM285 948q0 -145 32 -227t96 -82t96 82t32 227t-32 227t-96 82t-96 -82t-32 -227z" />
    <glyph glyph-name="one.numerator" 
d="M384 1434h200v-971h-236v742l-144 -79l-87 165z" />
    <glyph glyph-name="two.numerator" 
d="M597 871l-200 -215h327v-193h-631v173l323 350q46 51 65.5 89t19.5 80q0 48 -29 78t-75 30q-43 0 -72.5 -28t-52.5 -93l-201 71q30 116 116 180.5t212 64.5q145 0 240 -81t95 -212q0 -80 -32.5 -148t-104.5 -146z" />
    <glyph glyph-name="three.numerator" 
d="M511 775q0 60 -40 101.5t-99 41.5q-28 0 -55 -12l-89 110l193 224h-318v194h596v-180l-176 -198q103 -30 163 -112t60 -190q0 -126 -102.5 -221t-262.5 -95q-106 0 -193.5 47t-139.5 131l150 136q84 -121 174 -121q60 0 99.5 41.5t39.5 102.5z" />
    <glyph glyph-name="four.numerator" 
d="M34 634v176l421 624h216v-607h100v-193h-100v-171h-228v171h-409zM262 825h181v276z" />
    <glyph glyph-name="five.numerator" 
d="M388 438q-107 0 -195 45.5t-143 130.5l158 135q77 -117 170 -117q59 0 100 41.5t41 101.5q0 61 -40 102t-100 41q-31 0 -59.5 -16t-46.5 -41l-172 22l63 551h555v-194h-343l-20 -151q33 7 65 7q138 0 235.5 -89t97.5 -232q0 -149 -100.5 -243t-265.5 -94z" />
    <glyph glyph-name="six.numerator" 
d="M659 1434l-215 -332q135 -5 234.5 -95t99.5 -233q0 -96 -51 -174t-134 -120t-178 -42q-151 0 -260 95.5t-109 240.5q0 99 50 175l317 485h246zM550 775q0 61 -40 102.5t-98 41.5q-57 0 -97.5 -42t-40.5 -102q0 -62 40 -103t98 -41t98 41t40 103z" />
    <glyph glyph-name="seven.numerator" 
d="M90 1434h649v-170l-330 -801h-256l326 775h-389v196z" />
    <glyph glyph-name="eight.numerator" 
d="M282 761q0 -57 38 -96t93 -39t93 39t38 96t-37.5 95.5t-93.5 38.5t-93.5 -38.5t-37.5 -95.5zM726 1180q0 -56 -26.5 -105t-71.5 -81q67 -36 105.5 -100.5t38.5 -137.5q0 -136 -103.5 -227t-255.5 -91q-153 0 -256.5 91.5t-103.5 226.5q0 73 39 137.5t106 100.5
q-45 32 -72 81t-27 105q0 117 89 197.5t225 80.5t224.5 -80.5t88.5 -197.5zM318 1177q0 -40 27.5 -69.5t67.5 -29.5t67 29.5t27 69.5t-27 67t-67 27t-67.5 -27t-27.5 -67z" />
    <glyph glyph-name="nine.numerator" 
d="M166 463l215 332q-135 5 -234.5 94.5t-99.5 232.5q0 96 51.5 174t134.5 120t178 42q151 0 259.5 -95.5t108.5 -240.5q0 -99 -50 -175l-316 -484h-247zM275 1121q0 -60 40.5 -101.5t98.5 -41.5q57 0 97 41.5t40 101.5q0 62 -40 103.5t-97 41.5q-58 0 -98.5 -41.5
t-40.5 -103.5z" />
    <glyph glyph-name="zero.denominator" 
d="M54 485q0 226 93.5 368t265.5 142t265 -142t93 -368t-93 -368t-265 -142t-265.5 142t-93.5 368zM285 485q0 -145 32 -227t96 -82t96 82t32 227t-32 227.5t-96 82.5t-96 -82.5t-32 -227.5z" />
    <glyph glyph-name="one.denominator" 
d="M384 971h200v-971h-236v742l-144 -78l-87 164z" />
    <glyph glyph-name="two.denominator" 
d="M597 409l-200 -215h327v-194h-631v173l323 350q46 51 65.5 89t19.5 80q0 48 -29 78t-75 30q-43 0 -72.5 -28t-52.5 -93l-201 72q30 116 116 180t212 64q145 0 240 -81t95 -212q0 -80 -32.5 -147.5t-104.5 -145.5z" />
    <glyph glyph-name="three.denominator" 
d="M511 312q0 60 -40 101.5t-99 41.5q-28 0 -55 -12l-89 110l193 224h-318v194h596v-179l-176 -199q103 -30 163 -112t60 -190q0 -126 -102.5 -221t-262.5 -95q-106 0 -193.5 47.5t-139.5 131.5l150 135q84 -121 174 -121q60 0 99.5 41.5t39.5 102.5z" />
    <glyph glyph-name="four.denominator" 
d="M34 171v176l421 624h216v-606h100v-194h-100v-171h-228v171h-409zM262 362h181v276z" />
    <glyph glyph-name="five.denominator" 
d="M388 -25q-107 0 -194.5 46t-143.5 131l158 134q77 -117 170 -117q59 0 100 41.5t41 101.5q0 61 -40 102t-100 41q-31 0 -59.5 -16t-46.5 -41l-172 22l63 551h555v-194h-343l-20 -151q33 7 65 7q138 0 235.5 -89t97.5 -232q0 -149 -100.5 -243t-265.5 -94z" />
    <glyph glyph-name="six.denominator" 
d="M659 971l-215 -332q135 -5 234.5 -95t99.5 -233q0 -96 -51 -174t-134 -120t-178 -42q-151 0 -260 95.5t-109 240.5q0 99 50 175l317 485h246zM550 312q0 61 -40 102.5t-98 41.5q-57 0 -97.5 -42t-40.5 -102q0 -62 40 -103t98 -41t98 41t40 103z" />
    <glyph glyph-name="seven.denominator" 
d="M90 971h649v-170l-330 -801h-256l326 775h-389v196z" />
    <glyph glyph-name="eight.denominator" 
d="M282 298q0 -57 38 -96t93 -39t93 39t38 96t-37.5 95.5t-93.5 38.5t-93.5 -38.5t-37.5 -95.5zM726 717q0 -56 -26.5 -105t-71.5 -81q67 -36 105.5 -100.5t38.5 -137.5q0 -136 -103.5 -227t-255.5 -91q-153 0 -256.5 91.5t-103.5 226.5q0 73 39 137.5t106 100.5
q-45 32 -72 81t-27 105q0 117 89 197.5t225 80.5t224.5 -80.5t88.5 -197.5zM318 714q0 -40 27.5 -69.5t67.5 -29.5t67 29.5t27 69.5t-27 67t-67 27t-67.5 -27t-27.5 -67z" />
    <glyph glyph-name="nine.denominator" 
d="M166 0l215 332q-135 5 -234.5 94.5t-99.5 232.5q0 96 51.5 174t134.5 120t178 42q151 0 259.5 -95.5t108.5 -240.5q0 -99 -50 -175l-316 -484h-247zM275 658q0 -60 40.5 -101.5t98.5 -41.5q57 0 97 41.5t40 101.5q0 62 -40 103.5t-97 41.5q-58 0 -98.5 -41.5
t-40.5 -103.5z" />
    <glyph glyph-name="dollar_osf" horiz-adv-x="1079" 
d="M74 179l162 186q108 -115 236 -144v282q-179 41 -271.5 134.5t-92.5 229.5q0 144 100.5 240t263.5 113v160h167v-167q179 -29 318 -154l-151 -194q-90 74 -167 103v-241q193 -49 284 -144t91 -237q0 -146 -100 -244.5t-275 -119.5v-166h-167v165q-116 13 -219.5 64
t-178.5 134zM737 336q0 74 -98 119v-228q45 15 71.5 43.5t26.5 65.5zM385 887q0 -65 87 -108v198q-40 -11 -63.5 -35t-23.5 -55z" />
    <glyph glyph-name="zero_osf" horiz-adv-x="1026" 
d="M56 550q0 260 121 417t336 157t336 -157t121 -417q0 -261 -121 -418t-336 -157t-336 157t-121 418zM334 550q0 -161 47 -248.5t132 -87.5t132 87.5t47 248.5q0 160 -47 248t-132 88t-132 -88t-47 -248z" />
    <glyph glyph-name="one_osf" horiz-adv-x="882" 
d="M403 1100h245v-1100h-284v825l-210 -101l-103 206z" />
    <glyph glyph-name="two_osf" horiz-adv-x="952" 
d="M713 451l-238 -214h406v-237h-806v213l424 384q61 56 87 96t26 81q0 51 -40.5 81.5t-107.5 30.5q-126 0 -182 -134l-241 85q50 137 158 212t267 75q186 0 306.5 -93t120.5 -244q0 -94 -44 -173t-136 -163z" />
    <glyph glyph-name="three_osf" horiz-adv-x="1017" 
d="M669 213q0 85 -59 144t-149 59q-32 0 -65 -14l-111 140l267 312h-437v246h774v-237l-245 -273q144 -36 225.5 -146t81.5 -259q0 -80 -34.5 -156t-95 -135t-151.5 -94.5t-197 -35.5q-136 0 -250 61.5t-186 172.5l182 162q103 -151 242 -151q89 0 148.5 59.5t59.5 144.5z
" />
    <glyph glyph-name="four_osf" horiz-adv-x="1078" 
d="M46 26v229l563 845h265v-833h139v-241h-139v-237h-276v237h-552zM328 267h270v413z" />
    <glyph glyph-name="five_osf" horiz-adv-x="1029" 
d="M486 -236q-138 0 -252.5 59t-188.5 170l192 166q100 -149 235 -149q91 0 150.5 57.5t59.5 144.5t-59 144.5t-150 57.5q-48 0 -90 -20.5t-66 -53.5l-201 26l84 734h715v-244h-463l-29 -238q53 21 115 21q177 0 301.5 -119t124.5 -308q0 -197 -131 -322.5t-347 -125.5z" />
    <glyph glyph-name="six_osf" horiz-adv-x="1088" 
d="M857 1313l-297 -456q91 0 174.5 -30t148 -84t102.5 -137t38 -182q0 -127 -66.5 -231t-175.5 -161t-235 -57q-128 0 -237.5 57t-176 161t-66.5 231q0 131 66 233l426 656h299zM749 425q0 87 -60 146.5t-145 59.5t-144 -59.5t-59 -146.5q0 -88 59 -147.5t144 -59.5
t145 59.5t60 147.5z" />
    <glyph glyph-name="seven_osf" horiz-adv-x="912" 
d="M38 1100h844v-219l-451 -1092h-304l444 1064h-533v247z" />
    <glyph glyph-name="eight_osf" horiz-adv-x="1071" 
d="M339 403q0 -79 57 -135t140 -56t139.5 56t56.5 135t-56.5 135t-139.5 56t-140 -56t-57 -135zM944 971q0 -75 -38.5 -144t-98.5 -109q92 -44 145.5 -131.5t53.5 -191.5q0 -179 -135.5 -299.5t-334.5 -120.5t-334.5 120.5t-135.5 299.5q0 104 53 191.5t145 131.5
q-60 40 -98.5 109t-38.5 144q0 153 116.5 259.5t292.5 106.5t292 -106t116 -260zM390 964q0 -57 42.5 -99.5t103.5 -42.5t103 42.5t42 99.5t-41.5 97.5t-103.5 40.5t-104 -40.5t-42 -97.5z" />
    <glyph glyph-name="nine_osf" horiz-adv-x="1088" 
d="M232 -211l296 454q-91 0 -174 30t-147.5 84t-102.5 137t-38 182q0 127 66.5 231t175.5 160.5t235 56.5q128 0 237.5 -57t176 -160.5t66.5 -230.5q0 -130 -67 -234l-425 -653h-299zM340 675q0 -87 60 -146.5t145 -59.5t144 59.5t59 146.5q0 88 -59 147.5t-144 59.5
t-145 -59.5t-60 -147.5z" />
    <glyph glyph-name="cent_osf" horiz-adv-x="1169" 
d="M765 1380v-161q190 -19 354 -145l-140 -207q-122 87 -214 106v-748q112 24 222 115l146 -206q-158 -135 -368 -156v-163h-172v169q-237 33 -390 205t-153 410q0 237 153 409t390 206v166h172zM328 599q0 -133 73.5 -234t191.5 -134v735q-118 -33 -191.5 -133.5
t-73.5 -233.5z" />
    <glyph glyph-name="sterling_osf" horiz-adv-x="1054" 
d="M796 453h-251q0 -123 -83 -213h501v-240h-838v225q67 35 105.5 93.5t38.5 126.5v8h-149v197h97q-57 120 -57 219q0 149 116 251.5t287 102.5q133 0 235.5 -68t147.5 -171l-228 -115q-47 113 -152 113q-57 0 -94 -33.5t-37 -85.5q0 -60 53 -172q10 -23 17 -41h291v-197z
" />
    <glyph glyph-name="yen_osf" horiz-adv-x="1172" 
d="M13 1198h305l269 -457l267 457h305l-338 -553h209v-148h-300l-5 -10v-51h305v-148h-305v-288h-278v288h-305v148h305v51l-6 10h-299v148h209z" />
    <glyph glyph-name="florin_osf" horiz-adv-x="752" 
d="M493 596v-495q0 -323 -375 -323q-65 0 -122 10v224q48 -6 99 -6q64 0 93 24.5t29 74.5v491h-136v241h136v48q0 323 375 323q65 0 122 -10v-224q-48 6 -100 6q-64 0 -92.5 -24.5t-28.5 -74.5v-44h221v-241h-221z" />
    <glyph glyph-name="Euro_osf" horiz-adv-x="1235" 
d="M759 -25q-217 0 -383.5 117t-229.5 308h-126v154h97q-1 14 -1 45v26h-96v152h120q58 198 227.5 322t391.5 124q231 0 424 -149l-135 -201q-156 113 -289 113q-108 0 -197.5 -57t-135.5 -152h427v-152h-466q-1 -9 -1 -26q0 -31 2 -45h465v-154h-417q49 -87 134.5 -137.5
t188.5 -50.5q76 0 155 33.5t142 88.5l141 -200q-189 -159 -438 -159z" />
    <glyph glyph-name="zero.tnum_osf" horiz-adv-x="1110" 
d="M98 550q0 260 121 417t336 157t336 -157t121 -417q0 -261 -121 -418t-336 -157t-336 157t-121 418zM376 550q0 -161 47 -248.5t132 -87.5t132 87.5t47 248.5q0 160 -47 248t-132 88t-132 -88t-47 -248z" />
    <glyph glyph-name="one.tnum_osf" horiz-adv-x="1110" 
d="M514 1100h245v-1100h-285v825l-210 -101l-102 206z" />
    </font>
</defs>
</svg>
