<?xml version="1.0" standalone="no"?>
<!DOCTYPE svg PUBLIC "-//W3C//DTD SVG 1.1//EN" "http://www.w3.org/Graphics/SVG/1.1/DTD/svg11.dtd" >
<svg xmlns="http://www.w3.org/2000/svg" xmlns:xlink="http://www.w3.org/1999/xlink" version="1.1">
<metadata>
Created by FontForge 20170731 at Fri Nov 27 17:03:29 2020
 By Aleksey,,,
Copyright (c) 2016 by S-Core Co., Ltd.. All rights reserved.
</metadata>
<defs>
<font id="CoreSansC-65BoldIt" horiz-adv-x="825" >
  <font-face 
    font-family="Core Sans C 65 Bold"
    font-weight="600"
    font-style="italic"
    font-stretch="normal"
    units-per-em="2048"
    panose-1="2 11 6 3 3 3 2 2 2 4"
    ascent="1638"
    descent="-410"
    x-height="1061"
    cap-height="1434"
    bbox="-873 -532 2544 1997"
    underline-thickness="49"
    underline-position="-472"
    unicode-range="U+0009-FB04"
  />
<missing-glyph horiz-adv-x="1024" 
d="M932 0h-799v1536h799v-1536zM364 219h337v1097h-337v-1097z" />
    <glyph glyph-name="ff" unicode="ff" horiz-adv-x="1508" 
d="M1650 1485l-43 -224q-47 5 -95 5q-86 0 -130.5 -36t-59.5 -112l-11 -57h257l-48 -245h-257l-158 -816h-282l158 816h-441l-158 -816h-282l158 816h-159l48 245h159l11 60q73 374 500 374q86 0 155 -15l-72 -227q-69 13 -112 13q-85 0 -129.5 -36t-59.5 -112l-11 -57h441
l11 60q73 374 490 374q56 0 120 -10z" />
    <glyph glyph-name="fi" unicode="fi" horiz-adv-x="1349" 
d="M306 1061l11 60q73 374 492 374q62 0 128 -10l-43 -224q-52 5 -101 5q-88 0 -133.5 -36t-60.5 -112l-11 -57h723l-206 -1061h-282l158 816h-441l-158 -816h-282l158 816h-159l48 245h159zM1059 1343q13 69 69.5 116t127.5 47q62 0 101 -36.5t39 -94.5q0 -15 -3 -32
q-13 -69 -70.5 -115.5t-128.5 -46.5q-62 0 -100 36.5t-38 93.5q0 15 3 32z" />
    <glyph glyph-name="fl" unicode="fl" horiz-adv-x="1338" 
d="M927 1485l-43 -224q-47 5 -94 5q-86 0 -131 -36t-60 -112l-11 -57h257l-48 -245h-257l-158 -816h-282l158 816h-159l48 245h159l11 60q73 374 490 374q56 0 120 -10zM813 0l290 1495h281l-289 -1495h-282z" />
    <glyph glyph-name="ffi" unicode="ffi" horiz-adv-x="2072" 
d="M306 1061l11 60q73 374 500 374q86 0 155 -15l-72 -227q-69 13 -112 13q-85 0 -129.5 -36t-59.5 -112l-11 -57h441l11 60q73 374 492 374q62 0 128 -10l-43 -224q-52 5 -101 5q-88 0 -133.5 -36t-60.5 -112l-11 -57h723l-206 -1061h-282l158 816h-441l-158 -816h-282
l158 816h-441l-158 -816h-282l158 816h-159l48 245h159zM1782 1343q13 69 69.5 116t127.5 47q62 0 101 -36.5t39 -94.5q0 -15 -3 -32q-13 -69 -70.5 -115.5t-128.5 -46.5q-62 0 -100 36.5t-38 93.5q0 15 3 32z" />
    <glyph glyph-name="ffl" unicode="ffl" horiz-adv-x="2061" 
d="M1650 1485l-43 -224q-47 5 -95 5q-86 0 -130.5 -36t-59.5 -112l-11 -57h257l-48 -245h-257l-158 -816h-282l158 816h-441l-158 -816h-282l158 816h-159l48 245h159l11 60q73 374 500 374q86 0 155 -15l-72 -227q-69 13 -112 13q-85 0 -129.5 -36t-59.5 -112l-11 -57h441
l11 60q73 374 490 374q56 0 120 -10zM1536 0l290 1495h281l-289 -1495h-282z" />
    <glyph glyph-name=".notdef" horiz-adv-x="1024" 
d="M932 0h-799v1536h799v-1536zM364 219h337v1097h-337v-1097z" />
    <glyph glyph-name=".null" horiz-adv-x="0" 
 />
    <glyph glyph-name=".null" horiz-adv-x="0" 
 />
    <glyph glyph-name="nonmarkingreturn" horiz-adv-x="682" 
 />
    <glyph glyph-name="CR" unicode="&#x9;" horiz-adv-x="0" 
 />
    <glyph glyph-name="space" unicode=" " horiz-adv-x="617" 
 />
    <glyph glyph-name="exclam" unicode="!" horiz-adv-x="641" 
d="M156 429l195 1005h291l-196 -1005h-290zM69 145q13 72 74 121t136 49q66 0 106.5 -38.5t40.5 -98.5q0 -16 -3 -33q-13 -72 -74 -121t-136 -49q-66 0 -106.5 39t-40.5 99q0 15 3 32z" />
    <glyph glyph-name="quotedbl" unicode="&#x22;" horiz-adv-x="1010" 
d="M238 854l112 580h279l-113 -580h-278zM622 854l112 580h279l-113 -580h-278z" />
    <glyph glyph-name="numbersign" unicode="#" horiz-adv-x="1420" 
d="M72 553h220l118 319h-200l44 226h238l123 336h269l-124 -336h252l124 336h268l-124 -336h183l-44 -226h-221l-118 -319h201l-43 -225h-239l-119 -328h-269l120 328h-252l-120 -328h-268l120 328h-182zM678 872l-118 -319h252l118 319h-252z" />
    <glyph glyph-name="dollar" unicode="$" horiz-adv-x="1222" 
d="M31 206l203 194q46 -63 109 -108t136 -62l78 398q-168 42 -254.5 127.5t-86.5 210.5q0 33 8 78q32 167 168.5 279.5t325.5 131.5l36 187h180l-37 -193q203 -33 323 -173l-197 -203q-89 92 -175 123l-69 -348q182 -48 268.5 -135.5t86.5 -215.5q0 -36 -10 -89
q-33 -170 -171 -286t-342 -140l-37 -191h-180l37 190q-129 14 -233.5 72.5t-166.5 152.5zM830 399q5 20 5 37q0 87 -108 139l-67 -338q68 20 113.5 62t56.5 100zM520 1066q-3 -16 -3 -34q0 -81 93 -128l59 299q-59 -15 -99.5 -51.5t-49.5 -85.5z" />
    <glyph glyph-name="percent" unicode="%" horiz-adv-x="1881" 
d="M342 0l1018 1434h253l-1017 -1434h-254zM441 1080q-3 -15 -3 -30q0 -50 31 -83.5t84 -33.5q62 0 109.5 43t59.5 104q3 15 3 31q0 50 -31 83.5t-84 33.5q-62 0 -109.5 -43.5t-59.5 -104.5zM194 1080q29 155 161 261.5t297 106.5q146 0 235.5 -84t89.5 -214q0 -28 -7 -70
q-30 -155 -162 -261t-298 -106q-145 0 -234.5 84t-89.5 213q0 30 8 70zM1233 353q-3 -15 -3 -30q0 -50 31 -83.5t84 -33.5q62 0 109 43t59 104q4 20 4 31q0 50 -31 83.5t-84 33.5q-62 0 -109.5 -43.5t-59.5 -104.5zM985 353q19 101 85.5 185.5t165.5 133.5t208 49
q146 0 235 -84t89 -214q0 -28 -7 -70q-30 -155 -161.5 -261t-297.5 -106q-145 0 -234.5 84t-89.5 213q0 35 7 70z" />
    <glyph glyph-name="ampersand" unicode="&#x26;" horiz-adv-x="1522" 
d="M1181 1198l-268 -100q-17 137 -140 137q-61 0 -110.5 -39t-59.5 -93q-3 -15 -3 -31q0 -47 31.5 -105t104.5 -143l273 -314q61 94 109 246l257 -38q-64 -226 -204 -401l275 -317h-367l-111 127q-214 -152 -457 -152q-197 0 -317.5 94.5t-120.5 244.5q0 28 7 70
q24 125 104.5 224t223.5 182q-85 124 -85 231q0 41 7 80q30 153 171 255t314 102q152 0 248 -69.5t118 -190.5zM556 208q137 0 264 93l-276 320q-160 -97 -183 -219q-3 -18 -3 -35q0 -70 53.5 -114.5t144.5 -44.5z" />
    <glyph glyph-name="quotesingle" unicode="'" horiz-adv-x="636" 
d="M240 854l112 580h285l-113 -580h-284z" />
    <glyph glyph-name="parenleft" unicode="(" horiz-adv-x="875" 
d="M240 624q53 273 202.5 522.5t367.5 432.5l170 -140q-174 -165 -290 -377t-160 -438q-24 -129 -24 -253q0 -322 157 -562l-224 -141q-110 137 -168 313t-58 374q0 124 27 269z" />
    <glyph glyph-name="parenright" unicode=")" horiz-adv-x="875" 
d="M673 624q-54 -274 -203.5 -523.5t-367.5 -432.5l-170 141q173 166 289.5 377.5t160.5 437.5q25 133 25 252q0 321 -157 563l223 140q110 -136 168 -313t58 -375q0 -128 -26 -267z" />
    <glyph glyph-name="asterisk" unicode="*" horiz-adv-x="1153" 
d="M140 807l117 206l232 -147l-11 274h238l-11 -274l232 147l117 -206l-245 -128l245 -128l-117 -206l-232 147l11 -274h-238l11 274l-232 -147l-117 206l245 128z" />
    <glyph glyph-name="plus" unicode="+" horiz-adv-x="1193" 
d="M478 210v347h-337v245h337v347h279v-347h337v-245h-337v-347h-279z" />
    <glyph glyph-name="comma" unicode="," horiz-adv-x="617" 
d="M60 145q14 72 73 121t133 49q65 0 105 -38t40 -98q0 -17 -3 -34q-6 -34 -34 -78l-213 -323h-180l157 243q-38 15 -59.5 48t-21.5 76q0 16 3 34z" />
    <glyph glyph-name="hyphen" unicode="-" horiz-adv-x="847" 
d="M731 550h-606l50 260h606z" />
    <glyph glyph-name="period" unicode="." horiz-adv-x="617" 
d="M60 145q14 72 73 121t133 49q65 0 105 -38t40 -98q0 -17 -3 -34q-14 -72 -73 -121t-134 -49q-65 0 -104.5 38.5t-39.5 98.5q0 16 3 33z" />
    <glyph glyph-name="slash" unicode="/" horiz-adv-x="979" 
d="M1181 1536l-1055 -1823h-289l1054 1823h290z" />
    <glyph glyph-name="zero" unicode="0" horiz-adv-x="1234" 
d="M151 717q31 160 88.5 294t138.5 234t189 156.5t231 56.5q192 0 289 -130.5t97 -356.5q0 -116 -26 -254q-31 -160 -89 -294.5t-139 -234.5t-189 -156.5t-231 -56.5q-192 0 -289 130.5t-97 356.5q0 112 27 255zM433 717q-26 -138 -26 -239q0 -244 153 -244q112 0 192 127.5
t124 355.5q26 136 26 236q0 245 -154 245q-113 0 -192 -127t-123 -354z" />
    <glyph glyph-name="one" unicode="1" horiz-adv-x="1234" 
d="M750 1434h257l-279 -1434h-288l225 1157l-257 -125l-73 201z" />
    <glyph glyph-name="two" unicode="2" horiz-adv-x="1234" 
d="M904 609l-401 -361h517l-48 -248h-887l45 232l580 522q90 80 133 141t55 127q4 19 4 41q0 65 -42.5 105t-113.5 40q-74 0 -134 -42.5t-113 -130.5l-226 92q72 150 210 240.5t315 90.5q180 0 289 -90t109 -244q0 -45 -8 -85q-23 -119 -90 -218t-194 -212z" />
    <glyph glyph-name="three" unicode="3" horiz-adv-x="1234" 
d="M493 222q104 0 186.5 69.5t102.5 169.5q5 25 5 46q0 83 -55.5 137t-146.5 54q-35 0 -71 -11l-84 139l378 360h-501l48 248h836l-48 -246l-343 -316q132 -27 203.5 -119t71.5 -224q0 -50 -10 -99q-17 -87 -70 -168.5t-131.5 -145.5t-185 -102.5t-221.5 -38.5
q-149 0 -258 63t-162 180l215 166q82 -162 241 -162z" />
    <glyph glyph-name="four" unicode="4" horiz-adv-x="1234" 
d="M23 260l48 246l799 928h276l-179 -921h153l-49 -253h-153l-51 -260h-282l50 260h-612zM348 511h335l98 502z" />
    <glyph glyph-name="five" unicode="5" horiz-adv-x="1234" 
d="M476 -25q-151 0 -261.5 61t-165.5 177l225 169q78 -159 234 -159q105 0 188.5 68.5t103.5 169.5q5 27 5 48q0 84 -56 137t-148 53q-56 0 -107.5 -22.5t-85.5 -59.5l-201 27l244 790h773l-48 -248h-516l-92 -293q67 31 150 31q165 0 272.5 -100t107.5 -265q0 -43 -11 -98
q-41 -214 -209 -350t-402 -136z" />
    <glyph glyph-name="six" unicode="6" horiz-adv-x="1234" 
d="M1116 1434l-430 -510q7 1 21 1q115 0 210 -40.5t155.5 -126t60.5 -202.5q0 -39 -10 -96q-27 -137 -121 -249.5t-224 -174t-266 -61.5q-189 0 -313.5 110t-124.5 284q0 43 9 91q26 139 121 253l608 721h304zM842 461q5 28 5 49q0 85 -55 139t-142 54q-100 0 -182.5 -69.5
t-102.5 -172.5q-6 -32 -6 -49q0 -85 55 -139t142 -54q100 0 183 70t103 172z" />
    <glyph glyph-name="seven" unicode="7" horiz-adv-x="1234" 
d="M342 1434h913l-45 -231l-730 -1203h-312l724 1183h-599z" />
    <glyph glyph-name="eight" unicode="8" horiz-adv-x="1234" 
d="M370 437q-4 -20 -4 -44q0 -78 52.5 -128.5t137.5 -50.5q97 0 176 65t98 158q5 23 5 42q0 79 -53.5 131t-138.5 52q-97 0 -176 -65.5t-97 -159.5zM1163 1065q-18 -89 -80 -166t-144 -115q85 -35 131 -109t46 -168q0 -35 -8 -78q-25 -127 -112 -231t-215.5 -163.5
t-270.5 -59.5q-191 0 -310.5 104t-119.5 267q0 37 8 83q24 120 105.5 216t200.5 139q-55 32 -87.5 91.5t-32.5 130.5q0 24 7 59q32 165 179 279t338 114q168 0 270 -90.5t102 -230.5q0 -37 -7 -72zM547 1057q-3 -15 -3 -31q0 -58 39.5 -97t103.5 -39q72 0 132.5 50t73.5 117
q3 15 3 30q0 58 -40 96.5t-104 38.5q-73 0 -132.5 -48.5t-72.5 -116.5z" />
    <glyph glyph-name="nine" unicode="9" horiz-adv-x="1234" 
d="M193 0l429 510q-7 -1 -21 -1q-115 0 -210 40.5t-155.5 126t-60.5 202.5q0 45 9 96q27 137 121.5 249.5t224.5 173.5t266 61q189 0 313.5 -109.5t124.5 -283.5q0 -43 -9 -91q-26 -139 -121 -253l-607 -721h-304zM466 973q-5 -28 -5 -49q0 -85 54.5 -139.5t141.5 -54.5
q100 0 183 70t103 173q5 27 5 49q0 85 -54.5 138.5t-141.5 53.5q-100 0 -183 -69.5t-103 -171.5z" />
    <glyph glyph-name="colon" unicode=":" horiz-adv-x="617" 
d="M210 915q14 72 73.5 121t133.5 49q65 0 104.5 -37.5t39.5 -96.5q0 -12 -4 -36q-14 -72 -73 -121t-134 -49q-64 0 -103.5 38.5t-39.5 98.5q0 16 3 33zM60 145q14 72 73 121t133 49q65 0 105 -38t40 -98q0 -17 -3 -34q-14 -72 -73 -121t-134 -49q-65 0 -104.5 38.5
t-39.5 98.5q0 16 3 33z" />
    <glyph glyph-name="semicolon" unicode=";" horiz-adv-x="617" 
d="M210 915q14 72 73.5 121t133.5 49q65 0 104.5 -37.5t39.5 -96.5q0 -12 -4 -36q-14 -72 -73 -121t-134 -49q-64 0 -103.5 38.5t-39.5 98.5q0 16 3 33zM60 145q14 72 73 121t133 49q65 0 105 -38t40 -98q0 -17 -3 -34q-6 -34 -34 -78l-213 -323h-180l157 243
q-38 15 -59.5 48t-21.5 76q0 16 3 34z" />
    <glyph glyph-name="less" unicode="&#x3c;" horiz-adv-x="1193" 
d="M143 586v186l917 503v-308l-561 -288l561 -288v-308z" />
    <glyph glyph-name="equal" unicode="=" horiz-adv-x="1193" 
d="M1094 792h-953v242h953v-242zM1094 325h-953v242h953v-242z" />
    <glyph glyph-name="greater" unicode="&#x3e;" horiz-adv-x="1193" 
d="M1092 772v-186l-917 -503v308l561 288l-561 288v308z" />
    <glyph glyph-name="question" unicode="?" horiz-adv-x="1135" 
d="M332 429l71 371q178 0 289.5 64.5t131.5 166.5q3 13 3 29q0 64 -57 104t-153 40q-138 0 -298 -115l-98 210q225 159 474 159q197 0 313.5 -101t116.5 -252q0 -38 -7 -73q-28 -146 -152.5 -260t-306.5 -152l-36 -191h-291zM245 145q13 72 74 121t136 49q66 0 106.5 -38.5
t40.5 -98.5q0 -16 -3 -33q-13 -72 -74 -121t-136 -49q-66 0 -106.5 39t-40.5 99q0 15 3 32z" />
    <glyph glyph-name="at" unicode="@" horiz-adv-x="1988" 
d="M946 317q65 0 123.5 34.5t97.5 91.5l41 215q-17 57 -62 91t-110 34q-94 0 -170.5 -66.5t-95.5 -165.5q-5 -28 -5 -50q0 -82 50 -133t131 -51zM1400 110q-78 0 -144.5 36.5t-95.5 95.5q-62 -62 -141.5 -97t-161.5 -35q-152 0 -243.5 98t-91.5 249q0 46 9 94
q36 183 178.5 312t315.5 129q143 0 228 -106l17 86h235l-117 -607q7 -24 30.5 -39t51.5 -15q81 0 152 77t98 216q13 67 13 119q0 235 -170 392t-428 157q-144 0 -285.5 -55.5t-255 -150t-195 -226t-110.5 -277.5q-14 -75 -14 -139q0 -250 168 -409.5t443 -159.5
q267 0 516 152l50 -171q-303 -168 -602 -168q-176 0 -323.5 53.5t-250 148t-159.5 228t-57 289.5q0 86 18 176q24 126 80 243.5t134.5 215.5t179 179.5t212 138t236.5 87.5t250 31q173 0 319 -52.5t246.5 -144.5t156.5 -220t56 -277q0 -68 -17 -162q-43 -223 -190.5 -357.5
t-340.5 -134.5z" />
    <glyph glyph-name="A" unicode="A" horiz-adv-x="1415" 
d="M723 1434h321l235 -1434h-308l-44 323h-518l-169 -323h-309zM898 560l-75 563l-294 -563h369z" />
    <glyph glyph-name="B" unicode="B" horiz-adv-x="1282" 
d="M665 0h-611l279 1434h539q171 0 264.5 -79.5t93.5 -218.5q0 -42 -9 -90q-20 -103 -81.5 -176.5t-147.5 -108.5q87 -25 139.5 -94.5t52.5 -170.5q0 -35 -8 -78q-36 -186 -176.5 -302t-334.5 -116zM934 1023q4 21 4 45q0 61 -36 93t-99 32h-232l-65 -339h231q74 0 127.5 44
t69.5 125zM887 431q5 28 5 50q0 66 -38 104t-103 38h-290l-75 -382h290q77 0 135.5 52t75.5 138z" />
    <glyph glyph-name="C" unicode="C" horiz-adv-x="1423" 
d="M740 -25q-188 0 -334.5 77t-225.5 212.5t-79 306.5q0 71 15 146q40 206 173.5 376t329 267.5t409.5 97.5q277 0 460 -166l-189 -216q-74 62 -148.5 95t-171.5 33q-200 0 -364 -139.5t-205 -347.5q-11 -55 -11 -102q0 -169 109 -277.5t282 -108.5q187 0 381 139l113 -214
q-252 -179 -544 -179z" />
    <glyph glyph-name="D" unicode="D" horiz-adv-x="1473" 
d="M333 1434h519q281 0 439 -145t158 -399q0 -88 -17 -173q-64 -328 -298 -522.5t-561 -194.5h-519zM792 1180h-219l-179 -926h218q131 0 237 49.5t182.5 155t106.5 258.5q13 68 13 129q0 165 -95 249.5t-264 84.5z" />
    <glyph glyph-name="E" unicode="E" horiz-adv-x="1173" 
d="M54 0l279 1434h893l-48 -248h-603l-66 -342h553l-48 -246h-553l-68 -350h621l-48 -248h-912z" />
    <glyph glyph-name="F" unicode="F" horiz-adv-x="1103" 
d="M54 0l279 1434h872l-49 -250h-582l-68 -354h532l-48 -249h-532l-113 -581h-291z" />
    <glyph glyph-name="G" unicode="G" horiz-adv-x="1492" 
d="M979 1204q-132 0 -253 -63.5t-205.5 -176t-111.5 -250.5q-11 -55 -11 -101q0 -170 108.5 -279.5t281.5 -109.5q128 0 237 60l54 275h-314l45 235h605l-123 -633q-119 -88 -262 -137t-290 -49q-188 0 -334.5 77t-225.5 212.5t-79 306.5q0 71 15 146q40 206 173.5 376
t329 267.5t409.5 97.5q277 0 460 -166l-189 -216q-74 62 -148.5 95t-171.5 33z" />
    <glyph glyph-name="H" unicode="H" horiz-adv-x="1447" 
d="M54 0l279 1434h291l-115 -588h553l115 588h290l-278 -1434h-291l115 595h-553l-115 -595h-291z" />
    <glyph glyph-name="I" unicode="I" horiz-adv-x="620" 
d="M341 1434h291l-279 -1434h-291z" />
    <glyph glyph-name="J" unicode="J" horiz-adv-x="952" 
d="M504 467l188 967h291l-190 -977q-47 -241 -190.5 -361.5t-373.5 -120.5q-80 0 -158 19.5t-131 52.5l131 240q83 -58 183 -58q203 0 250 238z" />
    <glyph glyph-name="K" unicode="K" horiz-adv-x="1268" 
d="M624 1434l-114 -585h82l474 585h320l-576 -707l377 -727h-327l-309 598h-90l-116 -598h-291l279 1434h291z" />
    <glyph glyph-name="L" unicode="L" horiz-adv-x="1062" 
d="M54 0l279 1434h291l-231 -1183h580l-48 -251h-871z" />
    <glyph glyph-name="M" unicode="M" horiz-adv-x="1759" 
d="M956 428h-192l-243 566l-192 -994h-275l279 1434h297l292 -689l560 689h297l-279 -1434h-274l192 994z" />
    <glyph glyph-name="N" unicode="N" horiz-adv-x="1447" 
d="M54 0l279 1434h295l378 -965l187 965h274l-278 -1434h-295l-378 965l-187 -965h-275z" />
    <glyph glyph-name="O" unicode="O" horiz-adv-x="1695" 
d="M410 717q-11 -55 -11 -102q0 -169 109 -277.5t282 -108.5q200 0 364.5 141t204.5 347q11 55 11 100q0 170 -108.5 278.5t-282.5 108.5q-200 0 -364.5 -140.5t-204.5 -346.5zM116 717q40 206 173.5 376t329 267.5t409.5 97.5q142 0 262 -45t202.5 -123.5t129 -189
t46.5 -239.5q0 -68 -14 -144q-40 -206 -174.5 -376.5t-330 -268t-409.5 -97.5q-188 0 -334.5 77t-225.5 212.5t-79 306.5q0 71 15 146z" />
    <glyph glyph-name="P" unicode="P" horiz-adv-x="1228" 
d="M657 500h-216l-96 -500h-291l279 1434h507q197 0 308.5 -98.5t111.5 -265.5q0 -46 -11 -103q-41 -210 -202.5 -338.5t-389.5 -128.5zM958 967q7 33 7 56q0 80 -50.5 125.5t-145.5 45.5h-192l-89 -455h193q111 0 183.5 61.5t93.5 166.5z" />
    <glyph glyph-name="Q" unicode="Q" horiz-adv-x="1695" 
d="M116 717q40 206 173.5 376t329 267.5t409.5 97.5q188 0 334.5 -77t225.5 -212.5t79 -306.5q0 -79 -13 -145q-28 -141 -101.5 -267t-181.5 -225l154 -215l-227 -171l-162 228q-194 -92 -396 -92q-188 0 -334.5 77t-225.5 212.5t-79 306.5q0 71 15 146zM410 717
q-11 -55 -11 -102q0 -169 109 -277.5t282 -108.5q101 0 201 40l-151 213l227 171l154 -217q105 119 139 281q10 51 10 100q0 170 -108.5 278.5t-282.5 108.5q-200 0 -364.5 -140.5t-204.5 -346.5z" />
    <glyph glyph-name="R" unicode="R" horiz-adv-x="1256" 
d="M333 1434h507q197 0 309 -97t112 -263q0 -45 -11 -102q-31 -161 -136 -274t-261 -157l243 -541h-318l-223 510h-114l-98 -510h-289zM770 1194h-196l-88 -452h196q111 0 183.5 61.5t92.5 164.5q7 33 7 56q0 79 -50.5 124.5t-144.5 45.5z" />
    <glyph glyph-name="S" unicode="S" horiz-adv-x="1222" 
d="M31 206l205 195q60 -80 142.5 -128.5t177.5 -48.5q101 0 177 45.5t94 124.5q6 26 6 41q0 64 -57.5 110t-194.5 77q-179 39 -272 127t-93 217q0 33 8 78q35 182 191 298t366 116q143 0 254.5 -47.5t184.5 -134.5l-198 -204q-132 139 -277 139q-85 0 -148 -40t-75 -105
q-3 -16 -3 -34q0 -61 55.5 -103.5t180.5 -72.5q195 -47 287 -135.5t92 -221.5q0 -38 -10 -91q-37 -192 -203 -312.5t-407 -120.5q-156 0 -283.5 61t-199.5 170z" />
    <glyph glyph-name="T" unicode="T" horiz-adv-x="1140" 
d="M323 0l229 1183h-369l49 251h1029l-50 -251h-368l-230 -1183h-290z" />
    <glyph glyph-name="U" unicode="U" horiz-adv-x="1372" 
d="M1403 1434l-183 -942q-29 -150 -125 -269t-231.5 -182.5t-284.5 -63.5q-199 0 -325 111.5t-126 296.5q0 54 10 107l184 942h290l-186 -955q-5 -30 -5 -53q0 -89 57.5 -142t149.5 -53q106 0 191 68.5t107 179.5l186 955h291z" />
    <glyph glyph-name="V" unicode="V" horiz-adv-x="1415" 
d="M515 1434l158 -1086l579 1086h306l-792 -1434h-322l-234 1434h305z" />
    <glyph glyph-name="W" unicode="W" horiz-adv-x="2017" 
d="M1041 1434h287l75 -1028l454 1028h303l-676 -1434h-292l-85 1037l-486 -1037h-292l-119 1434h303l52 -1028z" />
    <glyph glyph-name="X" unicode="X" horiz-adv-x="1316" 
d="M1189 0h-317l-214 528l-418 -528h-317l596 731l-297 703h317l198 -499l393 499h317l-571 -703z" />
    <glyph glyph-name="Y" unicode="Y" horiz-adv-x="1333" 
d="M523 1434l207 -580l432 580h314l-655 -856l-111 -578h-291l111 578l-320 856h313z" />
    <glyph glyph-name="Z" unicode="Z" horiz-adv-x="1249" 
d="M59 241l844 942h-630l50 251h976l-47 -241l-843 -942h681l-49 -251h-1028z" />
    <glyph glyph-name="bracketleft" unicode="[" horiz-adv-x="875" 
d="M58 -287l355 1823h619l-49 -251h-329l-256 -1321h329l-49 -251h-620z" />
    <glyph glyph-name="backslash" unicode="\" horiz-adv-x="979" 
d="M537 -287l-347 1823h290l346 -1823h-289z" />
    <glyph glyph-name="bracketright" unicode="]" horiz-adv-x="875" 
d="M854 1536l-354 -1823h-619l48 251h329l256 1321h-329l49 251h620z" />
    <glyph glyph-name="asciicircum" unicode="^" horiz-adv-x="1275" 
d="M520 1434h277l409 -637h-305l-243 386l-242 -386h-305z" />
    <glyph glyph-name="underscore" unicode="_" horiz-adv-x="1024" 
d="M-178 -392l45 229h1023l-45 -229h-1023z" />
    <glyph glyph-name="grave" unicode="`" horiz-adv-x="870" 
d="M577 1495l199 -350h-268l-214 350h283z" />
    <glyph glyph-name="a" unicode="a" horiz-adv-x="1346" 
d="M596 224q91 0 174 46t135 123l53 275q-22 77 -87 123t-156 46q-130 0 -235 -88.5t-131 -218.5q-6 -33 -6 -62q0 -107 70 -175.5t183 -68.5zM705 1085q200 0 310 -131l20 107h279l-206 -1061h-279l21 106q-160 -131 -362 -131q-195 0 -314 124.5t-119 315.5q0 55 12 115
q22 113 82 215t144.5 177t192 119t219.5 44z" />
    <glyph glyph-name="b" unicode="b" horiz-adv-x="1346" 
d="M632 224q130 0 234.5 88t130.5 218q7 38 7 63q0 107 -70 175.5t-183 68.5q-91 0 -174.5 -46t-135.5 -123l-53 -275q22 -77 87.5 -123t156.5 -46zM859 1085q195 0 313.5 -124t118.5 -315q0 -61 -11 -116q-22 -113 -82 -215t-144 -177t-191.5 -119t-219.5 -44
q-202 0 -310 131l-21 -106h-278l290 1495h278l-104 -541q158 131 361 131z" />
    <glyph glyph-name="c" unicode="c" horiz-adv-x="1137" 
d="M548 -25q-220 0 -356 126.5t-136 322.5q0 48 11 106q30 153 131 280.5t250.5 201t315.5 73.5q231 0 373 -142l-181 -210q-108 104 -239 104q-129 0 -234.5 -89t-131.5 -218q-6 -33 -6 -62q0 -107 70 -175.5t183 -68.5q138 0 287 112l119 -197q-203 -164 -456 -164z" />
    <glyph glyph-name="d" unicode="d" horiz-adv-x="1346" 
d="M596 224q91 0 174 46t135 123l53 275q-22 77 -87 123t-156 46q-130 0 -235 -88.5t-131 -218.5q-6 -33 -6 -62q0 -107 70 -175.5t183 -68.5zM705 1085q200 0 310 -131l104 541h279l-290 -1495h-279l21 106q-160 -131 -362 -131q-195 0 -314 124.5t-119 315.5q0 55 12 115
q22 113 82 215t144.5 177t192 119t219.5 44z" />
    <glyph glyph-name="e" unicode="e" horiz-adv-x="1265" 
d="M335 446v-8q0 -107 71 -172.5t188 -65.5q169 0 327 132l137 -164q-214 -193 -506 -193q-228 0 -362.5 125t-134.5 321q0 44 12 109q30 153 129.5 280.5t246.5 201t309 73.5q210 0 335.5 -121t125.5 -309q0 -53 -10 -106q-9 -49 -33 -103h-835zM706 861q-100 0 -189 -58.5
t-136 -155.5h551q-5 96 -65 155t-161 59z" />
    <glyph glyph-name="f" unicode="f" horiz-adv-x="785" 
d="M927 1485l-43 -224q-47 5 -94 5q-86 0 -131 -36t-60 -112l-11 -57h257l-48 -245h-257l-158 -816h-282l158 816h-159l48 245h159l11 60q73 374 490 374q56 0 120 -10z" />
    <glyph glyph-name="g" unicode="g" horiz-adv-x="1346" 
d="M905 393l53 275q-22 77 -87 123t-156 46q-130 0 -235 -88.5t-131 -218.5q-6 -33 -6 -62q0 -107 70 -175.5t183 -68.5q91 0 174 46t135 123zM1015 954l20 107h279l-195 -999q-47 -243 -224 -390t-444 -147q-150 0 -271 53.5t-194 150.5l197 185q120 -148 302 -148
q136 0 232 74t121 204l13 70q-157 -131 -362 -131q-196 0 -315 123t-119 312q0 45 12 112q22 113 82 215t144.5 177t192 119t219.5 44q200 0 310 -131z" />
    <glyph glyph-name="h" unicode="h" horiz-adv-x="1255" 
d="M450 690l-135 -690h-281l290 1495h281l-106 -551q67 64 153.5 102.5t171.5 38.5q162 0 256.5 -90t94.5 -243q0 -35 -11 -99l-127 -653h-281l121 626q5 27 5 47q0 73 -46 118.5t-129 45.5q-65 0 -136.5 -43.5t-120.5 -103.5z" />
    <glyph glyph-name="i" unicode="i" horiz-adv-x="565" 
d="M39 0l206 1061h281l-205 -1061h-282zM274 1343q13 69 70 116t128 47q62 0 100.5 -36.5t38.5 -94.5q0 -15 -3 -32q-13 -69 -70 -115.5t-128 -46.5q-62 0 -100.5 36.5t-38.5 93.5q0 15 3 32z" />
    <glyph glyph-name="j" unicode="j" horiz-adv-x="565" 
d="M20 -92l225 1153h281l-227 -1167q-36 -188 -143.5 -278.5t-289.5 -90.5q-57 0 -97 7l46 238h54q65 0 101 31.5t50 106.5zM274 1343q13 69 70 116t128 47q62 0 100.5 -36.5t38.5 -94.5q0 -15 -3 -32q-13 -69 -70 -115.5t-128 -46.5q-62 0 -100.5 36.5t-38.5 93.5
q0 15 3 32z" />
    <glyph glyph-name="k" unicode="k" horiz-adv-x="1098" 
d="M680 0l-187 464h-87l-91 -464h-281l290 1495h281l-153 -789h91l292 355h317l-404 -477l244 -584h-312z" />
    <glyph glyph-name="l" unicode="l" horiz-adv-x="565" 
d="M39 0l290 1495h281l-289 -1495h-282z" />
    <glyph glyph-name="m" unicode="m" horiz-adv-x="1928" 
d="M240 1061h281l-22 -117q63 63 145 101t167 38q112 0 192 -48t118 -134q72 83 177 133.5t209 50.5q157 0 248.5 -89.5t91.5 -239.5q0 -50 -10 -100l-127 -656h-282l122 628q5 27 5 49q0 71 -41.5 115.5t-115.5 44.5q-64 0 -132 -43t-123 -110q-4 -33 -11 -70l-119 -614
h-282l122 628q5 28 5 49q0 72 -42 116t-116 44q-64 0 -130.5 -42t-120.5 -108l-134 -687h-281z" />
    <glyph glyph-name="n" unicode="n" horiz-adv-x="1255" 
d="M450 690l-135 -690h-281l206 1061h281l-22 -117q67 64 153.5 102.5t171.5 38.5q162 0 256.5 -90t94.5 -243q0 -35 -11 -99l-127 -653h-281l121 626q5 27 5 47q0 73 -46 118.5t-129 45.5q-65 0 -136.5 -43.5t-120.5 -103.5z" />
    <glyph glyph-name="o" unicode="o" horiz-adv-x="1310" 
d="M67 530q30 153 131 280.5t250.5 201t315.5 73.5q221 0 355.5 -126t134.5 -322q0 -54 -10 -107q-30 -153 -130.5 -280.5t-250 -201t-315.5 -73.5q-220 0 -356 126.5t-136 322.5q0 48 11 106zM349 530q-6 -33 -6 -62q0 -107 70 -175.5t183 -68.5q130 0 235.5 88t131.5 218
q6 33 6 62q0 107 -70 176t-184 69q-129 0 -234.5 -89t-131.5 -218z" />
    <glyph glyph-name="p" unicode="p" horiz-adv-x="1346" 
d="M632 224q130 0 234.5 88t130.5 218q7 38 7 63q0 107 -70 175.5t-183 68.5q-91 0 -174.5 -46t-135.5 -123l-53 -275q22 -77 87.5 -123t156.5 -46zM859 1085q195 0 313.5 -124t118.5 -315q0 -61 -11 -116q-22 -113 -82 -215t-144 -177t-191.5 -119t-219.5 -44
q-202 0 -310 131l-114 -581h-278l299 1536h278l-20 -107q158 131 361 131z" />
    <glyph glyph-name="q" unicode="q" horiz-adv-x="1346" 
d="M596 224q91 0 174 46t135 123l53 275q-22 77 -87 123t-156 46q-130 0 -235 -88.5t-131 -218.5q-6 -33 -6 -62q0 -107 70 -175.5t183 -68.5zM705 1085q200 0 310 -131l20 107h279l-299 -1536h-279l114 581q-160 -131 -362 -131q-195 0 -314 124.5t-119 315.5q0 55 12 115
q22 113 82 215t144.5 177t192 119t219.5 44z" />
    <glyph glyph-name="r" unicode="r" horiz-adv-x="844" 
d="M725 837q-75 0 -149 -46t-132 -126l-129 -665h-281l206 1061h281l-25 -130q145 154 314 154q54 0 91 -22l-67 -247q-58 21 -109 21z" />
    <glyph glyph-name="s" unicode="s" horiz-adv-x="969" 
d="M-10 152l176 175q38 -58 102.5 -92t142.5 -34q73 0 119.5 28t56.5 77q2 14 2 22q0 39 -36.5 64.5t-123.5 43.5q-286 62 -286 272q0 28 8 68q27 135 149.5 222t293.5 87q106 0 196.5 -39t151.5 -105l-169 -176q-98 95 -199 95q-59 0 -100 -23.5t-49 -64.5q-2 -10 -2 -17
q0 -77 146 -109q299 -64 299 -273q0 -35 -7 -70q-28 -143 -157.5 -235.5t-315.5 -92.5q-132 0 -236.5 47t-161.5 130z" />
    <glyph glyph-name="t" unicode="t" horiz-adv-x="805" 
d="M546 816l-87 -448q-5 -28 -5 -47q0 -52 33 -76.5t105 -24.5q54 0 101 5l-45 -235q-75 -15 -149 -15q-336 0 -336 270q0 45 11 105l90 466h-165l48 245h165l56 282l285 25l-59 -307h250l-48 -245h-250z" />
    <glyph glyph-name="u" unicode="u" horiz-adv-x="1255" 
d="M807 371l134 690h282l-206 -1061h-282l23 117q-67 -64 -154 -103t-172 -39q-161 0 -255.5 90.5t-94.5 242.5q0 50 10 100l127 653h282l-122 -626q-4 -20 -4 -46q0 -73 45.5 -119t128.5 -46q65 0 137 43.5t121 103.5z" />
    <glyph glyph-name="v" unicode="v" horiz-adv-x="1099" 
d="M891 1061h293l-585 -1061h-303l-173 1061h293l97 -722z" />
    <glyph glyph-name="w" unicode="w" horiz-adv-x="1632" 
d="M778 1061h283l44 -710l323 710h288l-527 -1061h-291l-50 690l-319 -690h-290l-116 1061h288l47 -710z" />
    <glyph glyph-name="x" unicode="x" horiz-adv-x="1099" 
d="M978 0h-305l-156 360l-295 -360h-305l453 541l-220 520h305l132 -341l265 341h305l-423 -520z" />
    <glyph glyph-name="y" unicode="y" horiz-adv-x="1099" 
d="M321 -475h-294l279 475l-183 1061h293l98 -705l377 705h293z" />
    <glyph glyph-name="z" unicode="z" horiz-adv-x="1051" 
d="M-12 0l44 228l618 589h-477l47 244h819l-44 -228l-618 -589h524l-47 -244h-866z" />
    <glyph glyph-name="braceleft" unicode="{" horiz-adv-x="875" 
d="M128 500l49 250q90 0 149.5 46.5t76.5 131.5l53 271q28 143 151 240t282 97h143l-49 -251h-89q-58 0 -102 -36t-54 -93l-55 -287q-39 -195 -234 -244q145 -41 145 -182q0 -29 -6 -63l-57 -287q-3 -13 -3 -27q0 -46 30 -74t80 -28h89l-49 -251h-143q-139 0 -224 76.5
t-85 196.5q0 29 6 64l54 272q4 20 4 43q0 65 -42 100t-120 35z" />
    <glyph glyph-name="bar" unicode="|" horiz-adv-x="675" 
d="M223 -287v1823h271v-1823h-271z" />
    <glyph glyph-name="braceright" unicode="}" horiz-adv-x="875" 
d="M784 750l-49 -250q-90 0 -149.5 -46.5t-75.5 -131.5l-53 -272q-28 -143 -151 -240t-282 -97h-143l48 251h89q58 0 102 36t54 93l56 287q39 196 234 245q-146 41 -146 181q0 17 8 63l55 287q3 14 3 28q0 45 -29.5 73t-80.5 28h-89l49 251h144q139 0 223.5 -76t84.5 -196
q0 -30 -6 -65l-52 -271q-5 -27 -5 -45q0 -64 42 -98.5t119 -34.5z" />
    <glyph glyph-name="asciitilde" unicode="~" horiz-adv-x="1193" 
d="M594 543q-35 31 -54.5 47t-48 31.5t-50.5 15.5q-72 0 -97 -148l-265 59q27 166 106.5 255t207.5 89q141 0 248 -93q35 -31 54.5 -47t48 -31.5t50.5 -15.5q72 0 97 147l265 -58q-27 -166 -106.5 -255t-207.5 -89q-141 0 -248 93z" />
    <glyph glyph-name="uni00A0" unicode="&#xa0;" horiz-adv-x="617" 
 />
    <glyph glyph-name="exclamdown" unicode="&#xa1;" horiz-adv-x="641" 
d="M0 -373l195 1005h290l-194 -1005h-291zM218 915q13 72 74 121t136 49q67 0 107 -38t40 -99q0 -16 -3 -33q-13 -72 -74 -121t-136 -49q-66 0 -106.5 39t-40.5 99q0 15 3 32z" />
    <glyph glyph-name="cent" unicode="&#xa2;" horiz-adv-x="1137" 
d="M415 -188l32 172q-179 28 -285 148t-106 292q0 48 11 106q40 208 206.5 361.5t386.5 185.5l34 172h182l-33 -169q176 -20 294 -137l-181 -210q-76 73 -162 94l-116 -594q103 24 207 103l119 -197q-166 -136 -375 -158l-33 -169h-181zM351 530q-6 -33 -6 -62
q0 -81 41 -140.5t112 -86.5l112 578q-97 -32 -168 -110.5t-91 -178.5z" />
    <glyph glyph-name="sterling" unicode="&#xa3;" horiz-adv-x="1192" 
d="M313 554h-172l40 205h124q-31 108 -31 191q0 42 10 97q34 173 188 292t346 119q150 0 249.5 -74t124.5 -186l-269 -130q-26 136 -154 136q-70 0 -124 -47.5t-68 -118.5q-6 -34 -6 -53q0 -31 5.5 -67t15.5 -84.5t14 -74.5h332l-40 -205h-292q-39 -193 -187 -300h616
l-49 -254h-946l47 245q182 94 226 309z" />
    <glyph glyph-name="currency" unicode="&#xa4;" horiz-adv-x="1302" 
d="M189 668q0 127 72 237l-178 180l168 165l187 -187q106 54 234 54q127 0 233 -54l188 187l168 -165l-179 -180q72 -110 72 -237q0 -128 -72 -238l179 -180l-168 -165l-188 187q-106 -54 -233 -54q-128 0 -234 54l-187 -187l-168 165l178 180q-72 110 -72 238zM455 668
q0 -91 62.5 -154.5t154.5 -63.5t154.5 63.5t62.5 154.5t-62.5 154.5t-154.5 63.5t-154.5 -63.5t-62.5 -154.5z" />
    <glyph glyph-name="yen" unicode="&#xa5;" horiz-adv-x="1333" 
d="M162 510h355l13 68l-9 24h-341l30 154h254l-254 678h313l207 -580l432 580h314l-519 -678h254l-29 -154h-342l-19 -24l-13 -68h355l-29 -154h-356l-68 -356h-291l68 356h-355z" />
    <glyph glyph-name="brokenbar" unicode="&#xa6;" horiz-adv-x="675" 
d="M223 717v819h271v-819h-271zM223 -287v819h271v-819h-271z" />
    <glyph glyph-name="section" unicode="&#xa7;" horiz-adv-x="1046" 
d="M996 544q-19 -92 -81.5 -165.5t-158.5 -117.5q64 -72 64 -171q0 -29 -6 -62q-28 -142 -161 -238.5t-304 -96.5q-147 0 -241.5 73.5t-98.5 197.5l254 55q2 -50 36 -78.5t93 -28.5q62 0 109 33.5t57 84.5q2 14 2 21q0 59 -56 86l-244 118q-97 47 -148 121t-51 164
q0 20 8 66q18 92 80.5 165.5t158.5 117.5q-63 69 -63 170q0 30 6 63q28 143 161 239.5t303 96.5q147 0 241.5 -74t99.5 -198l-254 -56q-2 51 -36 79.5t-93 28.5q-62 0 -109.5 -33t-57.5 -84q-2 -10 -2 -20q0 -60 57 -87l244 -118q97 -48 147 -122.5t50 -165.5q0 -30 -6 -64z
M643 705l-127 61q-71 -5 -125 -50.5t-66 -109.5q-3 -14 -3 -28q0 -85 99 -133l126 -61q72 5 126 50t67 110q3 14 3 27q0 87 -100 134z" />
    <glyph glyph-name="dieresis" unicode="&#xa8;" horiz-adv-x="870" 
d="M242 1323q12 63 63.5 106.5t115.5 43.5q56 0 90.5 -33.5t34.5 -86.5q0 -15 -3 -30q-12 -63 -64.5 -106t-116.5 -43q-56 0 -89.5 33.5t-33.5 85.5q0 15 3 30zM637 1323q12 63 63.5 106.5t115.5 43.5q56 0 90.5 -33.5t34.5 -86.5q0 -15 -3 -30q-12 -63 -64 -106t-116 -43
q-56 0 -90 33.5t-34 85.5q0 15 3 30z" />
    <glyph glyph-name="copyright" unicode="&#xa9;" horiz-adv-x="1646" 
d="M882 307q-180 0 -302.5 118t-122.5 290t122.5 289.5t302.5 117.5q150 0 274 -95l-86 -167q-95 73 -188 73q-90 0 -150.5 -63t-60.5 -155q0 -93 60.5 -156t150.5 -63q102 0 194 79l90 -165q-120 -103 -284 -103zM102 717q0 153 58 290t157 236t236.5 157t290.5 58t290 -58
t236 -157t157 -236t58 -290t-58 -290.5t-157 -236.5t-236 -157t-290 -58t-290.5 58t-236.5 157t-157 236.5t-58 290.5zM238 717q0 -169 80.5 -310.5t220 -223t305.5 -81.5t305.5 81.5t220 223t80.5 310.5t-80.5 310.5t-220 222.5t-305.5 81t-305.5 -81t-220 -222.5
t-80.5 -310.5z" />
    <glyph glyph-name="ordfeminine" unicode="&#xaa;" horiz-adv-x="946" 
d="M537 879q54 0 100.5 26t77.5 66l35 180q-14 40 -51.5 66t-91.5 26q-77 0 -139.5 -52.5t-77.5 -129.5q-4 -17 -4 -38q0 -63 42 -103.5t109 -40.5zM659 688l14 69q-87 -85 -217 -85q-135 0 -219 85.5t-84 220.5q0 37 8 83q32 164 160.5 276.5t285.5 112.5q130 0 185 -85
l13 69h228l-145 -746h-229z" />
    <glyph glyph-name="guillemotleft" unicode="&#xab;" horiz-adv-x="1320" 
d="M103 568l28 140l661 362l-48 -241l-362 -191l288 -192l-46 -240zM623 568l27 140l661 362l-47 -241l-363 -191l288 -192l-46 -240z" />
    <glyph glyph-name="logicalnot" unicode="&#xac;" horiz-adv-x="1193" 
d="M815 230v327h-674v245h953v-572h-279z" />
    <glyph glyph-name="uni00AD" unicode="&#xad;" horiz-adv-x="847" 
d="M731 550h-606l50 260h606z" />
    <glyph glyph-name="registered" unicode="&#xae;" horiz-adv-x="1646" 
d="M102 717q0 153 58 290t157 236t236.5 157t290.5 58t290 -58t236 -157t157 -236t58 -290t-58 -290.5t-157 -236.5t-236 -157t-290 -58t-290.5 58t-236.5 157t-157 236.5t-58 290.5zM238 717q0 -169 80.5 -310.5t220 -223t305.5 -81.5t305.5 81.5t220 223t80.5 310.5
t-80.5 310.5t-220 222.5t-305.5 81t-305.5 -81t-220 -222.5t-80.5 -310.5zM579 1110h306q121 0 200.5 -73.5t79.5 -186.5q0 -79 -41.5 -141t-111.5 -92l174 -295h-214l-154 268h-45v-268h-194v788zM864 938h-91v-193h91q47 0 77 27.5t30 69.5t-30 69t-77 27z" />
    <glyph glyph-name="macron" unicode="&#xaf;" horiz-adv-x="870" 
d="M251 1213l41 211h635l-41 -211h-635z" />
    <glyph glyph-name="degree" unicode="&#xb0;" horiz-adv-x="823" 
d="M135 1175q0 120 85.5 201.5t211.5 81.5t211.5 -81.5t85.5 -201.5t-85.5 -202t-211.5 -82t-211.5 82t-85.5 202zM326 1175q0 -45 30 -76t76 -31t76.5 31t30.5 76t-30.5 75.5t-76.5 30.5t-76 -30.5t-30 -75.5z" />
    <glyph glyph-name="plusminus" unicode="&#xb1;" horiz-adv-x="1193" 
d="M1094 0h-953v243h953v-243zM478 333v331h-337v242h337v331h279v-331h337v-242h-337v-331h-279z" />
    <glyph glyph-name="twosuperior" unicode="&#xb2;" 
d="M664 871l-242 -215h327l-38 -193h-631l34 173l391 350q56 51 83 89t35 80q3 13 3 26q0 38 -23 60t-63 22q-43 0 -78 -28t-71 -93l-187 71q53 116 151.5 180.5t224.5 64.5q128 0 206 -63.5t78 -170.5q0 -29 -6 -59q-16 -81 -61.5 -148.5t-132.5 -145.5z" />
    <glyph glyph-name="threesuperior" unicode="&#xb3;" 
d="M559 775q3 15 3 29q0 50 -31.5 82t-83.5 32q-27 0 -56 -12l-68 110l236 224h-317l38 194h596l-35 -180l-215 -198q82 -25 126.5 -88t44.5 -149q0 -31 -6 -65q-25 -126 -146 -221t-281 -95q-106 0 -184.5 47t-113.5 131l175 136q61 -121 150 -121q60 0 108 41.5t60 102.5z
" />
    <glyph glyph-name="acute" unicode="&#xb4;" horiz-adv-x="870" 
d="M334 1145l335 350h282l-349 -350h-268z" />
    <glyph glyph-name="mu" unicode="&#xb5;" horiz-adv-x="1275" 
d="M-59 -475l299 1536h281l-133 -686q4 -68 53 -109.5t121 -41.5q68 0 142.5 46.5t124.5 112.5l133 678h281l-206 -1061h-281l22 120q-61 -65 -136.5 -105t-148.5 -40q-111 0 -166 86l-105 -536h-281z" />
    <glyph glyph-name="paragraph" unicode="&#xb6;" horiz-adv-x="1205" 
d="M595 549h-51q-192 0 -323.5 127.5t-131.5 314.5t131.5 315t323.5 128h520v-1702h-187v1519h-95v-1519h-187v817z" />
    <glyph glyph-name="periodcentered" unicode="&#xb7;" horiz-adv-x="617" 
d="M162 667q14 72 73 121t133 49q65 0 104.5 -38.5t39.5 -98.5q0 -16 -3 -33q-14 -72 -73 -121t-134 -49q-65 0 -104 38t-39 98q0 17 3 34z" />
    <glyph glyph-name="cedilla" unicode="&#xb8;" horiz-adv-x="870" 
d="M308 -315q4 13 4 22q0 28 -22.5 45t-61.5 17q-27 0 -61 -6l-38 54l133 183h203l-93 -110q67 -19 104.5 -63t37.5 -103q0 -17 -3 -35q-19 -95 -113 -158t-217 -63q-124 0 -193 63l106 121q41 -35 105 -35q40 0 70 19t39 49z" />
    <glyph glyph-name="onesuperior" unicode="&#xb9;" 
d="M560 1434h200l-190 -971h-235l144 742l-160 -79l-54 165z" />
    <glyph glyph-name="ordmasculine" unicode="&#xba;" horiz-adv-x="946" 
d="M164 1061q32 163 173.5 276t314.5 113q152 0 248 -89.5t96 -226.5q0 -38 -7 -73q-32 -163 -173.5 -276t-314.5 -113q-152 0 -248 89.5t-96 226.5q0 38 7 73zM395 1061q-4 -17 -4 -39q0 -63 41 -103t109 -40q78 0 140 52t77 130q4 17 4 39q0 64 -41.5 103.5t-109.5 39.5
q-78 0 -139.5 -52t-76.5 -130z" />
    <glyph glyph-name="guillemotright" unicode="&#xbb;" horiz-adv-x="1320" 
d="M1260 708l-28 -140l-660 -362l46 240l364 192l-289 191l47 241zM740 708l-27 -140l-660 -362l46 240l364 192l-289 191l47 241z" />
    <glyph glyph-name="onequarter" unicode="&#xbc;" horiz-adv-x="1986" 
d="M560 1434h200l-190 -971h-235l144 742l-160 -79l-54 165zM428 0l977 1434h228l-977 -1434h-228zM1126 171l34 176l543 624h216l-118 -606h101l-38 -194h-101l-33 -171h-228l34 171h-410zM1392 362h181l53 276z" />
    <glyph glyph-name="onehalf" unicode="&#xbd;" horiz-adv-x="1986" 
d="M560 1434h200l-190 -971h-235l144 742l-160 -79l-54 165zM428 0l977 1434h228l-977 -1434h-228zM1736 409l-242 -215h327l-38 -194h-631l34 173l391 350q56 51 83 89t35 80q3 14 3 26q0 38 -23 60t-63 22q-43 0 -78 -28t-71 -93l-187 72q53 116 151.5 180t224.5 64
q128 0 206 -63.5t78 -170.5q0 -29 -6 -59q-16 -81 -61.5 -148t-132.5 -145z" />
    <glyph glyph-name="threequarters" unicode="&#xbe;" horiz-adv-x="1986" 
d="M559 775q3 15 3 29q0 50 -31.5 82t-83.5 32q-27 0 -56 -12l-68 110l236 224h-317l38 194h596l-35 -180l-215 -198q82 -25 126.5 -88t44.5 -149q0 -31 -6 -65q-25 -126 -146 -221t-281 -95q-106 0 -184.5 47t-113.5 131l175 136q61 -121 150 -121q60 0 108 41.5t60 102.5z
M428 0l977 1434h228l-977 -1434h-228zM1126 171l34 176l543 624h216l-118 -606h101l-38 -194h-101l-33 -171h-228l34 171h-410zM1392 362h181l53 276z" />
    <glyph glyph-name="questiondown" unicode="&#xbf;" horiz-adv-x="1135" 
d="M804 632l-72 -371q-178 0 -289.5 -64.5t-131.5 -166.5q-3 -13 -3 -29q0 -65 57 -104.5t153 -39.5q139 0 298 115l98 -211q-224 -158 -474 -158q-197 0 -313.5 101t-116.5 252q0 38 7 73q28 146 152.5 260t306.5 152l37 191h291zM537 915q13 72 73.5 121t135.5 49
q66 0 107 -38.5t41 -98.5q0 -16 -3 -33q-13 -72 -74 -121t-136 -49q-66 0 -106.5 39t-40.5 99q0 15 3 32z" />
    <glyph glyph-name="Agrave" unicode="&#xc0;" horiz-adv-x="1415" 
d="M723 1434h321l235 -1434h-308l-44 323h-518l-169 -323h-309zM898 560l-75 563l-294 -563h369zM904 1894l200 -350h-268l-214 350h282z" />
    <glyph glyph-name="Aacute" unicode="&#xc1;" horiz-adv-x="1415" 
d="M723 1434h321l235 -1434h-308l-44 323h-518l-169 -323h-309zM898 560l-75 563l-294 -563h369zM703 1544l335 350h283l-349 -350h-269z" />
    <glyph glyph-name="Acircumflex" unicode="&#xc2;" horiz-adv-x="1415" 
d="M723 1434h321l235 -1434h-308l-44 323h-518l-169 -323h-309zM898 560l-75 563l-294 -563h369zM872 1894h201l232 -350h-267l-102 159l-164 -159h-266z" />
    <glyph glyph-name="Atilde" unicode="&#xc3;" horiz-adv-x="1415" 
d="M723 1434h321l235 -1434h-308l-44 323h-518l-169 -323h-309zM898 560l-75 563l-294 -563h369zM927 1597q-66 39 -91 39q-43 0 -77 -76l-216 45q89 232 257 232q70 0 140 -46q66 -39 92 -39q43 0 76 77l217 -45q-89 -233 -257 -233q-69 0 -141 46z" />
    <glyph glyph-name="Adieresis" unicode="&#xc4;" horiz-adv-x="1415" 
d="M723 1434h321l235 -1434h-308l-44 323h-518l-169 -323h-309zM898 560l-75 563l-294 -563h369zM588 1704q12 63 63.5 106t115.5 43q56 0 90.5 -33t34.5 -86q0 -15 -3 -30q-12 -63 -64 -106.5t-116 -43.5q-56 0 -90 34t-34 86q0 15 3 30zM983 1704q12 63 63.5 106t115.5 43
q56 0 90.5 -33t34.5 -86q0 -15 -3 -30q-12 -63 -64 -106.5t-116 -43.5q-56 0 -90 34t-34 86q0 15 3 30z" />
    <glyph glyph-name="Aring" unicode="&#xc5;" horiz-adv-x="1415" 
d="M723 1434h321l235 -1434h-308l-44 323h-518l-169 -323h-309zM898 560l-75 563l-294 -563h369zM871 1725q-1 -5 -1 -13q0 -24 15.5 -39t41.5 -15q30 0 53.5 19t28.5 48q1 5 1 14q0 24 -15.5 39t-41.5 15q-30 0 -53.5 -19.5t-28.5 -48.5zM709 1725q19 91 96.5 151.5
t176.5 60.5q87 0 140.5 -48t53.5 -123q0 -18 -5 -41q-17 -90 -95 -151t-177 -61q-87 0 -140.5 49t-53.5 125q0 18 4 38z" />
    <glyph glyph-name="AE" unicode="&#xc6;" horiz-adv-x="1909" 
d="M217 0h-317l1072 1434h990l-48 -248h-587l-66 -342h537l-48 -246h-538l-67 -350h605l-48 -248h-893l62 323h-420zM1026 1118l-406 -558h298z" />
    <glyph glyph-name="Ccedilla" unicode="&#xc7;" horiz-adv-x="1423" 
d="M702 -315q5 17 5 22q0 28 -22.5 45t-61.5 17q-28 0 -62 -6l-38 54l119 165q-245 28 -393 190t-148 399q0 71 15 146q40 206 173.5 376t329 267.5t409.5 97.5q277 0 460 -166l-189 -216q-74 62 -148.5 95t-171.5 33q-200 0 -364 -139.5t-205 -347.5q-11 -55 -11 -102
q0 -169 109 -277.5t282 -108.5q187 0 381 139l113 -214q-205 -145 -440 -172l-78 -92q67 -19 104.5 -63t37.5 -103q0 -17 -3 -35q-19 -95 -113 -158t-217 -63q-124 0 -193 63l106 121q41 -35 105 -35q40 0 70 19t39 49z" />
    <glyph glyph-name="Egrave" unicode="&#xc8;" horiz-adv-x="1173" 
d="M54 0l279 1434h893l-48 -248h-603l-66 -342h553l-48 -246h-553l-68 -350h621l-48 -248h-912zM773 1894l200 -350h-268l-215 350h283z" />
    <glyph glyph-name="Eacute" unicode="&#xc9;" horiz-adv-x="1173" 
d="M54 0l279 1434h893l-48 -248h-603l-66 -342h553l-48 -246h-553l-68 -350h621l-48 -248h-912zM621 1544l334 350h283l-349 -350h-268z" />
    <glyph glyph-name="Ecircumflex" unicode="&#xca;" horiz-adv-x="1173" 
d="M54 0l279 1434h893l-48 -248h-603l-66 -342h553l-48 -246h-553l-68 -350h621l-48 -248h-912zM768 1894h201l231 -350h-266l-103 159l-163 -159h-267z" />
    <glyph glyph-name="Edieresis" unicode="&#xcb;" horiz-adv-x="1173" 
d="M54 0l279 1434h893l-48 -248h-603l-66 -342h553l-48 -246h-553l-68 -350h621l-48 -248h-912zM487 1704q12 63 64 106t116 43q56 0 90.5 -33t34.5 -86q0 -10 -4 -30q-12 -63 -64 -106.5t-116 -43.5q-56 0 -90 34t-34 86q0 15 3 30zM883 1704q12 63 63.5 106t115.5 43
q56 0 90.5 -33t34.5 -86q0 -15 -3 -30q-12 -63 -64 -106.5t-116 -43.5q-56 0 -90 34t-34 86q0 15 3 30z" />
    <glyph glyph-name="Igrave" unicode="&#xcc;" horiz-adv-x="620" 
d="M341 1434h291l-279 -1434h-291zM505 1894l200 -350h-269l-214 350h283z" />
    <glyph glyph-name="Iacute" unicode="&#xcd;" horiz-adv-x="620" 
d="M341 1434h291l-279 -1434h-291zM311 1544l335 350h283l-349 -350h-269z" />
    <glyph glyph-name="Icircumflex" unicode="&#xce;" horiz-adv-x="620" 
d="M341 1434h291l-279 -1434h-291zM475 1894h201l231 -350h-266l-102 159l-164 -159h-266z" />
    <glyph glyph-name="Idieresis" unicode="&#xcf;" horiz-adv-x="620" 
d="M341 1434h291l-279 -1434h-291zM190 1704q12 63 64 106t116 43q56 0 90.5 -33t34.5 -86q0 -15 -3 -30q-12 -63 -64.5 -106.5t-116.5 -43.5q-56 0 -90 34t-34 86q0 15 3 30zM586 1704q12 63 63.5 106t115.5 43q56 0 90.5 -33t34.5 -86q0 -15 -3 -30q-12 -63 -64 -106.5
t-116 -43.5q-56 0 -90 34t-34 86q0 15 3 30z" />
    <glyph glyph-name="Eth" unicode="&#xd0;" horiz-adv-x="1508" 
d="M368 1434h519q281 0 439 -145t158 -399q0 -83 -18 -173q-64 -328 -297.5 -522.5t-560.5 -194.5h-519l120 621h-179l38 191h179zM762 621h-262l-71 -367h218q131 0 237 49.5t182 155t106 258.5q14 73 14 129q0 165 -95.5 249.5t-264.5 84.5h-218l-70 -368h262z" />
    <glyph glyph-name="Ntilde" unicode="&#xd1;" horiz-adv-x="1447" 
d="M54 0l279 1434h295l378 -965l187 965h274l-278 -1434h-295l-378 965l-187 -965h-275zM943 1597q-66 39 -91 39q-43 0 -77 -76l-216 45q89 232 257 232q70 0 140 -46q66 -39 93 -39q42 0 75 77l217 -45q-89 -233 -257 -233q-69 0 -141 46z" />
    <glyph glyph-name="Ograve" unicode="&#xd2;" horiz-adv-x="1695" 
d="M410 717q-11 -55 -11 -102q0 -169 109 -277.5t282 -108.5q200 0 364.5 141t204.5 347q11 55 11 100q0 170 -108.5 278.5t-282.5 108.5q-200 0 -364.5 -140.5t-204.5 -346.5zM116 717q40 206 173.5 376t329 267.5t409.5 97.5q142 0 262 -45t202.5 -123.5t129 -189
t46.5 -239.5q0 -68 -14 -144q-40 -206 -174.5 -376.5t-330 -268t-409.5 -97.5q-188 0 -334.5 77t-225.5 212.5t-79 306.5q0 71 15 146zM1032 1894l200 -350h-268l-214 350h282z" />
    <glyph glyph-name="Oacute" unicode="&#xd3;" horiz-adv-x="1695" 
d="M410 717q-11 -55 -11 -102q0 -169 109 -277.5t282 -108.5q200 0 364.5 141t204.5 347q11 55 11 100q0 170 -108.5 278.5t-282.5 108.5q-200 0 -364.5 -140.5t-204.5 -346.5zM116 717q40 206 173.5 376t329 267.5t409.5 97.5q142 0 262 -45t202.5 -123.5t129 -189
t46.5 -239.5q0 -68 -14 -144q-40 -206 -174.5 -376.5t-330 -268t-409.5 -97.5q-188 0 -334.5 77t-225.5 212.5t-79 306.5q0 71 15 146zM858 1544l335 350h283l-350 -350h-268z" />
    <glyph glyph-name="Ocircumflex" unicode="&#xd4;" horiz-adv-x="1695" 
d="M410 717q-11 -55 -11 -102q0 -169 109 -277.5t282 -108.5q200 0 364.5 141t204.5 347q11 55 11 100q0 170 -108.5 278.5t-282.5 108.5q-200 0 -364.5 -140.5t-204.5 -346.5zM116 717q40 206 173.5 376t329 267.5t409.5 97.5q142 0 262 -45t202.5 -123.5t129 -189
t46.5 -239.5q0 -68 -14 -144q-40 -206 -174.5 -376.5t-330 -268t-409.5 -97.5q-188 0 -334.5 77t-225.5 212.5t-79 306.5q0 71 15 146zM1013 1894h200l232 -350h-266l-103 159l-164 -159h-266z" />
    <glyph glyph-name="Otilde" unicode="&#xd5;" horiz-adv-x="1695" 
d="M410 717q-11 -55 -11 -102q0 -169 109 -277.5t282 -108.5q200 0 364.5 141t204.5 347q11 55 11 100q0 170 -108.5 278.5t-282.5 108.5q-200 0 -364.5 -140.5t-204.5 -346.5zM116 717q40 206 173.5 376t329 267.5t409.5 97.5q142 0 262 -45t202.5 -123.5t129 -189
t46.5 -239.5q0 -68 -14 -144q-40 -206 -174.5 -376.5t-330 -268t-409.5 -97.5q-188 0 -334.5 77t-225.5 212.5t-79 306.5q0 71 15 146zM1067 1597q-66 39 -91 39q-43 0 -77 -76l-216 45q89 232 257 232q70 0 140 -46q66 -39 92 -39q43 0 76 77l217 -45q-89 -233 -257 -233
q-69 0 -141 46z" />
    <glyph glyph-name="Odieresis" unicode="&#xd6;" horiz-adv-x="1695" 
d="M410 717q-11 -55 -11 -102q0 -169 109 -277.5t282 -108.5q200 0 364.5 141t204.5 347q11 55 11 100q0 170 -108.5 278.5t-282.5 108.5q-200 0 -364.5 -140.5t-204.5 -346.5zM116 717q40 206 173.5 376t329 267.5t409.5 97.5q142 0 262 -45t202.5 -123.5t129 -189
t46.5 -239.5q0 -68 -14 -144q-40 -206 -174.5 -376.5t-330 -268t-409.5 -97.5q-188 0 -334.5 77t-225.5 212.5t-79 306.5q0 71 15 146zM728 1704q12 63 63.5 106t115.5 43q56 0 90.5 -33t34.5 -86q0 -15 -3 -30q-12 -63 -64 -106.5t-116 -43.5q-56 0 -90 34t-34 86
q0 15 3 30zM1123 1704q12 63 64 106t116 43q56 0 90 -33t34 -86q0 -15 -3 -30q-12 -63 -64 -106.5t-116 -43.5q-56 0 -90 34t-34 86q0 15 3 30z" />
    <glyph glyph-name="multiply" unicode="&#xd7;" horiz-adv-x="1193" 
d="M901 1144l184 -185l-283 -284l283 -284l-184 -184l-284 283l-283 -283l-184 184l283 284l-283 284l184 185l283 -285z" />
    <glyph glyph-name="Oslash" unicode="&#xd8;" horiz-adv-x="1695" 
d="M116 717q40 206 173.5 376t329 267.5t409.5 97.5q204 0 361 -92l124 129h232l-227 -232q150 -163 150 -403q0 -67 -14 -143q-40 -206 -174.5 -376.5t-330 -268t-409.5 -97.5q-218 0 -379 103l-135 -139h-231l242 247q-136 158 -136 384q0 72 15 147zM1360 717q9 51 9 98
q0 131 -65 227l-736 -753q96 -60 222 -60q131 0 252.5 64t206 176t111.5 248zM410 717q-11 -57 -11 -103q0 -117 54 -206l729 746q-89 50 -203 50q-200 0 -364.5 -140.5t-204.5 -346.5z" />
    <glyph glyph-name="Ugrave" unicode="&#xd9;" horiz-adv-x="1372" 
d="M1403 1434l-183 -942q-29 -150 -125 -269t-231.5 -182.5t-284.5 -63.5q-199 0 -325 111.5t-126 296.5q0 54 10 107l184 942h290l-186 -955q-5 -30 -5 -53q0 -89 57.5 -142t149.5 -53q106 0 191 68.5t107 179.5l186 955h291zM862 1894l200 -350h-268l-214 350h282z" />
    <glyph glyph-name="Uacute" unicode="&#xda;" horiz-adv-x="1372" 
d="M1403 1434l-183 -942q-29 -150 -125 -269t-231.5 -182.5t-284.5 -63.5q-199 0 -325 111.5t-126 296.5q0 54 10 107l184 942h290l-186 -955q-5 -30 -5 -53q0 -89 57.5 -142t149.5 -53q106 0 191 68.5t107 179.5l186 955h291zM709 1544l334 350h283l-349 -350h-268z" />
    <glyph glyph-name="Ucircumflex" unicode="&#xdb;" horiz-adv-x="1372" 
d="M1403 1434l-183 -942q-29 -150 -125 -269t-231.5 -182.5t-284.5 -63.5q-199 0 -325 111.5t-126 296.5q0 54 10 107l184 942h290l-186 -955q-5 -30 -5 -53q0 -89 57.5 -142t149.5 -53q106 0 191 68.5t107 179.5l186 955h291zM851 1894h201l231 -350h-266l-103 159
l-163 -159h-267z" />
    <glyph glyph-name="Udieresis" unicode="&#xdc;" horiz-adv-x="1372" 
d="M1403 1434l-183 -942q-29 -150 -125 -269t-231.5 -182.5t-284.5 -63.5q-199 0 -325 111.5t-126 296.5q0 54 10 107l184 942h290l-186 -955q-5 -30 -5 -53q0 -89 57.5 -142t149.5 -53q106 0 191 68.5t107 179.5l186 955h291zM566 1704q12 63 63.5 106t115.5 43
q56 0 90.5 -33t34.5 -86q0 -15 -3 -30q-12 -63 -64 -106.5t-116 -43.5q-56 0 -90 34t-34 86q0 15 3 30zM962 1704q12 63 63.5 106t115.5 43q56 0 90.5 -33t34.5 -86q0 -15 -3 -30q-12 -63 -64.5 -106.5t-116.5 -43.5q-56 0 -90 34t-34 86q0 10 4 30z" />
    <glyph glyph-name="Yacute" unicode="&#xdd;" horiz-adv-x="1333" 
d="M523 1434l207 -580l432 580h314l-655 -856l-111 -578h-291l111 578l-320 856h313zM690 1544l335 350h283l-350 -350h-268z" />
    <glyph glyph-name="Thorn" unicode="&#xde;" horiz-adv-x="1228" 
d="M609 250h-216l-48 -250h-291l279 1434h291l-50 -250h217q197 0 308.5 -98.5t111.5 -266.5q0 -51 -10 -102q-41 -210 -202.5 -338.5t-389.5 -128.5zM910 717q6 28 6 56q0 80 -50 125.5t-145 45.5h-193l-89 -455h193q111 0 184 61.5t94 166.5z" />
    <glyph glyph-name="germandbls" unicode="&#xdf;" horiz-adv-x="1262" 
d="M43 0l203 1047q36 183 183.5 297t337.5 114q167 0 272.5 -88t105.5 -223q0 -31 -6 -64q-20 -100 -95.5 -183.5t-186.5 -124.5q139 -21 223.5 -108t84.5 -212q0 -28 -7 -70q-34 -174 -190.5 -292t-354.5 -118q-130 0 -219 52l107 238q62 -49 143 -49q82 0 146 51.5
t79 129.5q4 20 4 43q0 93 -81.5 147.5t-226.5 58.5l45 234q94 8 161 58t82 128q3 15 3 29q0 54 -37 88.5t-97 34.5q-69 0 -124 -46.5t-69 -121.5l-203 -1050h-283z" />
    <glyph glyph-name="agrave" unicode="&#xe0;" horiz-adv-x="1346" 
d="M596 224q91 0 174 46t135 123l53 275q-22 77 -87 123t-156 46q-130 0 -235 -88.5t-131 -218.5q-6 -33 -6 -62q0 -107 70 -175.5t183 -68.5zM705 1085q200 0 310 -131l20 107h279l-206 -1061h-279l21 106q-160 -131 -362 -131q-195 0 -314 124.5t-119 315.5q0 55 12 115
q22 113 82 215t144.5 177t192 119t219.5 44zM783 1563l200 -351h-268l-214 351h282z" />
    <glyph glyph-name="aacute" unicode="&#xe1;" horiz-adv-x="1346" 
d="M596 224q91 0 174 46t135 123l53 275q-22 77 -87 123t-156 46q-130 0 -235 -88.5t-131 -218.5q-6 -33 -6 -62q0 -107 70 -175.5t183 -68.5zM705 1085q200 0 310 -131l20 107h279l-206 -1061h-279l21 106q-160 -131 -362 -131q-195 0 -314 124.5t-119 315.5q0 55 12 115
q22 113 82 215t144.5 177t192 119t219.5 44zM580 1212l334 351h283l-349 -351h-268z" />
    <glyph glyph-name="acircumflex" unicode="&#xe2;" horiz-adv-x="1346" 
d="M596 224q91 0 174 46t135 123l53 275q-22 77 -87 123t-156 46q-130 0 -235 -88.5t-131 -218.5q-6 -33 -6 -62q0 -107 70 -175.5t183 -68.5zM705 1085q200 0 310 -131l20 107h279l-206 -1061h-279l21 106q-160 -131 -362 -131q-195 0 -314 124.5t-119 315.5q0 55 12 115
q22 113 82 215t144.5 177t192 119t219.5 44zM765 1563h201l231 -351h-266l-103 159l-163 -159h-267z" />
    <glyph glyph-name="atilde" unicode="&#xe3;" horiz-adv-x="1346" 
d="M596 224q91 0 174 46t135 123l53 275q-22 77 -87 123t-156 46q-130 0 -235 -88.5t-131 -218.5q-6 -33 -6 -62q0 -107 70 -175.5t183 -68.5zM705 1085q200 0 310 -131l20 107h279l-206 -1061h-279l21 106q-160 -131 -362 -131q-195 0 -314 124.5t-119 315.5q0 55 12 115
q22 113 82 215t144.5 177t192 119t219.5 44zM802 1264q-66 39 -91 39q-43 0 -77 -77l-216 45q89 232 257 232q70 0 140 -46q66 -39 92 -39q43 0 76 77l217 -45q-89 -232 -257 -232q-69 0 -141 46z" />
    <glyph glyph-name="adieresis" unicode="&#xe4;" horiz-adv-x="1346" 
d="M596 224q91 0 174 46t135 123l53 275q-22 77 -87 123t-156 46q-130 0 -235 -88.5t-131 -218.5q-6 -33 -6 -62q0 -107 70 -175.5t183 -68.5zM705 1085q200 0 310 -131l20 107h279l-206 -1061h-279l21 106q-160 -131 -362 -131q-195 0 -314 124.5t-119 315.5q0 55 12 115
q22 113 82 215t144.5 177t192 119t219.5 44zM459 1372q12 63 63.5 106.5t115.5 43.5q56 0 90.5 -33.5t34.5 -86.5q0 -15 -3 -30q-12 -63 -64 -106t-116 -43q-56 0 -90 33.5t-34 85.5q0 15 3 30zM854 1372q12 63 63.5 106.5t115.5 43.5q56 0 90.5 -33.5t34.5 -86.5
q0 -15 -3 -30q-12 -63 -64 -106t-116 -43q-56 0 -90 33.5t-34 85.5q0 15 3 30z" />
    <glyph glyph-name="aring" unicode="&#xe5;" horiz-adv-x="1346" 
d="M596 224q91 0 174 46t135 123l53 275q-22 77 -87 123t-156 46q-130 0 -235 -88.5t-131 -218.5q-6 -33 -6 -62q0 -107 70 -175.5t183 -68.5zM705 1085q200 0 310 -131l20 107h279l-206 -1061h-279l21 106q-160 -131 -362 -131q-195 0 -314 124.5t-119 315.5q0 55 12 115
q22 113 82 215t144.5 177t192 119t219.5 44zM744 1394q-1 -5 -1 -14q0 -24 15.5 -39t41.5 -15q30 0 53.5 19.5t28.5 48.5q1 5 1 13q0 24 -15.5 39t-41.5 15q-30 0 -53.5 -19t-28.5 -48zM582 1394q19 91 96.5 151.5t176.5 60.5q87 0 140.5 -48t53.5 -123q0 -18 -5 -41
q-17 -90 -95 -151t-177 -61q-87 0 -140.5 48.5t-53.5 124.5q0 19 4 39z" />
    <glyph glyph-name="ae" unicode="&#xe6;" horiz-adv-x="2087" 
d="M1993 446h-836v-8q0 -107 71 -172.5t188 -65.5q169 0 327 132l137 -164q-214 -193 -506 -193q-143 0 -252.5 55t-166.5 149q-88 -94 -216 -149t-267 -55q-199 0 -323.5 87t-124.5 220q0 27 5 52q19 95 98.5 173t198.5 122t251 44q86 0 167.5 -22.5t139.5 -59.5l6 34
q4 19 4 41q0 87 -69 141t-185 54q-91 0 -185.5 -33.5t-172.5 -89.5l-59 196q100 72 223 111.5t245 39.5q139 0 245 -54.5t158 -149.5q93 95 219.5 149.5t260.5 54.5q210 0 335.5 -121t125.5 -309q0 -48 -11 -106q-10 -57 -31 -103zM308 335q-2 -10 -2 -18q0 -53 64 -88
t166 -35q185 0 290 113l17 86q-86 81 -253 81q-111 0 -190.5 -40t-91.5 -99zM1528 861q-100 0 -189 -58.5t-136 -155.5h551q-5 96 -65 155t-161 59z" />
    <glyph glyph-name="ccedilla" unicode="&#xe7;" horiz-adv-x="1140" 
d="M502 -315q4 13 4 22q0 28 -22.5 45t-61.5 17q-28 0 -62 -6l-37 54l120 167q-178 29 -282.5 149t-104.5 291q0 48 11 106q30 153 131 280.5t250.5 201t315.5 73.5q231 0 373 -142l-181 -210q-108 104 -239 104q-129 0 -234.5 -89t-131.5 -218q-6 -33 -6 -62
q0 -107 70 -175.5t183 -68.5q138 0 287 112l119 -197q-160 -131 -361 -156l-78 -93q67 -19 105 -63t38 -103q0 -17 -3 -35q-19 -95 -113 -158t-217 -63q-125 0 -194 63l107 121q41 -35 104 -35q40 0 70.5 19t39.5 49z" />
    <glyph glyph-name="egrave" unicode="&#xe8;" horiz-adv-x="1265" 
d="M335 446v-8q0 -107 71 -172.5t188 -65.5q169 0 327 132l137 -164q-214 -193 -506 -193q-228 0 -362.5 125t-134.5 321q0 44 12 109q30 153 129.5 280.5t246.5 201t309 73.5q210 0 335.5 -121t125.5 -309q0 -53 -10 -106q-9 -49 -33 -103h-835zM706 861q-100 0 -189 -58.5
t-136 -155.5h551q-5 96 -65 155t-161 59zM767 1563l200 -351h-269l-214 351h283z" />
    <glyph glyph-name="eacute" unicode="&#xe9;" horiz-adv-x="1265" 
d="M335 446v-8q0 -107 71 -172.5t188 -65.5q169 0 327 132l137 -164q-214 -193 -506 -193q-228 0 -362.5 125t-134.5 321q0 44 12 109q30 153 129.5 280.5t246.5 201t309 73.5q210 0 335.5 -121t125.5 -309q0 -53 -10 -106q-9 -49 -33 -103h-835zM706 861q-100 0 -189 -58.5
t-136 -155.5h551q-5 96 -65 155t-161 59zM569 1212l335 351h283l-349 -351h-269z" />
    <glyph glyph-name="ecircumflex" unicode="&#xea;" horiz-adv-x="1265" 
d="M335 446v-8q0 -107 71 -172.5t188 -65.5q169 0 327 132l137 -164q-214 -193 -506 -193q-228 0 -362.5 125t-134.5 321q0 44 12 109q30 153 129.5 280.5t246.5 201t309 73.5q210 0 335.5 -121t125.5 -309q0 -53 -10 -106q-9 -49 -33 -103h-835zM706 861q-100 0 -189 -58.5
t-136 -155.5h551q-5 96 -65 155t-161 59zM733 1563h201l231 -351h-266l-102 159l-164 -159h-266z" />
    <glyph glyph-name="edieresis" unicode="&#xeb;" horiz-adv-x="1265" 
d="M335 446v-8q0 -107 71 -172.5t188 -65.5q169 0 327 132l137 -164q-214 -193 -506 -193q-228 0 -362.5 125t-134.5 321q0 44 12 109q30 153 129.5 280.5t246.5 201t309 73.5q210 0 335.5 -121t125.5 -309q0 -53 -10 -106q-9 -49 -33 -103h-835zM706 861q-100 0 -189 -58.5
t-136 -155.5h551q-5 96 -65 155t-161 59zM449 1372q12 63 63.5 106.5t115.5 43.5q56 0 90.5 -33.5t34.5 -86.5q0 -15 -3 -30q-12 -63 -64.5 -106t-116.5 -43q-56 0 -90 33.5t-34 85.5q0 10 4 30zM844 1372q12 63 63.5 106.5t115.5 43.5q56 0 90.5 -33.5t34.5 -86.5
q0 -15 -3 -30q-12 -63 -64 -106t-116 -43q-56 0 -90 33.5t-34 85.5q0 15 3 30z" />
    <glyph glyph-name="igrave" unicode="&#xec;" horiz-adv-x="565" 
d="M39 0l206 1061h281l-205 -1061h-282zM401 1563l200 -351h-268l-214 351h282z" />
    <glyph glyph-name="iacute" unicode="&#xed;" horiz-adv-x="565" 
d="M39 0l206 1061h281l-205 -1061h-282zM230 1212l335 351h283l-349 -351h-269z" />
    <glyph glyph-name="icircumflex" unicode="&#xee;" horiz-adv-x="565" 
d="M39 0l206 1061h281l-205 -1061h-282zM382 1563h201l231 -351h-266l-103 159l-163 -159h-267z" />
    <glyph glyph-name="idieresis" unicode="&#xef;" horiz-adv-x="565" 
d="M39 0l206 1061h281l-205 -1061h-282zM98 1372q12 63 64 106.5t116 43.5q56 0 90 -33.5t34 -86.5q0 -15 -3 -30q-12 -63 -64 -106t-116 -43q-56 0 -90 33.5t-34 85.5q0 15 3 30zM494 1372q12 63 63.5 106.5t115.5 43.5q56 0 90.5 -33.5t34.5 -86.5q0 -15 -3 -30
q-12 -63 -64.5 -106t-116.5 -43q-56 0 -90 33.5t-34 85.5q0 10 4 30z" />
    <glyph glyph-name="eth" unicode="&#xf0;" horiz-adv-x="1277" 
d="M430 1038l-45 140l215 93q-65 45 -167 93l251 131q97 -48 177 -110l229 100l44 -143l-153 -66q111 -122 171.5 -274t60.5 -318q0 -84 -17 -174q-44 -226 -236.5 -380.5t-433.5 -154.5q-211 0 -343 120t-132 307q0 50 9 98q27 142 126.5 262.5t234 187t269.5 66.5
q116 0 186 -54q-52 112 -146 205zM344 506q-6 -33 -6 -57q0 -98 66.5 -161.5t172.5 -63.5q121 0 220 81.5t123 200.5q5 24 5 55q0 100 -66.5 163.5t-172.5 63.5q-122 0 -220.5 -81t-121.5 -201z" />
    <glyph glyph-name="ntilde" unicode="&#xf1;" horiz-adv-x="1255" 
d="M450 690l-135 -690h-281l206 1061h281l-22 -117q67 64 153.5 102.5t171.5 38.5q162 0 256.5 -90t94.5 -243q0 -35 -11 -99l-127 -653h-281l121 626q5 27 5 47q0 73 -46 118.5t-129 45.5q-65 0 -136.5 -43.5t-120.5 -103.5zM793 1264q-66 39 -92 39q-42 0 -76 -77l-216 45
q89 232 257 232q70 0 140 -46q66 -39 92 -39q43 0 76 77l217 -45q-89 -232 -257 -232q-69 0 -141 46z" />
    <glyph glyph-name="ograve" unicode="&#xf2;" horiz-adv-x="1310" 
d="M67 530q30 153 131 280.5t250.5 201t315.5 73.5q221 0 355.5 -126t134.5 -322q0 -54 -10 -107q-30 -153 -130.5 -280.5t-250 -201t-315.5 -73.5q-220 0 -356 126.5t-136 322.5q0 48 11 106zM349 530q-6 -33 -6 -62q0 -107 70 -175.5t183 -68.5q130 0 235.5 88t131.5 218
q6 33 6 62q0 107 -70 176t-184 69q-129 0 -234.5 -89t-131.5 -218zM774 1563l200 -351h-268l-214 351h282z" />
    <glyph glyph-name="oacute" unicode="&#xf3;" horiz-adv-x="1310" 
d="M67 530q30 153 131 280.5t250.5 201t315.5 73.5q221 0 355.5 -126t134.5 -322q0 -54 -10 -107q-30 -153 -130.5 -280.5t-250 -201t-315.5 -73.5q-220 0 -356 126.5t-136 322.5q0 48 11 106zM349 530q-6 -33 -6 -62q0 -107 70 -175.5t183 -68.5q130 0 235.5 88t131.5 218
q6 33 6 62q0 107 -70 176t-184 69q-129 0 -234.5 -89t-131.5 -218zM607 1212l335 351h283l-349 -351h-269z" />
    <glyph glyph-name="ocircumflex" unicode="&#xf4;" horiz-adv-x="1310" 
d="M67 530q30 153 131 280.5t250.5 201t315.5 73.5q221 0 355.5 -126t134.5 -322q0 -54 -10 -107q-30 -153 -130.5 -280.5t-250 -201t-315.5 -73.5q-220 0 -356 126.5t-136 322.5q0 48 11 106zM349 530q-6 -33 -6 -62q0 -107 70 -175.5t183 -68.5q130 0 235.5 88t131.5 218
q6 33 6 62q0 107 -70 176t-184 69q-129 0 -234.5 -89t-131.5 -218zM756 1563h200l232 -351h-266l-103 159l-164 -159h-266z" />
    <glyph glyph-name="otilde" unicode="&#xf5;" horiz-adv-x="1310" 
d="M67 530q30 153 131 280.5t250.5 201t315.5 73.5q221 0 355.5 -126t134.5 -322q0 -54 -10 -107q-30 -153 -130.5 -280.5t-250 -201t-315.5 -73.5q-220 0 -356 126.5t-136 322.5q0 48 11 106zM349 530q-6 -33 -6 -62q0 -107 70 -175.5t183 -68.5q130 0 235.5 88t131.5 218
q6 33 6 62q0 107 -70 176t-184 69q-129 0 -234.5 -89t-131.5 -218zM810 1264q-66 39 -91 39q-43 0 -77 -77l-216 45q89 232 257 232q70 0 140 -46q66 -39 92 -39q43 0 76 77l217 -45q-89 -232 -257 -232q-69 0 -141 46z" />
    <glyph glyph-name="odieresis" unicode="&#xf6;" horiz-adv-x="1310" 
d="M67 530q30 153 131 280.5t250.5 201t315.5 73.5q221 0 355.5 -126t134.5 -322q0 -54 -10 -107q-30 -153 -130.5 -280.5t-250 -201t-315.5 -73.5q-220 0 -356 126.5t-136 322.5q0 48 11 106zM349 530q-6 -33 -6 -62q0 -107 70 -175.5t183 -68.5q130 0 235.5 88t131.5 218
q6 33 6 62q0 107 -70 176t-184 69q-129 0 -234.5 -89t-131.5 -218zM471 1372q12 63 63.5 106.5t115.5 43.5q56 0 90.5 -33.5t34.5 -86.5q0 -15 -3 -30q-12 -63 -64 -106t-116 -43q-56 0 -90 33.5t-34 85.5q0 15 3 30zM866 1372q12 63 64 106.5t116 43.5q56 0 90 -33.5
t34 -86.5q0 -15 -3 -30q-12 -63 -64 -106t-116 -43q-56 0 -90 33.5t-34 85.5q0 15 3 30z" />
    <glyph glyph-name="divide" unicode="&#xf7;" horiz-adv-x="1193" 
d="M1094 558h-953v243h953v-243zM450 1079q0 71 48 119t119 48t119.5 -48t48.5 -119t-48.5 -119t-119.5 -48t-119 48t-48 119zM450 280q0 71 48 118.5t119 47.5t119.5 -48t48.5 -118q0 -71 -48.5 -119t-119.5 -48t-119 48t-48 119z" />
    <glyph glyph-name="oslash" unicode="&#xf8;" horiz-adv-x="1310" 
d="M67 530q30 153 131 280.5t250.5 201t315.5 73.5q149 0 264 -62l97 99h218l-192 -196q103 -117 103 -289q0 -54 -10 -107q-30 -153 -130.5 -280.5t-250 -201t-315.5 -73.5q-150 0 -265 63l-99 -99h-218l193 196q-103 120 -103 288q0 49 11 107zM975 530q6 33 6 63
q0 68 -32 127l-474 -484q57 -25 119 -25q135 0 245 92.5t136 226.5zM336 530q-6 -35 -6 -64q0 -70 29 -125l475 483q-57 25 -116 25q-134 0 -245 -92.5t-137 -226.5z" />
    <glyph glyph-name="ugrave" unicode="&#xf9;" horiz-adv-x="1255" 
d="M807 371l134 690h282l-206 -1061h-282l23 117q-67 -64 -154 -103t-172 -39q-161 0 -255.5 90.5t-94.5 242.5q0 50 10 100l127 653h282l-122 -626q-4 -20 -4 -46q0 -73 45.5 -119t128.5 -46q65 0 137 43.5t121 103.5zM720 1563l200 -351h-269l-214 351h283z" />
    <glyph glyph-name="uacute" unicode="&#xfa;" horiz-adv-x="1255" 
d="M807 371l134 690h282l-206 -1061h-282l23 117q-67 -64 -154 -103t-172 -39q-161 0 -255.5 90.5t-94.5 242.5q0 50 10 100l127 653h282l-122 -626q-4 -20 -4 -46q0 -73 45.5 -119t128.5 -46q65 0 137 43.5t121 103.5zM573 1212l335 351h283l-349 -351h-269z" />
    <glyph glyph-name="ucircumflex" unicode="&#xfb;" horiz-adv-x="1255" 
d="M807 371l134 690h282l-206 -1061h-282l23 117q-67 -64 -154 -103t-172 -39q-161 0 -255.5 90.5t-94.5 242.5q0 50 10 100l127 653h282l-122 -626q-4 -20 -4 -46q0 -73 45.5 -119t128.5 -46q65 0 137 43.5t121 103.5zM718 1563h201l231 -351h-266l-103 159l-164 -159h-266
z" />
    <glyph glyph-name="udieresis" unicode="&#xfc;" horiz-adv-x="1255" 
d="M807 371l134 690h282l-206 -1061h-282l23 117q-67 -64 -154 -103t-172 -39q-161 0 -255.5 90.5t-94.5 242.5q0 50 10 100l127 653h282l-122 -626q-4 -20 -4 -46q0 -73 45.5 -119t128.5 -46q65 0 137 43.5t121 103.5zM433 1372q12 63 63.5 106.5t115.5 43.5
q56 0 90.5 -33.5t34.5 -86.5q0 -15 -3 -30q-12 -63 -64 -106t-116 -43q-56 0 -90 33.5t-34 85.5q0 15 3 30zM828 1372q12 63 64 106.5t116 43.5q56 0 90.5 -33.5t34.5 -86.5q0 -10 -4 -30q-12 -63 -64 -106t-116 -43q-56 0 -90 33.5t-34 85.5q0 15 3 30z" />
    <glyph glyph-name="yacute" unicode="&#xfd;" horiz-adv-x="1099" 
d="M321 -475h-294l279 475l-183 1061h293l98 -705l377 705h293zM500 1212l335 351h282l-349 -351h-268z" />
    <glyph glyph-name="thorn" unicode="&#xfe;" horiz-adv-x="1346" 
d="M632 224q130 0 234.5 88t130.5 218q7 38 7 63q0 107 -70 175.5t-183 68.5q-91 0 -174.5 -46t-135.5 -123l-53 -275q22 -77 87.5 -123t156.5 -46zM859 1085q195 0 313.5 -124t118.5 -315q0 -61 -11 -116q-22 -113 -82 -215t-144 -177t-191.5 -119t-219.5 -44
q-202 0 -310 131l-114 -581h-278l383 1970h278l-104 -541q158 131 361 131z" />
    <glyph glyph-name="ydieresis" unicode="&#xff;" horiz-adv-x="1099" 
d="M321 -475h-294l279 475l-183 1061h293l98 -705l377 705h293zM365 1372q12 63 63.5 106.5t115.5 43.5q56 0 90.5 -33.5t34.5 -86.5q0 -15 -3 -30q-12 -63 -64.5 -106t-116.5 -43q-56 0 -90 33.5t-34 85.5q0 10 4 30zM760 1372q12 63 63.5 106.5t115.5 43.5
q56 0 90.5 -33.5t34.5 -86.5q0 -15 -3 -30q-12 -63 -64 -106t-116 -43q-56 0 -90 33.5t-34 85.5q0 15 3 30z" />
    <glyph glyph-name="Amacron" unicode="&#x100;" horiz-adv-x="1415" 
d="M723 1434h321l235 -1434h-308l-44 323h-518l-169 -323h-309zM898 560l-75 563l-294 -563h369zM597 1593l41 211h635l-41 -211h-635z" />
    <glyph glyph-name="amacron" unicode="&#x101;" horiz-adv-x="1346" 
d="M596 224q91 0 174 46t135 123l53 275q-22 77 -87 123t-156 46q-130 0 -235 -88.5t-131 -218.5q-6 -33 -6 -62q0 -107 70 -175.5t183 -68.5zM705 1085q200 0 310 -131l20 107h279l-206 -1061h-279l21 106q-160 -131 -362 -131q-195 0 -314 124.5t-119 315.5q0 55 12 115
q22 113 82 215t144.5 177t192 119t219.5 44zM476 1262l41 211h635l-41 -211h-635z" />
    <glyph glyph-name="Abreve" unicode="&#x102;" horiz-adv-x="1415" 
d="M723 1434h321l235 -1434h-308l-44 323h-518l-169 -323h-309zM898 560l-75 563l-294 -563h369zM901 1524q-131 0 -217 75.5t-86 196.5q0 19 4 49h235q-2 -14 -2 -25q0 -47 28.5 -77t74.5 -30q53 0 97 37.5t56 94.5h234q-33 -139 -156.5 -230t-267.5 -91z" />
    <glyph glyph-name="abreve" unicode="&#x103;" horiz-adv-x="1346" 
d="M596 224q91 0 174 46t135 123l53 275q-22 77 -87 123t-156 46q-130 0 -235 -88.5t-131 -218.5q-6 -33 -6 -62q0 -107 70 -175.5t183 -68.5zM705 1085q200 0 310 -131l20 107h279l-206 -1061h-279l21 106q-160 -131 -362 -131q-195 0 -314 124.5t-119 315.5q0 55 12 115
q22 113 82 215t144.5 177t192 119t219.5 44zM780 1192q-131 0 -217 75.5t-86 196.5q0 19 4 49h235q-2 -14 -2 -25q0 -47 28.5 -77t74.5 -30q53 0 97 37.5t56 94.5h234q-33 -139 -156.5 -230t-267.5 -91z" />
    <glyph glyph-name="Aogonek" unicode="&#x104;" horiz-adv-x="1415" 
d="M1089 0h-118l-44 323h-518l-169 -323h-309l792 1434h321l235 -1434q-188 -132 -206 -225q-2 -10 -2 -19q0 -31 21 -49.5t55 -18.5q45 0 83 22l31 -131q-81 -48 -186 -48q-96 0 -156 49.5t-60 126.5q0 16 4 37q12 68 73 134.5t153 121.5zM898 560l-75 563l-294 -563h369z
" />
    <glyph glyph-name="aogonek" unicode="&#x105;" horiz-adv-x="1346" 
d="M918 0h-89l21 106q-160 -131 -362 -131q-195 0 -314 124.5t-119 315.5q0 55 12 115q22 113 82 215t144.5 177t192 119t219.5 44q200 0 310 -131l20 107h279l-206 -1061q-188 -132 -206 -225q-2 -10 -2 -19q0 -31 21 -49.5t55 -18.5q45 0 83 22l31 -131q-81 -48 -186 -48
q-96 0 -156 49.5t-60 126.5q0 16 4 37q12 68 73 134.5t153 121.5zM596 224q91 0 174 46t135 123l53 275q-22 77 -87 123t-156 46q-130 0 -235 -88.5t-131 -218.5q-6 -33 -6 -62q0 -107 70 -175.5t183 -68.5z" />
    <glyph glyph-name="Cacute" unicode="&#x106;" horiz-adv-x="1423" 
d="M740 -25q-188 0 -334.5 77t-225.5 212.5t-79 306.5q0 71 15 146q40 206 173.5 376t329 267.5t409.5 97.5q277 0 460 -166l-189 -216q-74 62 -148.5 95t-171.5 33q-200 0 -364 -139.5t-205 -347.5q-11 -55 -11 -102q0 -169 109 -277.5t282 -108.5q187 0 381 139l113 -214
q-252 -179 -544 -179zM799 1544l335 350h282l-349 -350h-268z" />
    <glyph glyph-name="cacute" unicode="&#x107;" horiz-adv-x="1137" 
d="M548 -25q-220 0 -356 126.5t-136 322.5q0 48 11 106q30 153 131 280.5t250.5 201t315.5 73.5q231 0 373 -142l-181 -210q-108 104 -239 104q-129 0 -234.5 -89t-131.5 -218q-6 -33 -6 -62q0 -107 70 -175.5t183 -68.5q138 0 287 112l119 -197q-203 -164 -456 -164z
M545 1212l335 351h282l-349 -351h-268z" />
    <glyph glyph-name="Ccircumflex" unicode="&#x108;" horiz-adv-x="1423" 
d="M740 -25q-188 0 -334.5 77t-225.5 212.5t-79 306.5q0 71 15 146q40 206 173.5 376t329 267.5t409.5 97.5q277 0 460 -166l-189 -216q-74 62 -148.5 95t-171.5 33q-200 0 -364 -139.5t-205 -347.5q-11 -55 -11 -102q0 -169 109 -277.5t282 -108.5q187 0 381 139l113 -214
q-252 -179 -544 -179zM958 1894h201l232 -350h-267l-102 159l-164 -159h-266z" />
    <glyph glyph-name="ccircumflex" unicode="&#x109;" horiz-adv-x="1137" 
d="M548 -25q-220 0 -356 126.5t-136 322.5q0 48 11 106q30 153 131 280.5t250.5 201t315.5 73.5q231 0 373 -142l-181 -210q-108 104 -239 104q-129 0 -234.5 -89t-131.5 -218q-6 -33 -6 -62q0 -107 70 -175.5t183 -68.5q138 0 287 112l119 -197q-203 -164 -456 -164z
M699 1563h201l232 -351h-267l-102 159l-164 -159h-266z" />
    <glyph glyph-name="Cdotaccent" unicode="&#x10a;" horiz-adv-x="1423" 
d="M740 -25q-188 0 -334.5 77t-225.5 212.5t-79 306.5q0 71 15 146q40 206 173.5 376t329 267.5t409.5 97.5q277 0 460 -166l-189 -216q-74 62 -148.5 95t-171.5 33q-200 0 -364 -139.5t-205 -347.5q-11 -55 -11 -102q0 -169 109 -277.5t282 -108.5q187 0 381 139l113 -214
q-252 -179 -544 -179zM867 1703q13 64 66.5 108t117.5 44q57 0 92 -34t35 -87q0 -16 -3 -31q-12 -64 -65.5 -108.5t-118.5 -44.5q-57 0 -92 34.5t-35 88.5q0 15 3 30z" />
    <glyph glyph-name="cdotaccent" unicode="&#x10b;" horiz-adv-x="1137" 
d="M548 -25q-220 0 -356 126.5t-136 322.5q0 48 11 106q30 153 131 280.5t250.5 201t315.5 73.5q231 0 373 -142l-181 -210q-108 104 -239 104q-129 0 -234.5 -89t-131.5 -218q-6 -33 -6 -62q0 -107 70 -175.5t183 -68.5q138 0 287 112l119 -197q-203 -164 -456 -164z
M630 1371q13 64 66 108.5t117 44.5q56 0 91.5 -34.5t35.5 -87.5q0 -16 -3 -31q-12 -64 -65 -108t-118 -44q-57 0 -92 34t-35 88q0 15 3 30z" />
    <glyph glyph-name="Ccaron" unicode="&#x10c;" horiz-adv-x="1423" 
d="M740 -25q-188 0 -334.5 77t-225.5 212.5t-79 306.5q0 71 15 146q40 206 173.5 376t329 267.5t409.5 97.5q277 0 460 -166l-189 -216q-74 62 -148.5 95t-171.5 33q-200 0 -364 -139.5t-205 -347.5q-11 -55 -11 -102q0 -169 109 -277.5t282 -108.5q187 0 381 139l113 -214
q-252 -179 -544 -179zM1092 1544h-201l-232 350h267l102 -158l164 158h266z" />
    <glyph glyph-name="ccaron" unicode="&#x10d;" horiz-adv-x="1137" 
d="M548 -25q-220 0 -356 126.5t-136 322.5q0 48 11 106q30 153 131 280.5t250.5 201t315.5 73.5q231 0 373 -142l-181 -210q-108 104 -239 104q-129 0 -234.5 -89t-131.5 -218q-6 -33 -6 -62q0 -107 70 -175.5t183 -68.5q138 0 287 112l119 -197q-203 -164 -456 -164z
M830 1192h-200l-232 350h267l102 -159l164 159h266z" />
    <glyph glyph-name="Dcaron" unicode="&#x10e;" horiz-adv-x="1473" 
d="M333 1434h519q281 0 439 -145t158 -399q0 -88 -17 -173q-64 -328 -298 -522.5t-561 -194.5h-519zM792 1180h-219l-179 -926h218q131 0 237 49.5t182.5 155t106.5 258.5q13 68 13 129q0 165 -95 249.5t-264 84.5zM979 1544h-201l-231 350h266l102 -158l164 158h267z" />
    <glyph glyph-name="dcaron" unicode="&#x10f;" horiz-adv-x="1693" 
d="M596 224q91 0 174 46t135 123l53 275q-22 77 -87 123t-156 46q-130 0 -235 -88.5t-131 -218.5q-6 -33 -6 -62q0 -107 70 -175.5t183 -68.5zM705 1085q200 0 310 -131l104 541h279l-290 -1495h-279l21 106q-160 -131 -362 -131q-195 0 -314 124.5t-119 315.5q0 55 12 115
q22 113 82 215t144.5 177t192 119t219.5 44zM1491 1356q13 69 70 116.5t126 47.5q60 0 97.5 -37t37.5 -94q0 -17 -3 -33q-6 -34 -34 -77l-204 -308h-172l155 234q-35 15 -55.5 46t-20.5 72q0 17 3 33z" />
    <glyph glyph-name="Dcroat" unicode="&#x110;" horiz-adv-x="1508" 
d="M368 1434h519q281 0 439 -145t158 -399q0 -83 -18 -173q-64 -328 -297.5 -522.5t-560.5 -194.5h-519l120 621h-179l38 191h179zM762 621h-262l-71 -367h218q131 0 237 49.5t182 155t106 258.5q14 73 14 129q0 165 -95.5 249.5t-264.5 84.5h-218l-70 -368h262z" />
    <glyph glyph-name="dcroat" unicode="&#x111;" horiz-adv-x="1371" 
d="M753 1180l33 171h306l27 144h279l-28 -144h140l-33 -171h-141l-228 -1180h-279l21 106q-160 -131 -362 -131q-195 0 -314 124.5t-119 315.5q0 55 12 115q22 113 82 215t144.5 177t192 119t219.5 44q200 0 310 -131l43 226h-305zM596 224q91 0 174 46t135 123l53 275
q-22 77 -87 123t-156 46q-130 0 -235 -88.5t-131 -218.5q-6 -33 -6 -62q0 -107 70 -175.5t183 -68.5z" />
    <glyph glyph-name="Emacron" unicode="&#x112;" horiz-adv-x="1173" 
d="M54 0l279 1434h893l-48 -248h-603l-66 -342h553l-48 -246h-553l-68 -350h621l-48 -248h-912zM490 1593l41 211h635l-41 -211h-635z" />
    <glyph glyph-name="emacron" unicode="&#x113;" horiz-adv-x="1265" 
d="M335 446v-8q0 -107 71 -172.5t188 -65.5q169 0 327 132l137 -164q-214 -193 -506 -193q-228 0 -362.5 125t-134.5 321q0 44 12 109q30 153 129.5 280.5t246.5 201t309 73.5q210 0 335.5 -121t125.5 -309q0 -53 -10 -106q-9 -49 -33 -103h-835zM706 861q-100 0 -189 -58.5
t-136 -155.5h551q-5 96 -65 155t-161 59zM458 1262l41 211h635l-41 -211h-635z" />
    <glyph glyph-name="Ebreve" unicode="&#x114;" horiz-adv-x="1173" 
d="M54 0l279 1434h893l-48 -248h-603l-66 -342h553l-48 -246h-553l-68 -350h621l-48 -248h-912zM796 1524q-131 0 -217 75.5t-86 196.5q0 19 4 49h234q-2 -14 -2 -25q0 -47 29 -77t75 -30q53 0 96.5 37.5t55.5 94.5h235q-33 -139 -156.5 -230t-267.5 -91z" />
    <glyph glyph-name="ebreve" unicode="&#x115;" horiz-adv-x="1265" 
d="M335 446v-8q0 -107 71 -172.5t188 -65.5q169 0 327 132l137 -164q-214 -193 -506 -193q-228 0 -362.5 125t-134.5 321q0 44 12 109q30 153 129.5 280.5t246.5 201t309 73.5q210 0 335.5 -121t125.5 -309q0 -53 -10 -106q-9 -49 -33 -103h-835zM706 861q-100 0 -189 -58.5
t-136 -155.5h551q-5 96 -65 155t-161 59zM762 1192q-131 0 -217 75.5t-86 196.5q0 19 4 49h234q-2 -14 -2 -25q0 -47 29 -77t75 -30q53 0 96.5 37.5t55.5 94.5h235q-33 -139 -156.5 -230t-267.5 -91z" />
    <glyph glyph-name="Edotaccent" unicode="&#x116;" horiz-adv-x="1173" 
d="M54 0l279 1434h893l-48 -248h-603l-66 -342h553l-48 -246h-553l-68 -350h621l-48 -248h-912zM686 1703q13 64 66 108t117 44q57 0 92 -34t35 -87q0 -16 -3 -31q-12 -64 -65.5 -108.5t-117.5 -44.5q-57 0 -92 34.5t-35 88.5q0 15 3 30z" />
    <glyph glyph-name="edotaccent" unicode="&#x117;" horiz-adv-x="1265" 
d="M335 446v-8q0 -107 71 -172.5t188 -65.5q169 0 327 132l137 -164q-214 -193 -506 -193q-228 0 -362.5 125t-134.5 321q0 44 12 109q30 153 129.5 280.5t246.5 201t309 73.5q210 0 335.5 -121t125.5 -309q0 -53 -10 -106q-9 -49 -33 -103h-835zM706 861q-100 0 -189 -58.5
t-136 -155.5h551q-5 96 -65 155t-161 59zM643 1371q13 64 66 108.5t117 44.5q56 0 91.5 -34.5t35.5 -87.5q0 -16 -3 -31q-12 -64 -65 -108t-118 -44q-57 0 -92 34t-35 88q0 15 3 30z" />
    <glyph glyph-name="Eogonek" unicode="&#x118;" horiz-adv-x="1173" 
d="M54 0l279 1434h893l-48 -248h-603l-66 -342h553l-48 -246h-553l-68 -350h621l-48 -248h-179q-187 -132 -205 -225q-2 -10 -2 -19q0 -31 20.5 -49.5t54.5 -18.5q45 0 83 22l31 -131q-81 -48 -185 -48q-96 0 -156 49.5t-60 126.5q0 16 4 37q12 68 73 135t152 121h-543z" />
    <glyph glyph-name="eogonek" unicode="&#x119;" horiz-adv-x="1265" 
d="M335 446v-8q0 -107 71 -172.5t188 -65.5q169 0 327 132l137 -164q-176 -158 -405 -185q-162 -119 -179 -208q-2 -10 -2 -19q0 -31 21 -49.5t55 -18.5q45 0 83 22l31 -131q-81 -48 -186 -48q-96 0 -156 49.5t-60 126.5q0 16 4 37q11 63 63.5 124.5t132.5 113.5
q-188 25 -296.5 145t-108.5 294q0 44 12 109q30 153 129.5 280.5t246.5 201t309 73.5q210 0 335.5 -121t125.5 -309q0 -53 -10 -106q-9 -49 -33 -103h-835zM706 861q-100 0 -189 -58.5t-136 -155.5h551q-5 96 -65 155t-161 59z" />
    <glyph glyph-name="Ecaron" unicode="&#x11a;" horiz-adv-x="1173" 
d="M54 0l279 1434h893l-48 -248h-603l-66 -342h553l-48 -246h-553l-68 -350h621l-48 -248h-912zM901 1544h-201l-231 350h266l103 -158l163 158h267z" />
    <glyph glyph-name="ecaron" unicode="&#x11b;" horiz-adv-x="1265" 
d="M335 446v-8q0 -107 71 -172.5t188 -65.5q169 0 327 132l137 -164q-214 -193 -506 -193q-228 0 -362.5 125t-134.5 321q0 44 12 109q30 153 129.5 280.5t246.5 201t309 73.5q210 0 335.5 -121t125.5 -309q0 -53 -10 -106q-9 -49 -33 -103h-835zM706 861q-100 0 -189 -58.5
t-136 -155.5h551q-5 96 -65 155t-161 59zM862 1192h-200l-232 350h266l103 -159l164 159h266z" />
    <glyph glyph-name="Gcircumflex" unicode="&#x11c;" horiz-adv-x="1492" 
d="M979 1204q-132 0 -253 -63.5t-205.5 -176t-111.5 -250.5q-11 -55 -11 -101q0 -170 108.5 -279.5t281.5 -109.5q128 0 237 60l54 275h-314l45 235h605l-123 -633q-119 -88 -262 -137t-290 -49q-188 0 -334.5 77t-225.5 212.5t-79 306.5q0 71 15 146q40 206 173.5 376
t329 267.5t409.5 97.5q277 0 460 -166l-189 -216q-74 62 -148.5 95t-171.5 33zM958 1894h201l232 -350h-267l-102 159l-164 -159h-266z" />
    <glyph glyph-name="gcircumflex" unicode="&#x11d;" horiz-adv-x="1346" 
d="M905 393l53 275q-22 77 -87 123t-156 46q-130 0 -235 -88.5t-131 -218.5q-6 -33 -6 -62q0 -107 70 -175.5t183 -68.5q91 0 174 46t135 123zM1015 954l20 107h279l-195 -999q-47 -243 -224 -390t-444 -147q-150 0 -271 53.5t-194 150.5l197 185q120 -148 302 -148
q136 0 232 74t121 204l13 70q-157 -131 -362 -131q-196 0 -315 123t-119 312q0 45 12 112q22 113 82 215t144.5 177t192 119t219.5 44q200 0 310 -131zM765 1563h201l231 -351h-266l-103 159l-163 -159h-267z" />
    <glyph glyph-name="Gbreve" unicode="&#x11e;" horiz-adv-x="1492" 
d="M979 1204q-132 0 -253 -63.5t-205.5 -176t-111.5 -250.5q-11 -55 -11 -101q0 -170 108.5 -279.5t281.5 -109.5q128 0 237 60l54 275h-314l45 235h605l-123 -633q-119 -88 -262 -137t-290 -49q-188 0 -334.5 77t-225.5 212.5t-79 306.5q0 71 15 146q40 206 173.5 376
t329 267.5t409.5 97.5q277 0 460 -166l-189 -216q-74 62 -148.5 95t-171.5 33zM987 1524q-131 0 -217 75.5t-86 196.5q0 19 4 49h235q-2 -14 -2 -25q0 -47 28.5 -77t74.5 -30q53 0 97 37.5t56 94.5h234q-33 -139 -156.5 -230t-267.5 -91z" />
    <glyph glyph-name="gbreve" unicode="&#x11f;" horiz-adv-x="1346" 
d="M905 393l53 275q-22 77 -87 123t-156 46q-130 0 -235 -88.5t-131 -218.5q-6 -33 -6 -62q0 -107 70 -175.5t183 -68.5q91 0 174 46t135 123zM1015 954l20 107h279l-195 -999q-47 -243 -224 -390t-444 -147q-150 0 -271 53.5t-194 150.5l197 185q120 -148 302 -148
q136 0 232 74t121 204l13 70q-157 -131 -362 -131q-196 0 -315 123t-119 312q0 45 12 112q22 113 82 215t144.5 177t192 119t219.5 44q200 0 310 -131zM780 1192q-131 0 -217 75.5t-86 196.5q0 19 4 49h235q-2 -14 -2 -25q0 -47 28.5 -77t74.5 -30q53 0 97 37.5t56 94.5h234
q-33 -139 -156.5 -230t-267.5 -91z" />
    <glyph glyph-name="Gdotaccent" unicode="&#x120;" horiz-adv-x="1492" 
d="M979 1204q-132 0 -253 -63.5t-205.5 -176t-111.5 -250.5q-11 -55 -11 -101q0 -170 108.5 -279.5t281.5 -109.5q128 0 237 60l54 275h-314l45 235h605l-123 -633q-119 -88 -262 -137t-290 -49q-188 0 -334.5 77t-225.5 212.5t-79 306.5q0 71 15 146q40 206 173.5 376
t329 267.5t409.5 97.5q277 0 460 -166l-189 -216q-74 62 -148.5 95t-171.5 33zM867 1703q13 64 66.5 108t117.5 44q57 0 92 -34t35 -87q0 -16 -3 -31q-12 -64 -65.5 -108.5t-118.5 -44.5q-57 0 -92 34.5t-35 88.5q0 15 3 30z" />
    <glyph glyph-name="gdotaccent" unicode="&#x121;" horiz-adv-x="1346" 
d="M905 393l53 275q-22 77 -87 123t-156 46q-130 0 -235 -88.5t-131 -218.5q-6 -33 -6 -62q0 -107 70 -175.5t183 -68.5q91 0 174 46t135 123zM1015 954l20 107h279l-195 -999q-47 -243 -224 -390t-444 -147q-150 0 -271 53.5t-194 150.5l197 185q120 -148 302 -148
q136 0 232 74t121 204l13 70q-157 -131 -362 -131q-196 0 -315 123t-119 312q0 45 12 112q22 113 82 215t144.5 177t192 119t219.5 44q200 0 310 -131zM653 1371q13 64 66.5 108.5t117.5 44.5q56 0 91.5 -34.5t35.5 -87.5q0 -16 -3 -31q-12 -64 -65.5 -108t-118.5 -44
q-57 0 -92 34t-35 88q0 15 3 30z" />
    <glyph glyph-name="Gcommaaccent" unicode="&#x122;" horiz-adv-x="1492" 
d="M979 1204q-132 0 -253 -63.5t-205.5 -176t-111.5 -250.5q-11 -55 -11 -101q0 -170 108.5 -279.5t281.5 -109.5q128 0 237 60l54 275h-314l45 235h605l-123 -633q-119 -88 -262 -137t-290 -49q-188 0 -334.5 77t-225.5 212.5t-79 306.5q0 71 15 146q40 206 173.5 376
t329 267.5t409.5 97.5q277 0 460 -166l-189 -216q-74 62 -148.5 95t-171.5 33zM607 -481h-254l228 350h287z" />
    <glyph glyph-name="gcommaaccent" unicode="&#x123;" horiz-adv-x="1346" 
d="M905 393l53 275q-22 77 -87 123t-156 46q-130 0 -235 -88.5t-131 -218.5q-6 -33 -6 -62q0 -107 70 -175.5t183 -68.5q91 0 174 46t135 123zM1015 954l20 107h279l-195 -999q-47 -243 -224 -390t-444 -147q-150 0 -271 53.5t-194 150.5l197 185q120 -148 302 -148
q136 0 232 74t121 204l13 70q-157 -131 -362 -131q-196 0 -315 123t-119 312q0 45 12 112q22 113 82 215t144.5 177t192 119t219.5 44q200 0 310 -131zM878 1550h254l-228 -350h-288z" />
    <glyph glyph-name="Hcircumflex" unicode="&#x124;" horiz-adv-x="1447" 
d="M54 0l279 1434h291l-115 -588h553l115 588h290l-278 -1434h-291l115 595h-553l-115 -595h-291zM889 1894h201l231 -350h-266l-103 159l-164 -159h-266z" />
    <glyph glyph-name="hcircumflex" unicode="&#x125;" horiz-adv-x="1255" 
d="M450 690l-135 -690h-281l290 1495h281l-106 -551q67 64 153.5 102.5t171.5 38.5q162 0 256.5 -90t94.5 -243q0 -35 -11 -99l-127 -653h-281l121 626q5 27 5 47q0 73 -46 118.5t-129 45.5q-65 0 -136.5 -43.5t-120.5 -103.5zM453 1956h200l232 -350h-267l-102 158
l-164 -158h-266z" />
    <glyph glyph-name="Hbar" unicode="&#x126;" horiz-adv-x="1466" 
d="M63 0l204 1052h-123l37 188h123l38 194h291l-38 -194h553l38 194h291l-38 -194h123l-37 -188h-123l-204 -1052h-291l116 598h-553l-116 -598h-291zM518 844h553l40 208h-553z" />
    <glyph glyph-name="hbar" unicode="&#x127;" horiz-adv-x="1277" 
d="M146 1180l34 171h138l28 144h282l-28 -144h304l-34 -171h-304l-45 -236q67 64 154 102.5t172 38.5q162 0 256 -90t94 -243q0 -41 -10 -99l-127 -653h-282l121 626q5 27 5 47q0 73 -46 118.5t-129 45.5q-65 0 -136.5 -43.5t-120.5 -103.5l-134 -690h-282l229 1180h-139z
" />
    <glyph glyph-name="Itilde" unicode="&#x128;" horiz-adv-x="620" 
d="M341 1434h291l-279 -1434h-291zM529 1597q-66 39 -91 39q-43 0 -77 -76l-216 45q89 232 257 232q71 0 141 -46q66 -39 92 -39q43 0 76 77l217 -45q-89 -233 -257 -233q-70 0 -142 46z" />
    <glyph glyph-name="itilde" unicode="&#x129;" horiz-adv-x="565" 
d="M39 0l206 1061h281l-205 -1061h-282zM437 1264q-66 39 -91 39q-43 0 -77 -77l-216 45q89 232 257 232q71 0 141 -46q66 -39 92 -39q42 0 75 77l218 -45q-89 -232 -257 -232q-70 0 -142 46z" />
    <glyph glyph-name="Imacron" unicode="&#x12a;" horiz-adv-x="620" 
d="M341 1434h291l-279 -1434h-291zM200 1593l41 211h635l-41 -211h-635z" />
    <glyph glyph-name="imacron" unicode="&#x12b;" horiz-adv-x="565" 
d="M39 0l206 1061h281l-205 -1061h-282zM108 1262l40 211h635l-41 -211h-634z" />
    <glyph glyph-name="Ibreve" unicode="&#x12c;" horiz-adv-x="620" 
d="M341 1434h291l-279 -1434h-291zM504 1524q-131 0 -217 75.5t-86 196.5q0 19 4 49h234q-2 -14 -2 -25q0 -47 29 -77t75 -30q53 0 96.5 37.5t55.5 94.5h235q-33 -139 -156.5 -230t-267.5 -91z" />
    <glyph glyph-name="ibreve" unicode="&#x12d;" horiz-adv-x="565" 
d="M39 0l206 1061h281l-205 -1061h-282zM412 1192q-131 0 -217 75.5t-86 196.5q0 19 4 49h234q-2 -14 -2 -25q0 -47 29 -77t75 -30q53 0 96.5 37.5t55.5 94.5h235q-33 -139 -156.5 -230t-267.5 -91z" />
    <glyph glyph-name="Iogonek" unicode="&#x12e;" horiz-adv-x="620" 
d="M163 0h-101l279 1434h291l-279 -1434q-188 -132 -206 -225q-2 -10 -2 -19q0 -31 21 -49.5t55 -18.5q45 0 83 22l31 -131q-81 -48 -185 -48q-96 0 -156.5 49.5t-60.5 126.5q0 10 5 37q12 68 73 135t152 121z" />
    <glyph glyph-name="iogonek" unicode="&#x12f;" horiz-adv-x="565" 
d="M39 0l206 1061h281l-205 -1061q-188 -132 -206 -225q-2 -10 -2 -19q0 -31 20.5 -49.5t54.5 -18.5q45 0 83 22l31 -131q-81 -48 -185 -48q-96 0 -156 49.5t-60 126.5q0 16 4 37q12 68 73 135t152 121h-91zM274 1343q13 69 70 116t128 47q62 0 100.5 -36.5t38.5 -94.5
q0 -15 -3 -32q-13 -69 -70 -115.5t-128 -46.5q-62 0 -100.5 36.5t-38.5 93.5q0 15 3 32z" />
    <glyph glyph-name="Idotaccent" unicode="&#x130;" horiz-adv-x="620" 
d="M341 1434h291l-279 -1434h-291zM385 1703q13 64 66 108t117 44q57 0 92 -34t35 -87q0 -16 -3 -31q-12 -64 -65.5 -108.5t-117.5 -44.5q-57 0 -92 34.5t-35 88.5q0 15 3 30z" />
    <glyph glyph-name="dotlessi" unicode="&#x131;" horiz-adv-x="565" 
d="M39 0l206 1061h281l-205 -1061h-282z" />
    <glyph glyph-name="IJ" unicode="&#x132;" horiz-adv-x="1531" 
d="M341 1434h291l-279 -1434h-291zM1083 467l189 967h291l-191 -977q-47 -242 -190.5 -362t-372.5 -120q-80 0 -158.5 19.5t-131.5 52.5l131 240q36 -25 86 -41.5t98 -16.5q202 0 249 238z" />
    <glyph glyph-name="ij" unicode="&#x133;" horiz-adv-x="1130" 
d="M39 0l206 1061h281l-205 -1061h-282zM274 1343q13 69 70 116t128 47q62 0 100.5 -36.5t38.5 -94.5q0 -15 -3 -32q-13 -69 -70 -115.5t-128 -46.5q-62 0 -100.5 36.5t-38.5 93.5q0 15 3 32zM586 -92l224 1153h282l-228 -1167q-36 -188 -143.5 -278.5t-289.5 -90.5
q-57 0 -97 7l46 238h54q65 0 101.5 31.5t50.5 106.5zM840 1343q13 69 69.5 116t127.5 47q62 0 101 -36.5t39 -94.5q0 -15 -3 -32q-13 -69 -70.5 -115.5t-128.5 -46.5q-62 0 -100 36.5t-38 93.5q0 15 3 32z" />
    <glyph glyph-name="Jcircumflex" unicode="&#x134;" horiz-adv-x="952" 
d="M504 467l188 967h291l-190 -977q-47 -241 -190.5 -361.5t-373.5 -120.5q-80 0 -158 19.5t-131 52.5l131 240q83 -58 183 -58q203 0 250 238zM826 1894h201l231 -350h-266l-102 159l-164 -159h-266z" />
    <glyph glyph-name="jcircumflex" unicode="&#x135;" horiz-adv-x="565" 
d="M20 -92l225 1153h281l-227 -1167q-36 -188 -143.5 -278.5t-289.5 -90.5q-57 0 -97 7l46 238h54q65 0 101 31.5t50 106.5zM383 1563h201l231 -351h-266l-103 159l-163 -159h-267z" />
    <glyph glyph-name="Kcommaaccent" unicode="&#x136;" horiz-adv-x="1268" 
d="M624 1434l-114 -585h82l474 585h320l-576 -707l377 -727h-327l-309 598h-90l-116 -598h-291l279 1434h291zM452 -481h-254l227 350h288z" />
    <glyph glyph-name="kcommaaccent" unicode="&#x137;" horiz-adv-x="1098" 
d="M680 0l-187 464h-87l-91 -464h-281l290 1495h281l-153 -789h91l292 355h317l-404 -477l244 -584h-312zM334 -481h-254l227 350h288z" />
    <glyph glyph-name="kgreenlandic" unicode="&#x138;" horiz-adv-x="1098" 
d="M680 0l-187 464h-87l-91 -464h-281l206 1061h281l-69 -355h91l292 355h317l-404 -477l244 -584h-312z" />
    <glyph glyph-name="Lacute" unicode="&#x139;" horiz-adv-x="1062" 
d="M54 0l279 1434h291l-231 -1183h580l-48 -251h-871zM355 1544l335 350h283l-349 -350h-269z" />
    <glyph glyph-name="lacute" unicode="&#x13a;" horiz-adv-x="565" 
d="M39 0l290 1495h281l-289 -1495h-282zM299 1606l335 350h282l-349 -350h-268z" />
    <glyph glyph-name="Lcommaaccent" unicode="&#x13b;" horiz-adv-x="1062" 
d="M54 0l279 1434h291l-231 -1183h580l-48 -251h-871zM380 -481h-254l227 350h288z" />
    <glyph glyph-name="lcommaaccent" unicode="&#x13c;" horiz-adv-x="565" 
d="M39 0l290 1495h281l-289 -1495h-282zM61 -481h-254l228 350h288z" />
    <glyph glyph-name="Lcaron" unicode="&#x13d;" horiz-adv-x="1062" 
d="M54 0l279 1434h291l-231 -1183h580l-48 -251h-871zM794 1294q13 69 69.5 116.5t125.5 47.5q60 0 97.5 -37t37.5 -94q0 -17 -3 -33q-6 -32 -34 -76l-203 -309h-172l154 235q-75 33 -75 118q0 16 3 32z" />
    <glyph glyph-name="lcaron" unicode="&#x13e;" horiz-adv-x="906" 
d="M39 0l290 1495h281l-289 -1495h-282zM703 1356q13 69 70 116.5t126 47.5q60 0 97.5 -37t37.5 -94q0 -17 -3 -33q-6 -34 -34 -77l-203 -308h-172l154 234q-35 15 -55.5 46t-20.5 72q0 17 3 33z" />
    <glyph glyph-name="Ldot" unicode="&#x13f;" horiz-adv-x="1062" 
d="M54 0l279 1434h291l-231 -1183h580l-48 -251h-871zM675 779q13 64 66 108.5t117 44.5q56 0 91.5 -34.5t35.5 -87.5q0 -16 -3 -31q-12 -64 -65 -108t-118 -44q-57 0 -92 34.5t-35 88.5q0 14 3 29z" />
    <glyph glyph-name="ldot" unicode="&#x140;" horiz-adv-x="889" 
d="M39 0l290 1495h281l-289 -1495h-282zM590 769q13 64 66 108.5t117 44.5q56 0 91.5 -34.5t35.5 -87.5q0 -16 -3 -31q-12 -64 -65.5 -108.5t-117.5 -44.5q-57 0 -92 34.5t-35 88.5q0 15 3 30z" />
    <glyph glyph-name="Lslash" unicode="&#x141;" horiz-adv-x="1091" 
d="M83 0l101 524l-156 -72l41 211l156 72l136 699h291l-107 -549l367 171l-41 -211l-367 -171l-82 -423h579l-48 -251h-870z" />
    <glyph glyph-name="lslash" unicode="&#x142;" horiz-adv-x="633" 
d="M74 0l117 610l-169 -76l37 196l171 77l134 688h281l-106 -549l171 77l-39 -197l-170 -76l-146 -750h-281z" />
    <glyph glyph-name="Nacute" unicode="&#x143;" horiz-adv-x="1447" 
d="M54 0l279 1434h295l378 -965l187 965h274l-278 -1434h-295l-378 965l-187 -965h-275zM734 1544l335 350h283l-350 -350h-268z" />
    <glyph glyph-name="nacute" unicode="&#x144;" horiz-adv-x="1255" 
d="M450 690l-135 -690h-281l206 1061h281l-22 -117q67 64 153.5 102.5t171.5 38.5q162 0 256.5 -90t94.5 -243q0 -35 -11 -99l-127 -653h-281l121 626q5 27 5 47q0 73 -46 118.5t-129 45.5q-65 0 -136.5 -43.5t-120.5 -103.5zM582 1212l334 351h283l-349 -351h-268z" />
    <glyph glyph-name="Ncommaaccent" unicode="&#x145;" horiz-adv-x="1448" 
d="M54 0l279 1434h295l378 -965l187 965h274l-278 -1434h-295l-378 965l-187 -965h-275zM521 -481h-254l228 350h287z" />
    <glyph glyph-name="ncommaaccent" unicode="&#x146;" horiz-adv-x="1255" 
d="M450 690l-135 -690h-281l206 1061h281l-22 -117q67 64 153.5 102.5t171.5 38.5q162 0 256.5 -90t94.5 -243q0 -35 -11 -99l-127 -653h-281l121 626q5 27 5 47q0 73 -46 118.5t-129 45.5q-65 0 -136.5 -43.5t-120.5 -103.5zM427 -481h-254l227 350h288z" />
    <glyph glyph-name="Ncaron" unicode="&#x147;" horiz-adv-x="1448" 
d="M54 0l279 1434h295l378 -965l187 965h274l-278 -1434h-295l-378 965l-187 -965h-275zM1022 1544h-201l-231 350h266l102 -158l164 158h267z" />
    <glyph glyph-name="ncaron" unicode="&#x148;" horiz-adv-x="1255" 
d="M450 690l-135 -690h-281l206 1061h281l-22 -117q67 64 153.5 102.5t171.5 38.5q162 0 256.5 -90t94.5 -243q0 -35 -11 -99l-127 -653h-281l121 626q5 27 5 47q0 73 -46 118.5t-129 45.5q-65 0 -136.5 -43.5t-120.5 -103.5zM851 1192h-201l-231 350h266l102 -159l164 159
h267z" />
    <glyph glyph-name="napostrophe" unicode="&#x149;" horiz-adv-x="1490" 
d="M685 690l-134 -690h-282l206 1061h282l-23 -117q67 64 154 102.5t172 38.5q162 0 256 -90t94 -243q0 -41 -10 -99l-127 -653h-282l121 626q5 27 5 47q0 73 -46 118.5t-129 45.5q-65 0 -136.5 -43.5t-120.5 -103.5zM212 1356q13 69 70 116.5t126 47.5q60 0 97.5 -37
t37.5 -94q0 -17 -3 -33q-6 -34 -34 -77l-204 -308h-172l155 234q-35 15 -55.5 46t-20.5 72q0 17 3 33z" />
    <glyph glyph-name="Eng" unicode="&#x14a;" horiz-adv-x="1447" 
d="M895 -98l19 103l-397 965l-188 -970h-275l279 1434h278l396 -958l186 958h274l-299 -1536q-72 -373 -488 -373q-67 0 -115 10l44 224q45 -5 96 -5q87 0 131.5 36t58.5 112z" />
    <glyph glyph-name="eng" unicode="&#x14b;" horiz-adv-x="1255" 
d="M1164 653l-147 -754q-73 -374 -490 -374q-57 0 -119 10l44 224q43 -5 93 -5q76 0 126 37t65 111l141 724q5 27 5 47q0 73 -46 118.5t-129 45.5q-65 0 -136.5 -43.5t-120.5 -103.5l-135 -690h-281l206 1061h281l-22 -117q67 64 153.5 102.5t171.5 38.5q162 0 256.5 -90
t94.5 -243q0 -35 -11 -99z" />
    <glyph glyph-name="Omacron" unicode="&#x14c;" horiz-adv-x="1695" 
d="M410 717q-11 -55 -11 -102q0 -169 109 -277.5t282 -108.5q200 0 364.5 141t204.5 347q11 55 11 100q0 170 -108.5 278.5t-282.5 108.5q-200 0 -364.5 -140.5t-204.5 -346.5zM116 717q40 206 173.5 376t329 267.5t409.5 97.5q142 0 262 -45t202.5 -123.5t129 -189
t46.5 -239.5q0 -68 -14 -144q-40 -206 -174.5 -376.5t-330 -268t-409.5 -97.5q-188 0 -334.5 77t-225.5 212.5t-79 306.5q0 71 15 146zM737 1593l41 211h635l-41 -211h-635z" />
    <glyph glyph-name="omacron" unicode="&#x14d;" horiz-adv-x="1310" 
d="M67 530q30 153 131 280.5t250.5 201t315.5 73.5q221 0 355.5 -126t134.5 -322q0 -54 -10 -107q-30 -153 -130.5 -280.5t-250 -201t-315.5 -73.5q-220 0 -356 126.5t-136 322.5q0 48 11 106zM349 530q-6 -33 -6 -62q0 -107 70 -175.5t183 -68.5q130 0 235.5 88t131.5 218
q6 33 6 62q0 107 -70 176t-184 69q-129 0 -234.5 -89t-131.5 -218zM480 1262l41 211h635l-41 -211h-635z" />
    <glyph glyph-name="Obreve" unicode="&#x14e;" horiz-adv-x="1695" 
d="M410 717q-11 -55 -11 -102q0 -169 109 -277.5t282 -108.5q200 0 364.5 141t204.5 347q11 55 11 100q0 170 -108.5 278.5t-282.5 108.5q-200 0 -364.5 -140.5t-204.5 -346.5zM116 717q40 206 173.5 376t329 267.5t409.5 97.5q142 0 262 -45t202.5 -123.5t129 -189
t46.5 -239.5q0 -68 -14 -144q-40 -206 -174.5 -376.5t-330 -268t-409.5 -97.5q-188 0 -334.5 77t-225.5 212.5t-79 306.5q0 71 15 146zM1041 1524q-131 0 -217 75.5t-86 196.5q0 19 4 49h235q-2 -14 -2 -25q0 -47 28.5 -77t74.5 -30q53 0 97 37.5t56 94.5h234
q-33 -139 -156.5 -230t-267.5 -91z" />
    <glyph glyph-name="obreve" unicode="&#x14f;" horiz-adv-x="1310" 
d="M67 530q30 153 131 280.5t250.5 201t315.5 73.5q221 0 355.5 -126t134.5 -322q0 -54 -10 -107q-30 -153 -130.5 -280.5t-250 -201t-315.5 -73.5q-220 0 -356 126.5t-136 322.5q0 48 11 106zM349 530q-6 -33 -6 -62q0 -107 70 -175.5t183 -68.5q130 0 235.5 88t131.5 218
q6 33 6 62q0 107 -70 176t-184 69q-129 0 -234.5 -89t-131.5 -218zM784 1192q-131 0 -217 75.5t-86 196.5q0 19 4 49h235q-2 -14 -2 -25q0 -47 28.5 -77t74.5 -30q53 0 97 37.5t56 94.5h234q-33 -139 -156.5 -230t-267.5 -91z" />
    <glyph glyph-name="Ohungarumlaut" unicode="&#x150;" horiz-adv-x="1695" 
d="M410 717q-11 -55 -11 -102q0 -169 109 -277.5t282 -108.5q200 0 364.5 141t204.5 347q11 55 11 100q0 170 -108.5 278.5t-282.5 108.5q-200 0 -364.5 -140.5t-204.5 -346.5zM116 717q40 206 173.5 376t329 267.5t409.5 97.5q142 0 262 -45t202.5 -123.5t129 -189
t46.5 -239.5q0 -68 -14 -144q-40 -206 -174.5 -376.5t-330 -268t-409.5 -97.5q-188 0 -334.5 77t-225.5 212.5t-79 306.5q0 71 15 146zM703 1544l335 350h265l-347 -350h-253zM1061 1544l335 350h264l-346 -350h-253z" />
    <glyph glyph-name="ohungarumlaut" unicode="&#x151;" horiz-adv-x="1310" 
d="M67 530q30 153 131 280.5t250.5 201t315.5 73.5q221 0 355.5 -126t134.5 -322q0 -54 -10 -107q-30 -153 -130.5 -280.5t-250 -201t-315.5 -73.5q-220 0 -356 126.5t-136 322.5q0 48 11 106zM349 530q-6 -33 -6 -62q0 -107 70 -175.5t183 -68.5q130 0 235.5 88t131.5 218
q6 33 6 62q0 107 -70 176t-184 69q-129 0 -234.5 -89t-131.5 -218zM428 1212l335 351h264l-346 -351h-253zM785 1212l335 351h264l-346 -351h-253z" />
    <glyph glyph-name="OE" unicode="&#x152;" horiz-adv-x="1861" 
d="M795 253h15l180 928h-15q-202 0 -365 -133.5t-201 -330.5q-10 -55 -10 -93q0 -163 110 -267t286 -104zM1654 0h-909q-187 0 -334 75t-228 208t-81 300q0 62 14 134q29 149 115 282t207 228.5t274.5 151t311.5 55.5h890l-48 -248h-587l-67 -342h538l-48 -246h-538
l-67 -350h605z" />
    <glyph glyph-name="oe" unicode="&#x153;" horiz-adv-x="2202" 
d="M67 530q30 153 131 280.5t250.5 201t315.5 73.5q144 0 255 -64.5t166 -172.5q93 106 228.5 171.5t275.5 65.5q210 0 335.5 -121t125.5 -309q0 -53 -10 -106q-9 -51 -33 -103h-836v-6q0 -108 71 -174t189 -66q169 0 327 132l137 -164q-214 -193 -506 -193
q-151 0 -263.5 64.5t-165.5 171.5q-98 -108 -233 -172t-279 -64q-220 0 -356 126.5t-136 322.5q0 48 11 106zM349 530q-6 -33 -6 -62q0 -107 70 -175.5t183 -68.5q130 0 235.5 88t131.5 218q6 33 6 62q0 107 -70 176t-184 69q-129 0 -234.5 -89t-131.5 -218zM1642 861
q-100 0 -189 -58.5t-135 -155.5h551q-5 96 -65.5 155t-161.5 59z" />
    <glyph glyph-name="Racute" unicode="&#x154;" horiz-adv-x="1256" 
d="M333 1434h507q197 0 309 -97t112 -263q0 -45 -11 -102q-31 -161 -136 -274t-261 -157l243 -541h-318l-223 510h-114l-98 -510h-289zM770 1194h-196l-88 -452h196q111 0 183.5 61.5t92.5 164.5q7 33 7 56q0 79 -50.5 124.5t-144.5 45.5zM621 1544l334 350h283l-349 -350
h-268z" />
    <glyph glyph-name="racute" unicode="&#x155;" horiz-adv-x="844" 
d="M725 837q-75 0 -149 -46t-132 -126l-129 -665h-281l206 1061h281l-25 -130q145 154 314 154q54 0 91 -22l-67 -247q-58 21 -109 21zM352 1212l335 351h283l-349 -351h-269z" />
    <glyph glyph-name="Rcommaaccent" unicode="&#x156;" horiz-adv-x="1256" 
d="M333 1434h507q197 0 309 -97t112 -263q0 -45 -11 -102q-31 -161 -136 -274t-261 -157l243 -541h-318l-223 510h-114l-98 -510h-289zM770 1194h-196l-88 -452h196q111 0 183.5 61.5t92.5 164.5q7 33 7 56q0 79 -50.5 124.5t-144.5 45.5zM407 -481h-254l227 350h288z" />
    <glyph glyph-name="rcommaaccent" unicode="&#x157;" horiz-adv-x="844" 
d="M725 837q-75 0 -149 -46t-132 -126l-129 -665h-281l206 1061h281l-25 -130q145 154 314 154q54 0 91 -22l-67 -247q-58 21 -109 21zM56 -481h-254l228 350h287z" />
    <glyph glyph-name="Rcaron" unicode="&#x158;" horiz-adv-x="1256" 
d="M333 1434h507q197 0 309 -97t112 -263q0 -45 -11 -102q-31 -161 -136 -274t-261 -157l243 -541h-318l-223 510h-114l-98 -510h-289zM770 1194h-196l-88 -452h196q111 0 183.5 61.5t92.5 164.5q7 33 7 56q0 79 -50.5 124.5t-144.5 45.5zM907 1544h-200l-232 350h266
l103 -158l164 158h266z" />
    <glyph glyph-name="rcaron" unicode="&#x159;" horiz-adv-x="844" 
d="M725 837q-75 0 -149 -46t-132 -126l-129 -665h-281l206 1061h281l-25 -130q145 154 314 154q54 0 91 -22l-67 -247q-58 21 -109 21zM649 1192h-200l-232 350h266l103 -159l164 159h266z" />
    <glyph glyph-name="Sacute" unicode="&#x15a;" horiz-adv-x="1222" 
d="M31 206l205 195q60 -80 142.5 -128.5t177.5 -48.5q101 0 177 45.5t94 124.5q6 26 6 41q0 64 -57.5 110t-194.5 77q-179 39 -272 127t-93 217q0 33 8 78q35 182 191 298t366 116q143 0 254.5 -47.5t184.5 -134.5l-198 -204q-132 139 -277 139q-85 0 -148 -40t-75 -105
q-3 -16 -3 -34q0 -61 55.5 -103.5t180.5 -72.5q195 -47 287 -135.5t92 -221.5q0 -38 -10 -91q-37 -192 -203 -312.5t-407 -120.5q-156 0 -283.5 61t-199.5 170zM616 1544l335 350h283l-349 -350h-269z" />
    <glyph glyph-name="sacute" unicode="&#x15b;" horiz-adv-x="969" 
d="M-10 152l176 175q38 -58 102.5 -92t142.5 -34q73 0 119.5 28t56.5 77q2 14 2 22q0 39 -36.5 64.5t-123.5 43.5q-286 62 -286 272q0 28 8 68q27 135 149.5 222t293.5 87q106 0 196.5 -39t151.5 -105l-169 -176q-98 95 -199 95q-59 0 -100 -23.5t-49 -64.5q-2 -10 -2 -17
q0 -77 146 -109q299 -64 299 -273q0 -35 -7 -70q-28 -143 -157.5 -235.5t-315.5 -92.5q-132 0 -236.5 47t-161.5 130zM417 1212l335 351h282l-349 -351h-268z" />
    <glyph glyph-name="Scircumflex" unicode="&#x15c;" horiz-adv-x="1222" 
d="M31 206l205 195q60 -80 142.5 -128.5t177.5 -48.5q101 0 177 45.5t94 124.5q6 26 6 41q0 64 -57.5 110t-194.5 77q-179 39 -272 127t-93 217q0 33 8 78q35 182 191 298t366 116q143 0 254.5 -47.5t184.5 -134.5l-198 -204q-132 139 -277 139q-85 0 -148 -40t-75 -105
q-3 -16 -3 -34q0 -61 55.5 -103.5t180.5 -72.5q195 -47 287 -135.5t92 -221.5q0 -38 -10 -91q-37 -192 -203 -312.5t-407 -120.5q-156 0 -283.5 61t-199.5 170zM767 1894h201l231 -350h-266l-103 159l-163 -159h-267z" />
    <glyph glyph-name="scircumflex" unicode="&#x15d;" horiz-adv-x="969" 
d="M-10 152l176 175q38 -58 102.5 -92t142.5 -34q73 0 119.5 28t56.5 77q2 14 2 22q0 39 -36.5 64.5t-123.5 43.5q-286 62 -286 272q0 28 8 68q27 135 149.5 222t293.5 87q106 0 196.5 -39t151.5 -105l-169 -176q-98 95 -199 95q-59 0 -100 -23.5t-49 -64.5q-2 -10 -2 -17
q0 -77 146 -109q299 -64 299 -273q0 -35 -7 -70q-28 -143 -157.5 -235.5t-315.5 -92.5q-132 0 -236.5 47t-161.5 130zM574 1563h201l232 -351h-267l-102 159l-164 -159h-266z" />
    <glyph glyph-name="Scedilla" unicode="&#x15e;" horiz-adv-x="1222" 
d="M500 -315q4 13 4 22q0 28 -22.5 45t-61.5 17q-28 0 -62 -6l-37 54l117 163q-132 14 -238 72.5t-169 153.5l205 195q60 -80 142.5 -128.5t177.5 -48.5q101 0 177 45.5t94 124.5q6 26 6 41q0 64 -57.5 110t-194.5 77q-179 39 -272 127t-93 217q0 33 8 78q35 182 191 298
t366 116q143 0 254.5 -47.5t184.5 -134.5l-198 -204q-132 139 -277 139q-85 0 -148 -40t-75 -105q-3 -16 -3 -34q0 -61 55.5 -103.5t180.5 -72.5q195 -47 287 -135.5t92 -221.5q0 -38 -10 -91q-33 -164 -160.5 -278t-319.5 -144l-81 -96q67 -19 105 -63t38 -103
q0 -11 -4 -35q-19 -95 -112.5 -158t-216.5 -63q-125 0 -194 63l107 121q41 -35 104 -35q40 0 70.5 19t39.5 49z" />
    <glyph glyph-name="scedilla" unicode="&#x15f;" horiz-adv-x="969" 
d="M358 -315q4 13 4 22q0 28 -22 45t-61 17q-28 0 -62 -6l-38 54l120 165q-103 14 -183 58t-126 112l176 175q38 -58 102.5 -92t142.5 -34q73 0 119.5 28t56.5 77q2 14 2 22q0 39 -36.5 64.5t-123.5 43.5q-286 62 -286 272q0 28 8 68q27 135 149.5 222t293.5 87
q106 0 196.5 -39t151.5 -105l-169 -176q-98 95 -199 95q-59 0 -100 -23.5t-49 -64.5q-2 -10 -2 -17q0 -77 146 -109q299 -64 299 -273q0 -35 -7 -70q-24 -120 -119.5 -205.5t-238.5 -111.5l-81 -96q67 -19 104.5 -63t37.5 -103q0 -17 -3 -35q-19 -95 -113 -158t-217 -63
q-124 0 -193 63l106 121q41 -35 105 -35q40 0 70 19t39 49z" />
    <glyph glyph-name="Scaron" unicode="&#x160;" horiz-adv-x="1222" 
d="M31 206l205 195q60 -80 142.5 -128.5t177.5 -48.5q101 0 177 45.5t94 124.5q6 26 6 41q0 64 -57.5 110t-194.5 77q-179 39 -272 127t-93 217q0 33 8 78q35 182 191 298t366 116q143 0 254.5 -47.5t184.5 -134.5l-198 -204q-132 139 -277 139q-85 0 -148 -40t-75 -105
q-3 -16 -3 -34q0 -61 55.5 -103.5t180.5 -72.5q195 -47 287 -135.5t92 -221.5q0 -38 -10 -91q-37 -192 -203 -312.5t-407 -120.5q-156 0 -283.5 61t-199.5 170zM895 1544h-201l-231 350h266l102 -158l164 158h267z" />
    <glyph glyph-name="scaron" unicode="&#x161;" horiz-adv-x="969" 
d="M-10 152l176 175q38 -58 102.5 -92t142.5 -34q73 0 119.5 28t56.5 77q2 14 2 22q0 39 -36.5 64.5t-123.5 43.5q-286 62 -286 272q0 28 8 68q27 135 149.5 222t293.5 87q106 0 196.5 -39t151.5 -105l-169 -176q-98 95 -199 95q-59 0 -100 -23.5t-49 -64.5q-2 -10 -2 -17
q0 -77 146 -109q299 -64 299 -273q0 -35 -7 -70q-28 -143 -157.5 -235.5t-315.5 -92.5q-132 0 -236.5 47t-161.5 130zM703 1192h-200l-232 350h267l102 -159l164 159h266z" />
    <glyph glyph-name="Tcommaaccent" unicode="&#x162;" horiz-adv-x="1140" 
d="M323 0l229 1183h-369l49 251h1029l-50 -251h-368l-230 -1183l-93 -110q67 -19 105 -63t38 -103q0 -11 -4 -35q-19 -95 -112.5 -158t-216.5 -63q-125 0 -194 63l107 121q41 -35 104 -35q40 0 70.5 19t39.5 49q4 13 4 22q0 28 -22.5 45t-61.5 17q-28 0 -62 -6l-37 54
l133 183h-88z" />
    <glyph glyph-name="tcommaaccent" unicode="&#x163;" horiz-adv-x="805" 
d="M298 -315q4 13 4 22q0 28 -22.5 45t-61.5 17q-27 0 -61 -6l-38 54l151 209q-107 65 -107 219q0 45 11 105l90 466h-165l48 245h165l56 282l285 25l-59 -307h250l-48 -245h-250l-87 -448q-5 -28 -5 -47q0 -52 33 -76.5t105 -24.5q54 0 101 5l-45 -235q-75 -15 -149 -15
q-35 0 -65 3l-73 -88q67 -19 105 -63t38 -103q0 -17 -3 -35q-19 -95 -113 -158t-217 -63q-125 0 -194 63l107 121q41 -35 104 -35q40 0 70.5 19t39.5 49z" />
    <glyph glyph-name="Tcaron" unicode="&#x164;" horiz-adv-x="1140" 
d="M323 0l229 1183h-369l49 251h1029l-50 -251h-368l-230 -1183h-290zM868 1544h-200l-232 350h266l103 -158l164 158h266z" />
    <glyph glyph-name="tcaron" unicode="&#x165;" horiz-adv-x="1166" 
d="M546 816l-87 -448q-5 -28 -5 -47q0 -52 33 -76.5t105 -24.5q54 0 101 5l-45 -235q-75 -15 -149 -15q-336 0 -336 270q0 45 11 105l90 466h-165l48 245h165l56 282l285 25l-59 -307h250l-48 -245h-250zM963 1356q13 69 69.5 116.5t125.5 47.5q60 0 97.5 -37t37.5 -94
q0 -17 -3 -33q-6 -34 -34 -77l-203 -308h-172l154 234q-35 15 -55.5 46t-20.5 72q0 11 4 33z" />
    <glyph glyph-name="Tbar" unicode="&#x166;" horiz-adv-x="1140" 
d="M323 0l117 610h-241l38 195h241l74 378h-369l49 251h1029l-50 -251h-368l-74 -378h242l-38 -195h-242l-118 -610h-290z" />
    <glyph glyph-name="tbar" unicode="&#x167;" horiz-adv-x="805" 
d="M54 456l33 171h140l39 199h-165l46 235h165l56 282l285 25l-59 -307h250l-46 -235h-250l-39 -199h208l-33 -171h-208l-19 -99q-5 -28 -5 -46q0 -52 33 -76.5t105 -24.5q51 0 101 5l-43 -225q-77 -15 -158 -15q-328 0 -328 266q0 44 11 104l22 111h-141z" />
    <glyph glyph-name="Utilde" unicode="&#x168;" horiz-adv-x="1372" 
d="M1403 1434l-183 -942q-29 -150 -125 -269t-231.5 -182.5t-284.5 -63.5q-199 0 -325 111.5t-126 296.5q0 54 10 107l184 942h290l-186 -955q-5 -30 -5 -53q0 -89 57.5 -142t149.5 -53q106 0 191 68.5t107 179.5l186 955h291zM905 1597q-66 39 -91 39q-43 0 -77 -76
l-216 45q89 232 257 232q71 0 141 -46q66 -39 92 -39q42 0 75 77l218 -45q-89 -233 -257 -233q-70 0 -142 46z" />
    <glyph glyph-name="utilde" unicode="&#x169;" horiz-adv-x="1255" 
d="M807 371l134 690h282l-206 -1061h-282l23 117q-67 -64 -154 -103t-172 -39q-161 0 -255.5 90.5t-94.5 242.5q0 50 10 100l127 653h282l-122 -626q-4 -20 -4 -46q0 -73 45.5 -119t128.5 -46q65 0 137 43.5t121 103.5zM772 1264q-66 39 -91 39q-43 0 -77 -77l-216 45
q89 232 257 232q70 0 140 -46q66 -39 93 -39q42 0 75 77l217 -45q-89 -232 -257 -232q-69 0 -141 46z" />
    <glyph glyph-name="Umacron" unicode="&#x16a;" horiz-adv-x="1372" 
d="M1403 1434l-183 -942q-29 -150 -125 -269t-231.5 -182.5t-284.5 -63.5q-199 0 -325 111.5t-126 296.5q0 54 10 107l184 942h290l-186 -955q-5 -30 -5 -53q0 -89 57.5 -142t149.5 -53q106 0 191 68.5t107 179.5l186 955h291zM575 1593l41 211h635l-41 -211h-635z" />
    <glyph glyph-name="umacron" unicode="&#x16b;" horiz-adv-x="1255" 
d="M807 371l134 690h282l-206 -1061h-282l23 117q-67 -64 -154 -103t-172 -39q-161 0 -255.5 90.5t-94.5 242.5q0 50 10 100l127 653h282l-122 -626q-4 -20 -4 -46q0 -73 45.5 -119t128.5 -46q65 0 137 43.5t121 103.5zM442 1262l41 211h635l-41 -211h-635z" />
    <glyph glyph-name="Ubreve" unicode="&#x16c;" horiz-adv-x="1372" 
d="M1403 1434l-183 -942q-29 -150 -125 -269t-231.5 -182.5t-284.5 -63.5q-199 0 -325 111.5t-126 296.5q0 54 10 107l184 942h290l-186 -955q-5 -30 -5 -53q0 -89 57.5 -142t149.5 -53q106 0 191 68.5t107 179.5l186 955h291zM880 1524q-131 0 -217 75.5t-86 196.5
q0 19 4 49h234q-2 -14 -2 -25q0 -47 28.5 -77t74.5 -30q53 0 97 37.5t56 94.5h235q-33 -139 -156.5 -230t-267.5 -91z" />
    <glyph glyph-name="ubreve" unicode="&#x16d;" horiz-adv-x="1255" 
d="M807 371l134 690h282l-206 -1061h-282l23 117q-67 -64 -154 -103t-172 -39q-161 0 -255.5 90.5t-94.5 242.5q0 50 10 100l127 653h282l-122 -626q-4 -20 -4 -46q0 -73 45.5 -119t128.5 -46q65 0 137 43.5t121 103.5zM746 1192q-131 0 -217 75.5t-86 196.5q0 19 4 49h235
q-2 -14 -2 -25q0 -47 28.5 -77t74.5 -30q53 0 97 37.5t56 94.5h234q-33 -139 -156.5 -230t-267.5 -91z" />
    <glyph glyph-name="Uring" unicode="&#x16e;" horiz-adv-x="1372" 
d="M1403 1434l-183 -942q-29 -150 -125 -269t-231.5 -182.5t-284.5 -63.5q-199 0 -325 111.5t-126 296.5q0 54 10 107l184 942h290l-186 -955q-5 -30 -5 -53q0 -89 57.5 -142t149.5 -53q106 0 191 68.5t107 179.5l186 955h291zM850 1725q-1 -5 -1 -13q0 -24 15 -39t41 -15
q30 0 53.5 19t28.5 48q1 5 1 14q0 24 -15 39t-41 15q-30 0 -53.5 -19.5t-28.5 -48.5zM687 1725q19 91 97 151.5t177 60.5q87 0 140 -48t53 -123q0 -22 -4 -41q-17 -90 -95 -151t-177 -61q-87 0 -141 49t-54 125q0 18 4 38z" />
    <glyph glyph-name="uring" unicode="&#x16f;" horiz-adv-x="1255" 
d="M807 371l134 690h282l-206 -1061h-282l23 117q-67 -64 -154 -103t-172 -39q-161 0 -255.5 90.5t-94.5 242.5q0 50 10 100l127 653h282l-122 -626q-4 -20 -4 -46q0 -73 45.5 -119t128.5 -46q65 0 137 43.5t121 103.5zM713 1394q-1 -5 -1 -14q0 -24 15 -39t41 -15
q30 0 53.5 19.5t28.5 48.5q1 5 1 13q0 24 -15 39t-41 15q-30 0 -53.5 -19t-28.5 -48zM550 1394q19 91 96.5 151.5t176.5 60.5q87 0 140.5 -48t53.5 -123q0 -22 -4 -41q-17 -90 -95.5 -151t-177.5 -61q-87 0 -140.5 48.5t-53.5 124.5q0 19 4 39z" />
    <glyph glyph-name="Uhungarumlaut" unicode="&#x170;" horiz-adv-x="1372" 
d="M1403 1434l-183 -942q-29 -150 -125 -269t-231.5 -182.5t-284.5 -63.5q-199 0 -325 111.5t-126 296.5q0 54 10 107l184 942h290l-186 -955q-5 -30 -5 -53q0 -89 57.5 -142t149.5 -53q106 0 191 68.5t107 179.5l186 955h291zM562 1564l335 350h264l-346 -350h-253z
M920 1564l334 350h265l-347 -350h-252z" />
    <glyph glyph-name="uhungarumlaut" unicode="&#x171;" horiz-adv-x="1255" 
d="M807 371l134 690h282l-206 -1061h-282l23 117q-67 -64 -154 -103t-172 -39q-161 0 -255.5 90.5t-94.5 242.5q0 50 10 100l127 653h282l-122 -626q-4 -20 -4 -46q0 -73 45.5 -119t128.5 -46q65 0 137 43.5t121 103.5zM418 1222l335 350h264l-346 -350h-253zM775 1222
l335 350h264l-346 -350h-253z" />
    <glyph glyph-name="Uogonek" unicode="&#x172;" horiz-adv-x="1372" 
d="M1403 1434l-183 -942q-37 -188 -173 -321.5t-320 -175.5q-182 -131 -198 -220q-2 -10 -2 -19q0 -31 21 -49.5t55 -18.5q45 0 83 22l31 -131q-81 -48 -186 -48q-96 0 -156 49.5t-60 126.5q0 16 4 37q21 123 195 237q-174 18 -280 126.5t-106 277.5q0 54 10 107l184 942
h290l-186 -955q-5 -30 -5 -53q0 -89 57.5 -142t149.5 -53q106 0 191 68.5t107 179.5l186 955h291z" />
    <glyph glyph-name="uogonek" unicode="&#x173;" horiz-adv-x="1255" 
d="M826 0h-91l23 117q-67 -64 -154 -103t-172 -39q-161 0 -255.5 90.5t-94.5 242.5q0 50 10 100l127 653h282l-122 -626q-4 -20 -4 -46q0 -73 45.5 -119t128.5 -46q65 0 137 43.5t121 103.5l134 690h282l-206 -1061q-188 -132 -206 -225q-2 -10 -2 -19q0 -31 21 -49.5
t55 -18.5q45 0 83 22l30 -131q-81 -48 -185 -48q-96 0 -156 49.5t-60 126.5q0 16 4 37q12 68 73 135t152 121z" />
    <glyph glyph-name="Wcircumflex" unicode="&#x174;" horiz-adv-x="2017" 
d="M1041 1434h287l75 -1028l454 1028h303l-676 -1434h-292l-85 1037l-486 -1037h-292l-119 1434h303l52 -1028zM1174 1894h200l232 -350h-267l-102 159l-164 -159h-266z" />
    <glyph glyph-name="wcircumflex" unicode="&#x175;" horiz-adv-x="1632" 
d="M778 1061h283l44 -710l323 710h288l-527 -1061h-291l-50 690l-319 -690h-290l-116 1061h288l47 -710zM916 1563h201l232 -351h-267l-102 159l-164 -159h-266z" />
    <glyph glyph-name="Ycircumflex" unicode="&#x176;" horiz-adv-x="1333" 
d="M523 1434l207 -580l432 580h314l-655 -856l-111 -578h-291l111 578l-320 856h313zM831 1894h201l232 -350h-267l-102 159l-164 -159h-266z" />
    <glyph glyph-name="ycircumflex" unicode="&#x177;" horiz-adv-x="1099" 
d="M321 -475h-294l279 475l-183 1061h293l98 -705l377 705h293zM648 1563h201l231 -351h-266l-102 159l-164 -159h-266z" />
    <glyph glyph-name="Ydieresis" unicode="&#x178;" horiz-adv-x="1333" 
d="M523 1434l207 -580l432 580h314l-655 -856l-111 -578h-291l111 578l-320 856h313zM547 1704q12 63 63.5 106t115.5 43q56 0 90.5 -33t34.5 -86q0 -15 -3 -30q-12 -63 -64 -106.5t-116 -43.5q-56 0 -90 34t-34 86q0 15 3 30zM942 1704q12 63 63.5 106t115.5 43
q56 0 90.5 -33t34.5 -86q0 -15 -3 -30q-12 -63 -64 -106.5t-116 -43.5q-56 0 -90 34t-34 86q0 15 3 30z" />
    <glyph glyph-name="Zacute" unicode="&#x179;" horiz-adv-x="1249" 
d="M59 241l844 942h-630l50 251h976l-47 -241l-843 -942h681l-49 -251h-1028zM612 1544l335 350h283l-349 -350h-269z" />
    <glyph glyph-name="zacute" unicode="&#x17a;" horiz-adv-x="1051" 
d="M-12 0l44 228l618 589h-477l47 244h819l-44 -228l-618 -589h524l-47 -244h-866zM446 1212l335 351h283l-349 -351h-269z" />
    <glyph glyph-name="Zdotaccent" unicode="&#x17b;" horiz-adv-x="1249" 
d="M59 241l844 942h-630l50 251h976l-47 -241l-843 -942h681l-49 -251h-1028zM703 1703q13 64 66.5 108t117.5 44q57 0 92 -34t35 -87q0 -16 -3 -31q-12 -64 -65.5 -108.5t-118.5 -44.5q-57 0 -92 34.5t-35 88.5q0 15 3 30z" />
    <glyph glyph-name="zdotaccent" unicode="&#x17c;" horiz-adv-x="1051" 
d="M-12 0l44 228l618 589h-477l47 244h819l-44 -228l-618 -589h524l-47 -244h-866zM537 1371q13 64 66 108.5t117 44.5q56 0 91.5 -34.5t35.5 -87.5q0 -16 -3 -31q-12 -64 -65.5 -108t-118.5 -44q-57 0 -91.5 34t-34.5 88q0 15 3 30z" />
    <glyph glyph-name="Zcaron" unicode="&#x17d;" horiz-adv-x="1249" 
d="M59 241l844 942h-630l50 251h976l-47 -241l-843 -942h681l-49 -251h-1028zM923 1544h-201l-232 350h267l102 -158l164 158h266z" />
    <glyph glyph-name="zcaron" unicode="&#x17e;" horiz-adv-x="1051" 
d="M-12 0l44 228l618 589h-477l47 244h819l-44 -228l-618 -589h524l-47 -244h-866zM744 1192h-200l-232 350h267l102 -159l164 159h266z" />
    <glyph glyph-name="longs" unicode="&#x17f;" horiz-adv-x="782" 
d="M927 1485l-43 -224q-47 5 -94 5q-86 0 -131 -36t-60 -112l-217 -1118h-282l158 816h-159l48 245h159l11 60q73 374 490 374q56 0 120 -10z" />
    <glyph glyph-name="uni0191" unicode="&#x191;" horiz-adv-x="1103" 
d="M458 581l-132 -678q-36 -185 -160.5 -281.5t-323.5 -96.5q-72 0 -125 10l47 242q47 -5 91 -5q81 0 125.5 36.5t58.5 112.5l294 1513h872l-49 -250h-582l-68 -354h532l-48 -249h-532z" />
    <glyph glyph-name="florin" unicode="&#x192;" horiz-adv-x="785" 
d="M81 -98l177 914h-159l48 245h159l11 60q73 374 490 374q56 0 120 -10l-43 -224q-47 5 -94 5q-86 0 -131 -36t-60 -112l-11 -57h257l-48 -245h-257l-179 -917q-72 -374 -488 -374q-56 0 -120 10l44 224q45 -5 94 -5q86 0 130.5 36t59.5 112z" />
    <glyph glyph-name="Aringacute" unicode="&#x1fa;" horiz-adv-x="1415" 
d="M664 1496q18 90 96 151t177 61q87 0 140 -48t53 -123q0 -22 -4 -41q-13 -76 -75 -133l228 -1363h-308l-44 323h-518l-169 -323h-309l757 1363q-28 42 -28 95q0 12 4 38zM898 560l-75 563l-294 -563h369zM827 1504q-3 -9 -3 -21q0 -24 16 -39.5t43 -15.5t49 16t30 40
q5 15 5 27q0 23 -16 38t-43 15q-28 0 -50.5 -16.5t-30.5 -43.5zM1049 1744h-248l237 253h264z" />
    <glyph glyph-name="aringacute" unicode="&#x1fb;" horiz-adv-x="1346" 
d="M743 1375q-6 -13 -6 -29q0 -24 16 -40t42 -16q28 0 51.5 17.5t30.5 45.5q3 11 3 20q0 24 -16.5 39t-42.5 15q-25 0 -46.5 -14.5t-31.5 -37.5zM582 1359q18 89 94.5 148.5t172.5 59.5q85 0 137 -47t52 -121q0 -23 -4 -40q-17 -88 -93.5 -148t-172.5 -60q-85 0 -137.5 47.5
t-52.5 121.5q0 19 4 39zM956 1606h-247l254 268h262zM596 224q91 0 174 46t135 123l53 275q-22 77 -87 123t-156 46q-130 0 -235 -88.5t-131 -218.5q-6 -33 -6 -62q0 -107 70 -175.5t183 -68.5zM705 1085q200 0 310 -131l20 107h279l-206 -1061h-279l21 106
q-160 -131 -362 -131q-195 0 -314 124.5t-119 315.5q0 55 12 115q22 113 82 215t144.5 177t192 119t219.5 44z" />
    <glyph glyph-name="AEacute" unicode="&#x1fc;" horiz-adv-x="1909" 
d="M217 0h-317l1072 1434h990l-48 -248h-587l-66 -342h537l-48 -246h-538l-67 -350h605l-48 -248h-893l62 323h-420zM1026 1118l-406 -558h298zM958 1544l335 350h283l-349 -350h-269z" />
    <glyph glyph-name="aeacute" unicode="&#x1fd;" horiz-adv-x="2087" 
d="M1993 446h-836v-8q0 -107 71 -172.5t188 -65.5q169 0 327 132l137 -164q-214 -193 -506 -193q-143 0 -252.5 55t-166.5 149q-88 -94 -216 -149t-267 -55q-199 0 -323.5 87t-124.5 220q0 27 5 52q19 95 98.5 173t198.5 122t251 44q86 0 167.5 -22.5t139.5 -59.5l6 34
q4 19 4 41q0 87 -69 141t-185 54q-91 0 -185.5 -33.5t-172.5 -89.5l-59 196q100 72 223 111.5t245 39.5q139 0 245 -54.5t158 -149.5q93 95 219.5 149.5t260.5 54.5q210 0 335.5 -121t125.5 -309q0 -48 -11 -106q-10 -57 -31 -103zM308 335q-2 -10 -2 -18q0 -53 64 -88
t166 -35q185 0 290 113l17 86q-86 81 -253 81q-111 0 -190.5 -40t-91.5 -99zM1528 861q-100 0 -189 -58.5t-136 -155.5h551q-5 96 -65 155t-161 59zM971 1212l335 351h282l-349 -351h-268z" />
    <glyph glyph-name="Oslashacute" unicode="&#x1fe;" horiz-adv-x="1695" 
d="M116 717q40 206 173.5 376t329 267.5t409.5 97.5q204 0 361 -92l124 129h232l-227 -232q150 -163 150 -403q0 -67 -14 -143q-40 -206 -174.5 -376.5t-330 -268t-409.5 -97.5q-218 0 -379 103l-135 -139h-231l242 247q-136 158 -136 384q0 72 15 147zM1360 717q9 51 9 98
q0 131 -65 227l-736 -753q96 -60 222 -60q131 0 252.5 64t206 176t111.5 248zM410 717q-11 -57 -11 -103q0 -117 54 -206l729 746q-89 50 -203 50q-200 0 -364.5 -140.5t-204.5 -346.5zM858 1544l335 350h283l-350 -350h-268z" />
    <glyph glyph-name="oslashacute" unicode="&#x1ff;" horiz-adv-x="1310" 
d="M67 530q30 153 131 280.5t250.5 201t315.5 73.5q149 0 264 -62l97 99h218l-192 -196q103 -117 103 -289q0 -54 -10 -107q-30 -153 -130.5 -280.5t-250 -201t-315.5 -73.5q-150 0 -265 63l-99 -99h-218l193 196q-103 120 -103 288q0 49 11 107zM975 530q6 33 6 63
q0 68 -32 127l-474 -484q57 -25 119 -25q135 0 245 92.5t136 226.5zM336 530q-6 -35 -6 -64q0 -70 29 -125l475 483q-57 25 -116 25q-134 0 -245 -92.5t-137 -226.5zM607 1212l335 351h283l-349 -351h-269z" />
    <glyph glyph-name="Scommaaccent" unicode="&#x218;" horiz-adv-x="1222" 
d="M31 206l205 195q60 -80 142.5 -128.5t177.5 -48.5q101 0 177 45.5t94 124.5q6 26 6 41q0 64 -57.5 110t-194.5 77q-179 39 -272 127t-93 217q0 33 8 78q35 182 191 298t366 116q143 0 254.5 -47.5t184.5 -134.5l-198 -204q-132 139 -277 139q-85 0 -148 -40t-75 -105
q-3 -16 -3 -34q0 -61 55.5 -103.5t180.5 -72.5q195 -47 287 -135.5t92 -221.5q0 -38 -10 -91q-37 -192 -203 -312.5t-407 -120.5q-156 0 -283.5 61t-199.5 170zM422 -481h-254l227 350h288z" />
    <glyph glyph-name="scommaaccent" unicode="&#x219;" horiz-adv-x="969" 
d="M-10 152l176 175q38 -58 102.5 -92t142.5 -34q73 0 119.5 28t56.5 77q2 14 2 22q0 39 -36.5 64.5t-123.5 43.5q-286 62 -286 272q0 28 8 68q27 135 149.5 222t293.5 87q106 0 196.5 -39t151.5 -105l-169 -176q-98 95 -199 95q-59 0 -100 -23.5t-49 -64.5q-2 -10 -2 -17
q0 -77 146 -109q299 -64 299 -273q0 -35 -7 -70q-28 -143 -157.5 -235.5t-315.5 -92.5q-132 0 -236.5 47t-161.5 130zM283 -481h-254l227 350h288z" />
    <glyph glyph-name="uni021A" unicode="&#x21a;" horiz-adv-x="1140" 
d="M323 0l229 1183h-369l49 251h1029l-50 -251h-368l-230 -1183h-290zM359 -481h-254l228 350h288z" />
    <glyph glyph-name="uni021B" unicode="&#x21b;" horiz-adv-x="805" 
d="M546 816l-87 -448q-5 -28 -5 -47q0 -52 33 -76.5t105 -24.5q54 0 101 5l-45 -235q-75 -15 -149 -15q-336 0 -336 270q0 45 11 105l90 466h-165l48 245h165l56 282l285 25l-59 -307h250l-48 -245h-250zM209 -481h-254l227 350h288z" />
    <glyph glyph-name="dotlessj" unicode="&#x237;" horiz-adv-x="565" 
d="M20 -92l225 1153h281l-227 -1167q-36 -188 -143.5 -278.5t-289.5 -90.5q-57 0 -97 7l46 238h54q65 0 101 31.5t50 106.5z" />
    <glyph glyph-name="apostrophe" unicode="&#x2bc;" horiz-adv-x="870" 
d="M436 1356q13 69 70 116.5t126 47.5q60 0 97.5 -37t37.5 -94q0 -17 -3 -33q-6 -34 -34 -77l-204 -308h-172l155 234q-35 15 -55.5 46t-20.5 72q0 17 3 33z" />
    <glyph glyph-name="circumflex" unicode="&#x2c6;" horiz-adv-x="870" 
d="M522 1495h201l231 -350h-266l-102 159l-164 -159h-266z" />
    <glyph glyph-name="caron" unicode="&#x2c7;" horiz-adv-x="870" 
d="M655 1145h-200l-232 350h266l103 -159l164 159h266z" />
    <glyph glyph-name="uni02C9" unicode="&#x2c9;" horiz-adv-x="870" 
d="M251 1213l41 211h635l-41 -211h-635z" />
    <glyph glyph-name="breve" unicode="&#x2d8;" horiz-adv-x="870" 
d="M556 1153q-131 0 -217 75.5t-86 196.5q0 20 4 50h235q-3 -21 -3 -26q0 -47 29 -77t75 -30q53 0 96.5 38t55.5 95h235q-33 -139 -156.5 -230.5t-267.5 -91.5z" />
    <glyph glyph-name="dotaccent" unicode="&#x2d9;" horiz-adv-x="870" 
d="M435 1322q13 64 66 108.5t117 44.5q56 0 91.5 -34.5t35.5 -87.5q0 -16 -3 -31q-12 -64 -65.5 -108.5t-117.5 -44.5q-57 0 -92 34.5t-35 88.5q0 15 3 30z" />
    <glyph glyph-name="ring" unicode="&#x2da;" horiz-adv-x="870" 
d="M519 1316q-1 -5 -1 -13q0 -24 15 -39.5t41 -15.5q30 0 53.5 19.5t28.5 48.5q1 5 1 13q0 24 -15 39t-41 15q-30 0 -53.5 -19t-28.5 -48zM356 1316q19 91 97 151.5t177 60.5q87 0 140 -48t53 -123q0 -22 -4 -41q-17 -90 -95 -151t-177 -61q-88 0 -141.5 48.5t-53.5 124.5
q0 19 4 39z" />
    <glyph glyph-name="ogonek" unicode="&#x2db;" horiz-adv-x="870" 
d="M304 0h191q-188 -132 -206 -225q-2 -10 -2 -19q0 -31 20.5 -49.5t54.5 -18.5q45 0 83 22l31 -131q-81 -48 -185 -48q-96 0 -156 49.5t-60 126.5q0 16 4 37q12 68 73 135t152 121z" />
    <glyph glyph-name="tilde" unicode="&#x2dc;" horiz-adv-x="870" 
d="M581 1217q-64 38 -92 38q-42 0 -76 -76l-216 45q89 232 257 232q70 0 140 -46q66 -39 92 -39q43 0 76 77l217 -45q-89 -233 -257 -233q-68 0 -141 47z" />
    <glyph glyph-name="hungarumlaut" unicode="&#x2dd;" horiz-adv-x="870" 
d="M160 1145l335 350h264l-346 -350h-253zM517 1145l335 350h264l-346 -350h-253z" />
    <glyph glyph-name="gravecomb" unicode="&#x300;" horiz-adv-x="0" 
d="M-294 1495l200 -350h-268l-215 350h283z" />
    <glyph glyph-name="acutecomb" unicode="&#x301;" horiz-adv-x="0" 
d="M-537 1145l335 350h283l-349 -350h-269z" />
    <glyph glyph-name="uni0302" unicode="&#x302;" horiz-adv-x="0" 
d="M-348 1495h201l231 -350h-266l-103 159l-164 -159h-266z" />
    <glyph glyph-name="tildecomb" unicode="&#x303;" horiz-adv-x="0" 
d="M-290 1217q-64 38 -91 38q-43 0 -77 -76l-216 45q89 232 257 232q71 0 141 -46q66 -39 92 -39q42 0 75 77l218 -45q-89 -233 -257 -233q-69 0 -142 47z" />
    <glyph glyph-name="uni0304" unicode="&#x304;" horiz-adv-x="0" 
d="M-620 1214l41 211h635l-41 -211h-635z" />
    <glyph glyph-name="uni0306" unicode="&#x306;" horiz-adv-x="0" 
d="M-314 1153q-131 0 -217 75.5t-86 196.5q0 20 4 50h234q-2 -14 -2 -26q0 -47 28.5 -77t74.5 -30q53 0 97 38t56 95h235q-33 -139 -156.5 -230.5t-267.5 -91.5z" />
    <glyph glyph-name="uni0307" unicode="&#x307;" horiz-adv-x="0" 
d="M-435 1322q13 64 66 108.5t117 44.5q56 0 91.5 -34.5t35.5 -87.5q0 -16 -3 -31q-12 -64 -65.5 -108.5t-117.5 -44.5q-57 0 -92 34.5t-35 88.5q0 15 3 30z" />
    <glyph glyph-name="uni0308" unicode="&#x308;" horiz-adv-x="0" 
d="M-629 1323q12 63 63.5 106.5t115.5 43.5q56 0 90.5 -33.5t34.5 -86.5q0 -15 -3 -30q-12 -63 -64 -106t-116 -43q-56 0 -90 33.5t-34 85.5q0 15 3 30zM-233 1323q12 63 63.5 106.5t115.5 43.5q56 0 90.5 -33.5t34.5 -86.5q0 -15 -3 -30q-12 -63 -64.5 -106t-116.5 -43
q-56 0 -90 33.5t-34 85.5q0 10 4 30z" />
    <glyph glyph-name="uni030A" unicode="&#x30a;" horiz-adv-x="0" 
d="M-351 1316q-1 -5 -1 -13q0 -24 15 -39.5t41 -15.5q30 0 53.5 19.5t28.5 48.5q1 5 1 13q0 24 -15 39t-41 15q-30 0 -53.5 -19t-28.5 -48zM-514 1316q19 91 96.5 151.5t176.5 60.5q87 0 140.5 -48t53.5 -123q0 -22 -4 -41q-17 -90 -95.5 -151t-177.5 -61q-87 0 -140.5 48.5
t-53.5 124.5q0 19 4 39z" />
    <glyph glyph-name="uni030C" unicode="&#x30c;" horiz-adv-x="0" 
d="M-215 1145h-201l-231 350h266l102 -159l164 159h267z" />
    <glyph glyph-name="uni0327" unicode="&#x327;" horiz-adv-x="0" 
d="M-553 -315q4 13 4 22q0 28 -22.5 45t-61.5 17q-27 0 -61 -6l-38 54l133 183h203l-93 -110q67 -19 104.5 -63t37.5 -103q0 -17 -3 -35q-19 -95 -113 -158t-217 -63q-124 0 -193 63l106 121q41 -35 104 -35q40 0 70.5 19t39.5 49z" />
    <glyph glyph-name="tonos" unicode="&#x384;" horiz-adv-x="870" 
d="M597 1114h-259l229 381h291z" />
    <glyph glyph-name="dieresistonos" unicode="&#x385;" horiz-adv-x="870" 
d="M218 1168q12 62 63 104t116 42q56 0 90.5 -32.5t34.5 -83.5q0 -15 -3 -30q-11 -62 -62 -103.5t-116 -41.5q-57 0 -91.5 32.5t-34.5 84.5q0 14 3 28zM599 1168q12 62 63 104t116 42q56 0 90.5 -32.5t34.5 -83.5q0 -15 -3 -30q-11 -62 -62 -103.5t-116 -41.5
q-57 0 -91.5 32.5t-34.5 84.5q0 14 3 28zM694 1346h-248l253 268h263z" />
    <glyph glyph-name="Alphatonos" unicode="&#x386;" horiz-adv-x="1484" 
d="M793 1434h321l235 -1434h-309l-44 323h-518l-169 -323h-308zM968 560l-75 563l-294 -563h369zM385 1053h-259l229 381h291z" />
    <glyph glyph-name="anoteleia" unicode="&#x387;" horiz-adv-x="617" 
d="M162 667q14 72 73 121t133 49q65 0 104.5 -38.5t39.5 -98.5q0 -16 -3 -33q-14 -72 -73 -121t-134 -49q-65 0 -104 38t-39 98q0 17 3 34z" />
    <glyph glyph-name="Epsilontonos" unicode="&#x388;" horiz-adv-x="1553" 
d="M434 0l279 1434h893l-48 -248h-603l-66 -342h553l-48 -246h-553l-68 -350h621l-48 -248h-912zM385 1053h-259l229 381h291z" />
    <glyph glyph-name="Etatonos" unicode="&#x389;" horiz-adv-x="1827" 
d="M434 0l279 1434h291l-115 -588h553l114 588h291l-278 -1434h-291l115 595h-553l-115 -595h-291zM385 1053h-259l229 381h291z" />
    <glyph glyph-name="Iotatonos" unicode="&#x38a;" horiz-adv-x="993" 
d="M714 1434h291l-279 -1434h-291zM385 1053h-259l229 381h291z" />
    <glyph glyph-name="Omicrontonos" unicode="&#x38c;" horiz-adv-x="1940" 
d="M654 717q-10 -50 -10 -102q0 -170 108.5 -278t281.5 -108q200 0 365 141t205 347q11 55 11 100q0 170 -108.5 278.5t-282.5 108.5q-200 0 -365 -140.5t-205 -346.5zM360 717q40 206 174 376t329.5 267.5t409.5 97.5q142 0 262 -45t202.5 -123.5t129 -189t46.5 -239.5
q0 -62 -15 -144q-30 -154 -116.5 -291.5t-207.5 -236.5t-275 -156.5t-314 -57.5q-188 0 -334.5 77t-225.5 212.5t-79 306.5q0 76 14 146zM385 1053h-259l229 381h291z" />
    <glyph glyph-name="Upsilontonos" unicode="&#x38e;" horiz-adv-x="1803" 
d="M993 1434l207 -580l432 580h314l-655 -856l-111 -578h-291l111 578l-320 856h313zM385 1053h-259l229 381h291z" />
    <glyph glyph-name="Omegatonos" unicode="&#x38f;" horiz-adv-x="1907" 
d="M1569 751q9 48 9 92q0 158 -101.5 259.5t-263.5 101.5q-187 0 -340.5 -131t-190.5 -322q-10 -50 -10 -102q0 -131 65.5 -237.5t185.5 -170.5l-46 -241h-615l49 254h284q-213 158 -213 409q0 61 11 116q27 140 109 265.5t198 216.5t263 144t300 53q273 0 445 -157
t172 -398q0 -59 -12 -124q-31 -162 -135 -295.5t-270 -229.5h284l-49 -254h-615l46 241q172 76 290.5 212.5t149.5 297.5zM385 1053h-259l229 381h291z" />
    <glyph glyph-name="iotadieresistonos" unicode="&#x390;" horiz-adv-x="602" 
d="M91 273l154 788h281l-139 -717q-3 -16 -3 -29q0 -69 82 -69h37l-47 -242q-50 -4 -95 -4q-277 0 -277 203q0 34 7 70zM93 1306q12 62 63 103.5t116 41.5q56 0 90.5 -32.5t34.5 -83.5q0 -14 -3 -29q-11 -62 -62 -104t-116 -42q-57 0 -91.5 32.5t-34.5 84.5q0 15 3 29z
M474 1306q12 62 63 103.5t116 41.5q56 0 90.5 -32.5t34.5 -83.5q0 -14 -3 -29q-11 -62 -62 -104t-116 -42q-57 0 -91.5 32.5t-34.5 84.5q0 15 3 29zM569 1483h-247l252 268h263z" />
    <glyph glyph-name="Alpha" unicode="&#x391;" horiz-adv-x="1415" 
d="M723 1434h321l235 -1434h-308l-44 323h-518l-169 -323h-309zM898 560l-75 563l-294 -563h369z" />
    <glyph glyph-name="Beta" unicode="&#x392;" horiz-adv-x="1282" 
d="M665 0h-611l279 1434h539q171 0 264.5 -79.5t93.5 -218.5q0 -42 -9 -90q-20 -103 -81.5 -176.5t-147.5 -108.5q87 -25 139.5 -94.5t52.5 -170.5q0 -35 -8 -78q-36 -186 -176.5 -302t-334.5 -116zM934 1023q4 21 4 45q0 61 -36 93t-99 32h-232l-65 -339h231q74 0 127.5 44
t69.5 125zM887 431q5 28 5 50q0 66 -38 104t-103 38h-290l-75 -382h290q77 0 135.5 52t75.5 138z" />
    <glyph glyph-name="Gamma" unicode="&#x393;" horiz-adv-x="1064" 
d="M54 0l279 1434h872l-49 -251h-582l-229 -1183h-291z" />
    <glyph glyph-name="uni0394" unicode="&#x394;" horiz-adv-x="1415" 
d="M1044 1434l235 -1434h-1348l792 1434h321zM823 1123l-464 -878h586z" />
    <glyph glyph-name="Epsilon" unicode="&#x395;" horiz-adv-x="1173" 
d="M54 0l279 1434h893l-48 -248h-603l-66 -342h553l-48 -246h-553l-68 -350h621l-48 -248h-912z" />
    <glyph glyph-name="Zeta" unicode="&#x396;" horiz-adv-x="1249" 
d="M59 241l844 942h-630l50 251h976l-47 -241l-843 -942h681l-49 -251h-1028z" />
    <glyph glyph-name="Eta" unicode="&#x397;" horiz-adv-x="1447" 
d="M54 0l279 1434h291l-115 -588h553l115 588h290l-278 -1434h-291l115 595h-553l-115 -595h-291z" />
    <glyph glyph-name="Theta" unicode="&#x398;" horiz-adv-x="1695" 
d="M571 596l47 242h580l-47 -242h-580zM116 717q40 206 173.5 376t329 267.5t409.5 97.5q142 0 262 -45t202.5 -123.5t129 -189t46.5 -239.5q0 -68 -14 -144q-40 -206 -174.5 -376.5t-330 -268t-409.5 -97.5q-188 0 -334.5 77t-225.5 212.5t-79 306.5q0 71 15 146zM404 717
q-10 -50 -10 -102q0 -171 109.5 -281t284.5 -110q132 0 255 64.5t209 178t113 250.5q10 58 10 100q0 172 -109.5 282t-285.5 110q-202 0 -369 -142t-207 -350z" />
    <glyph glyph-name="Iota" unicode="&#x399;" horiz-adv-x="620" 
d="M341 1434h291l-279 -1434h-291z" />
    <glyph glyph-name="Kappa" unicode="&#x39a;" horiz-adv-x="1268" 
d="M624 1434l-114 -585h82l474 585h320l-576 -707l377 -727h-327l-309 598h-90l-116 -598h-291l279 1434h291z" />
    <glyph glyph-name="Lambda" unicode="&#x39b;" horiz-adv-x="1415" 
d="M1279 0h-308l-152 1105l-579 -1105h-309l792 1434h321z" />
    <glyph glyph-name="Mu" unicode="&#x39c;" horiz-adv-x="1759" 
d="M956 428h-192l-243 566l-192 -994h-275l279 1434h297l292 -689l560 689h297l-279 -1434h-274l192 994z" />
    <glyph glyph-name="Nu" unicode="&#x39d;" horiz-adv-x="1447" 
d="M54 0l279 1434h295l378 -965l187 965h274l-278 -1434h-295l-378 965l-187 -965h-275z" />
    <glyph glyph-name="Xi" unicode="&#x39e;" horiz-adv-x="1197" 
d="M253 1186l48 248h947l-48 -248h-947zM3 0l48 248h986l-48 -248h-986zM1023 598h-822l48 246h822z" />
    <glyph glyph-name="Omicron" unicode="&#x39f;" horiz-adv-x="1695" 
d="M410 717q-11 -55 -11 -102q0 -169 109 -277.5t282 -108.5q200 0 364.5 141t204.5 347q11 55 11 100q0 170 -108.5 278.5t-282.5 108.5q-200 0 -364.5 -140.5t-204.5 -346.5zM116 717q40 206 173.5 376t329 267.5t409.5 97.5q142 0 262 -45t202.5 -123.5t129 -189
t46.5 -239.5q0 -68 -14 -144q-40 -206 -174.5 -376.5t-330 -268t-409.5 -97.5q-188 0 -334.5 77t-225.5 212.5t-79 306.5q0 71 15 146z" />
    <glyph glyph-name="Pi" unicode="&#x3a0;" horiz-adv-x="1394" 
d="M1414 1434l-278 -1434h-291l229 1183h-500l-229 -1183h-291l279 1434h1081z" />
    <glyph glyph-name="Rho" unicode="&#x3a1;" horiz-adv-x="1228" 
d="M657 500h-216l-96 -500h-291l279 1434h507q197 0 308.5 -98.5t111.5 -265.5q0 -46 -11 -103q-41 -210 -202.5 -338.5t-389.5 -128.5zM958 967q7 33 7 56q0 80 -50.5 125.5t-145.5 45.5h-192l-89 -455h193q111 0 183.5 61.5t93.5 166.5z" />
    <glyph glyph-name="Sigma" unicode="&#x3a3;" horiz-adv-x="1204" 
d="M63 261l457 458l-279 453l51 262h973l-50 -250h-634l254 -398l-27 -137l-411 -399h637l-48 -250h-973z" />
    <glyph glyph-name="Tau" unicode="&#x3a4;" horiz-adv-x="1140" 
d="M323 0l229 1183h-369l49 251h1029l-50 -251h-368l-230 -1183h-290z" />
    <glyph glyph-name="Upsilon" unicode="&#x3a5;" horiz-adv-x="1333" 
d="M523 1434l207 -580l432 580h314l-655 -856l-111 -578h-291l111 578l-320 856h313z" />
    <glyph glyph-name="Phi" unicode="&#x3a6;" horiz-adv-x="1583" 
d="M549 0l38 197q-219 0 -358 120.5t-139 306.5q0 43 9 91q28 144 129.5 263t249.5 187t310 68l39 201h281l-39 -201q218 0 357 -120t139 -306q0 -39 -10 -92q-28 -144 -129 -263t-249 -187t-310 -68l-38 -197h-280zM1272 715q5 27 5 48q0 96 -71.5 159.5t-184.5 63.5
l-107 -544q128 0 232 79.5t126 193.5zM383 715q-4 -21 -4 -47q0 -97 71 -161.5t184 -64.5l106 544q-128 0 -231 -78.5t-126 -192.5z" />
    <glyph glyph-name="Chi" unicode="&#x3a7;" horiz-adv-x="1316" 
d="M1189 0h-317l-214 528l-418 -528h-317l596 731l-297 703h317l198 -499l393 499h317l-571 -703z" />
    <glyph glyph-name="Psi" unicode="&#x3a8;" horiz-adv-x="1435" 
d="M1030 1434l-165 -845q92 36 158.5 115t85.5 178l108 552h272l-111 -566q-39 -199 -196 -349.5t-367 -191.5l-63 -327h-273l64 327q-167 36 -266 154.5t-99 282.5q0 53 10 104l111 566h272l-107 -552q-6 -34 -6 -66q0 -77 35.5 -137.5t99.5 -89.5l165 845h272z" />
    <glyph glyph-name="uni03A9" unicode="&#x3a9;" horiz-adv-x="1650" 
d="M1312 751q9 48 9 92q0 158 -101.5 259.5t-263.5 101.5q-187 0 -340.5 -131t-190.5 -322q-10 -50 -10 -102q0 -131 65.5 -237.5t185.5 -170.5l-46 -241h-615l49 254h284q-213 158 -213 409q0 61 11 116q27 140 109 265.5t198 216.5t263 144t300 53q273 0 445 -157
t172 -398q0 -59 -12 -124q-31 -162 -135 -295.5t-270 -229.5h284l-49 -254h-615l46 241q172 76 290.5 212.5t149.5 297.5z" />
    <glyph glyph-name="Iotadieresis" unicode="&#x3aa;" horiz-adv-x="620" 
d="M341 1434h291l-279 -1434h-291zM190 1704q12 63 64 106t116 43q56 0 90.5 -33t34.5 -86q0 -15 -3 -30q-12 -63 -64.5 -106.5t-116.5 -43.5q-56 0 -90 34t-34 86q0 15 3 30zM586 1704q12 63 63.5 106t115.5 43q56 0 90.5 -33t34.5 -86q0 -15 -3 -30q-12 -63 -64 -106.5
t-116 -43.5q-56 0 -90 34t-34 86q0 15 3 30z" />
    <glyph glyph-name="Upsilondieresis" unicode="&#x3ab;" horiz-adv-x="1333" 
d="M523 1434l207 -580l432 580h314l-655 -856l-111 -578h-291l111 578l-320 856h313zM547 1704q12 63 63.5 106t115.5 43q56 0 90.5 -33t34.5 -86q0 -15 -3 -30q-12 -63 -64 -106.5t-116 -43.5q-56 0 -90 34t-34 86q0 15 3 30zM942 1704q12 63 63.5 106t115.5 43
q56 0 90.5 -33t34.5 -86q0 -15 -3 -30q-12 -63 -64 -106.5t-116 -43.5q-56 0 -90 34t-34 86q0 15 3 30z" />
    <glyph glyph-name="alphatonos" unicode="&#x3ac;" horiz-adv-x="1420" 
d="M1183 0q-139 0 -206 30.5t-82 109.5q-172 -165 -403 -165q-198 0 -317.5 124.5t-119.5 315.5q0 55 12 115q22 113 82 215t144.5 177t192 119t219.5 44q200 0 310 -131l20 107h279l-136 -702q-3 -15 -3 -29q0 -40 25 -62t70 -22h51l-47 -242q-46 -4 -91 -4zM596 224
q91 0 174 46t135 123l53 275q-22 77 -87 123t-156 46q-130 0 -235 -88.5t-131 -218.5q-6 -33 -6 -62q0 -107 70 -175.5t183 -68.5zM580 1212l334 351h283l-349 -351h-268z" />
    <glyph glyph-name="epsilontonos" unicode="&#x3ad;" horiz-adv-x="985" 
d="M301 326q-2 -14 -2 -21q0 -47 40 -77.5t103 -30.5q148 0 251 111l166 -142q-76 -89 -196 -140t-260 -51q-171 0 -279.5 79.5t-108.5 201.5q0 22 5 50q18 91 91.5 163.5t167.5 100.5q-59 23 -92 71.5t-33 108.5q0 22 4 42q25 125 155 209t300 84q136 0 224 -50.5
t118 -139.5l-241 -125q-12 42 -49 67t-93 25q-55 0 -97 -26t-49 -65q-1 -5 -1 -14q0 -35 30.5 -58.5t80.5 -23.5h160l-43 -218h-154q-72 0 -130 -38t-68 -93zM409 1212l334 351h283l-349 -351h-268z" />
    <glyph glyph-name="etatonos" unicode="&#x3ae;" horiz-adv-x="1255" 
d="M450 690l-135 -690h-281l206 1061h281l-22 -117q67 64 153.5 102.5t171.5 38.5q161 0 256 -90t95 -242q0 -45 -11 -100l-220 -1128h-281l214 1101q5 27 5 47q0 73 -46 118.5t-129 45.5q-65 0 -136.5 -43.5t-120.5 -103.5zM582 1212l334 351h283l-349 -351h-268z" />
    <glyph glyph-name="iotatonos" unicode="&#x3af;" horiz-adv-x="602" 
d="M91 273l154 788h281l-139 -717q-3 -16 -3 -29q0 -69 82 -69h37l-47 -242q-50 -4 -95 -4q-277 0 -277 203q0 34 7 70zM230 1212l335 351h283l-349 -351h-269z" />
    <glyph glyph-name="upsilondieresistonos" unicode="&#x3b0;" horiz-adv-x="1187" 
d="M486 -25q-178 0 -289 102t-111 259q0 37 8 82l125 643h282l-122 -629q-5 -27 -5 -46q0 -72 44.5 -117t116.5 -45q84 0 151.5 59.5t85.5 148.5l122 629h282l-125 -643q-36 -186 -199.5 -314.5t-365.5 -128.5zM403 1306q12 62 63.5 103.5t116.5 41.5q56 0 90.5 -32.5
t34.5 -83.5q0 -14 -3 -29q-11 -62 -62.5 -104t-116.5 -42q-57 0 -91.5 32.5t-34.5 84.5q0 15 3 29zM784 1306q12 62 63.5 103.5t116.5 41.5q56 0 90.5 -32.5t34.5 -83.5q0 -9 -4 -29q-11 -62 -62 -104t-116 -42q-57 0 -91.5 32.5t-34.5 84.5q0 15 3 29zM880 1483h-248
l253 268h262z" />
    <glyph glyph-name="alpha" unicode="&#x3b1;" horiz-adv-x="1420" 
d="M1183 0q-139 0 -206 30.5t-82 109.5q-172 -165 -403 -165q-198 0 -317.5 124.5t-119.5 315.5q0 55 12 115q22 113 82 215t144.5 177t192 119t219.5 44q200 0 310 -131l20 107h279l-136 -702q-3 -15 -3 -29q0 -40 25 -62t70 -22h51l-47 -242q-46 -4 -91 -4zM596 224
q91 0 174 46t135 123l53 275q-22 77 -87 123t-156 46q-130 0 -235 -88.5t-131 -218.5q-6 -33 -6 -62q0 -107 70 -175.5t183 -68.5z" />
    <glyph glyph-name="beta" unicode="&#x3b2;" horiz-adv-x="1244" 
d="M1151 1068q-17 -89 -89 -165.5t-176 -112.5q117 -20 191.5 -104.5t74.5 -207.5q0 -39 -7 -77q-35 -181 -184 -303.5t-332 -122.5q-104 0 -180 43t-98 118l-119 -611h-282l299 1536q33 171 183.5 284t343.5 113q170 0 276 -90t106 -230q0 -32 -7 -70zM866 1054q3 18 3 33
q0 60 -38 97t-101 37q-76 0 -132 -53t-73 -139l-106 -548q-7 -36 -7 -71q0 -91 50.5 -142.5t140.5 -51.5q92 0 164.5 58.5t90.5 148.5q4 20 4 44q0 88 -73.5 133.5t-203.5 45.5l46 236q99 1 160 49.5t75 122.5z" />
    <glyph glyph-name="gamma" unicode="&#x3b3;" horiz-adv-x="1100" 
d="M214 -475l92 473l-183 1063h293l100 -710l376 710h293l-597 -1063l-92 -473h-282z" />
    <glyph glyph-name="delta" unicode="&#x3b4;" horiz-adv-x="1168" 
d="M334 455q-5 -27 -5 -48q0 -83 54.5 -136t139.5 -53q99 0 181 68.5t102 168.5q4 21 4 47q0 84 -54 136.5t-141 52.5q-98 0 -180 -68t-101 -168zM571 925l-228 287l43 222h759l-48 -248h-407l331 -418q75 -95 75 -229q0 -32 -9 -84q-26 -136 -120.5 -247.5t-225 -172
t-268.5 -60.5q-183 0 -306.5 110t-123.5 282q0 41 9 88q35 181 183.5 311t335.5 159z" />
    <glyph glyph-name="epsilon" unicode="&#x3b5;" horiz-adv-x="985" 
d="M301 326q-2 -14 -2 -21q0 -47 40 -77.5t103 -30.5q148 0 251 111l166 -142q-76 -89 -196 -140t-260 -51q-171 0 -279.5 79.5t-108.5 201.5q0 22 5 50q18 91 91.5 163.5t167.5 100.5q-59 23 -92 71.5t-33 108.5q0 22 4 42q25 125 155 209t300 84q136 0 224 -50.5
t118 -139.5l-241 -125q-12 42 -49 67t-93 25q-55 0 -97 -26t-49 -65q-1 -5 -1 -14q0 -35 30.5 -58.5t80.5 -23.5h160l-43 -218h-154q-72 0 -130 -38t-68 -93z" />
    <glyph glyph-name="zeta" unicode="&#x3b6;" horiz-adv-x="972" 
d="M34 375q19 99 86.5 193t173.5 198l428 420h-426l48 248h750l-45 -232l-556 -556q-156 -158 -176 -265q-4 -21 -4 -39q0 -103 117 -166l219 -119q129 -70 129 -212q0 -30 -6 -64q-25 -129 -142 -256h-277q109 114 129 219q3 15 3 29q0 76 -68 112l-190 98
q-98 51 -149.5 131t-51.5 180q0 38 8 81z" />
    <glyph glyph-name="eta" unicode="&#x3b7;" horiz-adv-x="1255" 
d="M450 690l-135 -690h-281l206 1061h281l-22 -117q67 64 153.5 102.5t171.5 38.5q161 0 256 -90t95 -242q0 -45 -11 -100l-220 -1128h-281l214 1101q5 27 5 47q0 73 -46 118.5t-129 45.5q-65 0 -136.5 -43.5t-120.5 -103.5z" />
    <glyph glyph-name="theta" unicode="&#x3b8;" horiz-adv-x="1316" 
d="M101 717q29 151 98.5 286.5t166 236t220 159.5t253.5 59q146 0 253.5 -73t161.5 -198t54 -284q0 -83 -19 -186q-39 -202 -145.5 -370.5t-263 -270t-329.5 -101.5q-145 0 -252.5 73t-161.5 197t-54 283q0 92 18 189zM792 1214q-119 0 -221.5 -107.5t-155.5 -273.5h606
q2 32 2 48q0 147 -60.5 240t-170.5 93zM598 218q119 0 221.5 108t156.5 275h-606q-2 -34 -2 -51q0 -147 60 -239.5t170 -92.5z" />
    <glyph glyph-name="iota" unicode="&#x3b9;" horiz-adv-x="602" 
d="M91 273l154 788h281l-139 -717q-3 -16 -3 -29q0 -69 82 -69h37l-47 -242q-50 -4 -95 -4q-277 0 -277 203q0 34 7 70z" />
    <glyph glyph-name="kappa" unicode="&#x3ba;" horiz-adv-x="1098" 
d="M680 0l-187 464h-87l-91 -464h-281l206 1061h281l-69 -355h91l292 355h317l-404 -477l244 -584h-312z" />
    <glyph glyph-name="lambda" unicode="&#x3bb;" horiz-adv-x="1099" 
d="M509 1043l-91 452h293l267 -1495h-293l-108 682l-367 -682h-293z" />
    <glyph glyph-name="uni03BC" unicode="&#x3bc;" horiz-adv-x="1275" 
d="M-59 -475l299 1536h281l-133 -686q4 -68 53 -109.5t121 -41.5q68 0 142.5 46.5t124.5 112.5l133 678h281l-206 -1061h-281l22 120q-61 -65 -136.5 -105t-148.5 -40q-111 0 -166 86l-105 -536h-281z" />
    <glyph glyph-name="nu" unicode="&#x3bd;" horiz-adv-x="1099" 
d="M891 1061h293l-585 -1061h-303l-173 1061h293l97 -722z" />
    <glyph glyph-name="xi" unicode="&#x3be;" horiz-adv-x="983" 
d="M328 383q-5 -27 -5 -48q0 -127 142 -187l155 -64q171 -71 171 -235q0 -21 -7 -60q-26 -133 -144 -264h-276q109 113 129 218q3 15 3 31q0 74 -76 107l-140 57q-117 46 -181 140t-64 211q0 36 8 81q26 135 127.5 244.5t238.5 157.5q-80 37 -123.5 106.5t-43.5 155.5
q0 30 6 63q30 153 170 257t317 104q223 0 322 -148l-209 -183q-62 100 -151 100q-65 0 -117 -47t-65 -120q-4 -21 -4 -39q0 -59 35.5 -96t93.5 -37h226l-45 -231h-180q-110 0 -200 -78t-113 -196z" />
    <glyph glyph-name="omicron" unicode="&#x3bf;" horiz-adv-x="1310" 
d="M67 530q30 153 131 280.5t250.5 201t315.5 73.5q221 0 355.5 -126t134.5 -322q0 -54 -10 -107q-30 -153 -130.5 -280.5t-250 -201t-315.5 -73.5q-220 0 -356 126.5t-136 322.5q0 48 11 106zM349 530q-6 -33 -6 -62q0 -107 70 -175.5t183 -68.5q130 0 235.5 88t131.5 218
q6 33 6 62q0 107 -70 176t-184 69q-129 0 -234.5 -89t-131.5 -218z" />
    <glyph glyph-name="pi" unicode="&#x3c0;" horiz-adv-x="1189" 
d="M514 812l-158 -812h-279l157 812h-133l49 249h1097l-48 -249h-134l-158 -812h-279l157 812h-271z" />
    <glyph glyph-name="rho" unicode="&#x3c1;" horiz-adv-x="1326" 
d="M-80 -475l196 1005q30 153 127.5 280t243.5 201t310 74q215 0 344.5 -124.5t129.5 -318.5q0 -52 -11 -112q-22 -113 -84.5 -215.5t-150 -177t-198 -118.5t-223.5 -44q-195 0 -294 121l-111 -571h-279zM394 530l-27 -143q25 -74 90.5 -118.5t155.5 -44.5q128 0 233.5 88
t130.5 218q7 40 7 67q0 105 -65.5 172.5t-173.5 67.5q-126 0 -225.5 -88.5t-125.5 -218.5z" />
    <glyph glyph-name="sigma1" unicode="&#x3c2;" horiz-adv-x="1110" 
d="M351 530q-7 -35 -7 -72q0 -83 40.5 -148t119.5 -104l233 -116q151 -75 151 -233q0 -26 -7 -68q-24 -132 -142 -264h-275q109 115 129 218q3 15 3 29q0 77 -74 114l-218 107q-119 59 -184.5 166t-65.5 247q0 54 13 124q30 153 131 280.5t250.5 201t315.5 73.5
q231 0 373 -142l-181 -210q-108 104 -239 104q-129 0 -234.5 -89t-131.5 -218z" />
    <glyph glyph-name="sigma" unicode="&#x3c3;" horiz-adv-x="1363" 
d="M65 518q29 149 129 273.5t246.5 197t305.5 72.5h673l-48 -249h-234q84 -97 84 -237q0 -30 -9 -82q-20 -102 -82.5 -197t-152 -165.5t-205.5 -113t-236 -42.5q-213 0 -347.5 124.5t-134.5 316.5q0 44 11 102zM346 518q-6 -30 -6 -59q0 -103 68 -169t176 -66
q125 0 226 84.5t126 209.5q6 30 6 60q0 103 -67.5 168.5t-176.5 65.5q-125 0 -226 -84.5t-126 -209.5z" />
    <glyph glyph-name="tau" unicode="&#x3c4;" horiz-adv-x="1012" 
d="M323 367l87 445h-312l48 249h927l-48 -249h-334l-83 -425q-6 -28 -6 -51q0 -49 27 -71t82 -22h50l-47 -242q-48 -4 -96 -4q-160 0 -234.5 58.5t-74.5 186.5q0 53 14 125z" />
    <glyph glyph-name="upsilon" unicode="&#x3c5;" horiz-adv-x="1187" 
d="M486 -25q-178 0 -289 102t-111 259q0 37 8 82l125 643h282l-122 -629q-5 -27 -5 -46q0 -72 44.5 -117t116.5 -45q84 0 151.5 59.5t85.5 148.5l122 629h282l-125 -643q-36 -186 -199.5 -314.5t-365.5 -128.5z" />
    <glyph glyph-name="phi" unicode="&#x3c6;" horiz-adv-x="1438" 
d="M357 968l148 -173q-142 -114 -172 -265q-6 -30 -6 -61q0 -95 55.5 -161.5t149.5 -82.5l168 860h195q219 0 353 -126.5t134 -321.5q0 -54 -10 -107q-42 -217 -219.5 -372.5t-407.5 -177.5l-89 -455h-260l89 455q-195 18 -312 141t-117 304q0 48 11 105q26 133 104 247
t186 191zM1107 530q6 30 6 61q0 94 -55 160t-147 83l-118 -609q116 21 204 105.5t110 199.5z" />
    <glyph glyph-name="chi" unicode="&#x3c7;" horiz-adv-x="1085" 
d="M1162 1061l-495 -748l217 -788h-299l-136 522l-339 -522h-298l523 788l-205 748h299l123 -482l311 482h299z" />
    <glyph glyph-name="psi" unicode="&#x3c8;" horiz-adv-x="1416" 
d="M943 1061l-159 -815q95 30 162 102.5t86 166.5l107 546h265l-110 -563q-37 -190 -193.5 -331t-366.5 -179l-90 -463h-263l90 463q-169 33 -270 145.5t-101 269.5q0 40 10 95l109 563h265l-106 -546q-5 -28 -5 -55q0 -75 39.5 -131.5t108.5 -82.5l159 815h263z" />
    <glyph glyph-name="omega" unicode="&#x3c9;" horiz-adv-x="1649" 
d="M1025 838l-57 -292q-13 -70 -13 -122q0 -91 31 -145.5t87 -54.5q72 0 135.5 84.5t88.5 211.5q14 73 14 140q0 188 -86 401h279q91 -210 91 -394q0 -76 -14 -147q-44 -230 -198 -387.5t-335 -157.5q-109 0 -185 61t-104 157q-64 -95 -163.5 -156.5t-208.5 -61.5
q-152 0 -244 114t-92 295q0 63 14 136q49 251 287 541h280q-236 -295 -284 -541q-10 -53 -10 -102q0 -88 32 -141t88 -53q74 0 138.5 92t91.5 230l57 292h280z" />
    <glyph glyph-name="iotadieresis" unicode="&#x3ca;" horiz-adv-x="602" 
d="M91 273l154 788h281l-139 -717q-3 -16 -3 -29q0 -69 82 -69h37l-47 -242q-50 -4 -95 -4q-277 0 -277 203q0 34 7 70zM98 1372q12 63 64 106.5t116 43.5q56 0 90 -33.5t34 -86.5q0 -15 -3 -30q-12 -63 -64 -106t-116 -43q-56 0 -90 33.5t-34 85.5q0 15 3 30zM494 1372
q12 63 63.5 106.5t115.5 43.5q56 0 90.5 -33.5t34.5 -86.5q0 -15 -3 -30q-12 -63 -64.5 -106t-116.5 -43q-56 0 -90 33.5t-34 85.5q0 10 4 30z" />
    <glyph glyph-name="upsilondieresis" unicode="&#x3cb;" horiz-adv-x="1187" 
d="M486 -25q-178 0 -289 102t-111 259q0 37 8 82l125 643h282l-122 -629q-5 -27 -5 -46q0 -72 44.5 -117t116.5 -45q84 0 151.5 59.5t85.5 148.5l122 629h282l-125 -643q-36 -186 -199.5 -314.5t-365.5 -128.5zM410 1372q12 63 63.5 106.5t115.5 43.5q56 0 90.5 -33.5
t34.5 -86.5q0 -15 -3 -30q-12 -63 -64.5 -106t-116.5 -43q-56 0 -89.5 33.5t-33.5 85.5q0 15 3 30zM805 1372q12 63 63.5 106.5t115.5 43.5q56 0 90.5 -33.5t34.5 -86.5q0 -15 -3 -30q-12 -63 -64 -106t-116 -43q-56 0 -90 33.5t-34 85.5q0 15 3 30z" />
    <glyph glyph-name="omicrontonos" unicode="&#x3cc;" horiz-adv-x="1310" 
d="M67 530q30 153 131 280.5t250.5 201t315.5 73.5q221 0 355.5 -126t134.5 -322q0 -54 -10 -107q-30 -153 -130.5 -280.5t-250 -201t-315.5 -73.5q-220 0 -356 126.5t-136 322.5q0 48 11 106zM349 530q-6 -33 -6 -62q0 -107 70 -175.5t183 -68.5q130 0 235.5 88t131.5 218
q6 33 6 62q0 107 -70 176t-184 69q-129 0 -234.5 -89t-131.5 -218zM607 1212l335 351h283l-349 -351h-269z" />
    <glyph glyph-name="upsilontonos" unicode="&#x3cd;" horiz-adv-x="1187" 
d="M486 -25q-178 0 -289 102t-111 259q0 37 8 82l125 643h282l-122 -629q-5 -27 -5 -46q0 -72 44.5 -117t116.5 -45q84 0 151.5 59.5t85.5 148.5l122 629h282l-125 -643q-36 -186 -199.5 -314.5t-365.5 -128.5zM536 1212l334 351h283l-349 -351h-268z" />
    <glyph glyph-name="omegatonos" unicode="&#x3ce;" horiz-adv-x="1649" 
d="M1025 838l-57 -292q-13 -70 -13 -122q0 -91 31 -145.5t87 -54.5q72 0 135.5 84.5t88.5 211.5q14 73 14 140q0 188 -86 401h279q91 -210 91 -394q0 -76 -14 -147q-44 -230 -198 -387.5t-335 -157.5q-109 0 -185 61t-104 157q-64 -95 -163.5 -156.5t-208.5 -61.5
q-152 0 -244 114t-92 295q0 63 14 136q49 251 287 541h280q-236 -295 -284 -541q-10 -53 -10 -102q0 -88 32 -141t88 -53q74 0 138.5 92t91.5 230l57 292h280zM785 1212l335 351h283l-349 -351h-269z" />
    <glyph glyph-name="uni0400" unicode="&#x400;" horiz-adv-x="1173" 
d="M54 0l279 1434h893l-48 -248h-603l-66 -342h553l-48 -246h-553l-68 -350h621l-48 -248h-912zM773 1894l200 -350h-268l-215 350h283z" />
    <glyph glyph-name="afii10023" unicode="&#x401;" horiz-adv-x="1173" 
d="M54 0l279 1434h893l-48 -248h-603l-66 -342h553l-48 -246h-553l-68 -350h621l-48 -248h-912zM487 1704q12 63 64 106t116 43q56 0 90.5 -33t34.5 -86q0 -10 -4 -30q-12 -63 -64 -106.5t-116 -43.5q-56 0 -90 34t-34 86q0 15 3 30zM883 1704q12 63 63.5 106t115.5 43
q56 0 90.5 -33t34.5 -86q0 -15 -3 -30q-12 -63 -64 -106.5t-116 -43.5q-56 0 -90 34t-34 86q0 15 3 30z" />
    <glyph glyph-name="afii10051" unicode="&#x402;" horiz-adv-x="1480" 
d="M891 -4q-63 0 -95 4l46 241h49q75 0 136 50.5t75 125.5l14 76q3 18 3 36q0 64 -41.5 104.5t-109.5 40.5q-155 0 -251 -133l-105 -541h-290l230 1186h-368l48 248h1028l-49 -248h-368l-74 -377q127 113 298 113q156 0 253.5 -93t97.5 -238q0 -38 -7 -79l-21 -112
q-34 -170 -178 -287t-321 -117z" />
    <glyph glyph-name="afii10052" unicode="&#x403;" horiz-adv-x="1064" 
d="M54 0l279 1434h872l-49 -251h-582l-229 -1183h-291zM608 1583l335 350h283l-349 -350h-269z" />
    <glyph glyph-name="afii10053" unicode="&#x404;" horiz-adv-x="1421" 
d="M740 -25q-188 0 -334.5 77t-225.5 212.5t-79 306.5q0 67 15 146q40 206 173.5 376t329 267.5t409.5 97.5q292 0 470 -175l-189 -209q-62 61 -147.5 98t-181.5 37q-170 0 -320 -104.5t-219 -268.5h666l-46 -238h-666q5 -165 114 -269.5t279 -104.5q181 0 388 136l105 -209
q-253 -176 -541 -176z" />
    <glyph glyph-name="afii10054" unicode="&#x405;" horiz-adv-x="1222" 
d="M31 206l205 195q60 -80 142.5 -128.5t177.5 -48.5q101 0 177 45.5t94 124.5q6 26 6 41q0 64 -57.5 110t-194.5 77q-179 39 -272 127t-93 217q0 33 8 78q35 182 191 298t366 116q143 0 254.5 -47.5t184.5 -134.5l-198 -204q-132 139 -277 139q-85 0 -148 -40t-75 -105
q-3 -16 -3 -34q0 -61 55.5 -103.5t180.5 -72.5q195 -47 287 -135.5t92 -221.5q0 -38 -10 -91q-37 -192 -203 -312.5t-407 -120.5q-156 0 -283.5 61t-199.5 170z" />
    <glyph glyph-name="afii10055" unicode="&#x406;" horiz-adv-x="620" 
d="M341 1434h291l-279 -1434h-291z" />
    <glyph glyph-name="afii10056" unicode="&#x407;" horiz-adv-x="620" 
d="M341 1434h291l-279 -1434h-291zM190 1704q12 63 64 106t116 43q56 0 90.5 -33t34.5 -86q0 -15 -3 -30q-12 -63 -64.5 -106.5t-116.5 -43.5q-56 0 -90 34t-34 86q0 15 3 30zM586 1704q12 63 63.5 106t115.5 43q56 0 90.5 -33t34.5 -86q0 -15 -3 -30q-12 -63 -64 -106.5
t-116 -43.5q-56 0 -90 34t-34 86q0 15 3 30z" />
    <glyph glyph-name="afii10057" unicode="&#x408;" horiz-adv-x="952" 
d="M504 467l188 967h291l-190 -977q-47 -241 -190.5 -361.5t-373.5 -120.5q-80 0 -158 19.5t-131 52.5l131 240q83 -58 183 -58q203 0 250 238z" />
    <glyph glyph-name="afii10058" unicode="&#x409;" horiz-adv-x="2070" 
d="M1447 1434l-100 -515h231q198 0 311 -98t113 -263q0 -51 -9 -99q-40 -206 -202.5 -332.5t-390.5 -126.5h-522l229 1183h-455l-156 -808q-39 -199 -155.5 -289t-318.5 -90q-39 0 -89 4l48 247h57q73 0 114 36.5t59 123.5l200 1027h1036zM1699 459q5 24 5 53
q0 78 -51.5 120.5t-147.5 42.5h-206l-84 -432h206q113 0 185.5 56.5t92.5 159.5z" />
    <glyph glyph-name="afii10059" unicode="&#x40a;" horiz-adv-x="2075" 
d="M1452 1434l-100 -515h231q198 0 311 -98t113 -263q0 -54 -9 -99q-40 -205 -202.5 -332t-390.5 -127h-522l114 595h-537l-115 -595h-291l279 1434h291l-115 -588h538l114 588h291zM1704 459q5 24 5 53q0 78 -51.5 120.5t-147.5 42.5h-205l-84 -432h205q113 0 185.5 56.5
t92.5 159.5z" />
    <glyph glyph-name="afii10060" unicode="&#x40b;" horiz-adv-x="1529" 
d="M1411 512l-99 -512h-291l95 493q3 18 3 35q0 64 -41.5 105t-109.5 41q-155 0 -251 -133l-105 -541h-290l230 1186h-368l48 248h1028l-49 -248h-368l-74 -377q127 113 298 113q156 0 253.5 -93t97.5 -238q0 -41 -7 -79z" />
    <glyph glyph-name="afii10061" unicode="&#x40c;" horiz-adv-x="1268" 
d="M624 1434l-114 -585h82l474 585h320l-576 -707l377 -727h-327l-309 598h-90l-116 -598h-291l279 1434h291zM625 1544l334 350h283l-349 -350h-268z" />
    <glyph glyph-name="uni040D" unicode="&#x40d;" horiz-adv-x="1447" 
d="M1467 1434l-278 -1434h-275l188 965l-753 -965h-295l279 1434h274l-187 -965l752 965h295zM913 1894l200 -350h-268l-214 350h282z" />
    <glyph glyph-name="afii10062" unicode="&#x40e;" horiz-adv-x="1334" 
d="M1477 1434l-814 -1214q-146 -220 -375 -220h-191l48 251h136q87 0 147 86l71 102l-289 995h308l191 -712l459 712h309zM864 1524q-131 0 -217 75.5t-86 196.5q0 19 4 49h235q-2 -14 -2 -25q0 -47 28.5 -77t74.5 -30q53 0 97 37.5t56 94.5h234q-33 -139 -156.5 -230
t-267.5 -91z" />
    <glyph glyph-name="afii10145" unicode="&#x40f;" horiz-adv-x="1394" 
d="M893 251l230 1183h291l-278 -1434h-396l-56 -287h-291l57 287h-396l279 1434h291l-231 -1183h500z" />
    <glyph glyph-name="afii10017" unicode="&#x410;" horiz-adv-x="1415" 
d="M723 1434h321l235 -1434h-308l-44 323h-518l-169 -323h-309zM898 560l-75 563l-294 -563h369z" />
    <glyph glyph-name="afii10018" unicode="&#x411;" horiz-adv-x="1254" 
d="M523 919h232q198 0 311 -98t113 -263q0 -48 -10 -99q-40 -205 -202 -332t-390 -127h-523l279 1434h903l-48 -244h-613zM876 459q5 28 5 53q0 78 -51.5 120.5t-147.5 42.5h-206l-84 -432h206q113 0 185.5 56.5t92.5 159.5z" />
    <glyph glyph-name="afii10019" unicode="&#x412;" horiz-adv-x="1282" 
d="M665 0h-611l279 1434h539q171 0 264.5 -79.5t93.5 -218.5q0 -42 -9 -90q-20 -103 -81.5 -176.5t-147.5 -108.5q87 -25 139.5 -94.5t52.5 -170.5q0 -35 -8 -78q-36 -186 -176.5 -302t-334.5 -116zM934 1023q4 21 4 45q0 61 -36 93t-99 32h-232l-65 -339h231q74 0 127.5 44
t69.5 125zM887 431q5 28 5 50q0 66 -38 104t-103 38h-290l-75 -382h290q77 0 135.5 52t75.5 138z" />
    <glyph glyph-name="afii10020" unicode="&#x413;" horiz-adv-x="1064" 
d="M54 0l279 1434h872l-49 -251h-582l-229 -1183h-291z" />
    <glyph glyph-name="afii10021" unicode="&#x414;" horiz-adv-x="1380" 
d="M1268 241l-103 -528h-285l56 287h-696l-57 -287h-285l102 528h105q248 394 364 990l40 203h865l-232 -1193h126zM407 241h449l185 952h-298q-48 -252 -135.5 -504t-200.5 -448z" />
    <glyph glyph-name="afii10022" unicode="&#x415;" horiz-adv-x="1173" 
d="M54 0l279 1434h893l-48 -248h-603l-66 -342h553l-48 -246h-553l-68 -350h621l-48 -248h-912z" />
    <glyph glyph-name="afii10024" unicode="&#x416;" horiz-adv-x="1861" 
d="M240 1434h319l228 -585h61l114 585h290l-113 -585h60l456 585h319l-556 -707l357 -727h-326l-290 598h-69l-116 -598h-291l116 598h-70l-521 -598h-326l639 727z" />
    <glyph glyph-name="afii10025" unicode="&#x417;" horiz-adv-x="1098" 
d="M398 1121l-134 164q174 173 430 173q169 0 269.5 -87t100.5 -224q0 -29 -7 -71q-19 -94 -88 -172.5t-167 -118.5q95 -39 151.5 -117.5t56.5 -178.5q0 -25 -8 -68q-36 -188 -208.5 -317t-389.5 -129q-141 0 -251 61.5t-163 168.5l206 171q82 -163 249 -163
q99 0 177.5 64.5t96.5 158.5q5 27 5 46q0 83 -61 131.5t-169 48.5h-149l46 234h152q93 0 159 47t80 119q3 15 3 30q0 58 -44 93.5t-115 35.5q-118 0 -228 -100z" />
    <glyph glyph-name="afii10026" unicode="&#x418;" horiz-adv-x="1447" 
d="M1467 1434l-278 -1434h-275l188 965l-753 -965h-295l279 1434h274l-187 -965l752 965h295z" />
    <glyph glyph-name="afii10027" unicode="&#x419;" horiz-adv-x="1447" 
d="M1467 1434l-278 -1434h-275l188 965l-753 -965h-295l279 1434h274l-187 -965l752 965h295zM918 1524q-131 0 -217.5 75.5t-86.5 196.5q0 19 4 49h235q-2 -14 -2 -25q0 -47 28.5 -77t74.5 -30q53 0 97 37.5t56 94.5h234q-33 -139 -156 -230t-267 -91z" />
    <glyph glyph-name="afii10028" unicode="&#x41a;" horiz-adv-x="1268" 
d="M624 1434l-114 -585h82l474 585h320l-576 -707l377 -727h-327l-309 598h-90l-116 -598h-291l279 1434h291z" />
    <glyph glyph-name="afii10029" unicode="&#x41b;" horiz-adv-x="1463" 
d="M652 1183l-156 -808q-39 -199 -155.5 -289t-318.5 -90q-39 0 -89 4l48 247h57q73 0 114 36.5t59 123.5l200 1027h1072l-279 -1434h-291l230 1183h-491z" />
    <glyph glyph-name="afii10030" unicode="&#x41c;" horiz-adv-x="1759" 
d="M956 428h-192l-243 566l-192 -994h-275l279 1434h297l292 -689l560 689h297l-279 -1434h-274l192 994z" />
    <glyph glyph-name="afii10031" unicode="&#x41d;" horiz-adv-x="1447" 
d="M54 0l279 1434h291l-115 -588h553l115 588h290l-278 -1434h-291l115 595h-553l-115 -595h-291z" />
    <glyph glyph-name="afii10032" unicode="&#x41e;" horiz-adv-x="1695" 
d="M410 717q-11 -55 -11 -102q0 -169 109 -277.5t282 -108.5q200 0 364.5 141t204.5 347q11 55 11 100q0 170 -108.5 278.5t-282.5 108.5q-200 0 -364.5 -140.5t-204.5 -346.5zM116 717q40 206 173.5 376t329 267.5t409.5 97.5q142 0 262 -45t202.5 -123.5t129 -189
t46.5 -239.5q0 -68 -14 -144q-40 -206 -174.5 -376.5t-330 -268t-409.5 -97.5q-188 0 -334.5 77t-225.5 212.5t-79 306.5q0 71 15 146z" />
    <glyph glyph-name="afii10033" unicode="&#x41f;" horiz-adv-x="1394" 
d="M1414 1434l-278 -1434h-291l229 1183h-500l-229 -1183h-291l279 1434h1081z" />
    <glyph glyph-name="afii10034" unicode="&#x420;" horiz-adv-x="1228" 
d="M657 500h-216l-96 -500h-291l279 1434h507q197 0 308.5 -98.5t111.5 -265.5q0 -46 -11 -103q-41 -210 -202.5 -338.5t-389.5 -128.5zM958 967q7 33 7 56q0 80 -50.5 125.5t-145.5 45.5h-192l-89 -455h193q111 0 183.5 61.5t93.5 166.5z" />
    <glyph glyph-name="afii10035" unicode="&#x421;" horiz-adv-x="1423" 
d="M740 -25q-188 0 -334.5 77t-225.5 212.5t-79 306.5q0 71 15 146q40 206 173.5 376t329 267.5t409.5 97.5q277 0 460 -166l-189 -216q-74 62 -148.5 95t-171.5 33q-200 0 -364 -139.5t-205 -347.5q-11 -55 -11 -102q0 -169 109 -277.5t282 -108.5q187 0 381 139l113 -214
q-252 -179 -544 -179z" />
    <glyph glyph-name="afii10036" unicode="&#x422;" horiz-adv-x="1140" 
d="M323 0l229 1183h-369l49 251h1029l-50 -251h-368l-230 -1183h-290z" />
    <glyph glyph-name="afii10037" unicode="&#x423;" horiz-adv-x="1334" 
d="M1477 1434l-814 -1214q-146 -220 -375 -220h-191l48 251h136q87 0 147 86l71 102l-289 995h308l191 -712l459 712h309z" />
    <glyph glyph-name="afii10038" unicode="&#x424;" horiz-adv-x="1583" 
d="M549 0l38 197q-219 0 -358 120.5t-139 306.5q0 43 9 91q28 144 129.5 263t249.5 187t310 68l39 201h281l-39 -201q218 0 357 -120t139 -306q0 -39 -10 -92q-28 -144 -129 -263t-249 -187t-310 -68l-38 -197h-280zM1272 715q5 27 5 48q0 96 -71.5 159.5t-184.5 63.5
l-107 -544q128 0 232 79.5t126 193.5zM383 715q-4 -21 -4 -47q0 -97 71 -161.5t184 -64.5l106 544q-128 0 -231 -78.5t-126 -192.5z" />
    <glyph glyph-name="afii10039" unicode="&#x425;" horiz-adv-x="1316" 
d="M1189 0h-317l-214 528l-418 -528h-317l596 731l-297 703h317l198 -499l393 499h317l-571 -703z" />
    <glyph glyph-name="afii10040" unicode="&#x426;" horiz-adv-x="1420" 
d="M984 0h-930l279 1434h291l-231 -1183h500l230 1183h291l-230 -1183h126l-105 -538h-277z" />
    <glyph glyph-name="afii10041" unicode="&#x427;" horiz-adv-x="1302" 
d="M194 931l98 503h291l-95 -483q-4 -19 -4 -42q0 -71 46.5 -115t122.5 -44q79 0 153 40t120 105l105 539h291l-279 -1434h-290l120 623q-62 -54 -149.5 -87.5t-170.5 -33.5q-163 0 -265.5 97t-102.5 248q0 32 9 84z" />
    <glyph glyph-name="afii10042" unicode="&#x428;" horiz-adv-x="2009" 
d="M1507 251l231 1183h291l-279 -1434h-1696l279 1434h291l-231 -1183h412l230 1183h291l-230 -1183h411z" />
    <glyph glyph-name="afii10043" unicode="&#x429;" horiz-adv-x="2034" 
d="M1598 0h-1544l279 1434h291l-231 -1183h412l230 1183h291l-230 -1183h411l231 1183h291l-231 -1183h126l-104 -538h-278z" />
    <glyph glyph-name="afii10044" unicode="&#x42a;" horiz-adv-x="1480" 
d="M757 919h231q198 0 311 -98t113 -263q0 -54 -9 -99q-39 -205 -202 -332t-391 -127h-522l230 1190h-334l48 244h625zM1109 459q5 30 5 53q0 78 -51 120.5t-148 42.5h-205l-84 -432h205q113 0 185.5 56.5t92.5 159.5z" />
    <glyph glyph-name="afii10045" unicode="&#x42b;" horiz-adv-x="1761" 
d="M333 1434h291l-101 -515h232q198 0 311 -98t113 -263q0 -48 -10 -99q-41 -206 -202.5 -332.5t-389.5 -126.5h-523zM876 459q5 30 5 53q0 78 -51 120.5t-148 42.5h-206l-84 -432h206q113 0 185.5 56.5t92.5 159.5zM1490 1434h291l-279 -1434h-291z" />
    <glyph glyph-name="afii10046" unicode="&#x42c;" horiz-adv-x="1247" 
d="M333 1434h291l-101 -515h232q198 0 311 -98t113 -263q0 -48 -10 -99q-41 -206 -202.5 -332.5t-389.5 -126.5h-523zM876 459q5 30 5 53q0 78 -51 120.5t-148 42.5h-206l-84 -432h206q113 0 185.5 56.5t92.5 159.5z" />
    <glyph glyph-name="afii10047" unicode="&#x42d;" horiz-adv-x="1421" 
d="M466 -25q-289 0 -473 176l187 209q152 -136 334 -136q170 0 319.5 104.5t219.5 269.5h-666l46 238h666q-6 164 -114.5 268.5t-278.5 104.5q-191 0 -382 -135l-108 209q246 175 538 175q142 0 262 -45t202.5 -123.5t129 -189t46.5 -239.5q0 -62 -15 -144
q-30 -154 -116.5 -291.5t-207.5 -236.5t-275 -156.5t-314 -57.5z" />
    <glyph glyph-name="afii10048" unicode="&#x42e;" horiz-adv-x="2213" 
d="M460 595l-115 -595h-291l279 1434h291l-115 -588h167q98 266 341.5 439t531.5 173q283 0 460 -168t177 -429q0 -68 -14 -144q-30 -154 -116.5 -291.5t-207 -236.5t-274 -156.5t-312.5 -57.5q-141 0 -260.5 45t-202 124t-128.5 190t-46 240v21h-165zM933 717
q-10 -50 -10 -102q0 -169 108 -277.5t280 -108.5q130 0 250.5 63.5t205 175.5t111.5 249q10 50 10 100q0 170 -108 278.5t-280 108.5q-199 0 -363 -140.5t-204 -346.5z" />
    <glyph glyph-name="afii10049" unicode="&#x42f;" horiz-adv-x="1256" 
d="M769 1434h507l-279 -1434h-288l98 510h-114l-420 -510h-317l452 541q-116 36 -178 121t-62 207q0 52 10 103q41 209 202 335.5t389 126.5zM940 1194h-196q-111 0 -183 -61t-93 -165q-5 -24 -5 -56q0 -79 49 -124.5t144 -45.5h196z" />
    <glyph glyph-name="afii10065" unicode="&#x430;" horiz-adv-x="1346" 
d="M596 224q91 0 174 46t135 123l53 275q-22 77 -87 123t-156 46q-130 0 -235 -88.5t-131 -218.5q-6 -33 -6 -62q0 -107 70 -175.5t183 -68.5zM705 1085q200 0 310 -131l20 107h279l-206 -1061h-279l21 106q-160 -131 -362 -131q-195 0 -314 124.5t-119 315.5q0 55 12 115
q22 113 82 215t144.5 177t192 119t219.5 44z" />
    <glyph glyph-name="afii10066" unicode="&#x431;" horiz-adv-x="1263" 
d="M463 864q67 54 151.5 84.5t169.5 30.5q184 0 298.5 -112t114.5 -287q0 -43 -10 -101q-42 -217 -226 -360.5t-425 -143.5q-205 0 -330 117t-125 335q0 75 17 166q46 239 120 399.5t195.5 267.5t285.5 161t400 74l-7 -249q-213 -20 -334.5 -62.5t-186.5 -115.5t-108 -204z
M377 569q-11 -61 -11 -106q0 -117 59 -178t159 -61q118 0 209 72t112 181q5 28 5 50q0 89 -60.5 146t-157.5 57q-87 0 -168.5 -43.5t-146.5 -117.5z" />
    <glyph glyph-name="afii10067" unicode="&#x432;" horiz-adv-x="1070" 
d="M513 0h-479l206 1061h446q134 0 218.5 -67.5t84.5 -172.5q0 -24 -5 -49q-13 -70 -63.5 -127.5t-120.5 -83.5q67 -18 107.5 -74.5t40.5 -128.5q0 -21 -5 -48q-26 -131 -149.5 -220.5t-280.5 -89.5zM570 443h-186l-44 -225h186q57 0 100 32t52 80q2 10 2 21q0 41 -30 66.5
t-80 25.5zM423 646h158q51 0 89 28t46 70q2 10 2 19q0 35 -28 57t-72 22h-157z" />
    <glyph glyph-name="afii10068" unicode="&#x433;" horiz-adv-x="860" 
d="M871 812h-398l-158 -812h-281l206 1061h680z" />
    <glyph glyph-name="afii10069" unicode="&#x434;" horiz-adv-x="1155" 
d="M1052 222l-86 -439h-267l43 217h-535l-43 -217h-265l86 439h106q200 301 305 839h695l-163 -839h124zM374 222h292l119 616h-178q-30 -151 -92.5 -318t-140.5 -298z" />
    <glyph glyph-name="afii10070" unicode="&#x435;" horiz-adv-x="1265" 
d="M335 446v-8q0 -107 71 -172.5t188 -65.5q169 0 327 132l137 -164q-214 -193 -506 -193q-228 0 -362.5 125t-134.5 321q0 44 12 109q30 153 129.5 280.5t246.5 201t309 73.5q210 0 335.5 -121t125.5 -309q0 -53 -10 -106q-9 -49 -33 -103h-835zM706 861q-100 0 -189 -58.5
t-136 -155.5h551q-5 96 -65 155t-161 59z" />
    <glyph glyph-name="afii10072" unicode="&#x436;" horiz-adv-x="1643" 
d="M1225 0l-188 445h-91l-86 -445h-281l86 445h-93l-358 -445h-312l467 565l-215 496h317l150 -374h91l72 374h282l-73 -374h91l295 374h318l-408 -496l248 -565h-312z" />
    <glyph glyph-name="afii10073" unicode="&#x437;" horiz-adv-x="985" 
d="M604 326q2 10 2 20q0 48 -42 79.5t-106 31.5h-155l43 218h161q55 0 96.5 28t49.5 68q1 5 1 13q0 34 -31 56t-81 22q-56 0 -101.5 -25t-74.5 -67l-195 125q66 89 174 139.5t244 50.5q154 0 249.5 -70t95.5 -178q0 -25 -4 -45q-14 -72 -70 -134t-137 -88
q71 -24 115.5 -82.5t44.5 -133.5q0 -28 -4 -48q-29 -141 -175.5 -236t-336.5 -95q-140 0 -240 51t-142 140l221 142q28 -53 83 -82t125 -29q71 0 125.5 37t64.5 92z" />
    <glyph glyph-name="afii10074" unicode="&#x438;" horiz-adv-x="1275" 
d="M1243 1061l-206 -1061h-272l128 664l-604 -664h-255l206 1061h272l-129 -664l605 664h255z" />
    <glyph glyph-name="afii10075" unicode="&#x439;" horiz-adv-x="1275" 
d="M1243 1061l-206 -1061h-272l128 664l-604 -664h-255l206 1061h272l-129 -664l605 664h255zM767 1192q-131 0 -217 75.5t-86 196.5q0 19 4 49h234q-2 -14 -2 -25q0 -47 29 -77t75 -30q53 0 96.5 37.5t55.5 94.5h235q-33 -139 -156.5 -230t-267.5 -91z" />
    <glyph glyph-name="afii10076" unicode="&#x43a;" horiz-adv-x="1098" 
d="M680 0l-187 464h-87l-91 -464h-281l206 1061h281l-69 -355h91l292 355h317l-404 -477l244 -584h-312z" />
    <glyph glyph-name="afii10077" unicode="&#x43b;" horiz-adv-x="1275" 
d="M1243 1061l-206 -1061h-281l157 814h-354l-95 -492q-28 -143 -145.5 -236.5t-270.5 -93.5q-65 0 -106 8l47 245h52q56 0 97.5 34t51.5 89l136 693h917z" />
    <glyph glyph-name="afii10078" unicode="&#x43c;" horiz-adv-x="1406" 
d="M511 1061l198 -505l394 505h271l-206 -1061h-266l128 663l-289 -361h-163l-150 361l-128 -663h-266l206 1061h271z" />
    <glyph glyph-name="afii10079" unicode="&#x43d;" horiz-adv-x="1275" 
d="M1243 1061l-206 -1061h-281l82 425h-441l-82 -425h-281l206 1061h281l-76 -389h441l76 389h281z" />
    <glyph glyph-name="afii10080" unicode="&#x43e;" horiz-adv-x="1310" 
d="M67 530q30 153 131 280.5t250.5 201t315.5 73.5q221 0 355.5 -126t134.5 -322q0 -54 -10 -107q-30 -153 -130.5 -280.5t-250 -201t-315.5 -73.5q-220 0 -356 126.5t-136 322.5q0 48 11 106zM349 530q-6 -33 -6 -62q0 -107 70 -175.5t183 -68.5q130 0 235.5 88t131.5 218
q6 33 6 62q0 107 -70 176t-184 69q-129 0 -234.5 -89t-131.5 -218z" />
    <glyph glyph-name="afii10081" unicode="&#x43f;" horiz-adv-x="1275" 
d="M1243 1061l-206 -1061h-281l157 814h-440l-158 -814h-281l206 1061h1003z" />
    <glyph glyph-name="afii10082" unicode="&#x440;" horiz-adv-x="1346" 
d="M632 224q130 0 234.5 88t130.5 218q7 38 7 63q0 107 -70 175.5t-183 68.5q-91 0 -174.5 -46t-135.5 -123l-53 -275q22 -77 87.5 -123t156.5 -46zM859 1085q195 0 313.5 -124t118.5 -315q0 -61 -11 -116q-22 -113 -82 -215t-144 -177t-191.5 -119t-219.5 -44
q-202 0 -310 131l-114 -581h-278l299 1536h278l-20 -107q158 131 361 131z" />
    <glyph glyph-name="afii10083" unicode="&#x441;" horiz-adv-x="1137" 
d="M548 -25q-220 0 -356 126.5t-136 322.5q0 48 11 106q30 153 131 280.5t250.5 201t315.5 73.5q231 0 373 -142l-181 -210q-108 104 -239 104q-129 0 -234.5 -89t-131.5 -218q-6 -33 -6 -62q0 -107 70 -175.5t183 -68.5q138 0 287 112l119 -197q-203 -164 -456 -164z" />
    <glyph glyph-name="afii10084" unicode="&#x442;" horiz-adv-x="989" 
d="M409 812h-310l48 249h902l-49 -249h-310l-158 -812h-281z" />
    <glyph glyph-name="afii10085" unicode="&#x443;" horiz-adv-x="1099" 
d="M321 -475h-294l279 475l-183 1061h293l98 -705l377 705h293z" />
    <glyph glyph-name="afii10086" unicode="&#x444;" horiz-adv-x="2142" 
d="M596 224q91 0 174 46t135 123l53 275q-22 77 -87 123t-156 46q-130 0 -235 -88.5t-131 -218.5q-6 -33 -6 -62q0 -107 70 -175.5t183 -68.5zM1128 106l-113 -581h-279l114 581q-160 -131 -362 -131q-195 0 -314 124.5t-119 315.5q0 55 12 115q22 113 82 215t144.5 177
t192 119t219.5 44q200 0 310 -131l104 541h279l-105 -541q158 131 362 131q195 0 313.5 -124t118.5 -315q0 -61 -11 -116q-22 -113 -82 -215t-144 -177t-191.5 -119t-219.5 -44q-203 0 -311 131zM1427 224q130 0 235 88t131 218q6 33 6 63q0 107 -70 175.5t-183 68.5
q-91 0 -174 -46t-135 -123l-53 -275q22 -77 87 -123t156 -46z" />
    <glyph glyph-name="afii10087" unicode="&#x445;" horiz-adv-x="1099" 
d="M978 0h-305l-156 360l-295 -360h-305l453 541l-220 520h305l132 -341l265 341h305l-423 -520z" />
    <glyph glyph-name="afii10088" unicode="&#x446;" horiz-adv-x="1308" 
d="M1243 1061l-159 -815h125l-103 -533h-269l56 287h-859l206 1061h281l-159 -815h441l159 815h281z" />
    <glyph glyph-name="afii10089" unicode="&#x447;" horiz-adv-x="1144" 
d="M625 0l77 400q-113 -110 -266 -110q-147 0 -239 90.5t-92 229.5q0 35 8 78l72 373h282l-70 -358q-3 -18 -3 -34q0 -59 38 -96t102 -37q131 0 220 132l76 393h282l-206 -1061h-281z" />
    <glyph glyph-name="afii10090" unicode="&#x448;" horiz-adv-x="1633" 
d="M1601 1061l-206 -1061h-1361l206 1061h274l-159 -815h270l158 815h274l-159 -815h269l159 815h275z" />
    <glyph glyph-name="afii10091" unicode="&#x449;" horiz-adv-x="1666" 
d="M1250 0h-1216l206 1061h274l-159 -815h270l158 815h274l-159 -815h269l159 815h275l-159 -815h125l-104 -533h-269z" />
    <glyph glyph-name="afii10092" unicode="&#x44a;" horiz-adv-x="1247" 
d="M882 367q3 15 3 28q0 53 -36.5 86.5t-95.5 33.5h-165l-58 -297h165q67 0 121 43t66 106zM1156 367q-30 -154 -165 -260.5t-302 -106.5h-475l161 828h-273l45 233h547l-63 -327h200q148 0 240 -84.5t92 -214.5q0 -26 -7 -68z" />
    <glyph glyph-name="afii10093" unicode="&#x44b;" horiz-adv-x="1533" 
d="M701 367q4 20 4 28q0 53 -37.5 86.5t-96.5 33.5h-163l-58 -297h164q67 0 121 43t66 106zM976 367q-30 -154 -165 -260.5t-303 -106.5h-474l206 1061h274l-63 -327h199q148 0 240.5 -84.5t92.5 -214.5q0 -26 -7 -68zM1014 0l206 1061h281l-206 -1061h-281z" />
    <glyph glyph-name="afii10094" unicode="&#x44c;" horiz-adv-x="1067" 
d="M701 367q4 20 4 28q0 53 -37.5 86.5t-96.5 33.5h-163l-58 -297h164q67 0 121 43t66 106zM976 367q-30 -154 -165 -260.5t-303 -106.5h-474l206 1061h274l-63 -327h199q148 0 240.5 -84.5t92.5 -214.5q0 -26 -7 -68z" />
    <glyph glyph-name="afii10095" unicode="&#x44d;" horiz-adv-x="1137" 
d="M375 -25q-126 0 -226.5 43t-165.5 121l190 188q104 -116 246 -116q105 0 197.5 59t141.5 155h-440l40 206h442q-11 97 -81 157.5t-176 60.5q-128 0 -284 -108l-96 202q195 142 428 142q220 0 355 -126t135 -322q0 -54 -10 -107q-30 -153 -130.5 -280.5t-250.5 -201
t-315 -73.5z" />
    <glyph glyph-name="afii10096" unicode="&#x44e;" horiz-adv-x="1774" 
d="M1228 1085q221 0 355.5 -126t134.5 -322q0 -54 -10 -107q-30 -153 -130.5 -280.5t-250 -201t-315.5 -73.5q-216 0 -350.5 121.5t-139.5 311.5h-131l-79 -408h-278l206 1061h278l-79 -405h132q79 188 260.5 308.5t396.5 120.5zM1060 224q130 0 235 88t131 218q7 38 7 62
q0 107 -70 176t-184 69q-129 0 -234.5 -89t-131.5 -218q-6 -33 -6 -62q0 -107 70 -175.5t183 -68.5z" />
    <glyph glyph-name="afii10097" unicode="&#x44f;" horiz-adv-x="1139" 
d="M126 713q19 97 86.5 177t168 125.5t211.5 45.5h515l-206 -1061h-269l69 358h-105l-341 -358h-299l371 383q-96 30 -151.5 100.5t-55.5 165.5q0 31 6 64zM795 842h-218q-65 0 -116.5 -37t-61.5 -92q-2 -10 -2 -25q0 -47 35.5 -76t93.5 -29h218z" />
    <glyph glyph-name="uni0450" unicode="&#x450;" horiz-adv-x="1265" 
d="M335 446v-8q0 -107 71 -172.5t188 -65.5q169 0 327 132l137 -164q-214 -193 -506 -193q-228 0 -362.5 125t-134.5 321q0 44 12 109q30 153 129.5 280.5t246.5 201t309 73.5q210 0 335.5 -121t125.5 -309q0 -53 -10 -106q-9 -49 -33 -103h-835zM706 861q-100 0 -189 -58.5
t-136 -155.5h551q-5 96 -65 155t-161 59zM767 1563l200 -351h-269l-214 351h283z" />
    <glyph glyph-name="afii10071" unicode="&#x451;" horiz-adv-x="1265" 
d="M335 446v-8q0 -107 71 -172.5t188 -65.5q169 0 327 132l137 -164q-214 -193 -506 -193q-228 0 -362.5 125t-134.5 321q0 44 12 109q30 153 129.5 280.5t246.5 201t309 73.5q210 0 335.5 -121t125.5 -309q0 -53 -10 -106q-9 -49 -33 -103h-835zM706 861q-100 0 -189 -58.5
t-136 -155.5h551q-5 96 -65 155t-161 59zM449 1372q12 63 63.5 106.5t115.5 43.5q56 0 90.5 -33.5t34.5 -86.5q0 -15 -3 -30q-12 -63 -64.5 -106t-116.5 -43q-56 0 -90 33.5t-34 85.5q0 10 4 30zM844 1372q12 63 63.5 106.5t115.5 43.5q56 0 90.5 -33.5t34.5 -86.5
q0 -15 -3 -30q-12 -63 -64 -106t-116 -43q-56 0 -90 33.5t-34 85.5q0 15 3 30z" />
    <glyph glyph-name="afii10099" unicode="&#x452;" horiz-adv-x="1277" 
d="M146 1180l34 171h138l28 144h282l-28 -144h304l-34 -171h-304l-45 -236q67 64 154 102.5t172 38.5q161 0 255.5 -90t94.5 -242q0 -49 -10 -100l-148 -755q-72 -373 -489 -373q-68 0 -120 10l44 224q45 -5 94 -5q90 0 134 41t62 132l135 699q5 27 5 47q0 73 -46 118.5
t-129 45.5q-65 0 -136.5 -43.5t-120.5 -103.5l-134 -690h-282l229 1180h-139z" />
    <glyph glyph-name="afii10100" unicode="&#x453;" horiz-adv-x="860" 
d="M871 812h-398l-158 -812h-281l206 1061h680zM350 1212l335 351h283l-350 -351h-268z" />
    <glyph glyph-name="afii10101" unicode="&#x454;" horiz-adv-x="1137" 
d="M548 -25q-220 0 -356 126.5t-136 322.5q0 48 11 106q30 153 131 280.5t250.5 201t315.5 73.5q231 0 373 -142l-176 -202q-110 108 -241 108q-105 0 -199 -60.5t-144 -157.5h441l-40 -206h-439q11 -95 81.5 -154.5t175.5 -59.5q140 0 291 116l117 -188
q-203 -164 -456 -164z" />
    <glyph glyph-name="afii10102" unicode="&#x455;" horiz-adv-x="969" 
d="M-10 152l176 175q38 -58 102.5 -92t142.5 -34q73 0 119.5 28t56.5 77q2 14 2 22q0 39 -36.5 64.5t-123.5 43.5q-286 62 -286 272q0 28 8 68q27 135 149.5 222t293.5 87q106 0 196.5 -39t151.5 -105l-169 -176q-98 95 -199 95q-59 0 -100 -23.5t-49 -64.5q-2 -10 -2 -17
q0 -77 146 -109q299 -64 299 -273q0 -35 -7 -70q-28 -143 -157.5 -235.5t-315.5 -92.5q-132 0 -236.5 47t-161.5 130z" />
    <glyph glyph-name="afii10103" unicode="&#x456;" horiz-adv-x="565" 
d="M39 0l206 1061h281l-205 -1061h-282zM274 1343q13 69 70 116t128 47q62 0 100.5 -36.5t38.5 -94.5q0 -15 -3 -32q-13 -69 -70 -115.5t-128 -46.5q-62 0 -100.5 36.5t-38.5 93.5q0 15 3 32z" />
    <glyph glyph-name="afii10104" unicode="&#x457;" horiz-adv-x="565" 
d="M39 0l206 1061h281l-205 -1061h-282zM98 1372q12 63 64 106.5t116 43.5q56 0 90 -33.5t34 -86.5q0 -15 -3 -30q-12 -63 -64 -106t-116 -43q-56 0 -90 33.5t-34 85.5q0 15 3 30zM494 1372q12 63 63.5 106.5t115.5 43.5q56 0 90.5 -33.5t34.5 -86.5q0 -15 -3 -30
q-12 -63 -64.5 -106t-116.5 -43q-56 0 -90 33.5t-34 85.5q0 10 4 30z" />
    <glyph glyph-name="afii10105" unicode="&#x458;" horiz-adv-x="565" 
d="M20 -92l225 1153h281l-227 -1167q-36 -188 -143.5 -278.5t-289.5 -90.5q-57 0 -97 7l46 238h54q65 0 101 31.5t50 106.5zM274 1343q13 69 70 116t128 47q62 0 100.5 -36.5t38.5 -94.5q0 -15 -3 -32q-13 -69 -70 -115.5t-128 -46.5q-62 0 -100.5 36.5t-38.5 93.5
q0 15 3 32z" />
    <glyph glyph-name="afii10106" unicode="&#x459;" horiz-adv-x="1757" 
d="M1199 0h-475l159 817h-323l-96 -495q-28 -143 -145.5 -236.5t-270.5 -93.5q-65 0 -106 8l47 245h52q56 0 97.5 34t51.5 89l136 693h878l-63 -327h200q148 0 240 -84.5t92 -214.5q0 -26 -7 -68q-30 -154 -165 -260.5t-302 -106.5zM1392 367q3 15 3 28q0 53 -36.5 86.5
t-95.5 33.5h-165l-58 -297h165q67 0 121 43t66 106z" />
    <glyph glyph-name="afii10107" unicode="&#x45a;" horiz-adv-x="1757" 
d="M1666 367q-30 -154 -165 -260.5t-302 -106.5h-475l82 425h-409l-82 -425h-281l206 1061h281l-76 -389h409l76 389h274l-63 -327h200q148 0 240 -84.5t92 -214.5q0 -26 -7 -68zM1392 367q3 15 3 28q0 53 -36.5 86.5t-95.5 33.5h-165l-58 -297h165q67 0 121 43t66 106z" />
    <glyph glyph-name="afii10108" unicode="&#x45b;" horiz-adv-x="1277" 
d="M146 1180l34 171h138l28 144h282l-28 -144h304l-34 -171h-304l-45 -236q67 64 154 102.5t172 38.5q162 0 256 -90t94 -243q0 -41 -10 -99l-127 -653h-282l121 626q5 27 5 47q0 73 -46 118.5t-129 45.5q-65 0 -136.5 -43.5t-120.5 -103.5l-134 -690h-282l229 1180h-139z
" />
    <glyph glyph-name="afii10109" unicode="&#x45c;" horiz-adv-x="1098" 
d="M680 0l-187 464h-87l-91 -464h-281l206 1061h281l-69 -355h91l292 355h317l-404 -477l244 -584h-312zM462 1212l335 351h282l-349 -351h-268z" />
    <glyph glyph-name="uni045D" unicode="&#x45d;" horiz-adv-x="1275" 
d="M1243 1061l-206 -1061h-272l128 664l-604 -664h-255l206 1061h272l-129 -664l605 664h255zM766 1563l200 -351h-269l-214 351h283z" />
    <glyph glyph-name="afii10110" unicode="&#x45e;" horiz-adv-x="1099" 
d="M321 -475h-294l279 475l-183 1061h293l98 -705l377 705h293zM677 1192q-131 0 -217 75.5t-86 196.5q0 19 4 49h234q-2 -14 -2 -25q0 -47 29 -77t75 -30q53 0 96.5 37.5t55.5 94.5h235q-33 -139 -156.5 -230t-267.5 -91z" />
    <glyph glyph-name="afii10193" unicode="&#x45f;" horiz-adv-x="1276" 
d="M677 0l-56 -287h-282l56 287h-361l206 1061h281l-159 -815h442l159 815h281l-206 -1061h-361z" />
    <glyph glyph-name="afii10050" unicode="&#x490;" horiz-adv-x="1064" 
d="M928 1434l55 286h278l-105 -537h-582l-229 -1183h-291l279 1434h595z" />
    <glyph glyph-name="afii10098" unicode="&#x491;" horiz-adv-x="860" 
d="M650 1061l56 287h269l-104 -536h-398l-158 -812h-281l206 1061h410z" />
    <glyph glyph-name="Wgrave" unicode="&#x1e80;" horiz-adv-x="2017" 
d="M1041 1434h287l75 -1028l454 1028h303l-676 -1434h-292l-85 1037l-486 -1037h-292l-119 1434h303l52 -1028zM1191 1894l200 -350h-269l-214 350h283z" />
    <glyph glyph-name="wgrave" unicode="&#x1e81;" horiz-adv-x="1632" 
d="M778 1061h283l44 -710l323 710h288l-527 -1061h-291l-50 690l-319 -690h-290l-116 1061h288l47 -710zM921 1563l199 -351h-268l-214 351h283z" />
    <glyph glyph-name="Wacute" unicode="&#x1e82;" horiz-adv-x="2017" 
d="M1041 1434h287l75 -1028l454 1028h303l-676 -1434h-292l-85 1037l-486 -1037h-292l-119 1434h303l52 -1028zM1027 1544l335 350h283l-350 -350h-268z" />
    <glyph glyph-name="wacute" unicode="&#x1e83;" horiz-adv-x="1632" 
d="M778 1061h283l44 -710l323 710h288l-527 -1061h-291l-50 690l-319 -690h-290l-116 1061h288l47 -710zM771 1212l335 351h283l-350 -351h-268z" />
    <glyph glyph-name="Wdieresis" unicode="&#x1e84;" horiz-adv-x="2017" 
d="M1041 1434h287l75 -1028l454 1028h303l-676 -1434h-292l-85 1037l-486 -1037h-292l-119 1434h303l52 -1028zM889 1704q12 63 63.5 106t115.5 43q56 0 90.5 -33t34.5 -86q0 -15 -3 -30q-12 -63 -64 -106.5t-116 -43.5q-56 0 -90 34t-34 86q0 15 3 30zM1284 1704
q12 63 63.5 106t115.5 43q56 0 90.5 -33t34.5 -86q0 -15 -3 -30q-12 -63 -64 -106.5t-116 -43.5q-56 0 -90 34t-34 86q0 15 3 30z" />
    <glyph glyph-name="wdieresis" unicode="&#x1e85;" horiz-adv-x="1632" 
d="M778 1061h283l44 -710l323 710h288l-527 -1061h-291l-50 690l-319 -690h-290l-116 1061h288l47 -710zM632 1372q12 63 63.5 106.5t115.5 43.5q56 0 90.5 -33.5t34.5 -86.5q0 -15 -3 -30q-12 -63 -64 -106t-116 -43q-56 0 -90 33.5t-34 85.5q0 15 3 30zM1027 1372
q12 63 63.5 106.5t115.5 43.5q56 0 90.5 -33.5t34.5 -86.5q0 -15 -3 -30q-12 -63 -64 -106t-116 -43q-56 0 -90 33.5t-34 85.5q0 15 3 30z" />
    <glyph glyph-name="Ygrave" unicode="&#x1ef2;" horiz-adv-x="1333" 
d="M523 1434l207 -580l432 580h314l-655 -856l-111 -578h-291l111 578l-320 856h313zM846 1894l200 -350h-269l-214 350h283z" />
    <glyph glyph-name="ygrave" unicode="&#x1ef3;" horiz-adv-x="1099" 
d="M321 -475h-294l279 475l-183 1061h293l98 -705l377 705h293zM652 1563l200 -351h-268l-214 351h282z" />
    <glyph glyph-name="thinspace" unicode="&#x2009;" horiz-adv-x="409" 
 />
    <glyph glyph-name="uni2010" unicode="&#x2010;" horiz-adv-x="847" 
d="M731 550h-606l50 260h606z" />
    <glyph glyph-name="figuredash" unicode="&#x2012;" horiz-adv-x="1228" 
d="M1130 550h-1024l51 260h1024z" />
    <glyph glyph-name="endash" unicode="&#x2013;" horiz-adv-x="1024" 
d="M1028 550h-1024l50 260h1024z" />
    <glyph glyph-name="emdash" unicode="&#x2014;" horiz-adv-x="2048" 
d="M2052 550h-2048l50 260h2048z" />
    <glyph glyph-name="afii00208" unicode="&#x2015;" horiz-adv-x="2048" 
d="M1847 550h-1638l50 260h1638z" />
    <glyph glyph-name="uni2016" unicode="&#x2016;" horiz-adv-x="977" 
d="M7 -287l354 1823h255l-354 -1823h-255zM398 -287l355 1823h255l-355 -1823h-255z" />
    <glyph glyph-name="underscoredbl" unicode="&#x2017;" horiz-adv-x="1228" 
d="M-96 -494l41 211h1024l-41 -211h-1024zM-39 -197l41 211h1024l-41 -211h-1024z" />
    <glyph glyph-name="quoteleft" unicode="&#x2018;" horiz-adv-x="617" 
d="M611 1194q-14 -72 -72.5 -121t-132.5 -49q-65 0 -105 38t-40 98q0 18 3 34q6 35 34 79l213 322h180l-157 -242q38 -15 59 -48t21 -76q0 -17 -3 -35z" />
    <glyph glyph-name="quoteright" unicode="&#x2019;" horiz-adv-x="617" 
d="M309 1425q14 72 73 121t133 49q65 0 104.5 -38t39.5 -98q0 -17 -3 -34q-6 -36 -33 -78l-213 -323h-181l158 243q-38 15 -59.5 48t-21.5 76q0 16 3 34z" />
    <glyph glyph-name="quotesinglbase" unicode="&#x201a;" horiz-adv-x="617" 
d="M60 145q14 72 73 121t133 49q65 0 105 -38t40 -98q0 -17 -3 -34q-6 -34 -34 -78l-213 -323h-180l157 243q-38 15 -59.5 48t-21.5 76q0 16 3 34z" />
    <glyph glyph-name="quotereversed" unicode="&#x201b;" horiz-adv-x="617" 
d="M656 1425q-10 -55 -47.5 -97t-91.5 -61l64 -243h-181l-88 323q-6 23 -6 47q0 15 3 31q14 72 73 121t134 49q65 0 104 -38t39 -98q0 -17 -3 -34z" />
    <glyph glyph-name="quotedblleft" unicode="&#x201c;" horiz-adv-x="1017" 
d="M1012 1194q-14 -72 -73 -121t-133 -49q-65 0 -104.5 38t-39.5 98q0 18 3 34q6 38 33 79l213 322h181l-158 -242q38 -15 59.5 -48t21.5 -76q0 -17 -3 -35zM611 1194q-14 -72 -72.5 -121t-132.5 -49q-65 0 -105 38t-40 98q0 18 3 34q6 35 34 79l213 322h180l-157 -242
q38 -15 59 -48t21 -76q0 -17 -3 -35z" />
    <glyph glyph-name="quotedblright" unicode="&#x201d;" horiz-adv-x="1017" 
d="M710 1425q14 72 72.5 121t132.5 49q65 0 105 -38t40 -98q0 -17 -3 -34q-6 -34 -34 -78l-213 -323h-180l157 243q-38 15 -59 48t-21 76q0 16 3 34zM309 1425q14 72 73 121t133 49q65 0 104.5 -38t39.5 -98q0 -17 -3 -34q-6 -36 -33 -78l-213 -323h-181l158 243
q-38 15 -59.5 48t-21.5 76q0 16 3 34z" />
    <glyph glyph-name="quotedblbase" unicode="&#x201e;" horiz-adv-x="1017" 
d="M60 145q14 72 73 121t133 49q65 0 105 -38t40 -98q0 -17 -3 -34q-6 -34 -34 -78l-213 -323h-180l157 243q-38 15 -59.5 48t-21.5 76q0 16 3 34zM461 145q14 72 73 121t133 49q65 0 104.5 -38t39.5 -98q0 -17 -3 -34q-6 -34 -34 -78l-213 -323h-180l158 243
q-38 15 -59.5 48t-21.5 76q0 16 3 34z" />
    <glyph glyph-name="uni201F" unicode="&#x201f;" horiz-adv-x="1017" 
d="M656 1425q-10 -55 -47.5 -97t-91.5 -61l64 -243h-181l-88 323q-6 23 -6 47q0 15 3 31q14 72 73 121t134 49q65 0 104 -38t39 -98q0 -17 -3 -34zM1057 1425q-10 -55 -47.5 -97t-91.5 -61l63 -243h-180l-88 323q-6 23 -6 47q0 15 3 31q14 72 72.5 121t133.5 49
q65 0 104.5 -38t39.5 -98q0 -17 -3 -34z" />
    <glyph glyph-name="dagger" unicode="&#x2020;" horiz-adv-x="1152" 
d="M278 -268l235 1215h-313l48 247h313l66 338h287l-65 -338h313l-48 -247h-313l-236 -1215h-287z" />
    <glyph glyph-name="daggerdbl" unicode="&#x2021;" horiz-adv-x="1152" 
d="M30 70l47 245h313l123 632h-313l48 247h313l66 338h287l-65 -338h313l-48 -247h-313l-123 -632h313l-47 -245h-313l-66 -338h-287l65 338h-313z" />
    <glyph glyph-name="bullet" unicode="&#x2022;" horiz-adv-x="819" 
d="M144 680q0 118 83.5 201t202.5 83q118 0 202 -83t84 -201t-84 -201t-202 -83q-119 0 -202.5 83t-83.5 201z" />
    <glyph glyph-name="onedotenleader" unicode="&#x2024;" horiz-adv-x="617" 
d="M60 145q14 72 73 121t133 49q65 0 105 -38t40 -98q0 -17 -3 -34q-14 -72 -73 -121t-134 -49q-65 0 -104.5 38.5t-39.5 98.5q0 16 3 33z" />
    <glyph glyph-name="twodotenleader" unicode="&#x2025;" horiz-adv-x="1234" 
d="M60 145q14 72 73 121t133 49q65 0 105 -38t40 -98q0 -17 -3 -34q-14 -72 -73 -121t-134 -49q-65 0 -104.5 38.5t-39.5 98.5q0 16 3 33zM678 145q14 72 73 121t133 49q65 0 104.5 -38t39.5 -98q0 -17 -3 -34q-14 -72 -73 -121t-134 -49q-64 0 -103.5 38.5t-39.5 98.5
q0 16 3 33z" />
    <glyph glyph-name="ellipsis" unicode="&#x2026;" horiz-adv-x="1852" 
d="M60 145q14 72 73 121t133 49q65 0 105 -38t40 -98q0 -17 -3 -34q-14 -72 -73 -121t-134 -49q-65 0 -104.5 38.5t-39.5 98.5q0 16 3 33zM1295 145q14 72 73 121t133 49q65 0 105 -38t40 -98q0 -12 -4 -34q-14 -72 -72.5 -121t-133.5 -49q-65 0 -104.5 38.5t-39.5 98.5
q0 16 3 33zM678 145q14 72 73 121t133 49q65 0 104.5 -38t39.5 -98q0 -17 -3 -34q-14 -72 -73 -121t-134 -49q-64 0 -103.5 38.5t-39.5 98.5q0 16 3 33z" />
    <glyph glyph-name="perthousand" unicode="&#x2030;" horiz-adv-x="2657" 
d="M321 0l1015 1434h253l-1016 -1434h-252zM439 1080q-3 -16 -3 -33q0 -50 29 -81.5t78 -31.5q57 0 102.5 42t57.5 104q4 22 4 33q0 51 -29 83t-78 32q-57 0 -103.5 -43t-57.5 -105zM194 1080q30 155 159 261.5t289 106.5q139 0 226.5 -83.5t87.5 -212.5q0 -37 -7 -72
q-30 -155 -159.5 -260.5t-289.5 -105.5q-139 0 -226.5 83t-87.5 212q0 31 8 71zM1205 352q-3 -16 -3 -31q0 -50 29.5 -82.5t78.5 -32.5q57 0 102.5 42.5t56.5 103.5q4 22 4 34q0 50 -29 82t-78 32q-57 0 -103 -43t-58 -105zM959 352q31 155 160.5 261.5t289.5 106.5
q139 0 226 -83t87 -212q0 -38 -7 -73q-30 -155 -159 -260.5t-289 -105.5q-139 0 -227 83.5t-88 212.5q0 35 7 70zM2026 352q-3 -16 -3 -31q0 -50 29.5 -82.5t78.5 -32.5q57 0 103 42.5t57 103.5q3 16 3 34q0 50 -29 82t-78 32q-57 0 -103 -43t-58 -105zM1781 352
q31 155 160 261.5t289 106.5q139 0 226.5 -83t87.5 -212q0 -33 -8 -73q-30 -155 -159 -260.5t-289 -105.5q-139 0 -226.5 83.5t-87.5 212.5q0 35 7 70z" />
    <glyph glyph-name="minute" unicode="&#x2032;" horiz-adv-x="607" 
d="M178 1053l258 381h291l-292 -381h-257z" />
    <glyph glyph-name="second" unicode="&#x2033;" horiz-adv-x="998" 
d="M178 1053l258 381h291l-292 -381h-257zM569 1053l258 381h291l-292 -381h-257z" />
    <glyph glyph-name="guilsinglleft" unicode="&#x2039;" horiz-adv-x="801" 
d="M103 568l28 140l661 362l-48 -241l-362 -191l288 -192l-46 -240z" />
    <glyph glyph-name="guilsinglright" unicode="&#x203a;" horiz-adv-x="801" 
d="M740 708l-27 -140l-660 -362l46 240l364 192l-289 191l47 241z" />
    <glyph glyph-name="exclamdbl" unicode="&#x203c;" horiz-adv-x="1122" 
d="M156 429l195 1005h291l-196 -1005h-290zM69 145q13 72 74 121t136 49q66 0 106.5 -38.5t40.5 -98.5q0 -16 -3 -33q-13 -72 -74 -121t-136 -49q-66 0 -106.5 39t-40.5 99q0 15 3 32zM637 429l196 1005h290l-195 -1005h-291zM550 145q13 72 74 121t136 49q66 0 106.5 -38.5
t40.5 -98.5q0 -16 -3 -33q-13 -72 -74 -121t-136 -49q-66 0 -106.5 39t-40.5 99q0 15 3 32z" />
    <glyph glyph-name="uni203E" unicode="&#x203e;" horiz-adv-x="870" 
d="M251 1213l41 211h635l-41 -211h-635z" />
    <glyph glyph-name="fraction" unicode="&#x2044;" horiz-adv-x="338" 
d="M-396 0l977 1434h228l-977 -1434h-228z" />
    <glyph glyph-name="zerosuperior" unicode="&#x2070;" 
d="M135 948q44 226 165 368t293 142q137 0 206.5 -92.5t69.5 -249.5q0 -77 -17 -168q-28 -147 -89 -260.5t-156.5 -181.5t-211.5 -68q-137 0 -207 92.5t-70 250.5q0 77 17 167zM366 948q-18 -98 -18 -158q0 -151 86 -151q64 0 112 82.5t76 226.5q18 92 18 161q0 148 -86 148
q-64 0 -111.5 -82t-76.5 -227z" />
    <glyph glyph-name="uni2071" unicode="&#x2071;" 
d="M287 463l134 686h223l-134 -686h-223zM434 1319q11 53 56 89t100 36q49 0 78.5 -29t29.5 -73q0 -13 -2 -23q-10 -51 -54.5 -86.5t-99.5 -35.5q-49 0 -79.5 28t-30.5 71q0 13 2 23z" />
    <glyph glyph-name="foursuperior" unicode="&#x2074;" 
d="M54 634l34 176l543 624h216l-118 -607h100l-37 -193h-101l-34 -171h-227l34 171h-410zM319 825h182l53 276z" />
    <glyph glyph-name="fivesuperior" unicode="&#x2075;" 
d="M371 438q-107 0 -186 45.5t-118 130.5l184 135q55 -117 146 -117q59 0 108.5 41.5t61.5 101.5q3 15 3 30q0 50 -31 81.5t-84 31.5q-65 0 -117 -57l-168 22l170 551h555l-38 -194h-343l-49 -151q35 7 65 7q121 0 199.5 -69.5t78.5 -185.5q0 -32 -6 -66
q-29 -149 -147.5 -243t-283.5 -94z" />
    <glyph glyph-name="sixsuperior" unicode="&#x2076;" 
d="M836 1434l-280 -332q116 -4 195.5 -75.5t79.5 -187.5q0 -31 -6 -65q-28 -145 -154.5 -240.5t-273.5 -95.5q-133 0 -221.5 76.5t-88.5 197.5q0 29 6 62q19 98 85 175l411 485h247zM598 775q3 15 3 29q0 51 -31.5 83t-82.5 32q-57 0 -105 -41.5t-59 -102.5q-4 -22 -4 -31
q0 -50 31 -81.5t81 -31.5q58 0 106.5 41t60.5 103z" />
    <glyph glyph-name="sevensuperior" unicode="&#x2077;" 
d="M266 1434h649l-33 -170l-487 -801h-256l478 775h-389z" />
    <glyph glyph-name="eightsuperior" unicode="&#x2078;" 
d="M327 761q-3 -13 -3 -28q0 -47 29.5 -77t77.5 -30q56 0 102 39t56 96q3 13 3 26q0 47 -30.5 77.5t-78.5 30.5q-56 0 -101 -38.5t-55 -95.5zM852 1180q-10 -56 -46.5 -105.5t-87.5 -80.5q50 -30 76.5 -79t26.5 -109q0 -23 -5 -50q-26 -135 -147 -226.5t-274 -91.5
q-134 0 -218.5 73t-84.5 187q0 34 5 58q14 73 65.5 137.5t125.5 100.5q-67 56 -67 145q0 21 4 41q24 117 128.5 197.5t239.5 80.5q119 0 191.5 -64t72.5 -163q0 -24 -5 -51zM444 1177q-2 -10 -2 -21q0 -34 21 -56t56 -22q40 0 73 29.5t41 69.5q2 10 2 19q0 33 -21.5 54
t-56.5 21q-40 0 -72.5 -27t-40.5 -67z" />
    <glyph glyph-name="ninesuperior" unicode="&#x2079;" 
d="M153 463l279 332q-116 4 -195.5 75.5t-79.5 187.5q0 30 6 64q28 145 154.5 240.5t273.5 95.5q133 0 221.5 -76t88.5 -197q0 -30 -6 -63q-19 -98 -85 -175l-411 -484h-246zM390 1121q-3 -15 -3 -28q0 -51 31.5 -83t82.5 -32q57 0 105.5 41.5t59.5 101.5q3 17 3 31
q0 50 -31.5 82t-80.5 32q-58 0 -106.5 -41.5t-60.5 -103.5z" />
    <glyph glyph-name="uni207A" unicode="&#x207a;" 
d="M609 848v-226h-228v226h-225v200h225v226h228v-226h225v-200h-225z" />
    <glyph glyph-name="uni207B" unicode="&#x207b;" 
d="M834 848h-678v200h678v-200z" />
    <glyph glyph-name="uni207C" unicode="&#x207c;" 
d="M834 684h-678v198h678v-198zM834 1014h-678v197h678v-197z" />
    <glyph glyph-name="uni207D" unicode="&#x207d;" 
d="M361 947q33 169 129 327.5t236 281.5l139 -108q-215 -215 -272 -501q-15 -79 -15 -157q0 -192 93 -344l-182 -108q-143 189 -143 445q0 81 15 164z" />
    <glyph glyph-name="uni207E" unicode="&#x207e;" 
d="M626 947q-33 -169 -128.5 -327.5t-235.5 -281.5l-140 108q216 214 273 501q16 86 16 160q0 188 -95 341l183 108q143 -190 143 -444q0 -85 -16 -165z" />
    <glyph glyph-name="uni207F" unicode="&#x207f;" 
d="M390 900l-85 -437h-223l134 686h223l-9 -44q69 58 154 58q103 0 164 -59t61 -158q0 -24 -7 -66l-81 -417h-223l79 401q2 11 2 26q0 36 -20 58t-55 22q-65 0 -114 -70z" />
    <glyph glyph-name="zeroinferior" unicode="&#x2080;" 
d="M-7 217q44 226 165 368t293 142q137 0 206.5 -92.5t69.5 -249.5q0 -77 -17 -168q-28 -147 -89 -260.5t-156.5 -181.5t-211.5 -68q-137 0 -207.5 92.5t-70.5 250.5q0 72 18 167zM223 217q-17 -93 -17 -159q0 -150 86 -150q64 0 111.5 82t75.5 227q19 97 19 161
q0 148 -86 148q-64 0 -112 -82t-77 -227z" />
    <glyph glyph-name="oneinferior" unicode="&#x2081;" 
d="M418 702h199l-189 -970h-235l144 742l-160 -79l-54 165z" />
    <glyph glyph-name="twoinferior" unicode="&#x2082;" 
d="M521 140l-241 -215h326l-38 -193h-630l33 173l391 350q56 51 83 89t35 80q3 14 3 26q0 37 -23 59t-63 22q-43 0 -77.5 -27.5t-70.5 -92.5l-188 71q53 116 151.5 180.5t224.5 64.5q128 0 206.5 -63.5t78.5 -170.5q0 -29 -6 -59q-16 -80 -62 -148t-133 -146z" />
    <glyph glyph-name="threeinferior" unicode="&#x2083;" 
d="M417 44q3 15 3 29q0 49 -31.5 81t-83.5 32q-29 0 -56 -11l-69 110l237 224h-318l38 193h596l-35 -179l-215 -198q82 -25 126.5 -88t44.5 -149q0 -30 -6 -65q-25 -126 -146 -221t-281 -95q-106 0 -184.5 47t-113.5 131l175 135q61 -120 151 -120q60 0 108 41.5t60 102.5z
" />
    <glyph glyph-name="fourinferior" unicode="&#x2084;" 
d="M-88 -97l34 176l542 623h217l-118 -606h100l-38 -193h-100l-34 -171h-227l34 171h-410zM177 94h181l54 276z" />
    <glyph glyph-name="fiveinferior" unicode="&#x2085;" 
d="M228 -293q-107 0 -186 45.5t-118 130.5l185 134q27 -58 62 -87t84 -29q59 0 108.5 41.5t61.5 101.5q3 15 3 30q0 50 -31.5 81t-84.5 31q-65 0 -116 -56l-168 22l170 550h555l-38 -193h-343l-49 -152q40 8 65 8q121 0 199.5 -69.5t78.5 -185.5q0 -26 -7 -66
q-29 -149 -147.5 -243t-283.5 -94z" />
    <glyph glyph-name="sixinferior" unicode="&#x2086;" 
d="M694 702l-279 -331q116 -4 195.5 -75.5t79.5 -187.5q0 -30 -6 -65q-28 -145 -154.5 -240.5t-273.5 -95.5q-133 0 -221.5 76.5t-88.5 197.5q0 29 6 62q19 98 85 175l410 484h247zM457 44q3 15 3 29q0 50 -31.5 82t-82.5 32q-57 0 -105.5 -41.5t-59.5 -101.5q-3 -16 -3 -31
q0 -50 31 -81.5t81 -31.5q58 0 106.5 41t60.5 103z" />
    <glyph glyph-name="seveninferior" unicode="&#x2087;" 
d="M124 702h649l-34 -170l-486 -800h-256l478 775h-389z" />
    <glyph glyph-name="eightinferior" unicode="&#x2088;" 
d="M184 30q-3 -14 -3 -28q0 -47 30 -77t78 -30q56 0 101.5 39t55.5 96q4 18 4 26q0 47 -30.5 77.5t-78.5 30.5q-56 0 -101.5 -38.5t-55.5 -95.5zM710 449q-10 -56 -46.5 -105t-88.5 -81q50 -30 77 -79t27 -109q0 -23 -5 -50q-26 -135 -147 -226.5t-274 -91.5
q-134 0 -218.5 73t-84.5 187q0 34 5 58q14 73 65 137.5t125 100.5q-66 55 -66 145q0 21 4 41q24 117 128.5 197.5t239.5 80.5q119 0 191.5 -64t72.5 -163q0 -24 -5 -51zM302 445q-2 -10 -2 -20q0 -34 21 -56t56 -22q40 0 72.5 29t40.5 69q3 15 3 20q0 33 -21.5 54t-56.5 21
q-40 0 -72.5 -27.5t-40.5 -67.5z" />
    <glyph glyph-name="nineinferior" unicode="&#x2089;" 
d="M10 -268l280 331q-116 4 -196 76t-80 188q0 29 6 64q28 145 155 240.5t274 95.5q133 0 221.5 -76t88.5 -197q0 -30 -6 -63q-19 -98 -85 -175l-411 -484h-247zM248 390q-3 -15 -3 -29q0 -51 31 -82.5t82 -31.5q57 0 105.5 41.5t59.5 101.5q3 16 3 31q0 50 -31 82t-80 32
q-58 0 -106.5 -41.5t-60.5 -103.5z" />
    <glyph glyph-name="uni208A" unicode="&#x208a;" 
d="M466 117v-227h-228v227h-226v199h226v227h228v-227h224v-199h-224z" />
    <glyph glyph-name="uni208B" unicode="&#x208b;" 
d="M690 117h-678v199h678v-199z" />
    <glyph glyph-name="uni208C" unicode="&#x208c;" 
d="M690 -47h-678v198h678v-198zM690 283h-678v197h678v-197z" />
    <glyph glyph-name="uni208D" unicode="&#x208d;" 
d="M220 216q33 169 129 327.5t236 281.5l139 -108q-215 -215 -272 -501q-16 -85 -16 -158q0 -191 93 -343l-181 -108q-143 189 -143 445q0 82 15 164z" />
    <glyph glyph-name="uni208E" unicode="&#x208e;" 
d="M483 216q-33 -169 -128 -327.5t-235 -281.5l-140 108q216 214 273 501q15 81 15 160q0 189 -94 341l182 108q144 -191 144 -444q0 -80 -17 -165z" />
    <glyph glyph-name="uni2090" unicode="&#x2090;" 
d="M424 -18l33 168q-10 37 -40 59t-73 22q-62 0 -113 -47t-64 -118q-4 -17 -4 -39q0 -57 32 -92t85 -35q43 0 81.5 22.5t62.5 59.5zM374 -279l9 52q-78 -66 -176 -66q-121 0 -195 78t-74 201q0 35 8 80q29 152 144 255t256 103q98 0 152 -66l9 52h222l-133 -689h-222z" />
    <glyph glyph-name="uni2091" unicode="&#x2091;" 
d="M175 -2q5 -53 39.5 -85t88.5 -32q45 0 97.5 24.5t97.5 64.5l103 -128q-146 -135 -333 -135q-144 0 -227 80t-83 206q0 38 7 73q29 152 154 255t280 103q132 0 211.5 -78t79.5 -199q0 -35 -7 -70q-8 -40 -24 -79h-484zM364 249q-46 0 -86.5 -25t-66.5 -69h261
q-5 44 -33.5 69t-74.5 25z" />
    <glyph glyph-name="uni2092" unicode="&#x2092;" 
d="M-46 66q29 152 154.5 255t283.5 103q138 0 222 -80.5t84 -206.5q0 -36 -7 -71q-29 -152 -154.5 -255.5t-283.5 -103.5q-138 0 -222 80.5t-84 206.5q0 37 7 72zM175 66q-4 -17 -4 -38q0 -56 33 -92t86 -36q63 0 114.5 48.5t65.5 117.5q3 18 3 35q0 57 -32.5 93.5
t-86.5 36.5q-63 0 -114.5 -48t-64.5 -117z" />
    <glyph glyph-name="uni2093" unicode="&#x2093;" 
d="M294 410l60 -172l127 172h246l-269 -335l151 -354h-242l-74 195l-148 -195h-245l289 355l-140 334h245z" />
    <glyph glyph-name="uni2094" unicode="&#x2094;" 
d="M470 133q-5 53 -39.5 85t-88.5 32q-45 0 -97.5 -24.5t-97.5 -64.5l-103 128q146 135 333 135q144 0 227 -80t83 -206q0 -37 -7 -72q-30 -152 -155 -255.5t-279 -103.5q-132 0 -211.5 78t-79.5 199q0 35 7 70q8 40 24 79h484zM282 -118q46 0 86 25t66 69h-261
q5 -44 34 -69t75 -25z" />
    <glyph glyph-name="uni20A0" unicode="&#x20a0;" horiz-adv-x="1618" 
d="M585 432q-199 0 -323.5 116t-124.5 297q0 46 10 99q28 143 121 260.5t229 185.5t286 68q195 0 340 -134l-166 -194q-58 49 -108 74t-108 25q-114 0 -208.5 -82t-117.5 -203q-6 -33 -6 -60q0 -98 62 -161t160 -63q117 0 234 74l50 259h654l-42 -217h-395l-33 -170h362
l-42 -213h-362l-34 -176h408l-42 -217h-666l93 482q-114 -50 -231 -50z" />
    <glyph glyph-name="colonmonetary" unicode="&#x20a1;" horiz-adv-x="1423" 
d="M1214 1642h164l-85 -230q106 -42 195 -120l-182 -208q-59 48 -108 73l-344 -930q163 19 322 133l108 -206q-241 -172 -524 -178l-69 -185h-163l72 197q-62 12 -95 22l-80 -219h-164l106 284q-126 79 -196 207.5t-70 288.5q0 63 15 146q53 274 264.5 475.5t493.5 251.5
l74 198h164l-69 -185q43 0 101 -7zM401 717q-10 -51 -10 -104q0 -145 84 -248l297 802q-139 -57 -240.5 -178t-130.5 -272zM951 1210l-351 -948q51 -24 90 -31l363 975q-38 5 -73 5q-21 0 -29 -1z" />
    <glyph glyph-name="uni20A2" unicode="&#x20a2;" horiz-adv-x="1423" 
d="M1176 360l108 -206q-252 -179 -544 -179q-188 0 -334.5 77t-225.5 212.5t-79 306.5q0 71 15 146q40 206 173.5 376t329 267.5t409.5 97.5q277 0 460 -166l-182 -208q-151 127 -326 127q-133 0 -256.5 -64.5t-209.5 -178t-113 -251.5q-10 -51 -10 -103q0 -127 63 -223
t173 -138l116 602h244l-16 -81q88 95 185 95q52 0 94 -24l-59 -201q-52 25 -88 25q-44 0 -90 -28.5t-83 -77.5l-65 -334q164 24 311 131z" />
    <glyph glyph-name="franc" unicode="&#x20a3;" horiz-adv-x="1139" 
d="M817 458h-317l-88 -458h-291l88 458h-180l28 147h181l17 88h-180l28 149h181l115 592h873l-49 -250h-582l-67 -342h318l-29 -149h-317l-18 -88h318z" />
    <glyph glyph-name="lira" unicode="&#x20a4;" horiz-adv-x="1192" 
d="M288 460h-221l27 143h223l1 31q0 28 -3 55h-204l28 144h147q-12 62 -12 112q0 44 10 102q34 173 188 292t346 119q150 0 249.5 -74t124.5 -186l-269 -130q-26 136 -154 136q-71 0 -126 -47t-69 -119q-5 -23 -5 -58q0 -56 20 -147h331l-29 -144h-281q1 -14 1 -43t-1 -43
h264l-27 -143h-268q-44 -127 -159 -211h614l-48 -249h-946l46 240q147 77 202 220z" />
    <glyph glyph-name="uni20A6" unicode="&#x20a6;" horiz-adv-x="1507" 
d="M84 0l103 532h-143l27 141h143l17 88h-143l28 141h143l103 532h288l198 -532h282l104 532h263l-103 -532h143l-28 -141h-143l-17 -88h143l-27 -141h-143l-103 -532h-288l-199 532h-281l-104 -532h-263zM900 761l32 -88h153l18 88h-203zM495 761l-18 -88h203l-33 88h-152z
M985 532l48 -130l26 130h-74zM547 1031l-25 -129h73z" />
    <glyph glyph-name="peseta" unicode="&#x20a7;" horiz-adv-x="2459" 
d="M1506 225h440q59 0 97 26.5t47 73.5q2 10 2 21q0 36 -30.5 60.5t-97.5 42.5q-255 66 -255 267q0 31 7 66q27 133 139.5 218t268.5 85q98 0 178 -39.5t133 -106.5l-161 -184q-92 104 -171 104q-47 0 -81.5 -21.5t-41.5 -59.5q-2 -10 -2 -20q0 -74 117 -101
q267 -65 267 -265q0 -35 -7 -70q-28 -140 -146.5 -231t-286.5 -91h-504q-298 0 -298 248q0 45 13 110l89 463h-144q-66 -150 -196 -235.5t-297 -85.5h-157l-96 -500h-278l279 1434h434q175 0 273 -95.5t98 -258.5v-19h131l54 281l274 27l-59 -308h210l-47 -240h-210
l-88 -452q-5 -28 -5 -47q0 -97 108 -97zM849 967q7 42 7 66q0 75 -40.5 118t-115.5 43h-137l-88 -455h137q92 0 154 61.5t83 166.5z" />
    <glyph glyph-name="uni20A8" unicode="&#x20a8;" horiz-adv-x="1995" 
d="M333 1434h482q187 0 293 -96t106 -260q0 -46 -11 -106q-31 -160 -131.5 -273t-249.5 -157l222 -542h-310l-203 507h-93l-98 -507h-286zM1067 152l168 175q38 -58 97 -92t130 -34q67 0 112.5 29t54.5 76q2 12 2 20q0 39 -35 65t-113 45q-130 31 -197 100t-67 171
q0 31 7 69q26 134 142.5 221.5t277.5 87.5q99 0 183 -39.5t142 -105.5l-162 -176q-48 48 -90.5 72t-94.5 24q-55 0 -94.5 -24t-46.5 -63q-2 -12 -2 -19q0 -77 135 -109q278 -64 278 -270q0 -36 -7 -72q-28 -143 -150.5 -235.5t-297.5 -92.5q-124 0 -222 47t-150 130z
M748 1194h-177l-88 -452h176q101 0 168 61.5t87 164.5q7 38 7 61q0 77 -44 121t-129 44z" />
    <glyph glyph-name="uni20A9" unicode="&#x20a9;" horiz-adv-x="2060" 
d="M1059 1434h295l35 -532h260l232 532h301l-249 -532h163l-28 -141h-201l-44 -92h228l-27 -142h-266l-247 -527h-300l-37 527h-287l-243 -527h-300l-42 527h-266l26 142h228l-6 92h-203l28 141h163l-42 532h301l26 -532h260zM993 761l-43 -92h212l-6 92h-163zM563 761
l4 -92h144l42 92h-190zM1398 761l5 -92h142l41 92h-188zM1135 1068l-76 -166h88zM575 527l8 -142l64 142h-72zM1413 527l9 -142l63 142h-72z" />
    <glyph glyph-name="afii57636" unicode="&#x20aa;" horiz-adv-x="1800" 
d="M54 0l279 1434h561q193 0 314 -110.5t121 -280.5q0 -43 -9 -89l-82 -417h-267l78 399q5 24 5 55q0 91 -57.5 147t-154.5 56h-289l-231 -1194h-268zM1820 1434l-279 -1434h-560q-194 0 -315.5 110t-121.5 280q0 42 9 89l82 418h267l-78 -400q-5 -24 -5 -56
q0 -90 57.5 -145.5t155.5 -55.5h288l232 1194h268z" />
    <glyph glyph-name="dong" unicode="&#x20ab;" horiz-adv-x="1371" 
d="M753 1180l33 171h306l27 144h279l-28 -144h140l-33 -171h-141l-228 -1180h-279l21 106q-160 -131 -362 -131q-195 0 -314 124.5t-119 315.5q0 52 12 115q29 150 122 277t230 202.5t286 75.5q200 0 310 -131l43 226h-305zM596 224q91 0 174 46t135 123l53 275
q-22 77 -87 123t-156 46q-130 0 -235 -88.5t-131 -218.5q-6 -33 -6 -62q0 -107 70 -175.5t183 -68.5zM189 -369l41 211h750l-41 -211h-750z" />
    <glyph glyph-name="Euro" unicode="&#x20ac;" horiz-adv-x="1487" 
d="M1012 506h-542q32 -130 134 -207.5t248 -77.5q97 0 199 38t189 101l109 -206q-252 -179 -544 -179q-266 0 -439.5 147.5t-196.5 383.5h-153l29 152h125q4 27 10 59q1 5 14 58h-125l29 153h153q115 236 345.5 383t496.5 147q276 0 459 -166l-182 -208q-151 127 -326 127
q-146 0 -277.5 -77t-214.5 -206h542l-30 -153h-584q-10 -31 -14 -58q-6 -28 -9 -59h583z" />
    <glyph glyph-name="afii61248" unicode="&#x2105;" horiz-adv-x="2157" 
d="M557 590q-197 0 -330.5 126t-133.5 308t133.5 308t330.5 126q186 0 326 -116l-129 -190q-107 89 -197 89t-151.5 -62.5t-61.5 -154.5t61.5 -154.5t151.5 -62.5q100 0 198 90l142 -175q-143 -132 -340 -132zM1640 191q91 0 152.5 63t61.5 155t-61.5 154.5t-152.5 62.5
t-152.5 -62.5t-61.5 -154.5t61.5 -155t152.5 -63zM1640 843q198 0 331.5 -126t133.5 -308t-133.5 -308t-331.5 -126t-331 125.5t-133 308.5t133 308.5t331 125.5zM837 0h-240l699 1434h240z" />
    <glyph glyph-name="uni2109" unicode="&#x2109;" horiz-adv-x="1675" 
d="M749 0v1434h872v-250h-582v-354h533v-249h-533v-581h-290zM61 1175q0 120 85.5 201.5t211.5 81.5t211.5 -81.5t85.5 -201.5t-85.5 -202t-211.5 -82t-211.5 82t-85.5 202zM252 1175q0 -45 30 -76t76 -31t76.5 31t30.5 76t-30.5 75.5t-76.5 30.5t-76 -30.5t-30 -75.5z" />
    <glyph glyph-name="afii61289" unicode="&#x2113;" horiz-adv-x="1166" 
d="M160 247l-76 224q113 42 223 88v535q0 155 115.5 259.5t284.5 104.5t284.5 -104.5t115.5 -259.5v-53q0 -346 -525 -617v-72q0 -59 34.5 -96t89.5 -37q59 0 108 34.5t78 99.5l218 -129q-52 -114 -159 -181.5t-242 -67.5q-161 0 -274 92.5t-125 234.5q-72 -28 -150 -55z
M582 1077v-378q128 79 188.5 165t60.5 190v22q0 63 -35 104t-89 41q-55 0 -90 -40t-35 -104z" />
    <glyph glyph-name="afii61352" unicode="&#x2116;" horiz-adv-x="2273" 
d="M177 0v1434h262l479 -914v914h268v-1434h-262l-479 913v-913h-268zM2150 327h-809v226h809v-226zM1578 1064q0 -71 48 -119.5t120 -48.5t120 48.5t48 119.5t-48 119.5t-120 48.5t-120 -48.5t-48 -119.5zM1321 1064q0 165 123 279.5t302 114.5t302 -114.5t123 -279.5
t-123 -279.5t-302 -114.5t-302 114.5t-123 279.5z" />
    <glyph glyph-name="uni2117" unicode="&#x2117;" horiz-adv-x="1646" 
d="M905 578h-122v-256h-199v788h321q126 0 210 -76t84 -190t-84 -190t-210 -76zM998 844q0 40 -29.5 66t-75.5 26h-110v-184h110q46 0 75.5 26t29.5 66zM102 717q0 153 58 290t157 236t236.5 157t290.5 58t290 -58t236 -157t157 -236t58 -290t-58 -290.5t-157 -236.5
t-236 -157t-290 -58t-290.5 58t-236.5 157t-157 236.5t-58 290.5zM238 717q0 -169 80.5 -310.5t220 -223t305.5 -81.5t305.5 81.5t220 223t80.5 310.5t-80.5 310.5t-220 222.5t-305.5 81t-305.5 -81t-220 -222.5t-80.5 -310.5z" />
    <glyph glyph-name="uni2120" unicode="&#x2120;" horiz-adv-x="1626" 
d="M85 803l119 130q47 -51 96 -81.5t87 -30.5q41 0 68 20.5t27 53.5t-28 56.5t-96 37.5q-125 26 -187.5 85.5t-62.5 148.5q0 100 75 161.5t196 61.5q164 0 275 -116l-110 -134q-100 91 -161 91q-32 0 -53 -15.5t-21 -40.5q0 -63 116 -89q137 -32 198 -92.5t61 -154.5
q0 -103 -79.5 -167t-215.5 -64q-85 0 -165.5 37t-138.5 102zM1199 891h-125l-135 215v-430h-196v758h181l213 -332l213 332h180v-758h-196v430z" />
    <glyph glyph-name="uni2121" unicode="&#x2121;" horiz-adv-x="2280" 
d="M1110 446q13 -110 75 -178t148 -68q118 0 232 145l170 -166q-144 -204 -400 -204q-219 0 -358.5 159.5t-139.5 395.5q0 153 62.5 280t174 201t247.5 74q134 0 241.5 -72t167 -194.5t59.5 -269.5q0 -56 -11 -103h-668zM424 0v1183h-347v251h973v-251h-348v-1183h-278z
M1876 0v1495h268v-1495h-268zM1319 861q-72 0 -128 -58.5t-75 -155.5h395q-17 96 -68.5 155t-123.5 59z" />
    <glyph glyph-name="trademark" unicode="&#x2122;" horiz-adv-x="1600" 
d="M262 676v591h-186v167h578v-167h-186v-591h-206zM1174 891h-125l-136 215v-430h-195v758h180l213 -332l213 332h180v-758h-195v430z" />
    <glyph glyph-name="Omega" unicode="&#x2126;" horiz-adv-x="1650" 
d="M1289 751q0 191 -128 322t-315 131t-315.5 -131t-128.5 -322q0 -161 91.5 -297.5t248.5 -212.5v-241h-614v254h284q-148 96 -225.5 229.5t-77.5 295.5q0 140 57.5 265.5t155.5 216.5t234.5 144t289.5 53t289.5 -53t234.5 -144t155.5 -216.5t57.5 -265.5
q0 -162 -77.5 -295.5t-225.5 -229.5h284v-254h-615v241q157 76 248.5 212.5t91.5 297.5z" />
    <glyph glyph-name="estimated" unicode="&#x212e;" horiz-adv-x="1646" 
d="M1585 643h-1155v-345q79 -82 186 -128t228 -46q146 0 270.5 66.5t206.5 185.5l129 -89q-104 -148 -263.5 -230t-342.5 -82q-153 0 -290.5 58t-236.5 157t-157 236.5t-58 290.5t58 290t157 236t236.5 157t290.5 58t290 -58t236 -157t157 -236t58 -290v-74zM844 1309
q-121 0 -228 -46t-186 -128v-345h827v345q-80 83 -186 128.5t-227 45.5z" />
    <glyph glyph-name="onethird" unicode="&#x2153;" horiz-adv-x="1986" 
d="M428 0l977 1434h228l-977 -1434h-228zM560 1434h200l-190 -971h-235l144 742l-160 -79l-54 165zM1631 312q3 15 3 29q0 50 -31 82t-83 32q-28 0 -57 -12l-68 110l236 224h-317l38 194h596l-35 -179l-215 -199q82 -25 126.5 -88t44.5 -149q0 -30 -6 -65
q-25 -126 -146 -221t-281 -95q-106 0 -184 47.5t-114 131.5l175 135q61 -121 150 -121q60 0 108 41.5t60 102.5z" />
    <glyph glyph-name="twothirds" unicode="&#x2154;" horiz-adv-x="1986" 
d="M664 871l-242 -215h327l-38 -193h-631l34 173l391 350q56 51 83 89t35 80q3 13 3 26q0 38 -23 60t-63 22q-43 0 -78 -28t-71 -93l-187 71q53 116 151.5 180.5t224.5 64.5q128 0 206 -63.5t78 -170.5q0 -29 -6 -59q-16 -81 -61.5 -148.5t-132.5 -145.5zM428 0l977 1434
h228l-977 -1434h-228zM1631 312q3 15 3 29q0 50 -31 82t-83 32q-28 0 -57 -12l-68 110l236 224h-317l38 194h596l-35 -179l-215 -199q82 -25 126.5 -88t44.5 -149q0 -30 -6 -65q-25 -126 -146 -221t-281 -95q-106 0 -184 47.5t-114 131.5l175 135q61 -121 150 -121
q60 0 108 41.5t60 102.5z" />
    <glyph glyph-name="onefifth" unicode="&#x2155;" horiz-adv-x="1986" 
d="M560 1434h200l-190 -971h-235l144 742l-160 -79l-54 165zM428 0l977 1434h228l-977 -1434h-228zM1442 -27q-107 0 -186 46t-118 131l184 134q55 -117 146 -117q59 0 108.5 41.5t61.5 101.5q3 15 3 30q0 50 -31 81.5t-84 31.5q-65 0 -117 -57l-168 22l170 551h555
l-38 -194h-343l-49 -151q35 7 66 7q120 0 198.5 -69.5t78.5 -185.5q0 -32 -6 -66q-29 -149 -147.5 -243t-283.5 -94z" />
    <glyph glyph-name="twofifths" unicode="&#x2156;" horiz-adv-x="1986" 
d="M664 871l-242 -215h327l-38 -193h-631l34 173l391 350q56 51 83 89t35 80q3 13 3 26q0 38 -23 60t-63 22q-43 0 -78 -28t-71 -93l-187 71q53 116 151.5 180.5t224.5 64.5q128 0 206 -63.5t78 -170.5q0 -29 -6 -59q-16 -81 -61.5 -148.5t-132.5 -145.5zM428 0l977 1434
h228l-977 -1434h-228zM1442 -27q-107 0 -186 46t-118 131l184 134q55 -117 146 -117q59 0 108.5 41.5t61.5 101.5q3 15 3 30q0 50 -31 81.5t-84 31.5q-65 0 -117 -57l-168 22l170 551h555l-38 -194h-343l-49 -151q35 7 66 7q120 0 198.5 -69.5t78.5 -185.5q0 -32 -6 -66
q-29 -149 -147.5 -243t-283.5 -94z" />
    <glyph glyph-name="threefifths" unicode="&#x2157;" horiz-adv-x="1986" 
d="M559 775q3 15 3 29q0 50 -31.5 82t-83.5 32q-27 0 -56 -12l-68 110l236 224h-317l38 194h596l-35 -180l-215 -198q82 -25 126.5 -88t44.5 -149q0 -31 -6 -65q-25 -126 -146 -221t-281 -95q-106 0 -184.5 47t-113.5 131l175 136q61 -121 150 -121q60 0 108 41.5t60 102.5z
M428 0l977 1434h228l-977 -1434h-228zM1442 -27q-107 0 -186 46t-118 131l184 134q55 -117 146 -117q59 0 108.5 41.5t61.5 101.5q3 15 3 30q0 50 -31 81.5t-84 31.5q-65 0 -117 -57l-168 22l170 551h555l-38 -194h-343l-49 -151q35 7 66 7q120 0 198.5 -69.5t78.5 -185.5
q0 -32 -6 -66q-29 -149 -147.5 -243t-283.5 -94z" />
    <glyph glyph-name="fourfifths" unicode="&#x2158;" horiz-adv-x="1986" 
d="M54 634l34 176l543 624h216l-118 -607h100l-37 -193h-101l-34 -171h-227l34 171h-410zM319 825h182l53 276zM428 0l977 1434h228l-977 -1434h-228zM1442 -27q-107 0 -186 46t-118 131l184 134q55 -117 146 -117q59 0 108.5 41.5t61.5 101.5q3 15 3 30q0 50 -31 81.5
t-84 31.5q-65 0 -117 -57l-168 22l170 551h555l-38 -194h-343l-49 -151q35 7 66 7q120 0 198.5 -69.5t78.5 -185.5q0 -32 -6 -66q-29 -149 -147.5 -243t-283.5 -94z" />
    <glyph glyph-name="onesixth" unicode="&#x2159;" horiz-adv-x="1986" 
d="M560 1434h200l-190 -971h-235l144 742l-160 -79l-54 165zM428 0l977 1434h228l-977 -1434h-228zM1908 971l-280 -332q116 -4 196 -75.5t80 -187.5q0 -25 -7 -65q-28 -145 -154.5 -240.5t-273.5 -95.5q-133 0 -221.5 76.5t-88.5 197.5q0 29 6 62q19 98 85 175l411 485h247
zM1670 312q3 15 3 29q0 51 -31 83t-82 32q-57 0 -105.5 -42t-59.5 -102q-3 -16 -3 -30q0 -50 31 -82t80 -32q58 0 106.5 41t60.5 103z" />
    <glyph glyph-name="fivesixths" unicode="&#x215a;" horiz-adv-x="1986" 
d="M371 438q-107 0 -186 45.5t-118 130.5l184 135q55 -117 146 -117q59 0 108.5 41.5t61.5 101.5q3 15 3 30q0 50 -31 81.5t-84 31.5q-65 0 -117 -57l-168 22l170 551h555l-38 -194h-343l-49 -151q35 7 65 7q121 0 199.5 -69.5t78.5 -185.5q0 -32 -6 -66
q-29 -149 -147.5 -243t-283.5 -94zM428 0l977 1434h228l-977 -1434h-228zM1908 971l-280 -332q116 -4 196 -75.5t80 -187.5q0 -25 -7 -65q-28 -145 -154.5 -240.5t-273.5 -95.5q-133 0 -221.5 76.5t-88.5 197.5q0 29 6 62q19 98 85 175l411 485h247zM1670 312q3 15 3 29
q0 51 -31 83t-82 32q-57 0 -105.5 -42t-59.5 -102q-3 -16 -3 -30q0 -50 31 -82t80 -32q58 0 106.5 41t60.5 103z" />
    <glyph glyph-name="oneeighth" unicode="&#x215b;" horiz-adv-x="1986" 
d="M560 1434h200l-190 -971h-235l144 742l-160 -79l-54 165zM428 0l977 1434h228l-977 -1434h-228zM1399 296q-3 -13 -3 -28q0 -47 29.5 -77t77.5 -30q56 0 102 39t56 96q3 14 3 27q0 47 -30.5 77t-78.5 30q-56 0 -101 -38.5t-55 -95.5zM1924 715q-10 -56 -46.5 -105.5
t-87.5 -80.5q50 -30 76.5 -79t26.5 -109q0 -23 -5 -50q-26 -135 -147 -226.5t-274 -91.5q-134 0 -218.5 73t-84.5 187q0 34 5 58q14 73 65.5 137.5t125.5 100.5q-67 56 -67 145q0 21 4 41q24 117 128.5 197.5t239.5 80.5q119 0 191.5 -64t72.5 -163q0 -24 -5 -51zM1517 712
q-3 -15 -3 -21q0 -34 21 -56t56 -22q40 0 73 29.5t41 69.5q2 10 2 19q0 33 -21.5 54t-56.5 21q-40 0 -72 -27t-40 -67z" />
    <glyph glyph-name="threeeighths" unicode="&#x215c;" horiz-adv-x="1986" 
d="M559 775q3 15 3 29q0 50 -31.5 82t-83.5 32q-27 0 -56 -12l-68 110l236 224h-317l38 194h596l-35 -180l-215 -198q82 -25 126.5 -88t44.5 -149q0 -31 -6 -65q-25 -126 -146 -221t-281 -95q-106 0 -184.5 47t-113.5 131l175 136q61 -121 150 -121q60 0 108 41.5t60 102.5z
M428 0l977 1434h228l-977 -1434h-228zM1399 296q-3 -13 -3 -28q0 -47 29.5 -77t77.5 -30q56 0 102 39t56 96q3 14 3 27q0 47 -30.5 77t-78.5 30q-56 0 -101 -38.5t-55 -95.5zM1924 715q-10 -56 -46.5 -105.5t-87.5 -80.5q50 -30 76.5 -79t26.5 -109q0 -23 -5 -50
q-26 -135 -147 -226.5t-274 -91.5q-134 0 -218.5 73t-84.5 187q0 34 5 58q14 73 65.5 137.5t125.5 100.5q-67 56 -67 145q0 21 4 41q24 117 128.5 197.5t239.5 80.5q119 0 191.5 -64t72.5 -163q0 -24 -5 -51zM1517 712q-3 -15 -3 -21q0 -34 21 -56t56 -22q40 0 73 29.5
t41 69.5q2 10 2 19q0 33 -21.5 54t-56.5 21q-40 0 -72 -27t-40 -67z" />
    <glyph glyph-name="fiveeighths" unicode="&#x215d;" horiz-adv-x="1986" 
d="M371 438q-107 0 -186 45.5t-118 130.5l184 135q55 -117 146 -117q59 0 108.5 41.5t61.5 101.5q3 15 3 30q0 50 -31 81.5t-84 31.5q-65 0 -117 -57l-168 22l170 551h555l-38 -194h-343l-49 -151q35 7 65 7q121 0 199.5 -69.5t78.5 -185.5q0 -32 -6 -66
q-29 -149 -147.5 -243t-283.5 -94zM428 0l977 1434h228l-977 -1434h-228zM1399 296q-3 -13 -3 -28q0 -47 29.5 -77t77.5 -30q56 0 102 39t56 96q3 14 3 27q0 47 -30.5 77t-78.5 30q-56 0 -101 -38.5t-55 -95.5zM1924 715q-10 -56 -46.5 -105.5t-87.5 -80.5q50 -30 76.5 -79
t26.5 -109q0 -23 -5 -50q-26 -135 -147 -226.5t-274 -91.5q-134 0 -218.5 73t-84.5 187q0 34 5 58q14 73 65.5 137.5t125.5 100.5q-67 56 -67 145q0 21 4 41q24 117 128.5 197.5t239.5 80.5q119 0 191.5 -64t72.5 -163q0 -24 -5 -51zM1517 712q-3 -15 -3 -21q0 -34 21 -56
t56 -22q40 0 73 29.5t41 69.5q2 10 2 19q0 33 -21.5 54t-56.5 21q-40 0 -72 -27t-40 -67z" />
    <glyph glyph-name="seveneighths" unicode="&#x215e;" horiz-adv-x="1986" 
d="M266 1434h649l-33 -170l-487 -801h-256l478 775h-389zM428 0l977 1434h228l-977 -1434h-228zM1399 296q-3 -13 -3 -28q0 -47 29.5 -77t77.5 -30q56 0 102 39t56 96q3 14 3 27q0 47 -30.5 77t-78.5 30q-56 0 -101 -38.5t-55 -95.5zM1924 715q-10 -56 -46.5 -105.5
t-87.5 -80.5q50 -30 76.5 -79t26.5 -109q0 -23 -5 -50q-26 -135 -147 -226.5t-274 -91.5q-134 0 -218.5 73t-84.5 187q0 34 5 58q14 73 65.5 137.5t125.5 100.5q-67 56 -67 145q0 21 4 41q24 117 128.5 197.5t239.5 80.5q119 0 191.5 -64t72.5 -163q0 -24 -5 -51zM1517 712
q-3 -15 -3 -21q0 -34 21 -56t56 -22q40 0 73 29.5t41 69.5q2 10 2 19q0 33 -21.5 54t-56.5 21q-40 0 -72 -27t-40 -67z" />
    <glyph glyph-name="uni215F" unicode="&#x215f;" horiz-adv-x="1986" 
d="M560 1434h200l-190 -971h-235l144 742l-160 -79l-54 165zM428 0l977 1434h228l-977 -1434h-228z" />
    <glyph glyph-name="arrowleft" unicode="&#x2190;" horiz-adv-x="1761" 
d="M1708 807v-254h-1133v-238l-481 365l481 364v-237h1133z" />
    </font>
</defs>
</svg>
