<?xml version="1.0" encoding="utf-8"?>
<!-- Generator: Adobe Illustrator 25.0.1, SVG Export Plug-In . SVG Version: 6.00 Build 0)  -->
<svg version="1.1" id="Layer_1" xmlns="http://www.w3.org/2000/svg" xmlns:xlink="http://www.w3.org/1999/xlink" x="0px" y="0px"
	 viewBox="0 0 200 200" style="enable-background:new 0 0 200 200;" xml:space="preserve">
<style type="text/css">
	.st0{fill:#F6A4AC;}
	.st1{fill:none;stroke:#28282A;stroke-width:2.6289;stroke-linecap:round;stroke-linejoin:round;stroke-miterlimit:10;}
	.st2{fill:#D2E0F2;}
	.st3{fill:#FCE5E8;}
</style>
<g>
	<path class="st0" d="M146.4,59.3L146.4,59.3l-0.5-0.2L125,43.3l0.3-0.4c0,0,0-0.1,0.1-0.1c0.3-0.5,0.1-1.2-0.4-1.5
		c-0.3-0.2-0.6-0.2-0.8-0.1c-0.3,0.1-0.5,0.2-0.7,0.5c0,0.1-0.5,0.8-1.3,2c-3,4.7-10.8,17.3-14.3,22.7c-2.9,4.5-6.4,7.1-8.3,8.2
		l-0.4,0.2L99,74.4c-1-1.1-2.6-1.5-3.9-0.9L67.5,85.3c-2.6,1.1-3.8,4.1-2.8,6.7L83.2,138c0.1,0.4,0.3,0.7,0.5,1.1
		c0,0.1,0.1,0.1,0.1,0.2c0.3,0.4,0.6,0.8,1,1.2l14.8,16.1c1.4,1.4,3.3,2.2,5.3,2.2h16.2c0.6,0,1.1-0.5,1.1-1.1v-6.2
		c0-3.8-2.6-7.3-6.2-8.3l-0.3-0.1l-0.1-0.3c-0.5-1.5-2.1-5.8-5.3-14.4l-0.1-0.2l0.1-0.2c1-3,5.2-16,6.7-21c1.1-3.5,1.6-5.8,1-7.9
		l0-0.1l0-0.1c0.6-1.9,3.1-8.6,7.2-13.1c4.6-5,20.3-22.4,22.7-25.1L146.4,59.3z"/>
</g>
<g>
	<polyline class="st1" points="161.8,157.8 153.5,157.8 63,157.8 54.8,157.8 	"/>
	<polyline class="st1" points="71.8,132.5 70,132.5 51.1,132.5 49.4,132.5 	"/>
	<polyline class="st1" points="60.6,119.3 58.9,119.3 39.9,119.3 38.2,119.3 	"/>
	<path class="st2" d="M83.4,104.7c3.7,9.2-5.9,16-5.9,16L65.8,91.6c-0.8-2.1,0.1-4.4,2.2-5.3l6.6-2.8
		C74.5,83.5,79.7,95.5,83.4,104.7z"/>
	<path class="st2" d="M107.8,151.5h13.4v6.2H105c-1.7,0-3.3-0.7-4.5-1.9l-14.8-16.1c-0.4-0.4-0.7-0.8-0.9-1.2
		c4.5-1.2,10.5,0.8,12.3,2.7c1.3,1.3,4.8,5.8,6.9,8.4C104.9,150.8,106.3,151.5,107.8,151.5z"/>
	<path class="st3" d="M147.5,59.6c0,0-18.1,20-23.1,25.5c-5,5.5-7.6,14-7.6,14c-0.3-0.8-0.8-1.6-1.5-2.5c-2.2-3.1-6.3-2.8-9-2.6
		c-2.7,0.2-8.2,1.8-11.1-4.6c-1.9-4.2,0.6-7.9,2.6-9.8c0.6-0.6,1-1.5,1-2.4c0-0.3,0-0.6-0.1-0.9c0,0,5.8-2.5,10.2-9.3
		c4.4-6.8,15.6-24.7,15.6-24.7L147.5,59.6z"/>
	<path class="st1" d="M114.8,143.6c0-0.4-5.6-15.3-5.6-15.3s5.1-15.8,6.9-21.5c1.2-4,1.5-5.9,0.8-7.7c-0.3-0.8-0.8-1.6-1.5-2.5
		c-2.2-3.1-6.3-2.8-9-2.6c-2.7,0.2-8.2,1.8-11.1-4.6c-1.9-4.2,0.6-7.9,2.6-9.8c0.6-0.6,1-1.5,1-2.4c0-0.3,0-0.6-0.1-0.9
		c-0.1-0.2-0.1-0.5-0.3-0.7c-0.6-1-1.9-1.5-3-1l-21,8.9l-6.6,2.8c-2,0.9-3,3.2-2.2,5.3l11.7,29.1l6.8,16.9c0.1,0.3,0.3,0.6,0.5,0.9
		h0c0.2,0.4,0.6,0.8,0.9,1.2l14.8,16.1c1.2,1.2,2.8,1.9,4.5,1.9h16.2v-6.2c0-4.2-3.4-7.6-7.6-7.6h-9"/>
	<path class="st1" d="M84.8,138.6L84.8,138.6c4.5-1.2,10.5,0.8,12.3,2.7c1.3,1.3,4.8,5.8,6.9,8.4c0.9,1.2,2.3,1.9,3.9,1.9h13.4"/>
	<path class="st1" d="M74.5,83.5c0,0,5.2,12,8.9,21.2c3.7,9.2-5.9,16-5.9,16"/>
	<path class="st1" d="M106.2,99.7l-5.3,27.6c-0.3,1.4,0,2.9,0.7,4.2"/>
	<line class="st1" x1="106.7" y1="122.5" x2="110.8" y2="122.5"/>
	<line class="st1" x1="108.3" y1="117" x2="112.4" y2="117"/>
	<line class="st1" x1="109.5" y1="111.6" x2="113.7" y2="111.6"/>
	<line class="st1" x1="111.4" y1="105.9" x2="115.6" y2="105.9"/>
	<path class="st1" d="M147.5,59.6c0,0-18.1,20-23.1,25.5c-5,5.5-7.6,14-7.6,14"/>
	<path class="st1" d="M98.7,76.3c0,0,5.8-2.5,10.2-9.3s15.6-24.7,15.6-24.7"/>
</g>
</svg>
