<?xml version="1.0" encoding="utf-8"?>
<!-- Generator: Adobe Illustrator 25.0.1, SVG Export Plug-In . SVG Version: 6.00 Build 0)  -->
<svg version="1.1" id="Layer_1" xmlns="http://www.w3.org/2000/svg" xmlns:xlink="http://www.w3.org/1999/xlink" x="0px" y="0px"
	 viewBox="0 0 200 200" style="enable-background:new 0 0 200 200;" xml:space="preserve">
<style type="text/css">
	.st0{fill:#D2E0F2;}
	.st1{fill:#B6CDEA;}
	.st2{fill:#F9C7CC;}
	.st3{fill:none;stroke:#28282A;stroke-width:2.6289;stroke-linecap:round;stroke-linejoin:round;stroke-miterlimit:10;}
</style>
<path class="st0" d="M129.8,75.3c-3.4,15.1-0.8,16.8-13.3,29.3c-2,2.5-5.4,3.4-8.4,2.2c0.7,0.7,1,1.6,1,2.6c0,1.8-1.1,3.9-2.8,5.7
	c-1.8,2.3-4.9,3-7.5,1.9c1.5,2.1,0.4,5.2-2.2,7.8c-2.4,2.4-5.6,3.2-7.5,1.8c1.2,1.9,0.4,5-1.9,7.4l-7.8,7.9
	c-2.6,2.6-6.2,3.3-7.9,1.5l-24.6-24.6c-1.8-1.8-1.1-5.3,1.5-7.9l7.7-7.9c2.6-2.6,6.1-3.2,7.9-1.5v-0.2c-2-1.9-1-5.5,1.8-8.2
	c1.8-2.2,4.9-3,7.5-1.8c-1.5-2.1-0.4-5.2,2.2-7.8c2.6-2.6,6.2-3.3,7.9-1.5c-0.3-0.9-0.5-1.8-0.5-2.7c0-1.4,0.4-2.8,1.2-4H129.8z"/>
<path class="st1" d="M144.4,117.4c-0.4,4-4,7-8,6.6c-4,0.4-7.6-2.6-8-6.6c0-3.6,8.1-8.7,7.5-19.8
	C140.2,109.5,144.4,113.9,144.4,117.4z"/>
<path class="st2" d="M139.3,67l-3.3,3.3c0,0,0,0,0,0c-1.5,1.5-3.9,1.6-5.5,0.2c-0.1-0.1-0.2-0.2-0.3-0.3l-9.9-10c0,0,0,0,0,0
	c-0.2-0.2-0.4-0.4-0.6-0.7c-1-1.6-0.8-3.8,0.6-5.2l3.3-3.3c1.6-1.5,4.2-1.4,5.8,0.2l10.1,9.9l-0.1-0.1C141,62.8,141,65.4,139.3,67z"
	/>
<path class="st3" d="M130.5,70.6v1.9c-4.5,17.8-0.8,18.9-14,32.1c-2,2.5-5.4,3.4-8.4,2.2c0.7,0.7,1,1.6,1,2.6c0,1.8-1.1,3.9-2.8,5.7
	c-1.8,2.3-4.9,3-7.5,1.9c1.5,2.1,0.4,5.2-2.2,7.8c-2.4,2.4-5.6,3.2-7.5,1.8c1.2,1.9,0.4,5-1.9,7.4l-7.8,7.9
	c-2.6,2.6-6.2,3.3-7.9,1.5l-24.6-24.6c-1.8-1.8-1.1-5.3,1.5-7.9l7.7-7.9c2.6-2.6,6.1-3.2,7.9-1.5v-0.2c-2-1.9-1-5.5,1.8-8.2
	c1.8-2.2,4.9-3,7.5-1.8c-1.5-2.1-0.4-5.2,2.2-7.8c2.6-2.6,6.2-3.3,7.9-1.5c-0.3-0.9-0.5-1.8-0.5-2.7c0-2.2,1-4.3,2.8-5.7
	c13.4-13.5,12.8-9.1,32.1-14h1.9c0.2,0.2,0.3,0.5,0.6,0.7c0,0,0,0,0,0l9.9,10C130.3,70.4,130.4,70.5,130.5,70.6z"/>
<path class="st3" d="M144.4,117.4c-0.4,4-4,7-8,6.6c-4,0.4-7.6-2.6-8-6.6c0-3.6,8.1-8.7,7.5-19.8
	C140.2,109.5,144.4,113.9,144.4,117.4z"/>
<g>
	<g>
		<path class="st3" d="M139.3,67l-3.3,3.3c0,0,0,0,0,0c-1.5,1.5-3.9,1.6-5.5,0.2c-0.1-0.1-0.2-0.2-0.3-0.3l-9.9-10c0,0,0,0,0,0
			c-0.2-0.2-0.4-0.4-0.6-0.7c-1-1.6-0.8-3.8,0.6-5.2l3.3-3.3c1.6-1.5,4.2-1.4,5.8,0.2l10.1,9.9l-0.1-0.1C141,62.8,141,65.4,139.3,67
			z"/>
		<path class="st3" d="M119.7,59.6h-1.9c-19.3,4.9-18.7,0.5-32.1,14c-1.8,1.4-2.8,3.5-2.8,5.7c0,0.9,0.2,1.8,0.5,2.7
			c-1.8-1.8-5.3-1.1-7.9,1.5c-2.6,2.6-3.6,5.7-2.2,7.8c-2.6-1.2-5.7-0.4-7.5,1.8c-2.7,2.7-3.7,6.3-1.8,8.2v0.2
			c-1.8-1.8-5.4-1.1-7.9,1.5l-7.7,7.9c-2.6,2.6-3.3,6.2-1.5,7.9l24.6,24.6c1.8,1.8,5.3,1.1,7.9-1.5l7.8-7.9c2.3-2.4,3.2-5.5,1.9-7.4
			c-0.2-0.1-0.3-0.2-0.4-0.4V126c0.2,0.2,0.3,0.3,0.4,0.5c1.9,1.3,5.1,0.6,7.5-1.8c2.6-2.6,3.6-5.7,2.1-7.8c2.6,1.2,5.7,0.4,7.5-1.8
			c1.8-1.8,2.8-3.9,2.8-5.7c0-1-0.3-1.9-1-2.6c3,1.2,6.4,0.3,8.4-2.2c13.2-13.2,9.5-14.4,14-32.1v-1.9"/>
		<line class="st3" x1="98.7" y1="97.4" x2="108.2" y2="106.9"/>
		<line class="st3" x1="89" y1="107" x2="98.5" y2="116.5"/>
		<line class="st3" x1="79.4" y1="116.7" x2="88.9" y2="126.2"/>
		<line class="st3" x1="83.4" y1="81.9" x2="88.2" y2="86.7"/>
		<line class="st3" x1="73.8" y1="91.6" x2="78.6" y2="96.3"/>
		<line class="st3" x1="64" y1="101.4" x2="68.8" y2="106.1"/>
		<path class="st3" d="M144.4,117.4c-0.4,4-4,7-8,6.6c-4,0.4-7.6-2.6-8-6.6c0-3.6,8.1-8.7,7.5-19.8
			C140.2,109.5,144.4,113.9,144.4,117.4z"/>
	</g>
</g>
</svg>
